<?xml version="1.0" encoding="UTF-8"?>
<!DOCTYPE svg PUBLIC "-//W3C//DTD SVG 1.1//EN" "http://www.w3.org/Graphics/SVG/1.1/DTD/svg11.dtd">
<!-- Creator: CorelDRAW -->
<svg xmlns="http://www.w3.org/2000/svg" xml:space="preserve" width="10.5831mm" height="7.0621mm" version="1.1" style="shape-rendering:geometricPrecision; text-rendering:geometricPrecision; image-rendering:optimizeQuality; fill-rule:evenodd; clip-rule:evenodd"
viewBox="0 0 37.13 24.77"
 xmlns:xlink="http://www.w3.org/1999/xlink"
 xmlns:xodm="http://www.corel.com/coreldraw/odm/2003">
 <defs>
  <style type="text/css">
   <![CDATA[
    .fil4 {fill:#332D2B;fill-rule:nonzero}
    .fil1 {fill:#E6232A;fill-rule:nonzero}
    .fil2 {fill:#179946;fill-rule:nonzero}
    .fil0 {fill:#232323;fill-rule:nonzero}
    .fil3 {fill:#2E375A;fill-rule:nonzero}
   ]]>
  </style>
 </defs>
 <g id="Layer_x0020_1">
  <metadata id="CorelCorpID_0Corel-Layer"/>
  <path class="fil0" d="M34.3 0.31c1.48,0 2.68,1.2 2.68,2.68 0,1.48 -1.2,2.68 -2.68,2.68 -1.48,0 -2.68,-1.2 -2.68,-2.68 0,-1.48 1.2,-2.68 2.68,-2.68z"/>
  <path class="fil1" d="M28.59 0c1.16,0 2.24,0.35 3.15,0.94 -0.45,0.56 -0.71,1.27 -0.71,2.05 0,1.81 1.46,3.28 3.27,3.28 -0.27,2.91 -2.72,5.19 -5.7,5.19 -3.16,0 -5.73,-2.56 -5.73,-5.73 0,-3.16 2.56,-5.73 5.73,-5.73z"/>
  <path class="fil2" d="M37.13 19.84l-5.69 0 0 -8.45c1.93,-0.97 3.3,-2.91 3.47,-5.18 0.95,-0.18 1.75,-0.76 2.22,-1.56l0 15.19z"/>
  <path class="fil3" d="M20.1 19.84l5.56 0 0 -8.5c-2.03,-1.06 -3.41,-3.18 -3.41,-5.62 0,-2.33 1.26,-4.37 3.13,-5.47l-5.28 0 -20.1 19.58 5.43 0 14.67 -14.05 0 14.05z"/>
  <path class="fil4" d="M0.1 24.74l0 -1.85 0.6 0c0.23,0 0.37,0.01 0.44,0.03 0.11,0.03 0.19,0.09 0.26,0.18 0.07,0.09 0.11,0.21 0.11,0.36 0,0.11 -0.02,0.21 -0.06,0.29 -0.04,0.08 -0.09,0.14 -0.16,0.18 -0.06,0.04 -0.13,0.07 -0.19,0.09 -0.09,0.02 -0.22,0.03 -0.39,0.03l-0.24 0 0 0.7 -0.37 0zm0.37 -1.53l0 0.52 0.2 0c0.15,0 0.24,-0.01 0.29,-0.03 0.05,-0.02 0.09,-0.05 0.12,-0.09 0.03,-0.04 0.04,-0.09 0.04,-0.14 0,-0.07 -0.02,-0.12 -0.06,-0.17 -0.04,-0.04 -0.09,-0.07 -0.15,-0.08 -0.04,-0.01 -0.13,-0.01 -0.27,-0.01l-0.18 0zm1.76 1.53l0 -1.53 -0.55 0 0 -0.31 1.47 0 0 0.31 -0.55 0 0 1.53 -0.37 0zm3.44 0l-0.4 0 -0.16 -0.42 -0.74 0 -0.15 0.42 -0.4 0 0.72 -1.85 0.39 0 0.74 1.85zm-0.69 -0.73l-0.26 -0.68 -0.25 0.68 0.5 0zm0.88 -1.12l0.37 0 0 1c0,0.16 0,0.26 0.01,0.31 0.02,0.08 0.05,0.14 0.11,0.18 0.06,0.05 0.14,0.07 0.25,0.07 0.11,0 0.19,-0.02 0.24,-0.06 0.05,-0.04 0.09,-0.1 0.1,-0.16 0.01,-0.06 0.02,-0.17 0.02,-0.31l0 -1.02 0.37 0 0 0.97c0,0.22 -0.01,0.38 -0.03,0.47 -0.02,0.09 -0.06,0.17 -0.11,0.23 -0.05,0.06 -0.13,0.11 -0.22,0.15 -0.09,0.04 -0.21,0.06 -0.36,0.06 -0.18,0 -0.31,-0.02 -0.4,-0.06 -0.09,-0.04 -0.16,-0.09 -0.22,-0.16 -0.05,-0.06 -0.09,-0.13 -0.11,-0.2 -0.02,-0.11 -0.04,-0.26 -0.04,-0.47l0 -0.99zm2.28 1.85l0 -1.53 -0.55 0 0 -0.31 1.47 0 0 0.31 -0.55 0 0 1.53 -0.37 0zm1.04 -0.91c0,-0.19 0.03,-0.35 0.08,-0.47 0.04,-0.09 0.1,-0.18 0.17,-0.25 0.07,-0.07 0.15,-0.13 0.24,-0.17 0.11,-0.05 0.25,-0.07 0.4,-0.07 0.27,0 0.49,0.08 0.65,0.25 0.16,0.17 0.24,0.4 0.24,0.7 0,0.3 -0.08,0.53 -0.24,0.7 -0.16,0.17 -0.38,0.25 -0.65,0.25 -0.27,0 -0.49,-0.08 -0.65,-0.25 -0.16,-0.17 -0.24,-0.4 -0.24,-0.69zm0.38 -0.01c0,0.21 0.05,0.37 0.14,0.48 0.1,0.11 0.22,0.16 0.37,0.16 0.15,0 0.27,-0.05 0.37,-0.16 0.09,-0.11 0.14,-0.27 0.14,-0.48 0,-0.21 -0.05,-0.37 -0.14,-0.47 -0.09,-0.1 -0.22,-0.16 -0.37,-0.16 -0.15,0 -0.28,0.05 -0.37,0.16 -0.09,0.11 -0.14,0.26 -0.14,0.48zm1.7 0.92l0 -1.85 0.6 0c0.23,0 0.37,0.01 0.44,0.03 0.11,0.03 0.19,0.09 0.26,0.18 0.07,0.09 0.11,0.21 0.11,0.36 0,0.11 -0.02,0.21 -0.06,0.29 -0.04,0.08 -0.09,0.14 -0.16,0.18 -0.06,0.04 -0.13,0.07 -0.19,0.09 -0.09,0.02 -0.22,0.03 -0.39,0.03l-0.24 0 0 0.7 -0.37 0zm0.37 -1.53l0 0.52 0.2 0c0.15,0 0.25,-0.01 0.29,-0.03 0.05,-0.02 0.09,-0.05 0.12,-0.09 0.03,-0.04 0.04,-0.09 0.04,-0.14 0,-0.07 -0.02,-0.12 -0.06,-0.17 -0.04,-0.04 -0.09,-0.07 -0.15,-0.08 -0.04,-0.01 -0.13,-0.01 -0.27,-0.01l-0.18 0zm1.36 1.53l0 -1.83 0.37 0 0 1.52 0.93 0 0 0.31 -1.3 0zm3.23 0l-0.41 0 -0.16 -0.42 -0.74 0 -0.15 0.42 -0.39 0 0.72 -1.85 0.39 0 0.74 1.85zm-0.69 -0.73l-0.25 -0.68 -0.25 0.68 0.5 0zm0.79 0.13l0.36 -0.03c0.02,0.12 0.07,0.21 0.13,0.27 0.07,0.06 0.16,0.09 0.27,0.09 0.12,0 0.21,-0.02 0.27,-0.08 0.06,-0.05 0.09,-0.11 0.09,-0.18 0,-0.04 -0.01,-0.08 -0.04,-0.11 -0.02,-0.03 -0.07,-0.06 -0.13,-0.08 -0.04,-0.01 -0.14,-0.04 -0.3,-0.08 -0.2,-0.05 -0.34,-0.11 -0.42,-0.18 -0.11,-0.1 -0.17,-0.23 -0.17,-0.37 0,-0.09 0.03,-0.18 0.08,-0.26 0.05,-0.08 0.13,-0.14 0.23,-0.19 0.1,-0.04 0.22,-0.06 0.36,-0.06 0.23,0 0.41,0.05 0.52,0.15 0.12,0.1 0.18,0.24 0.18,0.41l-0.37 0.02c-0.02,-0.1 -0.05,-0.16 -0.1,-0.21 -0.05,-0.04 -0.13,-0.06 -0.24,-0.06 -0.11,0 -0.19,0.02 -0.25,0.07 -0.04,0.03 -0.06,0.07 -0.06,0.11 0,0.04 0.02,0.08 0.06,0.11 0.05,0.04 0.16,0.08 0.34,0.12 0.18,0.04 0.32,0.09 0.4,0.13 0.09,0.05 0.15,0.11 0.2,0.19 0.05,0.08 0.07,0.18 0.07,0.29 0,0.11 -0.03,0.2 -0.09,0.3 -0.06,0.09 -0.14,0.16 -0.25,0.21 -0.11,0.04 -0.24,0.07 -0.4,0.07 -0.23,0 -0.41,-0.05 -0.54,-0.16 -0.12,-0.11 -0.2,-0.26 -0.22,-0.47zm2.23 0.6l0 -1.53 -0.55 0 0 -0.31 1.47 0 0 0.31 -0.55 0 0 1.53 -0.37 0zm1.15 -1.85l0.37 0 0 1.85 -0.37 0 0 -1.85zm0.73 1.85l0 -1.85 0.37 0 0 0.82 0.75 -0.82 0.5 0 -0.69 0.72 0.73 1.13 -0.48 0 -0.51 -0.87 -0.3 0.31 0 0.56 -0.37 0zm2.56 -1.85l0.37 0 0 1.85 -0.37 0 0 -1.85zm0.73 1.85l0 -1.85 0.36 0 0.76 1.23 0 -1.23 0.35 0 0 1.85 -0.37 0 -0.74 -1.2 0 1.2 -0.35 0zm1.86 -1.85l0.68 0c0.15,0 0.27,0.01 0.35,0.04 0.11,0.03 0.2,0.09 0.28,0.17 0.08,0.08 0.14,0.18 0.18,0.3 0.04,0.12 0.06,0.26 0.06,0.44 0,0.15 -0.02,0.28 -0.06,0.39 -0.05,0.13 -0.11,0.24 -0.2,0.33 -0.07,0.06 -0.15,0.11 -0.26,0.15 -0.08,0.03 -0.19,0.04 -0.33,0.04l-0.7 0 0 -1.85zm0.37 0.31l0 1.22 0.28 0c0.1,0 0.18,-0.01 0.23,-0.02 0.06,-0.02 0.11,-0.04 0.15,-0.08 0.04,-0.04 0.07,-0.1 0.1,-0.18 0.02,-0.08 0.04,-0.2 0.04,-0.34 0,-0.14 -0.01,-0.25 -0.04,-0.33 -0.03,-0.08 -0.06,-0.14 -0.11,-0.18 -0.05,-0.04 -0.1,-0.07 -0.17,-0.09 -0.05,-0.01 -0.15,-0.02 -0.31,-0.02l-0.17 0zm1.41 0.62c0,-0.19 0.03,-0.35 0.09,-0.47 0.04,-0.09 0.1,-0.18 0.17,-0.25 0.07,-0.07 0.15,-0.13 0.24,-0.17 0.12,-0.05 0.25,-0.07 0.4,-0.07 0.27,0 0.49,0.08 0.65,0.25 0.16,0.17 0.24,0.4 0.24,0.7 0,0.3 -0.08,0.53 -0.24,0.7 -0.16,0.17 -0.38,0.25 -0.65,0.25 -0.27,0 -0.49,-0.08 -0.65,-0.25 -0.16,-0.17 -0.24,-0.4 -0.24,-0.69zm0.38 -0.01c0,0.21 0.05,0.37 0.14,0.48 0.1,0.11 0.22,0.16 0.37,0.16 0.15,0 0.27,-0.05 0.37,-0.16 0.09,-0.11 0.14,-0.27 0.14,-0.48 0,-0.21 -0.05,-0.37 -0.14,-0.47 -0.09,-0.1 -0.22,-0.16 -0.37,-0.16 -0.15,0 -0.28,0.05 -0.37,0.16 -0.09,0.11 -0.14,0.26 -0.14,0.48zm1.7 0.92l0 -1.85 0.36 0 0.75 1.23 0 -1.23 0.35 0 0 1.85 -0.37 0 -0.74 -1.2 0 1.2 -0.35 0zm1.86 0l0 -1.85 1.37 0 0 0.31 -0.99 0 0 0.41 0.93 0 0 0.31 -0.93 0 0 0.5 1.03 0 0 0.31 -1.4 0zm1.62 -0.6l0.36 -0.03c0.02,0.12 0.07,0.21 0.13,0.27 0.07,0.06 0.16,0.09 0.27,0.09 0.12,0 0.21,-0.02 0.27,-0.08 0.06,-0.05 0.09,-0.11 0.09,-0.18 0,-0.04 -0.01,-0.08 -0.04,-0.11 -0.02,-0.03 -0.07,-0.06 -0.13,-0.08 -0.04,-0.01 -0.14,-0.04 -0.3,-0.08 -0.2,-0.05 -0.34,-0.11 -0.42,-0.18 -0.11,-0.1 -0.17,-0.23 -0.17,-0.37 0,-0.09 0.03,-0.18 0.08,-0.26 0.05,-0.08 0.13,-0.14 0.23,-0.19 0.1,-0.04 0.22,-0.06 0.36,-0.06 0.23,0 0.41,0.05 0.52,0.15 0.12,0.1 0.18,0.24 0.18,0.41l-0.37 0.02c-0.02,-0.1 -0.05,-0.16 -0.1,-0.21 -0.05,-0.04 -0.13,-0.06 -0.24,-0.06 -0.11,0 -0.19,0.02 -0.25,0.07 -0.04,0.03 -0.06,0.07 -0.06,0.11 0,0.04 0.02,0.08 0.06,0.11 0.05,0.04 0.16,0.08 0.34,0.12 0.18,0.04 0.31,0.09 0.4,0.13 0.09,0.05 0.15,0.11 0.2,0.19 0.05,0.08 0.07,0.18 0.07,0.29 0,0.11 -0.03,0.2 -0.09,0.3 -0.06,0.09 -0.14,0.16 -0.25,0.21 -0.11,0.04 -0.24,0.07 -0.4,0.07 -0.23,0 -0.41,-0.05 -0.54,-0.16 -0.12,-0.11 -0.2,-0.26 -0.22,-0.47zm1.8 -1.25l0.37 0 0 1.85 -0.37 0 0 -1.85zm2.39 1.85l-0.4 0 -0.16 -0.42 -0.74 0 -0.15 0.42 -0.4 0 0.72 -1.85 0.39 0 0.74 1.85zm-0.69 -0.73l-0.25 -0.68 -0.25 0.68 0.5 0z"/>
 </g>
</svg>
