<?xml version="1.0" encoding="UTF-8"?>
<!DOCTYPE svg PUBLIC "-//W3C//DTD SVG 1.1//EN" "http://www.w3.org/Graphics/SVG/1.1/DTD/svg11.dtd">
<!-- Creator: CorelDRAW -->
<svg xmlns="http://www.w3.org/2000/svg" xml:space="preserve" width="11.1879mm" height="3.5094mm" version="1.1" style="shape-rendering:geometricPrecision; text-rendering:geometricPrecision; image-rendering:optimizeQuality; fill-rule:evenodd; clip-rule:evenodd"
viewBox="0 0 37 11.61"
 xmlns:xlink="http://www.w3.org/1999/xlink"
 xmlns:xodm="http://www.corel.com/coreldraw/odm/2003">
 <defs>
  <style type="text/css">
   <![CDATA[
    .fil0 {fill:#E12830;fill-rule:nonzero}
   ]]>
  </style>
 </defs>
 <g id="Layer_x0020_1">
  <metadata id="CorelCorpID_0Corel-Layer"/>
  <g>
   <path class="fil0" d="M25.92 0.89c0,0 -0.69,0.28 -1.5,1.17 -0.81,0.89 -1.28,1.89 -0.93,2.15 0.13,0.1 0.44,0.12 1,-0.38 0.52,-0.45 0.92,-1.01 1.18,-1.64 0.36,-0.88 0.25,-1.28 0.25,-1.29l0 -0zm4.41 1.6c-0.9,-0.46 -1.55,-1.02 -2.23,-1.37 -0.65,-0.33 -1.07,-0.47 -1.6,-0.4 -0.07,0.01 -0.15,0.03 -0.22,0.05 0,0 0.27,0.92 -0.81,2.48 -1.09,1.57 -2.08,1.56 -2.36,1.13 -0.29,-0.46 0.09,-1.39 0.72,-2.21 0.67,-0.87 1.84,-1.59 1.84,-1.59 0,0 -0.37,-0.23 -1.29,0.29 -0.89,0.5 -2.43,1.71 -3.86,3.74 -1.43,2.03 -1.71,3.15 -1.91,4.02 -0.21,0.88 -0.02,1.82 0.96,1.82 0.97,0 2.11,-1.49 2.43,-2 0.59,-0.96 0.98,-2.44 0.17,-2.24 -0.4,0.1 -0.72,0.54 -0.92,0.97 -0.13,0.27 -0.23,0.56 -0.29,0.85 -0.28,0.12 -0.55,0.27 -0.79,0.46 -0.27,0.2 -0.52,0.42 -0.75,0.66 0,0 0,-0.7 0.56,-1.84 0.56,-1.14 1.59,-1.66 2.17,-1.71 0.53,-0.04 1.21,0.4 0.63,2.04 -0.58,1.64 -2.29,3.64 -4.08,3.66 -1.66,0.02 -2.74,-2.09 -0.44,-5.77 2.55,-4.07 5.54,-5.32 6.51,-5.46 0.97,-0.14 1.29,0.29 1.29,0.29 0.58,-0.24 1.22,-0.34 1.85,-0.3 1.19,0.08 2.1,0.92 3.31,1.51 -0.31,0.3 -0.61,0.62 -0.89,0.91zm5.33 -1.37c-0.82,0.53 -1.96,1 -3.05,0.9 -0.28,0.29 -0.57,0.62 -0.87,0.98 1.89,0.37 3.55,-0.8 4.44,-1.8 0.32,-0.36 0.6,-0.76 0.82,-1.18 -0.4,0.42 -0.85,0.79 -1.34,1.1l0 0zm-2.52 5.34c0.01,-0.02 0.03,-0.05 0.04,-0.08 -0.01,-0.09 -0.08,-0.16 -0.17,-0.17 -0.18,-0.01 -0.43,0.03 -1.07,0.74 -0.54,0.59 -1,1.24 -1.37,1.95 -0.37,0.67 -0.52,1.18 -0.31,1.31 0.07,0.04 0.15,0.04 0.22,0.02 0.14,-0.03 0.31,-0.17 0.55,-0.46 0.12,-0.13 0.25,-0.33 0.4,-0.54 0.43,-0.58 1.5,-2.41 1.71,-2.78zm-6.7 0.78c0.11,-0.28 0.25,-0.83 -0.04,-1.05 -0.31,-0.23 -1.09,0.31 -1.09,0.87 -0,0.57 0.55,0.82 0.68,0.86 0.08,0.02 0.1,0.02 0.14,-0.04 0.12,-0.2 0.22,-0.41 0.31,-0.63zm-0.59 1.03c-0.19,-0.09 -0.37,-0.21 -0.54,-0.34 -0.16,-0.14 -0.3,-0.3 -0.4,-0.49 -0.01,-0.02 -0.02,-0 -0.03,0.01 -0.01,0.02 -0.06,0.06 -0.48,0.67 -0.42,0.61 -1.05,1.87 -0.48,2.09 0.37,0.14 0.99,-0.51 1.32,-0.94 0.23,-0.3 0.44,-0.62 0.62,-0.95 0.02,-0.04 0,-0.05 -0.02,-0.05l-0 0zm6.56 1.46c-0.16,0.25 -0.34,0.73 0.18,0.43 0.63,-0.37 1.53,-1.73 1.53,-1.73l0.41 0c-0.37,0.57 -0.79,1.11 -1.24,1.62 -0.64,0.71 -1.42,1.35 -1.97,1.29 -0.64,-0.08 -0.44,-0.92 -0.44,-0.92 0,0 -0.92,0.98 -1.56,0.91 -0.86,-0.1 -0.6,-1.16 -0.6,-1.16 0,0 -0.97,1.19 -1.63,1.16 -1.04,-0.06 -0.78,-1.32 -0.49,-2.21 0.15,-0.48 0.3,-0.85 0.3,-0.85 0,0 -0.1,0.03 -0.32,0.06 -0.12,0.02 -0.33,0.03 -0.33,0.03 0,0 -0.43,0.76 -0.78,1.22 -0.35,0.46 -1.82,2.04 -2.68,1.72 -0.8,-0.29 -0.54,-1.52 -0.07,-2.49 0.68,-1.42 2.59,-3.46 3.69,-3.19 1.14,0.28 0.03,2.36 0.03,2.36 0,0 0,0.01 0.01,0.01 0.02,0.01 0.08,0.02 0.22,-0.01 0.14,-0.03 0.28,-0.07 0.42,-0.12 0,0 1.15,-2.41 2.42,-3.98 1.27,-1.57 3.8,-4.28 4.79,-3.63 0.24,0.16 0.13,0.72 -0.19,1.39 -0.15,0.05 -0.3,0.09 -0.45,0.12 0.22,-0.4 0.36,-0.73 0.41,-0.97 0.15,-0.81 -1.75,0.9 -3.11,2.75 -0.82,1.11 -1.54,2.29 -2.17,3.51 0.25,-0.15 0.48,-0.32 0.7,-0.5 0.61,-0.5 1.18,-1.04 1.72,-1.61 0.52,-0.53 1.01,-1.1 1.47,-1.69 0.14,-0.01 0.29,-0.02 0.43,-0.04 -0.5,0.67 -1.04,1.31 -1.62,1.91 -0.54,0.55 -1.13,1.14 -1.64,1.56 -0.45,0.39 -0.93,0.74 -1.44,1.07 0,0 -1.19,2.39 -0.54,2.55 0.38,0.09 1.13,-1.06 1.13,-1.06 0,0 0.98,-1.49 1.57,-2.17 0.8,-0.91 1.5,-1.44 2.19,-1.45 0.4,-0.01 0.64,0.42 0.64,0.42l0.19 -0.29 1.17 0c0,0 -2.18,3.7 -2.35,3.98l0 0zm3.25 -8.61c-0.82,0.53 -1.96,1 -3.05,0.9 -0.28,0.29 -0.57,0.62 -0.87,0.98 1.89,0.37 3.55,-0.8 4.44,-1.8 0.32,-0.36 0.6,-0.76 0.82,-1.18 -0.4,0.42 -0.85,0.79 -1.34,1.1zm-16.39 1.81l-1.11 0 -0.63 1.01 1.11 0 0.63 -1.01zm-5.26 3.51c0.47,-0.65 1.78,-2.92 1.78,-2.92 -0.01,-0.09 -0.08,-0.16 -0.17,-0.17 -0.18,-0.01 -0.48,0.05 -1.08,0.8 -0.6,0.75 -1.06,1.34 -1.4,1.96 -0.37,0.68 -0.53,1.15 -0.32,1.28 0.07,0.03 0.15,0.04 0.22,0.02 0.14,-0.04 0.32,-0.17 0.57,-0.46 0.12,-0.13 0.25,-0.31 0.4,-0.52zm-5.95 -3.07c-0.31,-0.23 -1.09,0.31 -1.09,0.86 -0,0.57 0.7,0.74 0.79,0.75 0.03,0 0.05,-0 0.08,-0.02 0.02,-0.01 0.03,-0.02 0.04,-0.04 0.08,-0.16 0.16,-0.33 0.22,-0.5 0.11,-0.28 0.24,-0.83 -0.04,-1.05zm-0.46 1.96c-0.21,-0.07 -0.41,-0.16 -0.6,-0.28 -0.18,-0.12 -0.33,-0.28 -0.43,-0.48 -0.01,-0.02 -0.02,-0 -0.03,0.01 -0.01,0.02 -0.07,0.09 -0.49,0.71 -0.42,0.61 -1.04,1.87 -0.46,2.08 0.37,0.14 0.99,-0.51 1.33,-0.94 0.25,-0.34 0.49,-0.69 0.7,-1.05 0.01,-0.04 0,-0.05 -0.02,-0.05l-0 -0zm9.06 0.38l0.41 0c0,0 -2.04,2.95 -3.19,2.81 -0.64,-0.07 -0.45,-0.87 -0.45,-0.87 0,0 -0.9,1.06 -1.73,0.84 -0.75,-0.19 -0.27,-1.44 -0.27,-1.44 -0.08,0.03 -1.71,1.87 -2.86,1.43 -1.2,-0.46 -0.58,-2 -0.35,-2.46 0.19,-0.39 0.41,-0.77 0.41,-0.77 0,0 -0.18,0.05 -0.3,0.08 -0.12,0.03 -0.29,0.06 -0.29,0.06 0,0 -0.57,0.92 -0.91,1.38 -0.35,0.46 -1.82,2.04 -2.68,1.72 -0.87,-0.31 -0.65,-1.53 -0.16,-2.49 0.79,-1.56 2.66,-3.48 3.79,-3.19 1.14,0.29 0.2,2.14 0.2,2.14 0,0 0.23,0.03 0.77,-0.34 0.78,-0.53 1.81,-1.97 2.93,-1.8 0.53,0.08 1.02,0.62 0.35,1.64 -0.21,0.33 -0.57,0.62 -0.85,0.33 -0.17,-0.18 -0.02,-0.51 0.16,-0.74 0.14,-0.19 0.37,-0.29 0.6,-0.28 0,0 0.18,-0.42 -0.29,-0.41 -0.38,0.01 -1.34,0.89 -1.89,1.79 -0.5,0.82 -1.25,2.22 -0.5,2.53 0.7,0.28 2.02,-1.29 2.63,-2.11 0.61,-0.82 2.01,-2.69 3.18,-2.76 0.4,-0.03 0.64,0.34 0.64,0.34l0.14 -0.21 1.17 0c0,0 -2.21,3.68 -2.38,3.96 -0.14,0.22 -0.32,0.71 0.18,0.43 0.5,-0.27 1.53,-1.61 1.53,-1.61zm-0.64 5.89c-0.86,-0.6 -1.89,-0.9 -2.94,-0.86 -0.58,0.02 -1.11,0.3 -1.44,0.78 -0.45,-0.78 -1.33,-1.26 -2.69,-1.25 -2.2,0.03 -4.39,1.04 -6.12,1.04 -1.66,0 -2.87,-1.04 -2.83,-2.9 0.07,-3.25 2.82,-6.18 4.87,-7.5 1.18,-0.76 2.17,-0.98 2.82,-0.91 0.47,0.05 1.04,0.6 0.68,1.4 -0.53,1.17 -1.25,1.08 -1.22,0.52 0.02,-0.37 0.26,-0.59 0.44,-0.72 0.12,-0.08 0.32,-0.1 0.43,-0.1 0.1,-0.09 0.18,-0.73 -0.66,-0.52 -0.84,0.21 -1.87,1.04 -2.84,2.11 -0.97,1.07 -2.48,3.1 -2.86,5.23 -0.17,0.99 -0.06,2.79 2.28,2.77 1.98,-0.02 4.91,-1.32 7.6,-1.3 1.04,0.01 1.95,0.29 2.66,0.73 0.7,0.43 1.53,1.05 1.82,1.48l-0 -0z"/>
  </g>
 </g>
</svg>
