<?xml version="1.0" encoding="UTF-8"?>
<!DOCTYPE svg PUBLIC "-//W3C//DTD SVG 1.1//EN" "http://www.w3.org/Graphics/SVG/1.1/DTD/svg11.dtd">
<!-- Creator: CorelDRAW -->
<svg xmlns="http://www.w3.org/2000/svg" xml:space="preserve" width="14.5208mm" height="2.6385mm" version="1.1" style="shape-rendering:geometricPrecision; text-rendering:geometricPrecision; image-rendering:optimizeQuality; fill-rule:evenodd; clip-rule:evenodd"
viewBox="0 0 50.96 9.26"
 xmlns:xlink="http://www.w3.org/1999/xlink"
 xmlns:xodm="http://www.corel.com/coreldraw/odm/2003">
 <defs>
  <style type="text/css">
   <![CDATA[
    .fil1 {fill:#E42E30;fill-rule:nonzero}
    .fil0 {fill:#156FB7;fill-rule:nonzero}
   ]]>
  </style>
 </defs>
 <g id="Layer_x0020_1">
  <metadata id="CorelCorpID_0Corel-Layer"/>
  <path class="fil0" d="M0.98 5.55c-0.11,1.07 -0.98,0.9 -0.98,0.9l0.08 0.46 3.03 0 0.14 -0.44c-0.94,0.03 -0.67,-0.74 -0.67,-0.74l0.77 -4.32c0.12,-0.65 0.92,-0.51 0.92,-0.51l-0.08 -0.48 -3.02 0 -0.17 0.47c0,0 0.82,-0.1 0.72,0.61l-0.75 4.12 0 -0.05z"/>
  <path class="fil0" d="M5.56 2.31l0.11 -0.57 -2.03 0.29 -0.06 0.35c0,0 0.69,-0.19 0.45,0.8l-0.52 2.86 1.37 0 0.55 -3c0,0 0.05,-0.43 0.59,-0.44 0,0 0.6,0.01 0.4,0.89l-0.47 2.57 2.03 -0.27 0.06 -0.34c0,0 -0.72,0.14 -0.5,-0.55l0.33 -1.9c0,0 0.16,-1.09 -0.48,-1.26 0,0 -0.73,-0.33 -1.82,0.58z"/>
  <path class="fil0" d="M10.07 6.07c0,0 -1.09,0.18 -1.58,-0.32 0,0 -0.87,-0.71 -0.03,-2.47 0.84,-1.75 2.71,-1.52 2.71,-1.52l0.1 -0.56c0,0 0.09,-0.5 -0.7,-0.41l0.11 -0.38 2.16 -0.29 -0.88 4.8c0,0 -0.19,0.59 0.7,0.52l-0.05 0.33 -2.2 0.31 0.68 -3.77c0,0 -0.77,-0.21 -1.24,1.01 0,0 -0.87,2.25 0.37,2.4l-0.05 0.33 -0.09 0.03z"/>
  <path class="fil0" d="M15.21 2.11c0,0 -0.62,-0.25 -0.98,1.6 -0.37,1.89 0.29,1.97 0.29,1.97 0,0 0.72,0.28 1.05,-1.58 0.27,-1.55 -0.04,-1.97 -0.36,-1.99zm-0.05 -0.51c1.22,0.01 2.08,1.04 1.94,2.31 -0.15,1.27 -1.26,2.29 -2.48,2.29 -1.22,-0.01 -2.09,-1.04 -1.94,-2.31 0.15,-1.27 1.26,-2.29 2.48,-2.29z"/>
  <path class="fil0" d="M22.19 2.11c0,0 -0.63,-0.25 -0.98,1.6 -0.37,1.89 0.29,1.97 0.29,1.97 0,0 0.72,0.28 1.05,-1.58 0.28,-1.55 -0.03,-1.97 -0.35,-1.99zm-0.06 -0.51c1.22,0.01 2.09,1.04 1.94,2.31 -0.15,1.27 -1.26,2.29 -2.47,2.29 -1.22,-0.01 -2.08,-1.04 -1.94,-2.31 0.15,-1.27 1.26,-2.29 2.47,-2.29z"/>
  <path class="fil0" d="M26.99 2.11c0,0 -0.63,-0.25 -0.98,1.6 -0.36,1.89 0.29,1.97 0.29,1.97 0,0 0.72,0.28 1.05,-1.58 0.27,-1.55 -0.04,-1.97 -0.36,-1.99zm-0.06 -0.51c1.22,0.01 2.09,1.04 1.94,2.31 -0.15,1.27 -1.26,2.29 -2.47,2.29 -1.22,-0.01 -2.09,-1.04 -1.94,-2.31 0.15,-1.27 1.26,-2.29 2.47,-2.29z"/>
  <path class="fil0" d="M19.33 2.27c0,0 0.02,0.11 -0.42,2.28 -0.44,2.17 -0.89,2.8 -0.89,2.8 -1.09,2.19 -2.78,1.91 -2.78,1.91 -0.81,0 -1.52,-0.74 -1.52,-1.48 0,-0.75 0.65,-1.33 1.46,-1.33l1.68 0c0,0 0.03,-0.02 -0.11,0.46l-1.61 0c-0.56,0 -0.91,0.54 -0.91,0.91 0,0.45 0.5,0.94 0.99,0.94 0,0 0.49,0.06 0.84,-0.12 0.62,-0.31 0.94,-1.28 0.94,-1.28 0.21,-0.45 0.51,-2.15 0.51,-2.13 0,0 0.18,-0.82 0.46,-2.94l-0.07 0 -0.66 0 0.11 -0.49c0.54,-0.09 0.75,-0.46 0.75,-0.46 0,0 0.62,-0.95 1.03,-1.17 0.95,-0.54 1.67,0.44 1.67,0.44l-0.95 0.9c-0.32,-0.36 -0.44,-0.45 -0.44,-0.45 -0.32,-0.32 -0.56,0.05 -0.56,0.05 -0.23,0.68 0.56,0.65 0.56,0.65l0.9 0 -0.12 0.51 -0.87 0z"/>
  <path class="fil0" d="M14.03 6.45l-10.35 0 -0.13 0.46 10.01 0c0,0 0.08,-0.29 0.47,-0.46z"/>
  <path class="fil0" d="M18.81 6.45l29.58 0 -0.24 0.46 -29.5 0c0,0 0.12,-0.21 0.15,-0.46z"/>
  <path class="fil0" d="M31.14 6.07c0,0 -1.1,0.18 -1.58,-0.32 0,0 -0.87,-0.71 -0.03,-2.47 0.84,-1.75 2.71,-1.52 2.71,-1.52l0.1 -0.56c0,0 0.09,-0.5 -0.7,-0.41l0.11 -0.38 2.16 -0.29 -0.88 4.8c0,0 -0.19,0.59 0.69,0.52l-0.06 0.33 -2.2 0.31 0.68 -3.77c0,0 -0.78,-0.21 -1.25,1.01 0,0 -0.87,2.25 0.38,2.4l-0.06 0.33 -0.09 0.03z"/>
  <path class="fil1" d="M36.95 3.97c-0.03,1.47 0.42,1.75 1.04,1.78 0.77,0.03 1.53,-0.96 1.51,-1.44l0.46 -0.21 -0.34 1.89 -0.41 0.01c-0.51,0.01 -0.92,0.16 -1.31,0.16 -1.8,-0.01 -2.62,-1.31 -2.44,-2.79 0.23,-1.85 1.88,-3.29 3.53,-3.14 0.43,0.05 1.19,0.16 1.34,0.16l0.25 0 -0.31 1.72 -0.39 0.19c0.01,-0.01 0,-1.62 -1.05,-1.67 -1.02,-0.05 -1.86,1.69 -1.9,3.35z"/>
  <path class="fil1" d="M43.03 3.12l-0.08 -0.34c0.01,0.01 1.23,-0.23 1.37,-1.26 0.06,-0.45 -0.23,-0.83 -0.65,-0.84 -0.16,0 -0.48,0.08 -0.49,0.08l-0.39 1.83 -0.28 1.66 -0.1 0.8c-0.03,0.23 -0.06,0.63 0.46,0.62 0.63,-0.01 1.25,-0.77 1.34,-1.44 0.08,-0.63 -0.27,-1.16 -0.86,-1.13l-0.33 0.02zm-3 2.87l-0.04 -0.34c-0.01,0 0.3,0.04 0.69,-0.13 0.35,-0.16 0.52,-1.17 0.55,-1.29l0.37 -2.07c0.09,-0.53 0.17,-1.27 -0.05,-1.39 -0.24,-0.12 -0.58,-0.06 -0.58,-0.06l0.19 -0.33 0.12 0c0.23,0 2.28,-0.08 2.63,-0.09 0.93,-0.03 1.98,0.15 1.94,1.08 -0.04,0.91 -1.61,1.41 -1.62,1.41 0,0.02 1.53,0.05 1.47,1.25 -0.08,1.52 -1.87,2.09 -2.63,2.01 -1.01,-0.1 -2.35,-0.08 -2.6,-0.08l-0.43 0.02z"/>
  <path class="fil1" d="M47.87 3.85c0,0.02 1.43,-0.47 1.63,-2 0.11,-0.86 -0.43,-1.14 -0.84,-1.14 -0.16,-0.01 -0.29,0.1 -0.3,0.1l-0.21 0.98 -0.45 2.44 -0.09 0.57c-0.05,0.35 -0.05,0.7 0.4,0.79 0.5,0.1 0.8,0.07 0.79,0.07l-0.2 0.34 -3.37 0 -0.06 -0.34c-0.01,0 0.27,0.03 0.69,-0.11 0.41,-0.14 0.57,-1.39 0.59,-1.52l0.41 -2.16c0.08,-0.38 0.1,-0.91 -0.08,-1.01 -0.2,-0.13 -0.66,-0.14 -0.66,-0.14l0.18 -0.32 0.89 0c0.6,0 1.17,-0.01 1.72,-0.02 1.1,-0.02 2.16,0.47 2.04,1.41 -0.28,2.03 -2.91,2.37 -2.9,2.37l-0.17 -0.3z"/>
 </g>
</svg>
