<?xml version="1.0" encoding="UTF-8"?>
<!DOCTYPE svg PUBLIC "-//W3C//DTD SVG 1.1//EN" "http://www.w3.org/Graphics/SVG/1.1/DTD/svg11.dtd">
<!-- Creator: CorelDRAW -->
<svg xmlns="http://www.w3.org/2000/svg" xml:space="preserve" width="13.3045mm" height="3.9288mm" version="1.1" style="shape-rendering:geometricPrecision; text-rendering:geometricPrecision; image-rendering:optimizeQuality; fill-rule:evenodd; clip-rule:evenodd"
viewBox="0 0 42.91 12.67"
 xmlns:xlink="http://www.w3.org/1999/xlink"
 xmlns:xodm="http://www.corel.com/coreldraw/odm/2003">
 <defs>
  <style type="text/css">
   <![CDATA[
    .fil9 {fill:#E6272B;fill-rule:nonzero}
    .fil8 {fill:#F6EC01;fill-rule:nonzero}
    .fil3 {fill:#C3453F;fill-rule:nonzero}
    .fil5 {fill:#C3433F;fill-rule:nonzero}
    .fil4 {fill:#C2433E;fill-rule:nonzero}
    .fil2 {fill:#C2403E;fill-rule:nonzero}
    .fil1 {fill:#C2403D;fill-rule:nonzero}
    .fil7 {fill:#C13C3B;fill-rule:nonzero}
    .fil6 {fill:#BE3839;fill-rule:nonzero}
    .fil10 {fill:#404F9D;fill-rule:nonzero}
    .fil13 {fill:#404D9C;fill-rule:nonzero}
    .fil12 {fill:#3E4D9C;fill-rule:nonzero}
    .fil11 {fill:#3E4D9C;fill-rule:nonzero}
    .fil0 {fill:#31387B;fill-rule:nonzero}
   ]]>
  </style>
 </defs>
 <g id="Layer_x0020_1">
  <metadata id="CorelCorpID_0Corel-Layer"/>
  <path class="fil0" d="M31.43 5.84c-0.34,1.51 -0.69,3.03 -1.03,4.54 -0.03,0.14 -0.06,0.28 -0.1,0.41 -0.09,0.4 -0.1,0.4 -0.51,0.4 -0.39,0 -0.77,-0.01 -1.16,0.01 -0.2,0.01 -0.27,-0.06 -0.32,-0.25 -0.3,-1.11 -0.62,-2.22 -0.93,-3.32 -0.01,-0.05 -0.03,-0.1 -0.07,-0.22 -0.12,0.43 -0.22,0.79 -0.32,1.16 -0.22,0.81 -0.44,1.61 -0.65,2.42 -0.04,0.15 -0.09,0.22 -0.27,0.22 -0.47,-0.01 -0.95,-0.01 -1.42,0 -0.17,0.01 -0.23,-0.06 -0.27,-0.21 -0.22,-0.85 -0.45,-1.69 -0.68,-2.53 -0.02,-0.07 -0.05,-0.15 -0.08,-0.26 -0.1,2.31 -2.17,3.31 -3.54,3.03 0.8,-1.28 1.59,-2.55 2.41,-3.85l-1.22 0c0.04,-0.08 0.05,-0.12 0.08,-0.17 0.41,-0.62 0.81,-1.24 1.22,-1.86 0.04,-0.06 0.13,-0.14 0.19,-0.15 0.68,-0.01 1.36,-0.01 2.06,-0.01 0.21,1.08 0.42,2.16 0.63,3.24 0.02,0 0.04,0.01 0.06,0.01 0.03,-0.06 0.06,-0.11 0.07,-0.17 0.29,-0.97 0.57,-1.93 0.85,-2.9 0.04,-0.15 0.11,-0.21 0.28,-0.21 0.42,0.01 0.84,0.01 1.26,0 0.14,-0 0.2,0.04 0.24,0.18 0.27,0.97 0.56,1.94 0.84,2.91 0.01,0.03 0.02,0.05 0.03,0.08 0.02,0 0.05,0.01 0.07,0.01 0.24,-1.05 0.48,-2.09 0.72,-3.15l6.59 0 0 1.31 -3.08 0 0 0.91 2.86 0 0 1.2 -2.87 0 0 1.21 3.54 0 0 -4.63c0.08,-0.01 0.14,-0.01 0.19,-0.02 1.2,0 2.4,-0.01 3.6,0 0.65,0.01 1.19,0.27 1.5,0.87 0.3,0.59 0.27,1.19 -0.07,1.76 -0.24,0.39 -0.6,0.62 -1.04,0.72 -0.05,0.01 -0.11,0.02 -0.16,0.04 -0.01,0 -0.01,0.01 -0.04,0.04 0.65,0.85 1.3,1.7 1.98,2.58 -0.09,0.01 -0.14,0.02 -0.2,0.02 -0.55,0 -1.11,0.01 -1.66,-0.01 -0.11,-0 -0.24,-0.07 -0.31,-0.15 -0.61,-0.73 -1.21,-1.47 -1.82,-2.21 -0.05,-0.06 -0.1,-0.12 -0.19,-0.22l0 2.56 -7.21 0 0 -5.34c0.01,-0.06 0.01,-0.13 0.02,-0.19 -0.02,-0 -0.04,-0 -0.06,-0 -0.01,0.06 -0.01,0.13 -0.02,0.19zm7.28 0.57l0 1.28c0.42,0 0.83,0.02 1.24,-0.01 0.36,-0.02 0.68,-0.39 0.66,-0.72 -0.01,-0.3 -0.3,-0.54 -0.69,-0.55 -0.39,-0.01 -0.79,-0 -1.21,-0z"/>
  <path class="fil0" d="M17.47 8.19c-0.31,0.37 -0.64,0.63 -1.07,0.73 -0.27,0.06 -0.55,0.07 -0.82,0.08 -0.36,0.01 -0.72,0 -1.11,0l0 2.18 -1.76 0 0 -5.99 0.24 0 2.96 0c0.98,0 1.6,0.48 1.84,1.43 0.01,0.05 0.02,0.1 0.04,0.2 0.64,-1.05 1.53,-1.62 2.78,-1.65 -0.34,1.04 -0.66,2.04 -1,3.06l1.05 0c-0.23,1 -0.46,1.96 -0.69,2.93 -1.11,0.09 -2.36,-1.39 -2.47,-2.98zm-2.96 -0.35l0.57 0c0.07,0 0.14,0 0.21,-0 0.35,-0.02 0.64,-0.28 0.68,-0.61 0.05,-0.36 -0.13,-0.69 -0.46,-0.75 -0.33,-0.06 -0.67,-0.05 -1,-0.07l0 1.43z"/>
  <path class="fil1" d="M24.69 0.07c1.23,0 2.19,0.95 2.19,2.16 -0,1.19 -1,2.14 -2.22,2.14 -1.2,-0.01 -2.19,-0.98 -2.18,-2.16 0,-1.2 0.98,-2.14 2.21,-2.14zm1.81 2.14c-0,-1.01 -0.81,-1.82 -1.82,-1.82 -1,0 -1.79,0.8 -1.8,1.81 -0,1.03 0.79,1.83 1.8,1.82 1.01,-0 1.82,-0.81 1.82,-1.82z"/>
  <path class="fil2" d="M18.36 0.12c0.7,0.05 1.38,0.05 2.04,0.15 0.74,0.11 1.26,0.78 1.35,1.6 0.04,0.42 0.03,0.83 -0.12,1.23 -0.22,0.56 -0.61,0.94 -1.19,1.09 -0.68,0.18 -1.38,0.09 -2.08,0.11l0 -4.19zm0.41 3.83c0.44,0 0.86,0.01 1.28,-0 0.47,-0.02 0.83,-0.26 1.04,-0.67 0.34,-0.66 0.34,-1.35 0.03,-2.02 -0.16,-0.35 -0.44,-0.62 -0.83,-0.68 -0.5,-0.08 -1.01,-0.08 -1.53,-0.12l0 3.51z"/>
  <path class="fil3" d="M17.26 4.39c-0.95,-1.13 -1.88,-2.24 -2.85,-3.39l0 3.27 -0.34 0 0 -4.22c0.96,1.14 1.88,2.23 2.81,3.33 0.02,-0.01 0.03,-0.01 0.05,-0.02l0 -3.15 0.33 0 0 4.17z"/>
  <path class="fil4" d="M30.99 4.38c-0.96,-1.15 -1.9,-2.26 -2.87,-3.42l0 3.31 -0.35 0 0 -4.26c0.97,1.14 1.9,2.25 2.84,3.37 0.02,-0.01 0.03,-0.01 0.05,-0.02l0 -3.17 0.33 0 0 4.21z"/>
  <path class="fil4" d="M32.07 4.26l0 -4.07 2.31 0 0 0.33 -1.88 0 0 1.28 1.89 0 0 0.35 -1.9 0 0 0.68 0 0.76c0,0.34 0,0.34 0.32,0.34l1.33 0 0.25 0 0 0.33 -2.32 0z"/>
  <path class="fil2" d="M41.07 0c0.63,1.46 1.24,2.85 1.84,4.26 -0.4,0.07 -0.4,0.07 -0.54,-0.27 -0.13,-0.31 -0.25,-0.63 -0.39,-0.94 -0.03,-0.07 -0.14,-0.14 -0.22,-0.15 -0.49,-0.01 -0.98,-0 -1.47,-0.01 -0.13,-0 -0.2,0.04 -0.25,0.16 -0.13,0.32 -0.28,0.63 -0.39,0.96 -0.09,0.26 -0.23,0.33 -0.51,0.24 0.63,-1.4 1.27,-2.8 1.92,-4.26zm-0.81 2.56l1.54 0c-0.25,-0.6 -0.49,-1.18 -0.75,-1.79 -0.27,0.62 -0.52,1.19 -0.78,1.79z"/>
  <path class="fil2" d="M37.01 0.59c-0.1,0.06 -0.18,0.11 -0.28,0.16 -0.18,-0.26 -0.42,-0.37 -0.71,-0.35 -0.24,0.02 -0.45,0.11 -0.55,0.35 -0.1,0.24 -0.1,0.49 0.09,0.68 0.14,0.15 0.32,0.28 0.5,0.39 0.22,0.15 0.47,0.26 0.69,0.42 0.44,0.31 0.58,0.84 0.41,1.39 -0.15,0.47 -0.55,0.74 -1.11,0.76 -0.56,0.01 -0.97,-0.26 -1.18,-0.8 0.09,-0.05 0.18,-0.1 0.3,-0.16 0.17,0.42 0.45,0.65 0.91,0.63 0.35,-0.01 0.61,-0.19 0.72,-0.48 0.14,-0.36 0.07,-0.77 -0.18,-0.98 -0.17,-0.14 -0.36,-0.25 -0.55,-0.36 -0.21,-0.14 -0.44,-0.25 -0.64,-0.41 -0.35,-0.27 -0.47,-0.66 -0.35,-1.07 0.11,-0.37 0.44,-0.64 0.85,-0.68 0.45,-0.04 0.83,0.07 1.09,0.52z"/>
  <polygon class="fil5" points="12.65,4.27 12.99,4.27 12.99,0.19 12.65,0.19 "/>
  <polygon class="fil6" points="38.02,4.28 38.35,4.28 38.35,0.18 38.02,0.18 "/>
  <path class="fil7" d="M19.18 12.15c0.01,-0.29 0.24,-0.5 0.53,-0.49 0.27,0.01 0.48,0.24 0.48,0.52 -0.01,0.28 -0.25,0.5 -0.53,0.49 -0.27,-0.01 -0.48,-0.25 -0.47,-0.52z"/>
  <path class="fil8" d="M9.62 11.37c-1.56,0 -3.11,0 -4.67,0.01 -1.56,0 -3.13,0 -4.69,0l-0.25 0c-0.01,-0.06 -0.01,-0.12 -0.01,-0.17l0 -11.03c0,-0.03 0,-0.06 0,-0.09 0.06,-0 0.13,-0.01 0.19,-0.01 3.14,-0 6.29,-0 9.43,-0l0 10.59c0,0.24 -0,0.47 -0.01,0.71zm-6.73 -6.15c-0.07,-0.02 -0.14,-0.02 -0.2,-0.05 -0.61,-0.3 -1.18,-0.12 -1.72,0.19 -0.05,0.03 -0.11,0.1 -0.12,0.15 -0.01,0.19 -0.01,0.38 -0.01,0.61 0.61,-0.34 1.2,-0.56 1.86,-0.26 -0.05,0.22 -0.09,0.43 -0.14,0.65 -0,0.01 -0,0.01 -0,0.02 0,-0.01 0,-0.01 0,-0.02 0.07,-0.01 0.14,-0 0.2,-0.02 0.76,-0.2 1.52,-0.42 2.27,-0.61 0.18,-0.05 0.38,-0.06 0.61,-0.1 -0.04,0.34 -0.08,0.63 -0.12,0.92 -0.41,0.03 -0.83,0.06 -1.24,0.08 -0.54,0.03 -1.09,0.14 -1.61,-0.08 -0.62,-0.25 -1.18,-0.09 -1.72,0.21 -0.05,0.03 -0.11,0.11 -0.11,0.18 -0.01,0.18 -0,0.37 -0,0.57 0.13,-0.07 0.24,-0.13 0.36,-0.18 0.37,-0.16 0.76,-0.32 1.15,-0.17 0.76,0.29 1.53,0.21 2.3,0.11 0.26,-0.03 0.53,-0.02 0.8,-0.02 -0.07,0.63 -0.14,1.26 -0.21,1.89 -0.04,0.42 -0.09,0.83 -0.13,1.25 0.24,-0.49 0.43,-0.99 0.63,-1.49 0.2,-0.52 0.41,-1.03 0.62,-1.55 0.3,-0.05 0.61,-0.07 0.9,-0.15 0.31,-0.09 0.6,-0.11 0.89,0.05 0.11,0.06 0.21,0.11 0.34,0.17 0,-0.22 0.01,-0.4 -0,-0.58 -0,-0.05 -0.04,-0.12 -0.08,-0.15 -0.38,-0.27 -0.78,-0.33 -1.22,-0.17 -0.17,0.06 -0.36,0.07 -0.55,0.11 0.11,-0.3 0.23,-0.59 0.34,-0.89 0.34,-0.1 0.68,-0.26 1.04,-0.1 0.15,0.06 0.29,0.13 0.46,0.21 0,-0.17 -0.01,-0.31 0,-0.45 0.02,-0.16 -0.05,-0.25 -0.18,-0.34 -0.32,-0.2 -0.66,-0.24 -1.01,-0.15 0.08,-0.22 0.16,-0.44 0.25,-0.69 -1.14,0.26 -2.25,0.51 -3.4,0.77 0.12,-0.31 0.22,-0.56 0.32,-0.82 0.41,-0 0.82,-0.03 1.22,0 0.57,0.04 1.13,0.13 1.67,-0.11 0.05,-0.02 0.11,-0.02 0.16,-0.03 0.36,-0.06 0.65,0.09 0.97,0.3 0,-0.23 0,-0.42 -0,-0.62 -0,-0.04 -0.03,-0.1 -0.07,-0.13 -0.35,-0.26 -0.74,-0.37 -1.15,-0.2 -0.48,0.2 -0.95,0.14 -1.44,0.09 -0.36,-0.03 -0.72,-0.02 -1.08,-0.04 0.3,-0.79 0.59,-1.58 0.9,-2.4 -0.46,0 -0.89,0.01 -1.32,-0.01 -0.21,-0.01 -0.3,0.06 -0.35,0.26 -0.21,0.75 -0.44,1.5 -0.66,2.25 -0.22,-0.04 -0.45,-0.03 -0.65,-0.11 -0.45,-0.19 -0.88,-0.16 -1.32,0.01 -0.51,0.2 -0.51,0.2 -0.51,0.75 0,0.05 0,0.11 0,0.19 0.12,-0.06 0.21,-0.11 0.31,-0.15 0.42,-0.19 0.85,-0.33 1.32,-0.17 0.21,0.07 0.44,0.11 0.65,0.16 -0.08,0.28 -0.16,0.55 -0.24,0.83z"/>
  <path class="fil9" d="M6.98 5.89c-0.12,0.3 -0.23,0.59 -0.34,0.89 -0.09,0.24 -0.18,0.48 -0.28,0.72 -0.21,0.52 -0.42,1.03 -0.62,1.55 -0.2,0.5 -0.39,1 -0.63,1.49 0.05,-0.42 0.09,-0.83 0.13,-1.25 0.07,-0.63 0.14,-1.26 0.21,-1.89 0.03,-0.24 0.05,-0.47 0.08,-0.71 0.04,-0.29 0.07,-0.57 0.12,-0.92 -0.23,0.04 -0.42,0.05 -0.61,0.1 -0.76,0.2 -1.52,0.41 -2.27,0.61 -0.07,0.02 -0.14,0.01 -0.21,0.02l0 0c0.05,-0.22 0.09,-0.43 0.14,-0.65 0.06,-0.21 0.12,-0.43 0.19,-0.64 0.08,-0.28 0.16,-0.55 0.24,-0.83 0.06,-0.23 0.13,-0.46 0.2,-0.68 0.22,-0.75 0.45,-1.5 0.66,-2.25 0.06,-0.2 0.14,-0.27 0.35,-0.26 0.43,0.02 0.86,0.01 1.32,0.01 -0.31,0.82 -0.6,1.61 -0.9,2.4 -0.09,0.24 -0.18,0.48 -0.28,0.73 -0.1,0.25 -0.2,0.51 -0.32,0.82 1.15,-0.26 2.25,-0.51 3.4,-0.77 -0.09,0.26 -0.17,0.48 -0.25,0.69 -0.11,0.27 -0.21,0.54 -0.32,0.82z"/>
  <path class="fil10" d="M5.53 6.69c-0.03,0.24 -0.05,0.47 -0.08,0.71 -0.27,0.01 -0.53,-0.01 -0.8,0.02 -0.77,0.1 -1.54,0.18 -2.3,-0.11 -0.4,-0.15 -0.79,0.01 -1.16,0.17 -0.11,0.05 -0.22,0.11 -0.36,0.17 0,-0.2 -0.01,-0.39 0.01,-0.57 0,-0.06 0.06,-0.15 0.11,-0.18 0.54,-0.3 1.1,-0.46 1.72,-0.21 0.52,0.21 1.07,0.11 1.61,0.08 0.41,-0.03 0.83,-0.06 1.24,-0.08z"/>
  <path class="fil11" d="M4.47 4.33c0.09,-0.24 0.18,-0.48 0.28,-0.73 0.36,0.01 0.72,0 1.08,0.04 0.49,0.04 0.96,0.11 1.44,-0.09 0.41,-0.17 0.8,-0.06 1.15,0.2 0.04,0.03 0.07,0.08 0.07,0.13 0.01,0.19 0,0.39 0,0.62 -0.31,-0.21 -0.61,-0.36 -0.97,-0.3 -0.05,0.01 -0.11,0.01 -0.16,0.03 -0.54,0.24 -1.1,0.16 -1.67,0.11 -0.41,-0.03 -0.81,-0 -1.22,-0z"/>
  <path class="fil11" d="M3.32 3.71c-0.06,0.23 -0.13,0.46 -0.2,0.68 -0.22,-0.05 -0.44,-0.09 -0.65,-0.16 -0.47,-0.15 -0.9,-0.01 -1.32,0.17 -0.1,0.04 -0.19,0.09 -0.31,0.15 0,-0.08 0,-0.14 0,-0.19 -0.01,-0.55 -0.01,-0.55 0.51,-0.75 0.44,-0.17 0.87,-0.2 1.32,-0.01 0.2,0.08 0.43,0.08 0.65,0.11z"/>
  <path class="fil12" d="M6.36 7.5c0.09,-0.24 0.18,-0.48 0.28,-0.72 0.18,-0.03 0.38,-0.05 0.55,-0.11 0.44,-0.16 0.85,-0.1 1.22,0.17 0.04,0.03 0.08,0.1 0.08,0.15 0.01,0.18 0,0.36 0,0.58 -0.13,-0.06 -0.24,-0.11 -0.34,-0.17 -0.29,-0.15 -0.58,-0.14 -0.89,-0.05 -0.29,0.08 -0.6,0.1 -0.9,0.15z"/>
  <path class="fil13" d="M2.88 5.22c-0.06,0.21 -0.12,0.43 -0.19,0.64 -0.66,-0.3 -1.25,-0.09 -1.86,0.26 0,-0.23 -0.01,-0.42 0.01,-0.61 0,-0.05 0.06,-0.12 0.11,-0.15 0.55,-0.3 1.11,-0.48 1.72,-0.19 0.06,0.03 0.14,0.04 0.2,0.05z"/>
  <path class="fil13" d="M6.98 5.89c0.11,-0.27 0.21,-0.54 0.32,-0.82 0.36,-0.09 0.69,-0.05 1.01,0.15 0.13,0.08 0.2,0.17 0.18,0.34 -0.02,0.14 -0,0.28 -0,0.45 -0.17,-0.08 -0.32,-0.15 -0.46,-0.21 -0.37,-0.16 -0.7,-0.01 -1.04,0.1z"/>
  <path class="fil9" d="M2.56 6.5c0,0.01 -0,0.01 -0,0.02 0,-0.01 0,-0.01 0,-0.02l-0 -0z"/>
 </g>
</svg>
