<?xml version="1.0" encoding="UTF-8"?>
<!DOCTYPE svg PUBLIC "-//W3C//DTD SVG 1.1//EN" "http://www.w3.org/Graphics/SVG/1.1/DTD/svg11.dtd">
<!-- Creator: CorelDRAW -->
<svg xmlns="http://www.w3.org/2000/svg" xml:space="preserve" width="13.305mm" height="3.5335mm" version="1.1" style="shape-rendering:geometricPrecision; text-rendering:geometricPrecision; image-rendering:optimizeQuality; fill-rule:evenodd; clip-rule:evenodd"
viewBox="0 0 65.97 17.52"
 xmlns:xlink="http://www.w3.org/1999/xlink"
 xmlns:xodm="http://www.corel.com/coreldraw/odm/2003">
 <defs>
  <style type="text/css">
   <![CDATA[
    .fil2 {fill:#E94A29;fill-rule:nonzero}
    .fil3 {fill:#A7CD38;fill-rule:nonzero}
    .fil1 {fill:#20A449;fill-rule:nonzero}
    .fil0 {fill:#25457C;fill-rule:nonzero}
   ]]>
  </style>
 </defs>
 <g id="Layer_x0020_1">
  <metadata id="CorelCorpID_0Corel-Layer"/>
  <path class="fil0" d="M20.63 16.44l0.65 0 0.44 -1.33 1.76 0 0.44 1.33 0.73 0 -1.65 -4.91 -0.7 0 -1.67 4.91zm1.95 -3.98l0.02 0 0.68 2.06 -1.37 0 0.67 -2.06zm2.61 3.98l0.66 0 0 -3.66 -0.66 0 0 3.66zm-0.01 -4.34l0.67 0 0 -0.69 -0.67 0 0 0.69zm1.58 4.34l0.66 0 0 -2.8c0.24,-0.17 0.55,-0.27 0.87,-0.27 0.07,0 0.18,0.01 0.27,0.02l0 -0.63c-0.03,-0.02 -0.13,-0.03 -0.22,-0.03 -0.37,0 -0.72,0.21 -0.92,0.45l-0.03 0 0 -0.41 -0.64 0 0 3.66zm2.37 1.08l0.66 0 0 -1.27c0.18,0.11 0.46,0.22 0.84,0.22 0.94,0 1.55,-0.51 1.55,-1.86l0 -0.1c0,-1.35 -0.65,-1.78 -1.4,-1.78 -0.42,0 -0.77,0.16 -0.98,0.37l-0.03 0 0 -0.29 -0.64 0 0 4.73zm1.42 -1.61c-0.33,0 -0.62,-0.12 -0.76,-0.23l0 -2.14c0.14,-0.11 0.43,-0.24 0.79,-0.24 0.58,0 0.9,0.28 0.9,1.23l0 0.15c0,0.93 -0.34,1.22 -0.94,1.22zm3.72 0.59c0.93,0 1.59,-0.69 1.59,-1.85l0 -0.11c0,-1.15 -0.58,-1.84 -1.58,-1.84 -0.95,0 -1.6,0.69 -1.6,1.86l0 0.12c0,1.14 0.58,1.81 1.6,1.81zm0 -0.55c-0.51,0 -0.92,-0.29 -0.92,-1.25l0 -0.19c0,-0.8 0.33,-1.22 0.91,-1.22 0.5,0 0.9,0.29 0.9,1.25l0 0.19c0,0.8 -0.33,1.22 -0.89,1.22zm2.26 0.49l0.66 0 0 -2.8c0.23,-0.17 0.55,-0.27 0.87,-0.27 0.07,0 0.18,0.01 0.27,0.02l0 -0.63c-0.04,-0.02 -0.13,-0.03 -0.22,-0.03 -0.37,0 -0.72,0.21 -0.92,0.45l-0.03 0 0 -0.41 -0.64 0 0 3.66zm3.51 0.04c0.32,0 0.47,-0.07 0.61,-0.14l0 -0.47c-0.13,0.02 -0.28,0.04 -0.42,0.04 -0.37,0 -0.47,-0.12 -0.47,-0.45l0 -2.11 0.83 0 0 -0.57 -0.83 0 0 -0.86 -0.67 0 0 0.86 -0.48 0 0 0.57 0.48 0 0 2.21c0,0.67 0.38,0.92 0.95,0.92zm4.16 0.05c1.1,0 1.6,-0.57 1.6,-1.47 0,-0.85 -0.44,-1.17 -1.13,-1.4l-0.46 -0.15c-0.48,-0.16 -0.62,-0.34 -0.62,-0.77 0,-0.44 0.29,-0.67 0.8,-0.67 0.5,0 0.88,0.13 1.16,0.26l0 -0.6c-0.26,-0.14 -0.58,-0.27 -1.16,-0.27 -0.99,0 -1.49,0.56 -1.49,1.36 0,0.8 0.39,1.15 1.02,1.36l0.45 0.16c0.52,0.18 0.71,0.37 0.71,0.8 0,0.49 -0.28,0.8 -0.93,0.8 -0.49,0 -0.94,-0.13 -1.3,-0.31l0 0.6c0.32,0.18 0.76,0.32 1.35,0.32zm3.76 -0.02c0.57,0 0.97,-0.19 1.19,-0.35l0 -0.49c-0.32,0.15 -0.61,0.27 -1.06,0.27 -0.67,0 -1.06,-0.28 -1.1,-1.12l2.27 0 0 -0.34c0,-1.15 -0.45,-1.75 -1.42,-1.75 -0.83,0 -1.53,0.59 -1.53,1.85l0 0.09c0,1.15 0.55,1.85 1.66,1.85zm-0.15 -3.23c0.5,0 0.75,0.28 0.75,1.02l-1.58 0c0.05,-0.82 0.46,-1.02 0.83,-1.02zm2.12 3.17l0.66 0 0 -2.8c0.23,-0.17 0.55,-0.27 0.87,-0.27 0.07,0 0.18,0.01 0.27,0.02l0 -0.63c-0.03,-0.02 -0.13,-0.03 -0.22,-0.03 -0.37,0 -0.72,0.21 -0.92,0.45l-0.03 0 0 -0.41 -0.64 0 0 3.66zm3.3 0l0.67 0 1.25 -3.66 -0.65 0 -0.91 2.77 -0.02 0 -0.9 -2.77 -0.71 0 1.26 3.66zm2.5 0l0.66 0 0 -3.66 -0.66 0 0 3.66zm-0.01 -4.34l0.67 0 0 -0.69 -0.67 0 0 0.69zm2.99 4.4c0.48,0 0.79,-0.13 1.02,-0.29l0 -0.54c-0.18,0.09 -0.48,0.24 -0.92,0.24 -0.67,0 -1.02,-0.37 -1.02,-1.25l0 -0.19c0,-0.77 0.37,-1.18 0.95,-1.18 0.44,0 0.65,0.09 0.95,0.22l0 -0.58c-0.23,-0.14 -0.49,-0.24 -0.94,-0.24 -0.93,0 -1.65,0.59 -1.65,1.86l0 0.12c0,1.21 0.63,1.81 1.61,1.81zm3.1 0c0.57,0 0.97,-0.19 1.18,-0.35l0 -0.49c-0.32,0.15 -0.61,0.27 -1.06,0.27 -0.67,0 -1.06,-0.28 -1.1,-1.12l2.28 0 0 -0.34c0,-1.15 -0.45,-1.75 -1.42,-1.75 -0.83,0 -1.53,0.59 -1.53,1.85l0 0.09c0,1.15 0.55,1.85 1.66,1.85zm-0.15 -3.23c0.5,0 0.75,0.28 0.75,1.02l-1.58 0c0.05,-0.82 0.47,-1.02 0.83,-1.02zm3.03 3.23c0.78,0 1.26,-0.37 1.26,-1.1 0,-0.65 -0.27,-0.91 -0.94,-1.08l-0.32 -0.09c-0.34,-0.1 -0.48,-0.21 -0.48,-0.49 0,-0.31 0.22,-0.45 0.65,-0.45 0.38,0 0.73,0.1 0.91,0.18l0 -0.54c-0.2,-0.11 -0.49,-0.22 -0.96,-0.22 -0.83,0 -1.22,0.44 -1.22,1.09 0,0.65 0.35,0.91 0.86,1.04l0.32 0.09c0.42,0.1 0.55,0.24 0.55,0.52 0,0.31 -0.22,0.49 -0.71,0.49 -0.48,0 -0.74,-0.12 -1.02,-0.23l0 0.53c0.28,0.18 0.67,0.26 1.12,0.26z"/>
  <path class="fil1" d="M1.76 17.52c7.33,-1.4 12.35,-5.12 15.76,-11.27l0 3c-4.26,5.51 -9.18,7.49 -14.08,8.27l-1.68 0zm-1.76 -2l0 0.29c6.47,-2.87 10.82,-7.87 12.24,-15.8l-1.6 0c-0.89,7.38 -5.15,12.4 -10.64,15.51z"/>
  <path class="fil2" d="M17.52 9.25l0 7c0,0.7 -0.57,1.27 -1.27,1.27l-12.81 0c4.9,-0.78 9.82,-2.76 14.08,-8.27z"/>
  <path class="fil3" d="M12.24 0l4.02 0c0.7,0 1.27,0.57 1.27,1.27l0 4.98c-3.41,6.15 -8.43,9.87 -15.76,11.27l-0.49 0c-0.7,0 -1.27,-0.57 -1.27,-1.27l0 -0.45c6.47,-2.87 10.82,-7.87 12.24,-15.8z"/>
  <path class="fil2" d="M1.27 0l9.37 0c-0.89,7.38 -5.15,12.4 -10.64,15.52l0 -14.25c0,-0.7 0.57,-1.27 1.27,-1.27z"/>
  <path class="fil0" d="M39.09 9.42c1.34,-0.38 1.87,-1.13 1.87,-2.37 0,-3.82 -4.58,-2.59 -4.65,-4.61 0.01,-0.96 1.07,-0.94 1.97,-0.94 0.9,0.01 1.77,0.18 2.25,0.33l0 -1.47c-0.66,-0.3 -3.45,-0.6 -4.63,-0.09 -0.89,0.38 -1.4,1.1 -1.4,2.08 0.02,3.7 4.65,2.54 4.66,4.67 0,1.81 -3.15,1.08 -4.39,0.98l0.38 1.38c0.74,0.22 2.94,0.32 3.95,0.04zm-14.03 -2.66l0 -6.76 -1.76 0 0 6.6c0,1.48 -1.29,1.78 -2.47,1.31l-0.2 1.39c1.54,0.71 4.52,0.25 4.43,-2.54zm5.84 -1.29l-1.08 -3.68 -1.08 3.68 2.16 0zm0.22 -5.28l2.86 9.41 -1.8 0 -0.82 -2.7 -3.07 0 -0.82 2.7 -1.81 0 2.86 -9.41 2.6 0z"/>
 </g>
</svg>
