<?xml version="1.0" encoding="UTF-8"?>
<!DOCTYPE svg PUBLIC "-//W3C//DTD SVG 1.1//EN" "http://www.w3.org/Graphics/SVG/1.1/DTD/svg11.dtd">
<!-- Creator: CorelDRAW -->
<svg xmlns="http://www.w3.org/2000/svg" xml:space="preserve" width="13.3048mm" height="4.9048mm" version="1.1" style="shape-rendering:geometricPrecision; text-rendering:geometricPrecision; image-rendering:optimizeQuality; fill-rule:evenodd; clip-rule:evenodd"
viewBox="0 0 52 19.17"
 xmlns:xlink="http://www.w3.org/1999/xlink"
 xmlns:xodm="http://www.corel.com/coreldraw/odm/2003">
 <defs>
  <style type="text/css">
   <![CDATA[
    .fil3 {fill:#8EC43F;fill-rule:nonzero}
    .fil0 {fill:#575656;fill-rule:nonzero}
    .fil1 {fill:#1C4B84;fill-rule:nonzero}
    .fil2 {fill:url(#id0)}
   ]]>
  </style>
  <linearGradient id="id0" gradientUnits="userSpaceOnUse" x1="21.17" y1="5.12" x2="29.42" y2="5.12">
   <stop offset="0" style="stop-opacity:1; stop-color:#24B6E9"/>
   <stop offset="0.568627" style="stop-opacity:1; stop-color:#1E89C0"/>
   <stop offset="1" style="stop-opacity:1; stop-color:#175C97"/>
  </linearGradient>
 </defs>
 <g id="Layer_x0020_1">
  <metadata id="CorelCorpID_0Corel-Layer"/>
  <path class="fil0" d="M34.67 14.58l0 4.56 0.8 0 0 -3.24c0.05,0.04 0.11,0.13 0.16,0.19 0.06,0.07 0.1,0.12 0.16,0.2 0.65,0.87 1.42,1.78 2.07,2.63 0.07,0.1 0.14,0.15 0.15,0.22l0.75 0 0 -4.63 -0.77 0 0 3.24c-0.07,-0.05 -0.11,-0.12 -0.16,-0.19l-1.13 -1.43c-0.11,-0.14 -0.21,-0.27 -0.32,-0.41l-0.89 -1.13c-0.03,-0.04 -0.05,-0.08 -0.11,-0.08l-0.63 0c-0.05,0 -0.07,0.02 -0.07,0.07z"/>
  <path class="fil0" d="M43.06 18.41l-1.17 0 0 -3.15 1.29 0c0.8,0 1.6,0.66 1.6,1.5 0,0.53 -0.17,0.95 -0.51,1.23 -0.3,0.24 -0.66,0.42 -1.2,0.42zm-1.97 0.73l2.16 0c0.31,0 0.71,-0.12 0.93,-0.22 0.26,-0.12 0.5,-0.26 0.69,-0.46 0.72,-0.73 0.91,-1.72 0.48,-2.63 -0.15,-0.32 -0.39,-0.58 -0.66,-0.8 -0.14,-0.11 -0.39,-0.25 -0.55,-0.32 -0.23,-0.1 -0.65,-0.2 -0.97,-0.2l-2.09 0 0 4.63z"/>
  <path class="fil0" d="M47.71 16.86c0,-0.97 0.8,-1.62 1.81,-1.62 0.87,0 1.67,0.68 1.67,1.65 0,1.05 -1.26,1.88 -2.42,1.41 -0.41,-0.16 -0.66,-0.4 -0.88,-0.77 -0.09,-0.16 -0.17,-0.43 -0.17,-0.67zm-0.8 -0.07c0,0.4 0.08,0.72 0.22,1 0.25,0.51 0.67,0.93 1.2,1.15 0.72,0.3 1.5,0.3 2.22,0.01 0.19,-0.08 0.38,-0.19 0.55,-0.32 0.84,-0.67 1.15,-1.81 0.67,-2.77 -0.38,-0.77 -1.27,-1.35 -2.11,-1.35 -0.52,0 -0.87,-0.01 -1.35,0.23 -0.42,0.2 -0.69,0.41 -0.96,0.76 -0.07,0.1 -0.17,0.23 -0.22,0.36 -0.12,0.28 -0.22,0.55 -0.22,0.93z"/>
  <path class="fil0" d="M13.8 16.81c0,-0.23 0.08,-0.47 0.16,-0.64 0.14,-0.32 0.5,-0.64 0.82,-0.77 0.64,-0.28 1.5,-0.19 1.96,0.28 0.43,0.44 0.53,0.65 0.53,1.28 0,0.45 -0.38,1 -0.78,1.21 -1.38,0.75 -2.7,-0.23 -2.7,-1.36zm1.6 2.35c0.5,0 0.78,-0.01 1.25,-0.21 0.8,-0.35 1.43,-1.13 1.43,-2.02 0,-0.75 -0.14,-1.07 -0.57,-1.6 -0.06,-0.08 -0.06,-0.08 -0.14,-0.14 -0.06,-0.05 -0.09,-0.08 -0.15,-0.13 -0.37,-0.29 -0.96,-0.55 -1.42,-0.55 -0.74,0 -1.13,0.02 -1.78,0.45 -0.49,0.33 -0.82,0.81 -0.96,1.4 -0.11,0.52 -0.04,0.98 0.17,1.45 0.1,0.22 0.26,0.42 0.42,0.59l0.59 0.45c0.03,0.02 0.06,0.03 0.09,0.05 0.29,0.14 0.68,0.27 1.07,0.27z"/>
  <polygon class="fil0" points="25.17,19.14 25.95,19.14 25.95,17.21 28.46,17.21 28.46,19.14 29.26,19.14 29.26,14.51 28.46,14.51 28.46,16.48 25.95,16.48 25.95,14.51 25.17,14.51 "/>
  <path class="fil0" d="M-0 19.14l0.78 0 0 -1.18c0,-0.07 0.29,-0.32 0.41,-0.46l0.16 -0.17c0.07,-0.07 0.13,-0.14 0.21,-0.19l1.54 1.9c0.11,0.15 0.16,0.1 0.46,0.1l0.59 0 -0.24 -0.32c-0.09,-0.11 -0.17,-0.21 -0.26,-0.33l-1.27 -1.6c-0.09,-0.12 -0.17,-0.21 -0.26,-0.33l0.59 -0.63c0.05,-0.06 0.06,-0.08 0.12,-0.14l0.43 -0.44c0,-0.01 0.02,-0.02 0.02,-0.03 0.02,-0.02 0.02,-0.02 0.03,-0.04l0.73 -0.77c-0.23,0 -0.45,0 -0.68,0 -0.39,0 -0.29,-0 -0.5,0.21 -0.24,0.24 -0.45,0.47 -0.69,0.72l-1.39 1.4 0 -2.33 -0.78 0 0 4.63z"/>
  <path class="fil0" d="M19.74 15.73c0,1.42 1.84,1.29 2.37,1.72 0.38,0.31 0.24,0.75 -0.21,0.88 -0.24,0.07 -0.58,0.1 -0.85,0.04 -0.3,-0.06 -0.45,-0.13 -0.69,-0.25l-0.41 -0.29c-0.05,-0.05 -0.08,-0.08 -0.14,-0.12 -0.06,0.11 -0.12,0.21 -0.18,0.34 -0.04,0.08 -0.15,0.28 -0.17,0.34 0.13,0.19 0.55,0.44 0.78,0.54 0.74,0.32 1.72,0.37 2.4,-0.1 0.73,-0.5 0.86,-1.78 -0.55,-2.25 -0.3,-0.1 -1.07,-0.3 -1.3,-0.47 -0.32,-0.23 -0.41,-0.85 0.63,-0.85 0.55,0 0.99,0.2 1.32,0.42 0.06,-0.11 0.32,-0.62 0.33,-0.73 -0.07,-0.02 -0.13,-0.07 -0.2,-0.11 -0.48,-0.29 -1.24,-0.41 -1.82,-0.33 -0.65,0.09 -1.32,0.5 -1.32,1.22z"/>
  <path class="fil0" d="M8.25 14.58l0 0.61c0,0.06 0.02,0.07 0.07,0.07l1.43 0 0 3.88 0.78 0 0 -3.88 1.5 0 0 -0.75 -3.71 0c-0.05,0 -0.07,0.02 -0.07,0.07z"/>
  <polygon class="fil0" points="31.57,19.14 32.37,19.14 32.37,14.51 31.57,14.51 "/>
  <polygon class="fil0" points="5.78,19.14 6.56,19.14 6.56,14.51 5.78,14.51 "/>
  <path class="fil1" d="M20.24 5.12c-0.02,1.77 0.73,3.44 2.18,4.62 -3.65,1.58 -7.17,-1.14 -7.17,-4.62 0,-3.48 3.52,-6.2 7.17,-4.62 -1.45,1.18 -2.2,2.85 -2.18,4.62z"/>
  <path class="fil2" d="M21.17 5.12c0,4.34 5.01,6.68 8.24,3.94 -1.08,-1.26 -1.81,-2.71 -4.09,-3.94 2.29,-1.23 3.01,-2.68 4.09,-3.94 -0.96,-0.81 -2.07,-1.18 -3.17,-1.18 -2.59,0 -5.08,2.06 -5.08,5.12z"/>
  <path class="fil3" d="M28.82 5.12c1.73,0.76 3.03,2.54 4.78,4.8 2.18,-1.2 3.13,-2.8 3.14,-4.8 0,-2.11 -0.95,-3.75 -3.14,-4.8 -1.75,2.26 -3.05,4.04 -4.78,4.8z"/>
 </g>
</svg>
