<?xml version="1.0" encoding="UTF-8"?>
<!DOCTYPE svg PUBLIC "-//W3C//DTD SVG 1.1//EN" "http://www.w3.org/Graphics/SVG/1.1/DTD/svg11.dtd">
<!-- Creator: CorelDRAW -->
<svg xmlns="http://www.w3.org/2000/svg" xml:space="preserve" width="10.5833mm" height="10.6352mm" version="1.1" style="shape-rendering:geometricPrecision; text-rendering:geometricPrecision; image-rendering:optimizeQuality; fill-rule:evenodd; clip-rule:evenodd"
viewBox="0 0 25.06 25.18"
 xmlns:xlink="http://www.w3.org/1999/xlink"
 xmlns:xodm="http://www.corel.com/coreldraw/odm/2003">
 <defs>
  <style type="text/css">
   <![CDATA[
    .fil6 {fill:#FFFDFC;fill-rule:nonzero}
    .fil0 {fill:#FEFAF9;fill-rule:nonzero}
    .fil1 {fill:#FEF9F8;fill-rule:nonzero}
    .fil5 {fill:#D53330;fill-rule:nonzero}
    .fil7 {fill:#D2312E;fill-rule:nonzero}
    .fil4 {fill:#D1473A;fill-rule:nonzero}
    .fil2 {fill:#D24237;fill-rule:nonzero}
    .fil3 {fill:#D14036;fill-rule:nonzero}
   ]]>
  </style>
 </defs>
 <g id="Layer_x0020_1">
  <metadata id="CorelCorpID_0Corel-Layer"/>
  <path class="fil0" d="M10.95 11.26c-0.53,0.14 -1.01,0.27 -1.54,0.41 -0.07,-0.26 -0.12,-0.49 -0.2,-0.78 2.27,-0.61 4.54,-1.22 6.85,-1.84 0.08,0.24 0.14,0.47 0.23,0.74 -0.48,0.15 -0.94,0.28 -1.47,0.44 0.35,1.35 0.7,2.69 1.06,4.08 -0.27,0.08 -0.53,0.15 -0.85,0.24 -0.37,-1.36 -0.74,-2.72 -1.11,-4.09 -0.71,0.19 -1.39,0.37 -2.12,0.57 0.35,1.37 0.69,2.72 1.05,4.11 -0.28,0.07 -0.53,0.14 -0.84,0.23 -0.35,-1.37 -0.7,-2.71 -1.05,-4.1z"/>
  <path class="fil1" d="M21.35 12.86c-1.21,0.32 -2.38,0.64 -3.62,0.97 -0.42,-1.62 -0.84,-3.24 -1.26,-4.89 1.22,-0.33 2.39,-0.65 3.59,-0.97 0.07,0.25 0.14,0.5 0.22,0.77 -0.93,0.25 -1.84,0.49 -2.79,0.75 0.1,0.41 0.2,0.8 0.31,1.23 0.81,-0.22 1.59,-0.44 2.41,-0.67 0.06,0.26 0.12,0.48 0.18,0.74 -0.8,0.23 -1.57,0.45 -2.37,0.68 0.12,0.47 0.23,0.91 0.34,1.36 0.94,-0.25 1.85,-0.49 2.79,-0.74 0.06,0.26 0.13,0.5 0.19,0.77z"/>
  <path class="fil0" d="M11.45 15.5c-0.35,0.1 -0.62,0.17 -0.88,0.25 -0.04,-0.03 -0.07,-0.04 -0.09,-0.06 -0.53,-0.79 -0.53,-0.79 -1.44,-0.54 -0.04,0.01 -0.09,0.03 -0.13,0.04 -0.95,0.25 -0.95,0.25 -1.03,1.27 -0.24,0.07 -0.5,0.14 -0.83,0.24 0.04,-0.62 0.08,-1.18 0.12,-1.75 0.07,-1.06 0.16,-2.13 0.21,-3.19 0.03,-0.61 0.54,-0.44 0.85,-0.61 0.31,-0.17 0.39,0.09 0.51,0.27 0.89,1.34 1.78,2.69 2.71,4.09zm-1.94 -1.36c-0.45,-0.71 -0.85,-1.36 -1.33,-2.12 -0.06,0.93 -0.11,1.71 -0.16,2.52 0.51,-0.14 0.97,-0.26 1.5,-0.4z"/>
  <path class="fil2" d="M1.27 15.5c0.09,0.35 0.17,0.65 0.26,1.04 -0.37,-0.12 -0.67,-0.21 -0.96,-0.3 0.23,-0.24 0.44,-0.47 0.7,-0.74z"/>
  <path class="fil3" d="M0.88 14.02c0.1,0.38 0.18,0.68 0.29,1.07 -0.38,-0.13 -0.69,-0.24 -1.07,-0.37 0.27,-0.24 0.5,-0.44 0.79,-0.7z"/>
  <path class="fil4" d="M1.9 17.86c-0.31,-0.02 -0.54,-0.03 -0.87,-0.04 0.22,-0.31 0.39,-0.55 0.61,-0.85 0.09,0.32 0.16,0.58 0.26,0.9z"/>
  <path class="fil5" d="M9.51 14.14c-0.53,0.14 -0.99,0.27 -1.5,0.4 0.05,-0.81 0.1,-1.59 0.16,-2.52 0.48,0.76 0.89,1.41 1.33,2.12z"/>
  <path class="fil6" d="M2.1 18.65l0 0c0.19,-0.32 0.38,-0.65 0.6,-1.02 -0.21,-0.88 -0.47,-1.92 -0.73,-2.96 0.18,0.08 0.27,0.19 0.34,0.32 0.44,0.71 0.88,1.42 1.33,2.13 0.13,0.21 0.21,0.45 0.58,0.34 0.36,-0.1 0.54,-0.23 0.56,-0.62 0.05,-1.04 0.14,-2.08 0.21,-3.12 0.04,-0.01 0.07,-0.01 0.11,-0.02 0.29,1.08 0.57,2.17 0.87,3.28 0.31,-0.09 0.58,-0.17 0.85,-0.24 -0.43,-1.64 -0.84,-3.23 -1.26,-4.86 -0.46,0.12 -0.89,0.23 -1.34,0.34 -0.06,1.28 -0.13,2.51 -0.2,3.86 -0.15,-0.22 -0.24,-0.34 -0.32,-0.47 -0.52,-0.82 -1.04,-1.65 -1.56,-2.47 -0.07,-0.11 -0.2,-0.28 -0.27,-0.26 -0.41,0.1 -0.81,0.23 -1.21,0.35l0 0 0.31 1.17c0.06,0.22 0.12,0.44 0.19,0.69 -0,-0 -0,-0 -0,-0l0.11 0.41c0,-0 0,-0 0,-0 0.02,0.07 0.04,0.14 0.05,0.21l0.51 1.95c0.02,0.07 0.04,0.14 0.06,0.21 -0,-0 -0,-0 -0,-0l0.21 0.79z"/>
  <path class="fil6" d="M23.94 11.26l-0 0c-0.39,0.23 -0.8,0.33 -1.47,0.43 -0.35,-1.34 -0.71,-2.69 -1.07,-4.06 -0.3,0.08 -0.56,0.15 -0.86,0.22 0.44,1.65 0.86,3.26 1.29,4.89 0.94,-0.26 1.8,-0.5 2.67,-0.72 0.11,-0.03 0.23,-0.02 0.35,-0.01l-0.91 -0.75z"/>
  <path class="fil7" d="M24.01 12.75c0.35,-0.21 0.68,-0.41 1.01,-0.61l-0.17 -0.14c-0.12,-0.01 -0.24,-0.02 -0.35,0.01 -0.87,0.22 -1.73,0.47 -2.67,0.72 -0.43,-1.62 -0.86,-3.24 -1.29,-4.89 0.3,-0.08 0.56,-0.14 0.86,-0.22 0.36,1.37 0.71,2.72 1.07,4.06 1.17,-0.17 1.56,-0.36 2.43,-1.23 -0.4,-0.2 -0.78,-0.39 -1.2,-0.59 0.31,-0.34 0.58,-0.64 0.9,-0.99 -0.45,-0.14 -0.87,-0.27 -1.32,-0.41 0.27,-0.35 0.52,-0.69 0.83,-1.09 -0.47,-0.04 -0.87,-0.07 -1.34,-0.11 0.23,-0.42 0.42,-0.77 0.65,-1.19l-1.44 0c0.17,-0.46 0.31,-0.85 0.47,-1.29 -0.45,0.03 -0.85,0.06 -1.31,0.09 0.11,-0.45 0.21,-0.84 0.33,-1.3 -0.47,0.12 -0.9,0.22 -1.36,0.34 0.03,-0.46 0.06,-0.89 0.09,-1.41 -0.43,0.17 -0.81,0.33 -1.26,0.51 -0.02,-0.46 -0.05,-0.89 -0.07,-1.38 -0.39,0.21 -0.75,0.42 -1.14,0.63 -0.08,-0.45 -0.16,-0.86 -0.25,-1.33 -0.37,0.26 -0.7,0.5 -1.09,0.77 -0.13,-0.43 -0.25,-0.83 -0.39,-1.3 -0.34,0.31 -0.65,0.6 -1.01,0.93 -0.19,-0.41 -0.36,-0.78 -0.56,-1.22 -0.28,0.36 -0.54,0.68 -0.82,1.03 -0.24,-0.38 -0.47,-0.74 -0.73,-1.14 -0.24,0.38 -0.46,0.73 -0.7,1.12 -0.29,-0.35 -0.56,-0.67 -0.86,-1.03 -0.18,0.39 -0.35,0.75 -0.59,1.25 -0.29,-0.38 -0.55,-0.72 -0.81,-1.07 -0.05,0.03 -0.09,0.07 -0.14,0.1 -0.14,0.39 -0.27,0.79 -0.42,1.2 -0.37,-0.29 -0.7,-0.55 -1.08,-0.84 -0.08,0.46 -0.15,0.87 -0.23,1.35 -0.4,-0.24 -0.77,-0.46 -1.19,-0.71 -0.04,0.45 -0.07,0.85 -0.1,1.32 -0.45,-0.19 -0.86,-0.35 -1.32,-0.54 0.04,0.49 0.07,0.91 0.1,1.38 -0.45,-0.13 -0.84,-0.24 -1.31,-0.37 0.09,0.43 0.16,0.82 0.25,1.27 -0.47,-0.03 -0.9,-0.06 -1.38,-0.09 0.13,0.42 0.24,0.81 0.37,1.24l-1.4 0c0.2,0.44 0.38,0.83 0.58,1.26 -0.47,0.06 -0.88,0.1 -1.35,0.16 0.25,0.39 0.47,0.75 0.73,1.15 -0.46,0.11 -0.88,0.21 -1.35,0.33 0.3,0.35 0.59,0.69 0.9,1.05 -0.45,0.15 -0.86,0.28 -1.34,0.44 0.35,0.32 0.67,0.6 1.03,0.93 -0.41,0.21 -0.8,0.41 -1.21,0.62 0.36,0.28 0.7,0.55 1.09,0.86 -0.38,0.25 -0.73,0.48 -1.12,0.74 0.21,0.12 0.38,0.21 0.54,0.3 -0.01,-0.04 -0.01,-0.09 -0.02,-0.13 0.45,-0.14 0.9,-0.29 1.36,-0.4 0.06,-0.02 0.2,0.16 0.27,0.26 0.52,0.82 1.04,1.65 1.56,2.47 0.08,0.13 0.17,0.25 0.32,0.47 0.07,-1.34 0.13,-2.58 0.2,-3.86 0.44,-0.11 0.88,-0.22 1.34,-0.34 0.42,1.63 0.84,3.22 1.26,4.86 -0.27,0.08 -0.54,0.15 -0.85,0.24 -0.3,-1.12 -0.58,-2.2 -0.87,-3.28 -0.04,0.01 -0.07,0.01 -0.11,0.02 -0.07,1.04 -0.16,2.08 -0.21,3.12 -0.02,0.4 -0.2,0.52 -0.56,0.62 -0.37,0.1 -0.45,-0.13 -0.58,-0.34 -0.44,-0.71 -0.88,-1.42 -1.33,-2.13 -0.08,-0.12 -0.16,-0.24 -0.34,-0.31 0.26,1.04 0.51,2.08 0.73,2.96 -0.34,0.58 -0.6,1.03 -0.91,1.56 0.51,0.03 0.93,0.05 1.41,0.08 -0.15,0.44 -0.28,0.83 -0.43,1.28 0.47,-0.05 0.88,-0.09 1.35,-0.13 -0.12,0.44 -0.22,0.84 -0.34,1.28 0.49,-0.11 0.92,-0.21 1.38,-0.32 -0.05,0.46 -0.1,0.88 -0.15,1.36 0.45,-0.17 0.85,-0.33 1.32,-0.51l0 1.38c0.41,-0.25 0.74,-0.45 1.13,-0.68 0.07,0.47 0.14,0.89 0.21,1.37 0.38,-0.3 0.73,-0.56 1.11,-0.86 0.14,0.45 0.27,0.86 0.41,1.3 0.33,-0.33 0.63,-0.63 0.97,-0.97 0.2,0.45 0.37,0.84 0.57,1.3 0.29,-0.35 0.55,-0.67 0.87,-1.05 0.23,0.43 0.43,0.8 0.63,1.18l0.18 0c0.18,-0.36 0.36,-0.72 0.57,-1.15 0.34,0.38 0.63,0.71 0.95,1.07 0.18,-0.42 0.33,-0.79 0.51,-1.2 0.35,0.32 0.65,0.61 1.01,0.94 0.15,-0.43 0.29,-0.82 0.45,-1.26 0.37,0.26 0.71,0.51 1.08,0.78 0.1,-0.43 0.18,-0.82 0.28,-1.27 0.39,0.24 0.73,0.45 1.16,0.71l0 -1.43c0.47,0.19 0.86,0.35 1.3,0.52 -0.03,-0.44 -0.06,-0.84 -0.09,-1.31 0.46,0.13 0.87,0.24 1.35,0.37 -0.09,-0.45 -0.17,-0.87 -0.27,-1.35 0.44,0.09 0.85,0.17 1.3,0.26 -0.14,-0.44 -0.26,-0.84 -0.39,-1.28l1.35 0c-0.19,-0.42 -0.36,-0.78 -0.56,-1.22l1.44 0c-0.27,-0.48 -0.5,-0.88 -0.74,-1.31 0.43,-0.1 0.83,-0.2 1.29,-0.31 -0.28,-0.37 -0.53,-0.71 -0.8,-1.09 0.44,-0.15 0.83,-0.28 1.28,-0.43 -0.33,-0.35 -0.64,-0.67 -0.98,-1.03 0.4,-0.2 0.77,-0.38 1.18,-0.59 -0.36,-0.29 -0.68,-0.56 -1.05,-0.87zm-13.44 3c-0.04,-0.03 -0.07,-0.04 -0.09,-0.06 -0.53,-0.79 -0.53,-0.79 -1.44,-0.54 -0.04,0.01 -0.09,0.03 -0.13,0.04 -0.95,0.25 -0.95,0.25 -1.03,1.27 -0.24,0.07 -0.5,0.14 -0.83,0.24 0.04,-0.62 0.08,-1.18 0.12,-1.75 0.07,-1.06 0.16,-2.13 0.21,-3.19 0.03,-0.6 0.54,-0.44 0.85,-0.61 0.31,-0.17 0.39,0.09 0.51,0.27 0.89,1.34 1.78,2.69 2.71,4.09 -0.35,0.1 -0.62,0.17 -0.88,0.25zm5.32 -1.44c-0.27,0.08 -0.53,0.15 -0.85,0.24 -0.37,-1.36 -0.74,-2.72 -1.11,-4.09 -0.71,0.19 -1.39,0.37 -2.12,0.57 0.35,1.37 0.69,2.72 1.04,4.11 -0.28,0.07 -0.53,0.14 -0.84,0.23 -0.35,-1.37 -0.7,-2.71 -1.05,-4.1 -0.53,0.14 -1.01,0.27 -1.54,0.41 -0.07,-0.26 -0.12,-0.49 -0.2,-0.78 2.27,-0.61 4.54,-1.22 6.85,-1.84 0.08,0.24 0.14,0.47 0.23,0.74 -0.48,0.15 -0.94,0.28 -1.47,0.44 0.35,1.35 0.7,2.7 1.06,4.08zm1.85 -0.48c-0.42,-1.63 -0.84,-3.24 -1.26,-4.89 1.22,-0.33 2.39,-0.65 3.59,-0.97 0.07,0.25 0.14,0.5 0.22,0.77 -0.93,0.25 -1.84,0.5 -2.79,0.75 0.1,0.41 0.2,0.8 0.31,1.23 0.81,-0.22 1.59,-0.44 2.41,-0.67 0.06,0.26 0.12,0.48 0.18,0.74 -0.8,0.23 -1.57,0.45 -2.37,0.68 0.12,0.47 0.23,0.91 0.34,1.36 0.94,-0.25 1.85,-0.49 2.79,-0.74 0.06,0.26 0.12,0.5 0.19,0.77 -1.21,0.32 -2.38,0.64 -3.62,0.97z"/>
 </g>
</svg>
