<?xml version="1.0" encoding="UTF-8"?>
<!DOCTYPE svg PUBLIC "-//W3C//DTD SVG 1.1//EN" "http://www.w3.org/Graphics/SVG/1.1/DTD/svg11.dtd">
<!-- Creator: CorelDRAW -->
<svg xmlns="http://www.w3.org/2000/svg" xml:space="preserve" width="8.4664mm" height="9.3154mm" version="1.1" style="shape-rendering:geometricPrecision; text-rendering:geometricPrecision; image-rendering:optimizeQuality; fill-rule:evenodd; clip-rule:evenodd"
viewBox="0 0 31.51 34.67"
 xmlns:xlink="http://www.w3.org/1999/xlink"
 xmlns:xodm="http://www.corel.com/coreldraw/odm/2003">
 <defs>
  <style type="text/css">
   <![CDATA[
    .str0 {stroke:white;stroke-width:0.28;stroke-miterlimit:22.926}
    .str1 {stroke:#E53131;stroke-width:0.28;stroke-miterlimit:22.926}
    .fil2 {fill:none;fill-rule:nonzero}
    .fil1 {fill:white;fill-rule:nonzero}
    .fil3 {fill:#E6232A;fill-rule:nonzero}
    .fil0 {fill:#E53131;fill-rule:nonzero}
   ]]>
  </style>
 </defs>
 <g id="Layer_x0020_1">
  <metadata id="CorelCorpID_0Corel-Layer"/>
  <path class="fil0" d="M2.6 10.53c7.89,-0.26 12.37,3.94 12.37,9.77l0 5.9 -12.37 0 0 -15.67z"/>
  <path class="fil0" d="M28.74 10.53c-7.89,-0.26 -12.37,3.94 -12.37,9.77l0 5.9 12.37 0 0 -15.67z"/>
  <path class="fil1" d="M15.66 0.14c3.58,0 6.48,2.9 6.48,6.48 0,3.58 -2.9,6.48 -6.48,6.48 -3.58,0 -6.48,-2.9 -6.48,-6.48 0,-3.58 2.9,-6.48 6.48,-6.48z"/>
  <path class="fil2 str0" d="M15.66 0.14c3.58,0 6.48,2.9 6.48,6.48 0,3.58 -2.9,6.48 -6.48,6.48 -3.58,0 -6.48,-2.9 -6.48,-6.48 0,-3.58 2.9,-6.48 6.48,-6.48z"/>
  <path class="fil0" d="M15.66 0.43c1.45,0 2.79,0.5 3.85,1.34l-7.7 0c1.06,-0.84 2.39,-1.34 3.85,-1.34zm4.21 1.66c0.29,0.27 0.56,0.57 0.79,0.89l-10.02 0c0.23,-0.32 0.5,-0.62 0.79,-0.89l8.43 0zm1.04 1.25c0.17,0.26 0.31,0.54 0.43,0.83l-11.37 0c0.12,-0.29 0.27,-0.56 0.43,-0.83l10.5 0zm0.59 1.22c0.09,0.25 0.15,0.5 0.21,0.76l-12.11 0c0.06,-0.26 0.13,-0.51 0.21,-0.76l11.68 0zm0.29 1.2c0.03,0.22 0.05,0.45 0.06,0.69l-12.38 0c0.01,-0.23 0.02,-0.46 0.06,-0.69l12.26 0zm0.06 1.17c-0.01,0.21 -0.03,0.41 -0.06,0.61l-12.24 0c-0.03,-0.2 -0.05,-0.41 -0.06,-0.61l12.37 0zm-0.17 1.14c-0.05,0.19 -0.1,0.37 -0.16,0.55l-11.71 0c-0.06,-0.18 -0.12,-0.36 -0.16,-0.55l12.04 0zm-0.39 1.12c-0.07,0.17 -0.16,0.32 -0.25,0.48l-10.76 0c-0.09,-0.16 -0.17,-0.32 -0.25,-0.48l11.26 0zm-0.65 1.1c-0.1,0.14 -0.22,0.28 -0.34,0.42l-9.28 0c-0.12,-0.13 -0.23,-0.27 -0.34,-0.42l9.95 0zm-1.02 1.08c-0.15,0.12 -0.31,0.24 -0.47,0.35l-6.98 0c-0.16,-0.11 -0.32,-0.23 -0.47,-0.35l7.92 0zm-1.83 1.06c-0.67,0.24 -1.39,0.38 -2.13,0.38 -0.75,0 -1.47,-0.13 -2.14,-0.38l4.27 0z"/>
  <path class="fil2 str1" d="M15.66 0.43c1.45,0 2.79,0.5 3.85,1.34m0 0l-7.7 0m0 0c1.06,-0.84 2.39,-1.34 3.85,-1.34m4.21 1.66c0.29,0.27 0.56,0.57 0.79,0.89m0 0l-10.02 0m0 0c0.23,-0.32 0.5,-0.62 0.79,-0.89m0 0l8.43 0m1.04 1.25c0.17,0.26 0.31,0.54 0.43,0.83m0 0l-11.37 0m0 0c0.12,-0.29 0.27,-0.56 0.43,-0.83m0 0l10.5 0m0.59 1.22c0.09,0.25 0.15,0.5 0.21,0.76m0 0l-12.11 0m0 0c0.06,-0.26 0.13,-0.51 0.21,-0.76m0 0l11.68 0m0.29 1.2c0.03,0.22 0.05,0.45 0.06,0.69m0 0l-12.38 0m0 0c0.01,-0.23 0.02,-0.46 0.06,-0.69m0 0l12.26 0m0.06 1.17c-0.01,0.21 -0.03,0.41 -0.06,0.61m0 0l-12.24 0m0 0c-0.03,-0.2 -0.05,-0.41 -0.06,-0.61m0 0l12.37 0m-0.17 1.14c-0.05,0.19 -0.1,0.37 -0.16,0.55m0 0l-11.71 0m0 0c-0.06,-0.18 -0.12,-0.36 -0.16,-0.55m0 0l12.04 0m-0.39 1.12c-0.07,0.17 -0.16,0.32 -0.25,0.48m0 0l-10.76 0m0 0c-0.09,-0.16 -0.17,-0.32 -0.25,-0.48m0 0l11.26 0m-0.65 1.1c-0.1,0.14 -0.22,0.28 -0.34,0.42m0 0l-9.28 0m0 0c-0.12,-0.13 -0.23,-0.27 -0.34,-0.42m0 0l9.95 0m-1.02 1.08c-0.15,0.12 -0.31,0.24 -0.47,0.35m0 0l-6.98 0m0 0c-0.16,-0.11 -0.32,-0.23 -0.47,-0.35m0 0l7.92 0m-1.83 1.06c-0.67,0.24 -1.39,0.38 -2.13,0.38 -0.75,0 -1.47,-0.13 -2.14,-0.38m0 0l4.27 0"/>
  <path class="fil3" d="M22.37 33.88l0 -3.76c0,-0.5 -0.16,-0.64 -0.37,-0.77l1.7 -0.02c0.56,0.02 1.39,0.15 1.68,0.7 0.46,0.87 -0.24,1.77 -1.08,1.98 0.58,0.73 1.17,1.63 1.92,2.2 0.14,0.11 0.29,0.2 0.44,0.27l-0.85 0c-0.44,0 -0.67,-0.13 -0.92,-0.47l-1.57 -2.14c0.32,-0.05 0.68,-0.19 0.95,-0.4 0.44,-0.35 0.59,-1.06 0.08,-1.4 -0.31,-0.21 -0.81,-0.21 -1.15,-0.12l0 3.93c0,0.24 0.11,0.52 0.36,0.61l-1.58 0c0.29,-0.02 0.37,-0.38 0.37,-0.61z"/>
  <path class="fil3" d="M17.01 32.84c0.3,0.72 1.06,1.24 1.85,1.24 1.13,0 1.89,-0.99 1.81,-2.12 -0.08,-1.03 -0.85,-2.06 -1.94,-2.07 -1.53,-0.01 -2.23,1.72 -1.71,2.94zm-1.12 -0.93c0.04,-0.78 0.43,-1.46 1,-1.97 0.5,-0.45 1.19,-0.58 1.84,-0.58 0.4,0 0.76,0.06 1.09,0.17 1.1,0.38 1.71,1.28 1.75,2.43 0,1.52 -1.19,2.72 -2.72,2.72 -1.62,0 -3.06,-1.07 -2.97,-2.77z"/>
  <path class="fil3" d="M13.34 33.88l0 -1.63 -1.39 -2.31c-0.15,-0.25 -0.4,-0.44 -0.65,-0.58l0.71 -0.02c0.39,-0.01 0.56,0.12 0.79,0.5l1.03 1.74 1.03 -1.52c0.22,-0.33 0.02,-0.64 -0.24,-0.71l1.52 -0.02 -2 2.91 0 1.64c0,0.18 0.12,0.47 0.42,0.6l-1.58 0c0.27,-0.09 0.36,-0.35 0.36,-0.61z"/>
  <path class="fil3" d="M8.85 32l1.46 0 -0.73 -1.88 -0.72 1.88zm-1.27 1.64l1.46 -3.7c0.08,-0.21 -0.05,-0.43 -0.18,-0.52l1.21 -0.02 1.82 4.36c0.11,0.25 0.34,0.54 0.57,0.7 0.01,0.01 0.02,0.01 0.03,0.02l-1.63 0c0.46,-0.17 0.3,-0.38 0.18,-0.71l-0.49 -1.23 -1.88 0 -0.48 1.33c-0.07,0.18 -0,0.44 0.25,0.61l-1.52 0c0.21,0 0.62,-0.73 0.67,-0.85z"/>
  <path class="fil3" d="M0.42 33.7l0.48 -3.52c0.07,-0.37 0.02,-0.51 -0.24,-0.77l1.33 -0.02 1.63 3.76 1.4 -3.76 1.39 0c-0.19,0.11 -0.34,0.35 -0.31,0.62l0.48 3.69c0.04,0.27 0.18,0.68 0.49,0.79l-1.63 0c0.36,-0.04 0.38,-0.62 0.36,-0.77l-0.42 -3.47 -1.7 4.3c-0.26,-0.16 -0.54,-0.5 -0.66,-0.77l-1.52 -3.53 -0.48 3.46c-0.03,0.18 0.09,0.72 0.36,0.79l-1.39 0c0.25,-0.11 0.39,-0.53 0.42,-0.79z"/>
  <path class="fil3" d="M27.88 32l1.46 0 -0.73 -1.88 -0.72 1.88zm-1.27 1.64l1.45 -3.7c0.08,-0.21 -0.05,-0.43 -0.18,-0.52l1.21 -0.02 1.82 4.36c0.11,0.25 0.34,0.54 0.57,0.7 0.01,0.01 0.02,0.01 0.03,0.02l-1.63 0c0.46,-0.17 0.31,-0.38 0.18,-0.71l-0.49 -1.23 -1.88 0 -0.48 1.33c-0.07,0.18 -0,0.44 0.25,0.61l-1.52 0c0.21,0 0.58,-0.61 0.67,-0.85z"/>
 </g>
</svg>
