<?xml version="1.0" encoding="UTF-8"?>
<!DOCTYPE svg PUBLIC "-//W3C//DTD SVG 1.1//EN" "http://www.w3.org/Graphics/SVG/1.1/DTD/svg11.dtd">
<!-- Creator: CorelDRAW -->
<svg xmlns="http://www.w3.org/2000/svg" xml:space="preserve" width="11.1882mm" height="6.0402mm" version="1.1" style="shape-rendering:geometricPrecision; text-rendering:geometricPrecision; image-rendering:optimizeQuality; fill-rule:evenodd; clip-rule:evenodd"
viewBox="0 0 30.5 16.47"
 xmlns:xlink="http://www.w3.org/1999/xlink"
 xmlns:xodm="http://www.corel.com/coreldraw/odm/2003">
 <defs>
  <style type="text/css">
   <![CDATA[
    .fil2 {fill:white;fill-rule:nonzero}
    .fil3 {fill:#FBEE0C;fill-rule:nonzero}
    .fil1 {fill:#BDB9D2;fill-rule:nonzero}
    .fil0 {fill:#2E3B6E;fill-rule:nonzero}
   ]]>
  </style>
 </defs>
 <g id="Layer_x0020_1">
  <metadata id="CorelCorpID_0Corel-Layer"/>
  <path class="fil0" d="M28.17 5.39c0,0 0,0.01 0,0.03 0.19,0.65 0.29,1.34 0.29,2.05 0,4.12 -3.34,7.47 -7.47,7.47 -2.74,0 -5.14,-1.48 -6.44,-3.68 -1.3,2.2 -3.69,3.68 -6.44,3.68l-0 0 -0.02 0 -0 0 -0 0 -0 0 -0 0 -0.01 0 -0 0 -0 0 -0 0c0.2,0.11 0.45,0.18 0.67,0.36 0.18,0.15 0.27,0.36 0.43,0.52 0.24,0.23 0.27,0.21 0.25,0.65 -0.19,-0.12 -0.49,-0.45 -0.74,-0.61 -0.16,-0.1 -0.26,-0.14 -0.46,-0.21 -0.48,-0.17 -0.94,-0.38 -1.3,-0.71 -0.15,-0.13 -0.28,-0.12 -0.5,-0.18 -0.03,-0.01 -0.05,-0.02 -0.07,-0.02 -3.27,-0.79 -5.71,-3.74 -5.71,-7.26 0,-4.12 3.34,-7.47 7.47,-7.47 2.74,0 5.14,1.48 6.44,3.68 1.3,-2.2 3.7,-3.68 6.44,-3.68 3.25,0 6.02,2.08 7.04,4.98l0.14 0.41z"/>
  <path class="fil1" d="M22.41 14.42c2.45,-0.51 4.01,-1.91 4.85,-4.07 -1.07,1.87 -2.58,3.33 -4.85,4.07z"/>
  <path class="fil1" d="M21.41 0.5c-3.21,0.34 -4.92,1.57 -6.08,3.97 1.42,-2.11 3.07,-3.41 6.08,-3.97z"/>
  <path class="fil1" d="M17.55 1.37c-0.95,0.47 -1.92,1.19 -2.33,1.99 -0.21,0.41 0.1,0.46 0.28,0.14 0.47,-0.82 1.11,-1.48 2.05,-2.14z"/>
  <path class="fil1" d="M1.75 7.85c-0.47,-2.11 0.85,-4.49 2.44,-5.69 1.94,-1.46 4.11,-1.68 6.01,-1.21 -2.68,-0.35 -4.46,0.33 -5.86,1.46 -1.43,1.16 -2.55,2.92 -2.59,5.44z"/>
  <path class="fil1" d="M1.36 5.8c0.19,-2.26 2.38,-4.23 4.38,-4.87 -2.37,0.99 -3.8,3.06 -4.38,4.87z"/>
  <path class="fil1" d="M5.72 13.94c2.45,1.22 4.61,0.72 6.56,-1.11 -2.29,1.55 -4.47,1.86 -6.56,1.11z"/>
  <path class="fil2" d="M9.95 14.02c-0.03,0.12 -0.02,0.29 -0.07,0.39 -0.05,0.15 -0.1,0.28 -0.2,0.38 -0.21,0.23 -0.58,0.19 -0.34,-0.35 0.05,-0.09 0.1,-0.14 0.14,-0.21 0.03,-0.06 0.03,-0.08 0.05,-0.12 0.03,-0.05 0.04,-0.08 0.06,-0.1 0.13,-0.27 -0.05,-0.55 -0.11,-0.77 0.16,-0.01 0.12,-0 0.21,0.09 0.05,0.05 0.1,0.12 0.13,0.18 0.08,0.15 0.1,0.33 0.13,0.51zm1.32 -1.96c-0.12,-0.21 -0.02,-0.3 0.02,-0.54 0.03,-0.17 0.02,-0.42 0.04,-0.6 0.19,0.05 0.17,0.02 0.2,0.26 0.04,0.27 0.11,0.87 -0.26,0.87zm-4.71 -0.62c-0.05,-0.26 -0.11,-0.12 -0.12,-0.34 0.29,-0.04 0.48,0.14 0.65,0.28 -0.01,0.6 -1,0.92 -0.94,0.29 0.23,-0.08 0.27,-0.05 0.41,-0.22zm2.26 -2.08c-0.39,0.01 -0.08,0.05 -0.37,-0.13 -0.21,-0.13 -0.14,0.03 -0.27,-0.24 0.44,0.12 0.8,0.32 1.28,0.32 0.79,0 1.05,-0.39 1.16,-0.02 -0.15,0.18 -0.12,0.05 -0.31,0.14 -0.16,0.07 -0.08,0.09 -0.21,0.23 -0.26,-0.01 -0.19,-0.08 -0.38,-0.1 -0.31,-0.04 -0.58,0.33 -0.85,-0.09 -0.01,-0.02 -0.05,-0.09 -0.06,-0.11zm2.03 -0.88c-0.13,0.04 -0.19,0.11 -0.32,0.13 -0.24,0.04 -0.2,-0.06 -0.37,-0.1 -0.17,-0.04 -0.14,0.05 -0.35,0.09 -0.21,0.04 -0.24,-0.03 -0.43,-0.04 -0.4,-0.02 -0.52,0.28 -1.25,0.02 -0.19,-0.07 -0.18,-0.11 -0.33,-0.18 0.06,0.34 0.25,0.41 0.6,0.43 0.37,0.02 0.51,0.18 0.9,0.19 0.15,0 0.35,0 0.5,-0.01 0.24,-0.02 0.23,-0.06 0.43,-0.12 0.4,-0.11 0.5,0.01 0.63,-0.4zm-3.04 -0.44c0.12,-0.1 0.3,-0.18 0.44,-0.28 0.18,-0.13 0.16,-0.29 0.32,-0.38 0.11,0.15 0.01,0.07 0.06,0.29 0.36,0.09 0.7,0.22 1.01,0.23 0.75,0.03 0.78,-0.18 0.96,-0.31 0.11,0.27 0.36,0.2 0.52,0.4 -0.08,0.06 -0.02,0.04 -0.12,0.04l-0.3 -0.09c-0.16,-0.02 -0.29,0.02 -0.42,0.09 -0.32,0.19 -0.38,0.25 -0.83,0.07 -1.11,-0.42 -0.83,-0.28 -1.66,-0.05zm-0.54 0.18c-0.02,0.26 -0.19,0.12 -0.46,0.48 -0.61,0.81 -0.74,-0.42 -0.78,-0.51 -0.14,-0.34 -0.28,-0.38 -0.29,-0.6 0.27,0.03 0.46,0.46 0.64,0.61 0.46,0.39 0.56,-0.31 0.88,0.01zm-2.04 -1.35c-0.01,0.27 -0.15,0.45 -0.19,0.72 0.22,0.1 0.17,0 0.2,0.22 -0.12,0.09 -0.24,0.09 -0.37,-0.01 -0.41,-0.32 0.04,-0.71 0.08,-0.84 -0.06,-0.11 -0.1,-0.13 -0.16,-0.2 -0.11,0.03 -0.15,0.15 -0.24,0.03 -0.1,-0.14 -0.06,-0.28 0.11,-0.28 0.08,-0 0.49,0.29 0.56,0.36zm0.18 -1.55c-0.17,0.55 0.14,0.56 0.21,0.88 0.09,0.43 -0.29,0.8 0.13,0.97l0.18 -0.53c0.01,-0.15 -0.03,-0.15 -0,-0.35 0.08,-0.67 -0.07,-0.21 -0.24,-0.65 -0.09,-0.23 -0.05,-0.28 -0.28,-0.32zm0.96 0.07c0.06,-0.19 0.14,-0.25 0.34,-0.31 0.18,-0.06 0.37,-0.08 0.54,-0 -0.09,0.21 -0.04,0.05 -0.4,0.18 0.08,0.07 -0.05,0.01 0.09,0.04 0.2,0.05 0.17,-0.04 0.34,0.05 -0.05,0.14 -0.09,0.07 -0.19,0.19 0.35,0.03 0.7,0.06 1.05,0.07 0.45,0.01 0.89,-0.15 1,-0 0.09,0.12 0.17,0.28 0.18,0.43 0.03,0.25 -0.03,0.38 -0.21,0.48 -0.22,0.13 -0.78,0.34 -1.04,0.35 0.08,-0.08 0.01,-0.02 0.11,-0.07 0,-0 0.1,-0.04 0.1,-0.04 0.21,-0.07 0.25,-0.09 0.42,-0.26 -0.4,-0.28 -0.23,-0.05 -0.64,-0.09 -0.36,-0.04 -0.5,-0.03 -0.86,-0.03 0.19,-0.34 0.88,-0.26 1.17,-0.31 -0.05,-0.22 -0.15,-0.15 -0.41,-0.19 -0.18,-0.03 -0.35,-0.08 -0.54,-0.09 -0.38,-0.02 -0.77,0.27 -1.01,0.21 -0.07,-0.3 0.07,-0.25 0.22,-0.39 -0.06,-0.1 -0.14,-0.09 -0.25,-0.18zm-1.76 -0.57c-0.1,-0.28 -0.1,-0.03 -0.17,-0.31 0.33,-0.16 0.35,0.13 0.46,0.3 0.17,0.28 0.21,0.22 0.31,0.25l0.16 0.06c-0.13,0.29 -0.46,0.26 -0.64,0.03 -0.07,-0.09 -0.07,-0.21 -0.12,-0.33zm-0.39 3.03c0.06,-0.62 -0.49,-1.1 -0.4,-1.55 0.05,-0.26 0.3,-0.44 0.58,-0.44 0.23,0 0.58,0.19 0.65,0.29 -0.19,0.1 -0.32,-0.15 -0.6,-0.09 -0.2,0.04 -0.3,0.23 -0.3,0.49 0.01,0.31 0.2,0.51 0.25,1.39 0.15,0.15 0.29,0.49 0.46,0.61 0.47,0.35 0.47,-0.22 0.57,-0.35 0.07,0.07 0.09,0.09 0.11,0.23 0.01,0.11 0.01,0.19 -0.04,0.29 -0.03,0.06 -0.23,0.28 -0.29,0.34 -0.23,0.21 -0.47,0.28 -0.48,0.71 -0.01,0.44 0.12,0.61 0.38,0.86 0.48,0.48 -0.31,0.82 0.71,1.66 0.74,0.61 0.06,0.95 1.04,1.43 0.63,0.3 0.42,0.3 0.7,0.49l0.13 0.3c0.2,0.48 0.66,0.44 1.06,0.77 0.18,0.15 0.27,0.36 0.43,0.52 0.24,0.23 0.27,0.21 0.25,0.65 0.15,-0.08 0.18,-0.12 0.27,-0.26 0.07,-0.11 0.16,-0.25 0.22,-0.37 0.09,-0.18 0.3,-0.6 0.34,-0.76l0.08 -0.36c0,-0.02 0.02,-0.07 0.02,-0.09 0,-0.02 0.01,-0.03 0.01,-0.04l-0.03 -0c0.01,-0.09 0.01,-0.22 0.03,-0.31 0.03,-0.15 0.01,-0.11 0.08,-0.17 0.11,-0.2 0.44,-0.32 0.6,-0.5l0.15 -0.18c0.18,-0.82 0.08,-0.76 0.55,-1.36 1.21,-1.55 -0.35,-1.73 -0.3,-2.64 0.02,-0.39 0.28,-0.17 0.09,-0.72 -0.06,-0.19 0.02,-0.21 -0.08,-0.41 -0.08,-0.15 -0.13,-0.1 -0.15,-0.33 0.29,-0.15 0.6,-0.22 0.59,-0.65 -0.01,-0.26 -0.14,-0.83 -0.25,-0.99 -0.41,-0.04 -0.29,0.22 -0.64,0.08 -0.1,-0.04 -0.18,-0.1 -0.2,0.01 -0.02,0.14 0.01,0.07 0.05,0.12l0.1 0.1c-0.15,0.07 -0.29,0.19 -0.33,0.35 -0.06,0.22 0.06,0.28 -0.05,0.49 -0.2,-0.18 -0.73,-1.08 -0.58,-1.7 0.7,-0.33 0.76,-0.17 1.04,-0.22 0.08,-0.01 0.19,-0.06 0.25,-0.07 0.22,-0.02 0.08,0.02 0.2,0.08 0.18,0.1 0.33,0.04 0.54,-0.01 0.05,-0.32 -0.12,-0.56 -0.25,-0.72 -0.14,-0.17 -0.2,-0.96 -0.85,-1.98 -1.23,-1.92 -3.57,-1.94 -5.18,-0.77 -1.56,1.14 -0.91,1.14 -1.52,2.26 0.11,0.23 0.09,-0.05 0.12,0.16 -0.55,0.35 -0.86,0.77 -0.94,1.68 -0.08,0.93 0.47,1.86 0.82,1.66z"/>
  <path class="fil2" d="M30.45 2.98l0.05 -0.1 0 -0c-0.19,0.02 -0.47,0.19 -0.68,0.26 -0.25,0.08 -0.47,0.13 -0.75,0.19 -0.82,0.19 -1.45,0.08 -1.76,0.15 -1.59,0.08 -3.32,-0.02 -4.94,0 -0.69,0.01 -1.4,0.21 -1.9,0.54 -0.11,0.08 -0.29,0.2 -0.36,0.27 -0.26,0.26 -0.69,0.68 -0.83,0.99 0.33,-0.11 0.73,-0.3 1.09,-0.06 1.13,0.76 0.64,3.27 -0.16,4.46 -0.31,0.46 -1.02,0.97 -1.63,0.75 -1.62,-0.58 -0.97,-4.13 0.33,-5.76 0.28,-0.35 0.48,-0.56 0.85,-0.86 0.9,-0.71 1.1,-0.57 1.87,-0.84 -1.22,-0.51 -2.61,-0.12 -3.54,0.61 -0.47,0.36 -0.98,0.9 -1.28,1.41 -0.84,1.47 -1.35,4.31 -0.2,5.79 0.05,0.06 0.07,0.09 0.12,0.15 0.53,0.71 1.53,1.07 2.44,0.95 1.16,-0.15 2.08,-0.93 2.7,-1.86 0.74,-1.1 0.99,-2.21 0.95,-3.55 -0.03,-0.86 -0.27,-1.04 -0.35,-1.45l1.79 0.01c0.01,0.33 -0.22,1.3 -0.29,1.68l-0.95 5.02c1.92,0 2.05,-1.26 2.26,-2.61 0.21,-1.34 0.51,-2.75 0.77,-4.09 1.48,-0.19 1.9,0.35 3.34,-0.68 0.28,-0.2 0.7,-0.79 0.87,-1.14l0.17 -0.22z"/>
  <path class="fil3" d="M-0 8.21c0,2.71 1.79,5.72 4.38,6.75 0.91,0.36 2.03,0.65 3.07,0.65 -0.04,-0.1 -0.03,-0.06 -0.1,-0.13 -0.55,-0.52 -1,-0.49 -1.75,-0.76 -1.76,-0.64 -3.76,-2.03 -4.49,-3.81 -0.05,-0.11 -0.09,-0.18 -0.14,-0.31 -0.49,-1.14 -0.59,-2.6 -0.48,-3.87 0.03,-0.36 0.15,-0.57 0.04,-0.77 -0.22,0.06 -0.21,0.2 -0.26,0.41 -0.05,0.21 -0.1,0.38 -0.14,0.57 -0.07,0.29 -0.13,0.9 -0.13,1.26z"/>
  <path class="fil3" d="M14 12.11c0.17,0.42 0.56,0.91 0.88,1.22l0.85 0.72c1.08,0.8 2.87,1.48 4.27,1.56 1.19,0.07 1.54,0.08 2.78,-0.32 0.54,-0.17 1.02,-0.35 1.52,-0.59 0.31,-0.15 1.09,-0.64 1.18,-0.97 -0.58,0.39 -1.06,0.84 -1.93,1.08 -0.28,0.08 -0.49,0.17 -0.8,0.23 -1.61,0.32 -2.83,0.27 -4.38,-0.24 -0.6,-0.2 -1.55,-0.69 -2.02,-1.07 -0.64,-0.52 -1.6,-1.41 -1.9,-2.22 -0.16,0.14 -0.36,0.45 -0.44,0.62z"/>
  <path class="fil3" d="M10.36 14.58c-0.01,0.01 -0.01,0.02 -0.01,0.05 -0,0.02 -0.02,0.07 -0.02,0.09l-0.08 0.36c0.58,-0.04 2.23,-1.05 2.72,-1.6 0.1,-0.11 0.22,-0.24 0.26,-0.37 -0.08,0.02 -0.37,0.21 -0.75,0.45 -0.76,0.48 -1.49,0.73 -2.12,1.03z"/>
 </g>
</svg>
