<?xml version="1.0" encoding="UTF-8"?>
<!DOCTYPE svg PUBLIC "-//W3C//DTD SVG 1.1//EN" "http://www.w3.org/Graphics/SVG/1.1/DTD/svg11.dtd">
<!-- Creator: CorelDRAW -->
<svg xmlns="http://www.w3.org/2000/svg" xml:space="preserve" width="13.2336mm" height="5.011mm" version="1.1" style="shape-rendering:geometricPrecision; text-rendering:geometricPrecision; image-rendering:optimizeQuality; fill-rule:evenodd; clip-rule:evenodd"
viewBox="0 0 57.56 21.8"
 xmlns:xlink="http://www.w3.org/1999/xlink"
 xmlns:xodm="http://www.corel.com/coreldraw/odm/2003">
 <defs>
  <style type="text/css">
   <![CDATA[
    .fil1 {fill:#C12934;fill-rule:nonzero}
    .fil2 {fill:#256DB5;fill-rule:nonzero}
    .fil0 {fill:url(#id0)}
   ]]>
  </style>
  <radialGradient id="id0" gradientUnits="userSpaceOnUse" gradientTransform="matrix(1.96188 -0 -0 1.93643 -6 -16)" cx="6.11" cy="16.57" r="8.99" fx="6.11" fy="16.57">
   <stop offset="0" style="stop-opacity:1; stop-color:#B0D0EE"/>
   <stop offset="0.490196" style="stop-opacity:1; stop-color:#84B1DE"/>
   <stop offset="1" style="stop-opacity:1; stop-color:#1571B8"/>
  </radialGradient>
 </defs>
 <g id="Layer_x0020_1">
  <metadata id="CorelCorpID_0Corel-Layer"/>
  <path class="fil0" d="M11.01 0.07c-1.57,0.26 -5.36,1.59 -7.74,3.07 -2.73,1.7 -3.58,3.36 -3.18,5.44 0.36,1.81 1.12,3.58 2.4,5.66 1.41,2.27 3.55,3.59 6.22,2.39 2.67,-1.2 6.49,-4.01 7.87,-5.72 1.62,-2 1.62,-3.83 1.02,-5.68 -0.48,-1.46 -1.2,-2.51 -2.2,-3.62 -0.85,-0.93 -2.11,-1.61 -3.58,-1.61 -0.27,0 -0.55,0.02 -0.83,0.07z"/>
  <path class="fil1" d="M6.59 18.21c0.32,-0.47 0.75,-0.64 1.46,-0.44 0.62,0.16 1.49,0.65 1.7,0.86 0.32,0.31 0.42,0.63 0.37,1.12 -0.04,0.4 -0.15,0.74 -0.34,1.11 -0.28,0.55 -0.67,0.89 -1.18,0.89 -0.51,0.01 -1.59,-0.11 -2.2,-0.38 -0.61,-0.27 -0.69,-0.92 -0.48,-1.63 0.19,-0.64 0.4,-1.12 0.68,-1.54z"/>
  <path class="fil2" d="M23.08 13.37c-2.73,0 -3.97,2.18 -3.97,4.21 0,2.03 1.24,4.22 3.97,4.22 2.73,0 3.97,-2.19 3.97,-4.22 0,-2.03 -1.24,-4.21 -3.97,-4.21zm0 8.03c-2.47,0 -3.35,-2.06 -3.35,-3.82 0,-1.76 0.88,-3.82 3.35,-3.82 2.47,0 3.35,2.06 3.35,3.82 0,1.76 -0.88,3.82 -3.35,3.82z"/>
  <path class="fil2" d="M30.66 15.64l-0.89 0 0 -1.63c0,-0.37 -0.19,-0.37 -0.27,-0.37 -0.08,0 -0.27,0 -0.27,0.37l0 1.63 -0.89 0c-0.13,0 -0.2,0.06 -0.2,0.16 0,0.11 0.07,0.16 0.2,0.16l0.89 0 0 5.48c0,0.36 0.19,0.36 0.27,0.36 0.08,0 0.27,0 0.27,-0.36l0 -5.48 0.89 0c0.13,0 0.2,-0.06 0.2,-0.16 0,-0.11 -0.07,-0.16 -0.2,-0.16z"/>
  <path class="fil2" d="M35.16 19.04c-0.34,-0.12 -1.34,-0.48 -1.72,-0.62 -0.82,-0.29 -1.15,-0.73 -1.15,-1.35 0,-0.93 1.17,-1.5 2.26,-1.5 0.68,0 1.41,0.14 2.04,0.5 0.3,0.17 0.06,0.51 -0.22,0.37 -0.48,-0.25 -0.83,-0.54 -1.79,-0.54 -0.83,0 -1.7,0.38 -1.7,1.12 0,0.43 0.33,0.74 0.85,0.92 0.16,0.06 1.31,0.46 1.51,0.53 1.08,0.38 1.71,0.8 1.71,1.66 0,1 -1,1.68 -2.49,1.68 -1.26,0 -2.08,-0.56 -2.44,-0.91 -0.28,-0.28 0.07,-0.58 0.3,-0.35 0.25,0.25 0.92,0.93 2.18,0.93 1.04,0 1.85,-0.57 1.85,-1.31 0,-0.71 -0.63,-0.91 -1.19,-1.12z"/>
  <path class="fil2" d="M43.71 15.56c-0.08,0 -0.27,0 -0.27,0.36l0 3.65c0,0.5 -0.04,0.91 -0.26,1.22 -0.32,0.44 -0.93,0.68 -1.77,0.68 -0.83,0 -1.43,-0.24 -1.75,-0.69 -0.22,-0.31 -0.29,-0.72 -0.29,-1.21l0 -3.65c0,-0.36 -0.19,-0.36 -0.27,-0.36 -0.08,0 -0.27,0 -0.27,0.36l0 3.87c0,1.22 1.01,2.01 2.58,2.01 1.56,0 2.57,-0.79 2.57,-2.01l0 -3.87c0,-0.36 -0.19,-0.36 -0.27,-0.36z"/>
  <path class="fil2" d="M50.38 21.68c0.28,0.21 0.39,0.08 0.44,0.01 0.05,-0.06 0.17,-0.21 -0.11,-0.43l-3.5 -2.81c0,0 3.42,-2.56 3.42,-2.55 0.18,-0.14 0.12,-0.24 0.09,-0.28 -0.03,-0.04 -0.12,-0.13 -0.3,0.01l-3.84 2.83 0 -5.38c0,-0.36 -0.19,-0.36 -0.27,-0.36 -0.08,0 -0.27,0 -0.27,0.36l0 8.37c0,0.36 0.19,0.36 0.27,0.36 0.08,0 0.27,0 0.27,-0.36l0 -2.81c0,0 3.8,3.05 3.8,3.05z"/>
  <path class="fil2" d="M57.29 15.56c-0.08,0 -0.27,0.01 -0.27,0.36l-0 1.28c-0.29,-0.82 -1.07,-1.63 -2.34,-1.63 -2.01,0 -2.92,1.61 -2.92,3.11 0,1.51 0.77,3.12 2.95,3.12 1.34,0 2.04,-0.84 2.32,-1.63l0 1.27c0,0.36 0.18,0.36 0.26,0.36 0.08,0 0.27,0 0.27,-0.36l0 -5.52c0,-0.34 -0.19,-0.36 -0.27,-0.36zm-2.59 5.91c-1.72,0 -2.38,-1.5 -2.38,-2.79 0,-1.39 0.77,-2.79 2.38,-2.79 1.71,0 2.32,1.5 2.32,2.79 0,1.29 -0.61,2.79 -2.32,2.79z"/>
 </g>
</svg>
