<?xml version="1.0" encoding="UTF-8"?>
<!DOCTYPE svg PUBLIC "-//W3C//DTD SVG 1.1//EN" "http://www.w3.org/Graphics/SVG/1.1/DTD/svg11.dtd">
<!-- Creator: CorelDRAW -->
<svg xmlns="http://www.w3.org/2000/svg" xml:space="preserve" width="13.3049mm" height="3.8844mm" version="1.1" style="shape-rendering:geometricPrecision; text-rendering:geometricPrecision; image-rendering:optimizeQuality; fill-rule:evenodd; clip-rule:evenodd"
viewBox="0 0 47.02 13.73"
 xmlns:xlink="http://www.w3.org/1999/xlink"
 xmlns:xodm="http://www.corel.com/coreldraw/odm/2003">
 <defs>
  <style type="text/css">
   <![CDATA[
    .fil2 {fill:#E1252B;fill-rule:nonzero}
    .fil0 {fill:#CBD60A;fill-rule:nonzero}
    .fil3 {fill:#252223;fill-rule:nonzero}
    .fil1 {fill:#1767B0;fill-rule:nonzero}
   ]]>
  </style>
 </defs>
 <g id="Layer_x0020_1">
  <metadata id="CorelCorpID_0Corel-Layer"/>
  <path class="fil0" d="M11.05 5.03c0,0 -0.65,0 -0.93,0.45l-2.19 3.41 3.92 0c0,0 0.63,0.06 0.95,-0.39l2.31 -3.47 -4.06 0z"/>
  <path class="fil1" d="M4.97 5.03c0,0 -0.71,0.12 -0.99,0.57l-3.98 6.13 3.78 0c0,0 0.77,0 1.1,-0.45l4.16 -6.25 -4.06 0z"/>
  <path class="fil2" d="M11.98 0c0,0 0.65,0 0.93,0.45l2.19 3.41 -3.92 0c0,0 -0.63,0.06 -0.95,-0.39l-2.31 -3.47 4.06 0z"/>
  <path class="fil3" d="M18.4 5.64l0.12 0c0.22,0 0.38,0.04 0.48,0.13 0.1,0.09 0.15,0.22 0.15,0.42 0,0.2 -0.05,0.35 -0.15,0.45 -0.1,0.09 -0.26,0.14 -0.48,0.14l-0.12 0 0 -1.13zm0 3.25l0 -1.47 0.22 0c0.42,0 0.75,-0.11 0.98,-0.32 0.24,-0.21 0.35,-0.5 0.35,-0.88 0,-0.4 -0.12,-0.7 -0.35,-0.9 -0.23,-0.19 -0.6,-0.29 -1.09,-0.29l-0.92 0 0 3.86 0.81 0zm4.32 0l0 -0.7 -1.41 0 0 -0.97 1.41 0 0 -0.7 -1.41 0 0 -0.79 1.41 0 0 -0.7 -2.21 0 0 3.86 2.21 0zm2.46 -1.76c0.25,-0.03 0.45,-0.14 0.6,-0.33 0.16,-0.19 0.23,-0.41 0.23,-0.68 0,-0.37 -0.11,-0.64 -0.34,-0.82 -0.23,-0.18 -0.57,-0.27 -1.02,-0.27l-1.15 0 0 3.86 0.8 0 0 -1.8 0.99 1.8 0.92 0 -1.03 -1.76zm-0.88 -1.47l0.12 0c0.31,0 0.52,0.04 0.63,0.12 0.11,0.08 0.17,0.21 0.17,0.4 0,0.18 -0.05,0.31 -0.16,0.38 -0.1,0.07 -0.32,0.11 -0.64,0.11l-0.12 0 0 -1.01zm4.69 0.07l0 -0.7 -2.64 0 0 0.7 0.92 0 0 3.16 0.8 0 0 -3.16 0.92 0zm1.14 1.69l0.4 -1.23c0.01,-0.03 0.03,-0.1 0.05,-0.2 0.02,-0.1 0.04,-0.21 0.06,-0.34 0.02,0.13 0.04,0.24 0.06,0.33 0.02,0.09 0.03,0.15 0.05,0.19l0.42 1.25 -1.04 0zm-0.49 1.47l0.26 -0.82 1.45 0 0.31 0.82 0.91 0 -1.45 -3.86 -0.92 0 -1.43 3.86 0.86 0zm3.76 0l0.27 -2.33 0 -0.01c0.03,-0.26 0.04,-0.48 0.04,-0.66l0 -0.11c0.04,0.2 0.07,0.35 0.1,0.45 0.02,0.1 0.04,0.17 0.04,0.19l0.78 2.47 0.45 0 0.79 -2.47c0.02,-0.06 0.04,-0.14 0.06,-0.25 0.02,-0.11 0.05,-0.24 0.07,-0.39 -0,0.01 -0,0.03 -0,0.05 0,0.02 -0,0.05 -0,0.09 0,0.08 0,0.16 0.01,0.25 0.01,0.09 0.02,0.22 0.04,0.39l0.27 2.33 0.76 0 -0.57 -3.86 -0.83 0 -0.73 2.27c-0.02,0.04 -0.03,0.11 -0.05,0.21 -0.02,0.09 -0.03,0.2 -0.05,0.32 -0.01,-0.12 -0.03,-0.22 -0.05,-0.31 -0.02,-0.09 -0.03,-0.16 -0.05,-0.21l-0.72 -2.27 -0.84 0 -0.57 3.86 0.76 0zm5.04 -3.86l-0.8 0 0 3.86 0.8 0 0 -3.86zm1.62 3.86l0 -2.2c0,-0.17 -0,-0.32 -0.01,-0.43 -0.01,-0.11 -0.02,-0.23 -0.04,-0.34 0.06,0.16 0.12,0.3 0.18,0.41 0.06,0.11 0.11,0.2 0.16,0.27l1.7 2.29 0.79 0 0 -3.86 -0.76 0 0 2.16c0,0.17 0,0.31 0.01,0.42 0.01,0.11 0.02,0.23 0.04,0.34 -0.06,-0.16 -0.12,-0.29 -0.18,-0.41 -0.06,-0.12 -0.11,-0.2 -0.16,-0.27l-1.66 -2.25 -0.83 0 0 3.86 0.76 0zm4.51 -1.47l0.4 -1.23c0.01,-0.03 0.02,-0.1 0.04,-0.2 0.02,-0.1 0.04,-0.21 0.06,-0.34 0.02,0.13 0.04,0.24 0.06,0.33 0.02,0.09 0.03,0.15 0.05,0.19l0.42 1.25 -1.04 0zm-0.49 1.47l0.26 -0.82 1.45 0 0.3 0.82 0.91 0 -1.45 -3.86 -0.92 0 -1.43 3.86 0.86 0z"/>
  <path class="fil2" d="M19.46 12.44l0.73 0c-0.02,0.21 -0.12,0.38 -0.29,0.53 -0.17,0.15 -0.37,0.22 -0.59,0.22 -0.26,0 -0.49,-0.1 -0.71,-0.29 -0.23,-0.21 -0.35,-0.48 -0.35,-0.81 0,-0.32 0.11,-0.58 0.32,-0.79 0.21,-0.21 0.47,-0.32 0.78,-0.32 0.35,0 0.64,0.16 0.88,0.48l0.32 -0.3c-0.18,-0.21 -0.37,-0.36 -0.56,-0.46 -0.2,-0.09 -0.41,-0.14 -0.64,-0.14 -0.43,0 -0.79,0.15 -1.09,0.45 -0.3,0.3 -0.45,0.66 -0.45,1.08 0,0.42 0.15,0.77 0.44,1.07 0.29,0.3 0.64,0.44 1.05,0.44 0.42,0 0.77,-0.15 1.04,-0.46 0.12,-0.14 0.21,-0.28 0.26,-0.44 0.05,-0.17 0.08,-0.36 0.08,-0.58l0 -0.1 -1.21 0 0 0.42zm3.66 1.11l0.48 0 -1.4 -3.11 -1.45 3.11 0.48 0 0.33 -0.71 1.25 0 0.31 0.71zm-1.38 -1.13l0.46 -1 0.44 1 -0.89 0zm3.09 -1.86c-0.25,0 -0.46,0.07 -0.63,0.22 -0.17,0.15 -0.25,0.33 -0.25,0.55 0,0.33 0.2,0.57 0.6,0.74l0.28 0.12c0.07,0.03 0.14,0.07 0.19,0.1 0.05,0.03 0.1,0.07 0.13,0.11 0.03,0.04 0.06,0.08 0.07,0.13 0.02,0.05 0.02,0.1 0.02,0.16 0,0.14 -0.05,0.26 -0.14,0.35 -0.09,0.09 -0.21,0.14 -0.34,0.14 -0.18,0 -0.31,-0.06 -0.4,-0.19 -0.05,-0.07 -0.09,-0.18 -0.11,-0.36l-0.45 0.1c0.04,0.27 0.14,0.49 0.31,0.64 0.16,0.15 0.38,0.23 0.63,0.23 0.27,0 0.49,-0.09 0.67,-0.27 0.18,-0.18 0.27,-0.4 0.27,-0.67 0,-0.2 -0.06,-0.37 -0.16,-0.51 -0.11,-0.14 -0.28,-0.26 -0.52,-0.35l-0.29 -0.12c-0.21,-0.09 -0.32,-0.2 -0.32,-0.35 0,-0.1 0.04,-0.19 0.12,-0.26 0.08,-0.07 0.18,-0.1 0.31,-0.1 0.1,0 0.18,0.02 0.24,0.06 0.06,0.04 0.12,0.11 0.19,0.23l0.36 -0.21c-0.19,-0.33 -0.45,-0.49 -0.79,-0.49zm3.04 2.99l0 -2.05 2.14 2.23 0 -3.11 -0.44 0 0 2.04 -2.14 -2.24 0 3.13 0.44 0zm4.46 -2.93l-1.62 0 0 2.93 1.62 0 0 -0.41 -1.18 0 0 -0.98 1.14 0 0 -0.42 -1.14 0 0 -0.7 1.18 0 0 -0.42zm2.09 1.82l0.73 0c-0.02,0.21 -0.12,0.38 -0.29,0.53 -0.17,0.15 -0.37,0.22 -0.59,0.22 -0.26,0 -0.49,-0.1 -0.71,-0.29 -0.23,-0.21 -0.35,-0.48 -0.35,-0.81 0,-0.32 0.11,-0.58 0.32,-0.79 0.21,-0.21 0.47,-0.32 0.78,-0.32 0.35,0 0.64,0.16 0.88,0.48l0.32 -0.3c-0.18,-0.21 -0.37,-0.36 -0.56,-0.46 -0.2,-0.09 -0.41,-0.14 -0.64,-0.14 -0.43,0 -0.79,0.15 -1.09,0.45 -0.3,0.3 -0.45,0.66 -0.45,1.08 0,0.42 0.15,0.77 0.44,1.07 0.29,0.3 0.64,0.44 1.05,0.44 0.42,0 0.77,-0.15 1.04,-0.46 0.12,-0.14 0.21,-0.28 0.26,-0.44 0.05,-0.17 0.08,-0.36 0.08,-0.58l0 -0.1 -1.21 0 0 0.42zm3.66 1.11l0.48 0 -1.4 -3.11 -1.45 3.11 0.48 0 0.33 -0.71 1.25 0 0.31 0.71zm-1.38 -1.13l0.46 -1 0.44 1 -0.89 0zm3.69 -0.41c0.12,-0.15 0.18,-0.33 0.18,-0.54 0,-0.27 -0.1,-0.48 -0.28,-0.64 -0.17,-0.15 -0.45,-0.22 -0.84,-0.22l-0.52 0 0 2.93 0.44 0 0 -1.2 0.08 0 0.84 1.2 0.54 0 -0.91 -1.25c0.19,-0.04 0.35,-0.14 0.47,-0.29zm-1.02 -0.98l0.16 0c0.41,0 0.61,0.15 0.61,0.45 0,0.32 -0.21,0.48 -0.63,0.48l-0.14 0 0 -0.93zm3.93 2.51l0.48 0 -1.4 -3.11 -1.45 3.11 0.48 0 0.33 -0.71 1.25 0 0.31 0.71zm-1.38 -1.13l0.46 -1 0.43 1 -0.89 0z"/>
 </g>
</svg>
