<?xml version="1.0" encoding="UTF-8"?>
<!DOCTYPE svg PUBLIC "-//W3C//DTD SVG 1.1//EN" "http://www.w3.org/Graphics/SVG/1.1/DTD/svg11.dtd">
<!-- Creator: CorelDRAW -->
<svg xmlns="http://www.w3.org/2000/svg" xml:space="preserve" width="8.4668mm" height="9.3658mm" version="1.1" style="shape-rendering:geometricPrecision; text-rendering:geometricPrecision; image-rendering:optimizeQuality; fill-rule:evenodd; clip-rule:evenodd"
viewBox="0 0 21.36 23.63"
 xmlns:xlink="http://www.w3.org/1999/xlink"
 xmlns:xodm="http://www.corel.com/coreldraw/odm/2003">
 <defs>
  <style type="text/css">
   <![CDATA[
    .fil0 {fill:#2E3388;fill-rule:nonzero}
   ]]>
  </style>
 </defs>
 <g id="Layer_x0020_1">
  <metadata id="CorelCorpID_0Corel-Layer"/>
  <path class="fil0" d="M8.58 23.04c0.18,0 0.5,-0.06 0.75,-0.46 -0.14,-0.32 -0.24,-0.95 -0.26,-1.19 -0.07,-1.19 0.38,-2.31 0.89,-2.34 0.37,-0.02 0.66,0.33 0.7,0.89 0.09,1.48 -0.4,2.1 -0.65,2.63 0.04,0.21 0.39,0.56 0.72,0.56 0.12,0 0.27,-0.06 0.31,-0.11 -0.02,-0.08 -0.05,-0.2 -0.05,-0.36 0,-0.86 0.55,-1.58 1.03,-1.58 0.38,0 0.6,0.5 0.6,0.83 0,0.39 -0.33,0.71 -0.82,1.02 0.09,0.08 0.24,0.15 0.38,0.15 0.7,0 1.07,-0.85 1.34,-1.62 0.05,-0.15 0.14,-0.36 0.31,-0.36 0.29,0 0.42,1.94 0.91,1.94 0.21,0 0.38,-0.43 0.38,-0.76 0,-0.25 -0.09,-0.27 -0.09,-0.63 0,-0.39 0.21,-0.72 0.49,-0.72 0.17,0 0.23,0.17 0.23,0.38 0,0.78 -0.56,2.24 -1.4,2.24 -0.63,0 -0.58,-1.08 -0.8,-1.08 -0.25,0 -0.59,1.09 -1.8,1.09 -0.2,0 -0.4,-0.1 -0.58,-0.29 -0.29,0.2 -0.54,0.28 -0.82,0.28 -0.45,0 -0.65,-0.47 -0.83,-0.47 -0.22,0 -0.47,0.48 -1.2,0.48 -0.59,0 -0.69,-0.78 -0.89,-0.78 -0.18,0 -0.47,0.78 -0.77,0.78 -0.52,0 -0.62,-1.36 -1.08,-1.36 -0.36,0 -1.48,1.38 -1.78,1.35 -0.12,-0.01 -0.17,-0.1 -0.16,-0.23 0.02,-0.17 0.16,-0.62 0.22,-0.84 0.1,-0.37 0.19,-0.78 0.24,-0.91 0.05,-0.13 0.19,-0.23 0.3,-0.22 0.05,0.01 0.07,0.11 0.09,0.19 0.06,0.3 0.15,0.61 0.25,0.61 0.17,0 0.74,-1.09 1.07,-1.09 0.4,0 0.45,1.72 1,1.72 0.18,0 0.32,-0.22 0.44,-0.49 0.01,-0.45 0.14,-1.1 0.5,-1.1 0.26,0 0.38,0.58 0.2,1.08 0,0.6 0.39,0.75 0.65,0.75zm10.12 -1.81c0.22,0 0.12,1.38 0.43,1.38 0.18,0 0.43,-1.73 1.58,-1.73 0.39,0 0.65,0.22 0.65,0.5 0,0.2 -0.15,0.37 -0.35,0.37 -0.44,0 -0.33,-0.33 -0.51,-0.33 -0.49,0 -0.85,0.94 -1.21,1.76 -0.15,0.33 -0.23,0.39 -0.36,0.39 -0.31,0 -0.38,-0.85 -0.5,-1.21 -0.26,0.55 -0.75,1.21 -1.56,1.21 -0.47,0 -0.93,-0.24 -0.93,-0.99 0,-0.83 0.54,-1.43 1.09,-1.43 0.42,0 0.7,0.43 0.7,0.74 0,0.82 -1.08,0.85 -1.08,1.02 0,0.16 0.28,0.22 0.44,0.22 0.69,0 1.15,-0.93 1.3,-1.56 0.03,-0.11 0.12,-0.34 0.32,-0.34zm-8.45 -0.95c-0.02,-0.34 -0.1,-0.5 -0.29,-0.48 -0.24,0.01 -0.36,0.78 -0.31,1.59 0.03,0.53 0.11,0.61 0.18,0.6 0.14,-0.01 0.46,-0.95 0.41,-1.71zm-2.43 -0.13c-0.23,0 -0.35,-0.17 -0.37,-0.37 -0.02,-0.31 0.2,-0.55 0.43,-0.55 0.21,0 0.36,0.13 0.38,0.33 0.02,0.28 -0.17,0.59 -0.44,0.59zm4.25 1.91c0,-0.21 -0.11,-0.38 -0.24,-0.38 -0.11,0 -0.37,0.12 -0.37,0.51 0,0.31 0.11,0.45 0.16,0.52 0.35,-0.11 0.45,-0.4 0.45,-0.65zm4.44 0.53c0.34,-0.06 0.56,-0.27 0.63,-0.45 0.06,-0.18 -0.01,-0.49 -0.27,-0.49 -0.47,0 -0.43,0.76 -0.36,0.94zm-13.76 -1.81c-0.04,-0.11 -0.14,-0.36 -0.17,-0.55 -0.06,-0.41 0.15,-0.68 0.35,-0.74 0.22,-0.06 0.31,0.05 0.39,0.31 0.11,0.39 0.12,0.91 0.09,1.64 -0.05,1.01 -0.55,2.22 -1.8,2.19 -1.08,-0.02 -1.56,-0.72 -1.61,-1.79 -0.02,-0.5 0.01,-1 0.22,-1.72 0.11,-0.38 0.21,-0.52 0.55,-0.59 0.27,-0.05 0.25,0.23 0.18,0.56 -0.13,0.74 -0.2,1.09 -0.15,1.92 0.05,0.88 0.45,1.23 0.89,1.23 0.66,0.01 0.96,-0.54 1.08,-1.34 0.1,-0.64 0.02,-0.94 -0.04,-1.14z"/>
  <path class="fil0" d="M18.55 4.13c0.19,0.06 0.17,0.35 0.17,0.7 0,0.62 -0.07,1.42 -0.23,1.43 -0.25,0.02 -1.19,-0.81 -1.27,-1.43 0.25,0.03 1.04,-0.1 1.34,-0.7zm-1.72 0.17c0,-0.08 0.07,-0.23 0.28,-0.23 0.59,0 1.14,-0.4 1.14,-0.75 0,-0.1 -0.02,-0.15 -0.06,-0.21 0.27,0.03 0.37,0.21 0.37,0.44 0,0.47 -0.62,1.01 -1.29,1.01 -0.25,0 -0.43,-0.08 -0.43,-0.26zm0.29 -0.48c-0.09,0 -0.22,0 -0.29,-0.14 -0.06,-0.12 -0.04,-0.31 -0.15,-0.39 0.11,0.03 0.23,0.03 0.32,0.03 0.29,0 0.57,-0.2 0.79,-0.2 0.14,0 0.19,0.09 0.19,0.18 0,0.29 -0.58,0.52 -0.85,0.52z"/>
  <path class="fil0" d="M2.57 8.92c0.22,0 0.18,-1.35 0.53,-1.35 0.08,0 0.11,0.08 0.11,0.19 0,0.31 -0.15,0.75 -0.15,1 0,0.12 0.03,0.16 0.09,0.16 0.16,0 0.43,-1.49 0.7,-1.49 0.08,0 0.12,0.08 0.12,0.17 0,0.31 -0.4,1.21 -0.4,1.46 0,0.04 0.01,0.07 0.05,0.07 0.16,0 0.49,-0.7 0.59,-1.05 0.06,-0.18 0.14,-0.28 0.21,-0.28 0.06,0 0.12,0.07 0.12,0.22 0,0.35 -0.32,1.18 -0.61,1.73 -0.22,0.43 -0.57,1.05 -0.57,1.39 0,0.18 0.03,0.36 0.29,0.58 -0.42,-0.03 -0.59,-0.07 -0.74,-0.39 -0.7,1.39 1.28,1.25 0.6,2.48 -0.12,-0.22 -1.1,-0.45 -1.1,-1.74 0,-1.11 0.97,-1.76 0.97,-2.22 0,-0.09 -0.03,-0.17 -0.12,-0.24 -0.21,-0.18 -0.22,-0.33 -0.39,-0.33 -0.12,0 -0.27,0.29 -0.12,0.54 0.05,0.08 0.1,0.14 0.1,0.21 0,0.18 -0.29,0.67 -0.49,0.67 -0.2,0 -0.36,-0.5 -0.36,-1.31 0,-0.72 0.16,-1.44 0.36,-1.44 0.06,0 0.08,0.04 0.08,0.09 0,0.08 -0.03,0.25 -0.03,0.54 0,0.31 0.07,0.33 0.13,0.33z"/>
  <path class="fil0" d="M4.23 10.83c0.27,0 0.5,-0.2 0.5,-0.65l0 -0.66c0,-0.25 0.02,-0.54 0.19,-0.74 -0.02,0.08 -0.02,0.18 -0.02,0.26 0,0.56 0.31,0.94 0.31,1.48 0,0.2 -0.06,0.31 -0.21,0.31 -0.15,0 -0.14,-0.14 -0.17,-0.14 -0.03,0 -0.06,0.08 -0.06,0.18 0,0.14 0.1,0.35 0.37,0.35 0.23,0 0.42,-0.21 0.42,-0.45 0,-0.58 -0.45,-1.24 -0.45,-1.86 0,-0.27 0.07,-0.46 0.13,-0.6 0,1.29 1.1,2.24 1.1,2.78 0,0.12 -0.09,0.22 -0.23,0.22 -0.15,0 -0.22,-0.12 -0.22,-0.21 0,-0.05 -0.01,-0.06 -0.03,-0.06 -0.04,0 -0.16,0.13 -0.16,0.3 0,0.21 0.18,0.47 0.5,0.47 0.37,0 0.57,-0.31 0.57,-0.59 0,-0.68 -1.33,-1.72 -1.33,-2.82 0,-0.19 0.03,-0.49 0.17,-0.73 -0.86,0.55 -1.12,1.29 -1.12,1.93 0,0.56 -0.02,0.84 -0.31,0.84 -0.15,0 -0.19,-0.14 -0.24,-0.14 -0.04,0 -0.06,0.12 -0.06,0.15 0,0.24 0.18,0.38 0.35,0.38z"/>
  <path class="fil0" d="M14.08 3.5c0.08,-0.06 0.45,0.03 0.92,-0.2 0.06,-0.03 0.12,-0.05 0.17,-0.05 0.23,0 0.17,0.26 0.38,0.26 0.16,0 0.37,-0.14 0.49,-0.14 0.19,0 0.47,0.61 0.47,0.9 0,0.33 -0.5,0.53 -1.09,0.53 -0.86,0 -1.38,-0.75 -1.38,-1.24 0,-0.04 0.02,-0.05 0.04,-0.06zm1.42 0.83c0.29,0 0.5,-0.13 0.5,-0.21 0,-0.03 -0.04,-0.05 -0.12,-0.05 -0.08,0 -0.25,-0.01 -0.57,-0.06 -0.27,-0.05 -0.48,-0.15 -0.56,-0.15 -0.03,0 -0.04,0.01 -0.04,0.03 0,0.17 0.31,0.43 0.79,0.43z"/>
  <path class="fil0" d="M4.36 13.28c-0.21,0.05 -0.56,0.39 -0.56,0.92 0,0.64 0.68,1.62 1.81,1.62 0.95,0 1.18,-0.66 1.18,-1.1 0,-0.98 -0.61,-1.67 -1.39,-1.67 -0.43,0 -0.81,0.31 -0.81,0.77 0,0.43 0.32,1.07 1.1,1.07 0.36,0 0.58,-0.26 0.58,-0.56 0,-0.29 -0.27,-0.7 -0.66,-0.7 -0.12,0 -0.2,0.08 -0.2,0.2 0,0.16 0.22,0.31 0.48,0.31 0.07,0 0.12,-0.01 0.14,-0.03 0.01,0.02 0.02,0.05 0.02,0.08 0,0.15 -0.14,0.24 -0.36,0.24 -0.33,0 -0.65,-0.25 -0.65,-0.64 0,-0.23 0.2,-0.4 0.49,-0.4 0.58,0 0.92,0.51 0.92,1.03 0,0.46 -0.25,0.73 -0.77,0.73 -1.04,0 -1.55,-0.94 -1.32,-1.89z"/>
  <path class="fil0" d="M11.79 17.09c0.31,0 0.3,-0.03 0.39,-0.03 0.1,0 0.1,0.06 0.1,0.1 0,0.14 -0.32,0.32 -0.88,0.32 -0.33,0 -0.53,-0.18 -0.59,-0.37 -0.32,0.21 -0.82,0.4 -1.31,0.4 -1.33,0 -1.67,-0.58 -2.09,-0.77 -0.32,-0.14 -0.81,0.14 -1.49,-0.62 0.09,0.02 0.21,0.03 0.31,0.03 0.6,0 0.92,-0.29 0.92,-0.76 0,-0.06 -0.01,-0.12 -0.01,-0.18 0.18,0.07 0.6,0.38 0.7,0.94 0.01,0.07 0.28,0.12 0.45,0.12 0.23,0 0.53,-0.1 0.58,-0.48 0.78,-0.07 1.31,-0.53 1.42,-1.11 0.28,0.09 0.6,0.35 0.68,0.48 0.11,-0.04 0.24,-0.06 0.39,-0.06 0.21,0 0.44,0.04 0.72,0.12 0.01,-0.09 0.03,-0.19 0.16,-0.19 0.2,0 0.14,0.21 0.21,0.34 0.03,0.07 0.19,0.1 0.19,0.23 0,0.12 -0.1,0.17 -0.17,0.17 -0.03,0 -0.06,-0.01 -0.08,-0.01 -0.13,0.05 -0.14,0.98 -0.68,0.98 -0.4,0 -0.77,-0.33 -0.94,-0.75 -0.05,-0.12 -0.14,-0.2 -0.23,-0.2 -0.1,0 -0.16,0.02 -0.29,0.16 -0.35,0.38 -0.94,0.71 -1.66,0.71 -0.22,0 -0.4,-0.02 -0.44,-0.02 -0.03,0 -0.03,0.01 -0.03,0.01 0,0.05 0.22,0.22 0.7,0.22 1.14,0 1.42,-0.64 1.61,-0.64 0.03,0 0.1,0 0.15,0.1 0.27,0.62 0.85,0.77 1.21,0.77zm-0.5 -1.3c0,0.14 0.12,0.26 0.26,0.26 0.14,0 0.26,-0.12 0.26,-0.26 0,-0.14 -0.12,-0.26 -0.26,-0.26 -0.14,0 -0.26,0.12 -0.26,0.26z"/>
  <path class="fil0" d="M15.73 12.95c-0.14,0 -0.89,1.01 -1.38,1.01 -0.12,0 -0.21,-0.22 -0.21,-0.39 0,-0.09 0.06,-0.16 0.27,-0.2 1.12,-0.25 0.87,-1.09 1.83,-1.09 0.53,0 1.11,0.36 1.11,1.16 0,0.86 -1.22,1.93 -1.4,1.93 -0.15,0 -0.31,-0.21 -0.31,-0.36 0,-0.05 0.02,-0.1 0.15,-0.16 0.62,-0.25 0.98,-0.82 0.98,-1.11 0,-0.06 -0.03,-0.13 -0.12,-0.13 -0.11,0 -0.58,1.08 -1.11,1.08 -0.36,0 -0.74,-0.33 -0.74,-0.49 0,-0.26 1.05,-0.74 1.05,-1.11 0,-0.14 -0.06,-0.14 -0.12,-0.14zm0.7 -0.4c-0.09,0 -0.19,0.07 -0.19,0.25 0,0.19 0.15,0.32 0.23,0.36 0.05,0.03 0.12,0.05 0.19,0.05 0.19,0 0.34,-0.05 0.34,-0.21 0,-0.2 -0.29,-0.45 -0.57,-0.45z"/>
  <path class="fil0" d="M4.54 4.75c0.14,0 0.26,0.12 0.26,0.26 0,0.14 -0.12,0.26 -0.26,0.26 -0.14,0 -0.26,-0.12 -0.26,-0.26 0,-0.14 0.12,-0.26 0.26,-0.26zm-0.34 -0.59c0.14,0 0.26,0.12 0.26,0.26 0,0.14 -0.12,0.26 -0.26,0.26 -0.14,0 -0.26,-0.12 -0.26,-0.26 0,-0.14 0.12,-0.26 0.26,-0.26zm-0.54 2.34c0,0.2 0.07,0.39 0.25,0.57 -0.05,0.04 -0.14,0.07 -0.25,0.07 -0.23,0 -0.41,-0.15 -0.41,-0.38 0,-0.32 0.31,-0.51 0.46,-0.55 -0.03,0.08 -0.05,0.16 -0.05,0.3zm-0.89 0.07c0.08,0 0.16,-0.01 0.23,-0.02 -0.17,0.21 -0.36,0.31 -0.52,0.31 -0.21,0 -0.38,-0.17 -0.38,-0.48 0,-0.03 0,-0.06 0.01,-0.1 0.16,0.21 0.42,0.28 0.66,0.28zm-0.27 0.69c0.18,0 0.37,-0.04 0.62,-0.1 -0.33,0.29 -0.61,0.44 -0.82,0.44 -0.27,0 -0.42,-0.23 -0.42,-0.73 0.2,0.3 0.38,0.39 0.61,0.39zm0.11 -3.71c0,-0.24 0.18,-0.44 0.44,-0.44 0.44,0 0.59,0.48 0.59,0.79 0,0.14 -0.03,0.27 -0.06,0.38 -0.45,0 -0.96,-0.21 -0.96,-0.72zm0.05 1.27c0.29,-0.18 0.54,-0.21 0.75,-0.21 0.05,0 0.1,0 0.14,0.01 0.12,0.01 0.21,0.02 0.24,0.05 0.05,0.05 0.02,0.15 0.1,0.27 0.08,0.11 0.18,0.1 0.18,0.22 0,0.1 -0.18,0.68 -0.65,0.91 -0.22,0.11 -0.4,0.16 -0.55,0.16 -0.25,0 -0.43,-0.11 -0.59,-0.11 -0.03,0 -0.06,0.01 -0.11,0.01 -0.06,0 -0.12,-0.07 -0.12,-0.12 0,-0.03 0.01,-0.05 0.02,-0.07 0.09,-0.15 0.01,-0.75 0.57,-1.11zm0.83 0.04c-0.03,-0.02 -0.05,-0.03 -0.1,-0.03 -0.1,0 -0.17,0.01 -0.17,0.14 0,0.2 0.18,0.54 0.41,0.54 0.1,0 0.16,-0.12 0.16,-0.21 0,-0.05 -0.12,-0.12 -0.17,-0.18 -0.07,-0.1 -0.07,-0.23 -0.13,-0.26zm-0.23 0.94c0,-0.01 -0.01,-0.02 -0.03,-0.03 -0.2,-0.09 -0.4,-0.27 -0.44,-0.59 -0.01,-0.05 -0.02,-0.06 -0.05,-0.06 -0.07,0 -0.17,0.16 -0.17,0.29 0,0.24 0.23,0.51 0.45,0.51 0.12,0 0.24,-0.06 0.24,-0.11zm1.71 0.7c0,0.28 -0.15,0.55 -0.47,0.55 -0.33,0 -0.55,-0.29 -0.55,-0.64 0,-0.29 0.15,-0.58 0.29,-0.75 0.32,0.1 0.72,0.4 0.72,0.84zm-2.11 -2.09c0,0 -0.19,0.14 -0.42,0.14 -0.28,0 -0.5,-0.21 -0.5,-0.5 0,-0.2 0.1,-0.41 0.34,-0.51 -0.01,0.04 -0.01,0.07 -0.01,0.11 0,0.37 0.21,0.65 0.58,0.76z"/>
  <path class="fil0" d="M14.6 6.31c0.15,0 0.27,0.12 0.27,0.27 0,0.15 -0.12,0.27 -0.27,0.27 -0.15,0 -0.27,-0.12 -0.27,-0.27 0,-0.15 0.12,-0.27 0.27,-0.27zm0.05 0.79c0.17,0 0.31,0.14 0.31,0.31 0,0.17 -0.14,0.31 -0.31,0.31 -0.17,0 -0.3,-0.14 -0.3,-0.31 0,-0.17 0.14,-0.31 0.3,-0.31zm-0.79 0.41c0.25,0 0.45,0.2 0.45,0.45 0,0.25 -0.2,0.45 -0.45,0.45 -0.25,0 -0.45,-0.2 -0.45,-0.45 0,-0.25 0.2,-0.45 0.45,-0.45zm0.05 -0.73c0.14,0 0.26,0.12 0.26,0.26 0,0.14 -0.12,0.26 -0.26,0.26 -0.14,0 -0.26,-0.12 -0.26,-0.26 0,-0.14 0.12,-0.26 0.26,-0.26zm-0.85 0.52c0.14,0 0.26,0.12 0.26,0.26 0,0.14 -0.12,0.26 -0.26,0.26 -0.14,0 -0.26,-0.12 -0.26,-0.26 0,-0.14 0.12,-0.26 0.26,-0.26zm0.83 -1.68c0.23,0 0.42,0.19 0.42,0.42 0,0.23 -0.19,0.42 -0.42,0.42 -0.23,0 -0.42,-0.19 -0.42,-0.42 0,-0.23 0.19,-0.42 0.42,-0.42zm0.32 -0.63c0.14,0 0.25,0.11 0.25,0.25 0,0.14 -0.11,0.25 -0.25,0.25 -0.14,0 -0.25,-0.11 -0.25,-0.25 0,-0.14 0.11,-0.25 0.25,-0.25zm-1.18 0.62c0.14,0 0.25,0.11 0.25,0.25 0,0.14 -0.11,0.25 -0.25,0.25 -0.14,0 -0.25,-0.11 -0.25,-0.25 0,-0.14 0.11,-0.25 0.25,-0.25zm0.12 0.7c0.22,0 0.4,0.18 0.4,0.4 0,0.22 -0.18,0.4 -0.4,0.4 -0.22,0 -0.4,-0.18 -0.4,-0.4 0,-0.22 0.18,-0.4 0.4,-0.4zm-0.84 0.44c0.2,0 0.37,0.17 0.37,0.37 0,0.2 -0.17,0.37 -0.37,0.37 -0.2,0 -0.37,-0.17 -0.37,-0.37 0,-0.2 0.17,-0.37 0.37,-0.37zm0.11 -0.81c0.14,0 0.26,0.12 0.26,0.26 0,0.14 -0.12,0.26 -0.26,0.26 -0.14,0 -0.26,-0.12 -0.26,-0.26 0,-0.14 0.12,-0.26 0.26,-0.26zm2.02 2.26c0,-0.13 0.12,-0.24 0.25,-0.24 0.14,0 0.25,0.11 0.25,0.24 0,0.15 -0.11,0.25 -0.25,0.25 -0.13,0 -0.25,-0.1 -0.25,-0.25z"/>
  <path class="fil0" d="M15.35 15.6c0,0.62 -0.91,1.38 -2.13,1.38 -0.38,0 -0.58,-0.26 -0.58,-0.52 0,-0.37 0.2,-0.71 0.36,-0.89 0.07,-0.09 0.14,-0.15 0.21,-0.15 0.05,0 0.21,0.11 0.56,0.11 0.66,0 1.05,-0.29 1.22,-0.42 0.15,0 0.36,0.14 0.36,0.49zm-1.4 -0.35c-0.35,0 -0.64,-0.12 -0.64,-0.25l0 -0.3c0,-0.09 0.25,-0.31 0.73,-0.31 0.39,0 0.68,0.11 0.68,0.3l0 0.15c0,0.07 -0.01,0.14 -0.06,0.19 -0.17,0.14 -0.42,0.21 -0.7,0.21zm-0.12 0.63l-0.09 0c0.01,0.06 0.01,0.1 0.01,0.15 0,0.15 -0.04,0.32 -0.09,0.47 0.33,-0.01 0.55,-0.1 0.71,-0.21 0.23,-0.15 0.3,-0.34 0.3,-0.48 0,-0.12 -0.04,-0.14 -0.07,-0.14 -0.04,0 -0.26,0.2 -0.77,0.2z"/>
  <path class="fil0" d="M15.22 9.64c0,0.16 0.05,0.35 0.21,0.35 0.14,0 0.25,-0.21 0.25,-0.44 0,-0.26 -0.05,-0.46 -0.05,-0.57 0,-0.05 0.02,-0.07 0.05,-0.07 0.1,0.01 0.19,0.27 0.29,0.27 0.12,0 0.29,-0.21 0.36,-0.21 0.02,0 0.03,0.03 0.03,0.03 0,0.1 -0.15,0.31 -0.15,0.4 0,0.07 0.38,0.08 0.38,0.15 0,0.1 -0.4,0.1 -0.58,0.18 -0.18,0.08 -0.29,0.18 -0.29,0.31 0,0.13 0.13,0.16 0.31,0.16 0.44,0 0.74,-0.23 0.84,-0.23 0.02,0 0.03,0.01 0.03,0.03 0,0.06 -0.22,0.28 -0.22,0.38 0,0.11 0.4,0.24 0.4,0.31 -0.01,0.02 -0.03,0.03 -0.08,0.03 -0.07,0 -0.18,-0.02 -0.27,-0.02 -0.05,0 -0.1,0.01 -0.12,0.03 -0.04,0.05 0.01,0.4 -0.08,0.4 -0.08,0 -0.31,-0.77 -0.81,-0.77 -0.07,0 -0.12,0.06 -0.12,0.16 0,0.26 0.25,0.56 0.49,0.7 0.11,0.07 0.29,0.14 0.29,0.18 0,0.08 -0.41,0.01 -0.41,0.14 0,0.12 0.05,0.29 0.05,0.4 0,0.03 -0.01,0.07 -0.05,0.07 -0.08,0 -0.27,-0.36 -0.36,-0.36 -0.08,0 -0.25,0.21 -0.32,0.21 -0.02,0 -0.03,-0.02 -0.03,-0.04 0,-0.15 0.24,-0.49 0.24,-0.82 0,-0.16 -0.02,-0.49 -0.21,-0.49 -0.16,0 -0.33,0.25 -0.41,0.49 -0.05,0.14 -0.01,0.7 -0.12,0.7 -0.1,0 -0.07,-0.37 -0.2,-0.37 -0.1,0 -0.3,0.18 -0.38,0.18 -0.01,0 -0.03,-0.01 -0.03,-0.02 0,-0.08 0.19,-0.33 0.19,-0.38 0,-0.1 -0.43,-0.11 -0.43,-0.19 0,-0.05 0.17,-0.08 0.33,-0.1 0.33,-0.06 0.82,-0.3 0.82,-0.64 0,-0.38 -0.36,-0.54 -0.6,-0.7 -0.12,-0.08 -0.26,-0.14 -0.26,-0.19 0,-0.05 0.16,-0.05 0.22,-0.05 0.1,0 0.19,-0.01 0.19,-0.08 0,-0.06 -0.01,-0.18 -0.01,-0.27 0,-0.07 0.01,-0.12 0.03,-0.12 0.1,0 0.23,0.32 0.3,0.32 0.1,0 0.25,-0.26 0.35,-0.26 0.03,0 0.05,0.02 0.05,0.08 0,0.24 -0.12,0.51 -0.12,0.75zm-3.1 -1.91c0.07,0.55 0.81,0.27 0.81,0.94 0,0.1 -0.03,0.24 -0.03,0.36 0,0.14 0.01,0.27 0.12,0.27 0.11,0 0.14,-0.08 0.14,-0.18 0,-0.1 -0.03,-0.23 -0.03,-0.31 0,-0.23 0.16,-0.28 0.26,-0.28 0.25,0 0.44,0.25 0.81,0.25 -0.08,0.42 -0.94,0.31 -0.94,0.76 0,0.23 0.23,0.28 0.38,0.28 0.14,0 0.18,-0.02 0.18,-0.14 0,-0.07 -0.01,-0.14 -0.01,-0.18 0,-0.03 0.02,-0.05 0.05,-0.05 0.14,0 0.84,0.53 0.84,0.7 0,0.15 -0.74,0.3 -0.96,0.3 -0.06,0 -0.08,-0.05 -0.08,-0.07 0,-0.05 0.11,-0.18 0.11,-0.26 0,-0.06 -0.1,-0.1 -0.36,-0.1 -0.12,0 -0.21,0.01 -0.21,0.11 0,0.18 0.29,0.39 0.29,0.55 0,0.13 -0.08,0.21 -0.29,0.21 -0.18,0 -0.44,-0.14 -0.44,-0.36 0,-0.18 0.19,-0.36 0.19,-0.47 0,-0.03 -0.02,-0.08 -0.1,-0.08 -0.24,0 -0.31,0.64 -1.16,0.71 0.14,-0.12 0.25,-0.26 0.25,-0.54 0,-0.14 -0.03,-0.25 -0.03,-0.4 0,-0.19 0.09,-0.29 0.22,-0.29 0.24,0 0.36,0.34 0.51,0.34 0.09,0 0.18,-0.08 0.18,-0.2 0,-0.49 -0.95,-0.42 -0.95,-1.12 0,-0.19 0.06,-0.42 0.24,-0.75z"/>
  <path class="fil0" d="M13.01 11.1c0.68,0.13 1.05,0.64 1.05,1.12 0,0.33 -0.21,0.64 -0.57,0.64 -0.33,0 -0.57,-0.23 -0.57,-0.59 0,-0.27 0.21,-0.56 0.21,-0.84 0,-0.11 -0.03,-0.22 -0.12,-0.33zm-0.71 0.34c0.3,0.04 0.37,0.14 0.37,0.23 0,0.14 -0.13,0.19 -0.25,0.19 -0.09,0 -0.19,-0.02 -0.31,-0.02 -0.14,0 -0.29,0.03 -0.4,0.17 0.08,0.01 0.21,0.07 0.21,0.2 0,0.38 -1.05,0.06 -1.05,1.03 0,0.51 0.53,1.07 1.34,1.07 0.42,0 0.68,-0.14 0.68,-0.29 0,-0.12 -0.22,-0.04 -0.22,-0.14 0,-0.05 0.08,-0.13 0.08,-0.2 0,-0.03 -0.03,-0.09 -0.08,-0.09 -0.12,0 -0.34,0.19 -0.79,0.19 -0.35,0 -0.7,-0.2 -0.7,-0.47 0,-0.06 0.03,-0.09 0.07,-0.09 0.04,0 0.09,0.03 0.14,0.03 0.04,0 0.05,-0.03 0.05,-0.1 0,-0.07 0,-0.27 0.12,-0.27 0.12,0 0.36,0.46 1.26,0.46 0.3,0 0.88,-0.06 1.09,-0.25 -0.01,0.72 -0.57,1.66 -1.74,1.66 -1.22,0 -1.87,-0.98 -1.87,-1.87 0,-1 0.81,-1.9 1.93,-1.9 0.29,0 0.53,0.1 0.53,0.22 0,0.17 -0.42,0.07 -0.46,0.27zm0.48 1.25c0,0.17 -0.12,0.31 -0.31,0.31 -0.17,0 -0.29,-0.14 -0.29,-0.29 0,-0.11 0.05,-0.21 0.05,-0.31 0,-0.07 -0.02,-0.13 -0.08,-0.2 0.38,0 0.63,0.24 0.63,0.49zm2.32 -0.23c0,0.25 -0.18,0.47 -0.45,0.47 -0.25,0 -0.41,-0.18 -0.41,-0.39 0,-0.19 0.12,-0.36 0.12,-0.54 0,-0.07 -0.02,-0.14 -0.06,-0.21 0.49,0.03 0.8,0.32 0.8,0.67zm-1.75 -0.49c0,0.09 0.06,0.16 0.16,0.16 0.1,0 0.17,-0.09 0.17,-0.2 0,-0.14 -0.12,-0.32 -0.24,-0.32 -0.05,0 -0.03,0.08 -0.05,0.16 -0.01,0.06 -0.04,0.14 -0.04,0.2z"/>
  <path class="fil0" d="M8.1 4.02c0.43,0 0.62,0.37 0.62,0.79 0,0.18 -0.05,0.45 -0.14,0.45 -0.08,0 -0.07,-0.15 -0.08,-0.29 -0.01,-0.17 -0.05,-0.21 -0.1,-0.21 -0.11,0 -0.18,0.26 -0.18,0.5 0,0.15 0.03,0.32 0.14,0.32 0.06,0 0.12,-0.03 0.16,-0.07 -0.03,0.3 -0.25,0.56 -0.56,0.56 -0.57,0 -0.79,-0.67 -0.85,-1.06 -0.34,0.36 -0.66,0.63 -1.24,0.63 -0.53,0 -0.77,-0.39 -0.77,-0.76 0,-0.11 0.04,-0.4 0.18,-0.4 0.16,0 0.02,0.53 0.34,0.53 0.08,0 0.22,-0.07 0.3,-0.28 0.05,-0.13 0.07,-0.27 0.07,-0.38 0,-0.18 -0.04,-0.29 -0.17,-0.29 -0.11,0 -0.25,0.08 -0.29,0.13 0.16,-0.47 0.53,-0.71 0.95,-0.71 0.51,0 0.79,0.46 0.79,0.96 0,0.07 -0.01,0.15 -0.02,0.22 0.22,-0.36 0.53,-0.64 0.86,-0.64zm-0.5 0.77c0,-0.11 -0.03,-0.14 -0.05,-0.14 -0.07,0 -0.14,0.08 -0.24,0.25 0.01,0.23 0.05,0.34 0.12,0.34 0.07,0 0.18,-0.23 0.18,-0.46zm-0.89 0.27c0.07,0 0.16,-0.08 0.33,-0.27 0.01,-0.08 0.01,-0.16 0.01,-0.26 0,-0.13 -0.05,-0.27 -0.13,-0.27 -0.19,0 -0.29,0.52 -0.29,0.66 0,0.08 0.04,0.14 0.08,0.14zm1.06 0.58c0.16,0 0.34,-0.62 0.34,-1.01 0,-0.08 -0.01,-0.18 -0.05,-0.18 -0.14,0 -0.36,0.64 -0.36,0.99 0,0.14 0.03,0.2 0.07,0.2zm-1.59 -0.36c0.22,0 0.47,-1.2 0.47,-1.4 0,-0.05 -0.02,-0.09 -0.06,-0.09 -0.2,0 -0.48,1.14 -0.48,1.39 0,0.05 0.01,0.1 0.07,0.1z"/>
  <path class="fil0" d="M6.88 5.77c-0.28,0 -0.29,0.34 -0.29,1.02 -0.21,-0.45 -0.55,-0.93 -0.96,-0.93 -0.27,0 -0.38,0.18 -0.38,0.5 0,0.07 0.01,0.16 0.02,0.22 0.03,-0.11 0.14,-0.16 0.27,-0.16 0.28,0 0.62,0.21 0.84,0.51 -0.25,-0.05 -0.5,-0.09 -0.71,-0.09 -0.13,0 -0.25,0.01 -0.34,0.06 -0.19,0.08 -0.44,0.36 -0.44,0.79 0,0.07 0.01,0.14 0.02,0.21 0.23,-0.51 0.83,-0.74 1.22,-0.74 0.08,0 0.14,0.01 0.18,0.01 -0.2,0.18 -0.25,0.5 -0.26,0.72 -0.01,0.1 -0.05,0.11 -0.12,0.11 0,0.21 0.17,0.53 0.17,0.7 0,0.06 -0.03,0.11 -0.07,0.12 0,0.29 0.29,0.49 0.29,0.68 0,0.05 -0.01,0.08 -0.03,0.1 0.02,0.12 0.33,0.31 0.38,0.41 0.05,0.12 0.11,0.14 0.14,0.14 0.11,0 0.29,-0.13 0.29,-0.25 0,-0.04 -0.03,-0.08 -0.06,-0.1 -0.12,-0.09 -0.19,-0.29 -0.24,-0.42 -0.05,0 -0.1,-0.02 -0.13,-0.1 -0.04,-0.13 -0.04,-0.39 -0.09,-0.53 -0.09,-0.02 -0.12,-0.05 -0.12,-0.23 0,-0.09 0.05,-0.42 0.05,-0.53 -0.04,0 -0.09,-0.03 -0.09,-0.1 0,-0.21 0.21,-0.37 0.27,-0.64 0.37,0.27 0.46,0.55 0.46,0.8 0,0.13 -0.02,0.25 -0.05,0.37 0.27,-0.14 0.68,-0.34 0.68,-0.75 0,-0.24 -0.11,-0.51 -0.85,-0.61 0.23,-0.08 0.51,-0.13 0.75,-0.13 0.42,0 0.66,0.13 0.71,0.42 0.08,-0.13 0.15,-0.28 0.15,-0.42 0,-0.32 -0.27,-0.53 -0.61,-0.53 -0.4,0 -0.75,0.21 -1.12,0.46 0.17,-0.35 0.29,-0.56 0.49,-0.56 0.03,0 0.07,0.01 0.1,0.01 -0.08,-0.29 -0.37,-0.57 -0.53,-0.57z"/>
  <path class="fil0" d="M17.84 10.45c0.33,0 0.59,0.42 0.59,0.92 0,0.53 -0.25,1.1 -0.69,1.49 -0.01,-0.88 -1.08,-0.6 -1.08,-1.24 0,-0.27 0.2,-0.45 0.43,-0.45 0.21,0 0.37,0.06 0.49,0.18 -0.12,-0.11 -0.18,-0.27 -0.18,-0.42 0,-0.25 0.16,-0.48 0.44,-0.48z"/>
  <path class="fil0" d="M13.01 3.8c-0.05,-0.08 -0.25,-0.13 -0.34,-0.13 -0.29,0 -0.48,0.2 -0.52,0.38 -0.03,-0.06 -0.05,-0.14 -0.05,-0.22 0,-0.29 0.2,-0.64 0.67,-0.64 0.42,0 0.58,0.22 0.64,0.22 0.07,0 0.13,-0.06 0.18,-0.06 0.07,0 0.07,0.11 0.07,0.19 0,0.26 -0.12,0.71 -0.41,0.87 -0.05,-0.11 -0.16,-0.23 -0.32,-0.31 -0.05,-0.02 -0.07,-0.06 -0.07,-0.1 0,-0.07 0.07,-0.16 0.14,-0.2zm-0.98 0.47c0.17,0.16 0.32,0.23 0.5,0.23 0.07,0 0.16,-0.02 0.2,-0.02 0.06,0 0.1,0.03 0.1,0.07 0,0.07 -0.07,0.19 -0.14,0.25 0.08,0.03 0.16,0.05 0.25,0.05 0.37,0 0.79,-0.23 0.79,-0.82 0.08,0.1 0.12,0.32 0.12,0.42 0,0.71 -0.52,0.98 -1,0.98 -0.31,0 -0.47,-0.1 -0.51,-0.1 -0.12,0 -0.12,0.25 -0.2,0.24 -0.15,-0.03 -0.29,-0.36 -0.29,-0.71 0,-0.21 0.05,-0.43 0.17,-0.59z"/>
  <path class="fil0" d="M8.48 2.24c-0.35,0 -1.09,-0.35 -1.35,-0.35 -0.07,0 -0.09,0.02 -0.09,0.09 0,0.25 0.48,1.03 0.48,1.37 0,0.09 -0.03,0.16 -0.12,0.16 -0.29,0 -0.94,-0.78 -1.17,-0.78 -0.21,0 -0.12,0.66 -0.31,0.66 -0.16,0 -0.29,-0.38 -0.46,-0.38 -0.17,0 -0.28,1.3 -0.55,1.3 -0.31,0 -0.19,-1.2 -0.4,-1.2 -0.16,0 -0.38,0.41 -0.62,0.41 -0.13,0 -0.17,-0.1 -0.17,-0.25 0,-0.19 0.06,-0.45 0.06,-0.62 0,-0.09 -0.01,-0.2 -0.09,-0.2 -0.24,0 -1.12,0.64 -1.46,0.64 -0.07,0 -0.12,-0.03 -0.12,-0.1 0,-0.32 1.11,-1.27 1.11,-1.5 0,-0.2 -1.27,-0.02 -1.27,-0.21 0,-0.22 0.9,-0.61 0.9,-0.75 0,-0.15 -0.87,-0.2 -0.87,-0.37 0,-0.11 0.21,-0.16 0.59,-0.16 0.32,0 1.14,0.08 1.14,0.27 0,0.21 -0.7,0.43 -0.7,0.64 0,0.25 0.98,0.1 0.98,0.32 0,0.22 -0.71,0.71 -0.71,0.87 0,0.03 0.03,0.04 0.06,0.04 0.17,0 0.61,-0.33 0.81,-0.33 0.08,0 0.1,0.05 0.1,0.14 0,0.18 -0.11,0.49 -0.11,0.68 0,0.05 0.01,0.1 0.06,0.1 0.14,0 0.37,-0.62 0.57,-0.62 0.18,0 0.02,0.93 0.21,0.93 0.16,0 0.2,-0.85 0.36,-0.85 0.16,0 0.24,0.47 0.41,0.47 0.07,0 0.08,-0.09 0.08,-0.24l0 -0.22c0,-0.14 0.01,-0.24 0.08,-0.24 0.2,0 0.75,0.65 0.87,0.65 0.03,0 0.03,-0.03 0.03,-0.05 0,-0.18 -0.37,-0.77 -0.37,-1.08 0,-0.1 0.04,-0.18 0.14,-0.18 0.23,0 0.71,0.27 0.93,0.27 0.07,0 0.12,-0.03 0.12,-0.1 0,-0.27 -0.79,-0.81 -0.79,-1.03 0,-0.21 0.88,-0.44 1.49,-0.44 0.08,0 0.23,0 0.23,0.08 0,0.16 -0.75,0.3 -0.93,0.49 -0.02,0.03 -0.04,0.05 -0.04,0.08 0.01,0.31 1.07,1.01 1.07,1.4 0,0.08 -0.07,0.15 -0.19,0.15zm0 -1.57c0.17,0 0.25,0.01 0.25,0.2 0,0.16 -0.03,0.31 -0.14,0.31 -0.19,0 -0.6,-0.25 -0.6,-0.37 0,-0.08 0.27,-0.14 0.49,-0.14zm-2.33 -0.23c0,0.2 0.58,0.37 0.58,0.53 0,0.05 -0.04,0.06 -0.08,0.06 -0.11,0 -0.31,-0.09 -0.46,-0.09 -0.1,0 -0.18,0.05 -0.18,0.16 0,0.18 0.2,0.46 0.2,0.6 0,0.05 -0.03,0.08 -0.07,0.08 -0.16,0 -0.32,-0.5 -0.55,-0.5 -0.28,0 -0.19,0.72 -0.39,0.72 -0.19,0 0.04,-0.73 -0.31,-0.73 -0.21,0 -0.43,0.33 -0.56,0.33 -0.03,0 -0.07,-0.01 -0.07,-0.05 0,-0.13 0.35,-0.42 0.35,-0.59 0,-0.08 -0.09,-0.1 -0.18,-0.1 -0.16,0 -0.39,0.06 -0.53,0.06 -0.06,0 -0.12,-0.02 -0.12,-0.06 0,-0.14 0.66,-0.2 0.66,-0.43 0,-0.21 -0.31,-0.18 -0.31,-0.26 0,-0.06 0.24,-0.1 0.5,-0.1 0.43,0 0.35,0.36 0.68,0.36 0.32,0 0.27,-0.35 0.69,-0.35 0.27,0 0.46,0.04 0.46,0.08 0,0.09 -0.32,0.09 -0.32,0.29zm-3.41 1.28c0,0.13 -0.49,0.57 -0.67,0.57 -0.07,0 -0.08,-0.08 -0.08,-0.15 0,-0.13 0.06,-0.31 0.13,-0.37 0.08,-0.08 0.28,-0.12 0.43,-0.12 0.09,0 0.2,0.02 0.2,0.07zm4.81 0.63c0.18,0 1.01,0.65 1.12,0.81 0.03,0.04 0.04,0.09 0.04,0.14 0,0.2 -0.1,0.42 -0.23,0.42 -0.16,0 -0.97,-1.11 -0.97,-1.34 0,-0.02 0.01,-0.04 0.03,-0.04z"/>
  <path class="fil0" d="M16.89 1.85c0,-0.46 -1.1,-0.58 -1.1,-0.68 0,-0.08 0.62,-0.23 0.94,-0.23 -0.49,-0.62 -1.18,-0.56 -1.18,-0.67 0,-0.07 0.52,-0.2 1,-0.2 0.4,0 0.78,0.09 0.78,0.4 0,0.17 -0.14,0.34 -0.14,0.6 0,0.14 0.07,0.27 0.26,0.27 0.2,0 0.25,-0.21 0.25,-0.44 0,-0.19 -0.03,-0.33 -0.03,-0.42 0,-0.27 0.19,-0.45 0.45,-0.45 0.22,0 0.27,0.1 0.6,0.1 -0.18,0.1 -0.24,0.29 -0.24,0.38 0,0.27 0.18,0.46 0.18,1.02 0,1.03 -0.96,1.39 -2.14,1.39 -0.32,0 -0.67,-0.03 -1.01,-0.08 -0.05,-0.01 -0.06,-0.02 -0.06,-0.05 0,-0.08 0.46,-0.13 0.46,-0.55 0,-0.16 -0.05,-0.32 -0.05,-0.38 0,-0.03 0.03,-0.05 0.05,-0.05 0.1,0 0.29,0.38 0.66,0.38 0.1,0 0.34,-0.03 0.34,-0.33zm1.06 -1.44c0,0.09 0.07,0.16 0.16,0.16 0.09,0 0.16,-0.07 0.16,-0.16 0,-0.09 -0.07,-0.16 -0.16,-0.16 -0.09,0 -0.16,0.07 -0.16,0.16zm0.04 0.78c0,0.58 -0.42,1.02 -1.18,1.14 0.08,0.01 0.16,0.01 0.24,0.01 0.89,0 1.22,-0.4 1.22,-0.74 0,-0.19 -0.1,-0.36 -0.27,-0.41z"/>
  <path class="fil0" d="M17.54 9.58c0.1,-0.32 0.23,-0.55 0.45,-0.9 -0.21,-0.11 -0.78,-0.34 -0.78,-0.73 0,-0.45 0.56,-0.8 0.68,-0.8 0.05,0 0.07,0.05 0.07,0.13 0,0.23 -0.11,0.61 -0.11,0.81 0,0.18 0.12,0.36 0.22,0.36 0.11,0 0.42,-0.39 0.42,-0.77 0,-0.69 -0.61,-0.9 -0.79,-0.9 -0.18,0 -0.49,0.29 -1.24,0.29 -1.4,0 -1.72,-1.38 -1.72,-1.99 0,-0.03 0.01,-0.03 0.01,-0.03 0.03,0 0.17,0.17 0.61,0.17 0.23,0 0.44,-0.06 0.77,-0.06 0.78,0 1.12,0.54 1.61,1.23 0.29,0.18 0.99,0.48 0.99,1.3 0,0.73 -0.78,1.13 -0.96,1.91 0.3,-0.03 0.47,-0.57 0.78,-0.57 0.16,0 0.23,0.12 0.23,0.32 0,0.29 -0.16,0.72 -0.48,0.98 0.01,-0.03 0.01,-0.06 0.01,-0.1 0,-0.18 -0.07,-0.44 -0.28,-0.44 -0.32,0 -0.43,0.35 -0.61,0.64 -0.19,-0.66 -0.44,-1.26 -0.9,-1.63 -0.46,-0.37 -1.26,-0.17 -1.26,-0.85 0,-0.18 0.12,-0.44 0.12,-0.65 0,-0.07 -0.01,-0.14 -0.05,-0.19 0.63,0.24 0.4,0.65 0.79,1.08 0.24,0.27 0.9,0.53 1.29,1.66 0.01,-0.03 0.01,-0.12 0.01,-0.18 0,-0.96 -1.27,-1.91 -1.38,-2.3 0.74,0.08 0.87,0.27 1.22,1.24 0.07,0.2 0.31,0.7 0.31,0.95zm-0.17 -3.15c0,-0.14 -0.35,-0.15 -0.38,-0.53 -0.01,-0.06 -0.03,-0.16 -0.1,-0.16 -0.12,0 -0.03,0.36 -0.16,0.36 -0.3,0 -0.4,-0.59 -0.51,-0.59 -0.03,0 -0.06,0.02 -0.06,0.1 0,0.07 0.01,0.12 0.01,0.2 0,0.09 -0.02,0.14 -0.1,0.14 -0.18,0 -0.33,-0.41 -0.48,-0.41 -0.03,0 -0.06,0.02 -0.06,0.05 0,0.08 0.13,0.22 0.13,0.29 0,0.16 -0.42,0.07 -0.42,0.2 0,0.06 0.06,0.08 0.14,0.08 0.14,0 0.35,-0.06 0.46,-0.06 0.07,0 0.16,0.01 0.16,0.1 0,0.09 -0.23,0.21 -0.23,0.29 0,0.04 0.04,0.06 0.07,0.06 0.18,0 0.49,-0.31 0.71,-0.31 0.04,0 0.14,0.02 0.14,0.08 0,0.08 -0.22,0.23 -0.22,0.36 0,0.03 0.02,0.07 0.06,0.07 0.12,0 0.27,-0.31 0.49,-0.31 0.08,0 0.21,0.03 0.27,0.03 0.05,0 0.07,-0.03 0.07,-0.05z"/>
  <path class="fil0" d="M11.95 2.95c-0.03,0 -0.03,0 -0.03,-0.03 0,-0.13 0.32,-0.58 0.32,-0.72 0,-0.14 -0.44,-0.06 -0.44,-0.17 0,-0.14 0.44,-0.28 0.44,-0.46 0,-0.18 -0.42,-0.21 -0.42,-0.35 0,-0.08 0.4,-0.19 0.4,-0.31 0,-0.12 -0.4,-0.57 -0.4,-0.72 0,-0.16 0.6,0.29 0.76,0.29 0.08,0 0.08,-0.23 0.08,-0.3 0,-0.11 0.03,-0.17 0.07,-0.17 0.08,0 0.23,0.26 0.34,0.25 0.17,0 0.49,-0.21 0.92,-0.21 0.92,0 1.58,0.55 1.58,1.5 0,0.97 -0.74,1.53 -1.53,1.53 -0.55,0 -0.88,-0.34 -1.01,-0.34 -0.08,0 -0.21,0.3 -0.28,0.3 -0.03,0 -0.05,-0.01 -0.06,-0.08 -0.02,-0.15 -0.04,-0.4 -0.14,-0.4 -0.09,0 -0.46,0.42 -0.59,0.42zm0.51 -1.21c0,0.01 0.01,0.02 0.05,0.02 0.05,0 0.2,0.01 0.27,0.01 0.03,0 0.05,0.03 0.05,0.05l0.01 0.26c0,0.03 0.01,0.06 0.03,0.06 0.06,0 0.17,-0.27 0.25,-0.27 0.06,0 0.26,0.09 0.31,0.09 0.01,0 0.02,-0.01 0.02,-0.02 0,-0.06 -0.14,-0.24 -0.14,-0.29 0,-0.06 0.37,-0.05 0.37,-0.12 0,-0.05 -0.37,-0.12 -0.37,-0.18 0,-0.05 0.16,-0.23 0.16,-0.27 0,-0.01 -0.01,-0.02 -0.03,-0.02 -0.07,0 -0.22,0.1 -0.31,0.1 -0.07,0 -0.15,-0.34 -0.19,-0.34 -0.06,0 -0.08,0.36 -0.16,0.36 -0.1,0 -0.22,-0.03 -0.29,-0.03 -0.02,0 -0.03,0.01 -0.03,0.02 0,0.08 0.25,0.21 0.25,0.29 0,0.05 -0.26,0.23 -0.26,0.28zm2.54 -0.21c0,-0.74 -0.38,-1.18 -1.03,-1.18 -0.4,0 -0.65,0.16 -0.65,0.31 0,0.09 0.08,0.1 0.14,0.1 0.13,0 0.44,-0.12 0.5,-0.12 0.05,0 0.07,0.01 0.07,0.05 0,0.07 -0.14,0.23 -0.14,0.32 0,0.12 0.71,0.03 0.71,0.16 0,0.12 -0.53,0.24 -0.53,0.32 0,0.08 0.42,0.36 0.42,0.51 0,0.03 -0.01,0.05 -0.06,0.05 -0.14,0 -0.4,-0.07 -0.57,-0.07 -0.04,0 -0.06,0.02 -0.06,0.05 0,0.1 0.11,0.29 0.11,0.41 0,0.04 -0.02,0.05 -0.05,0.05 -0.1,0 -0.42,-0.22 -0.56,-0.22 -0.05,0 -0.09,0.04 -0.09,0.1 0,0.12 0.3,0.34 0.75,0.34 0.35,0 1.01,-0.23 1.01,-1.17z"/>
  <path class="fil0" d="M9.58 13.95c0,0.06 -0.02,0.12 -0.07,0.19 -0.07,-0.13 -0.27,-0.2 -0.36,-0.2 -0.67,0 -0.42,0.97 -1.13,0.97 -0.3,0 -0.33,-0.04 -0.44,-0.04 -0.05,0 -0.07,0.02 -0.07,0.06 0,0.17 0.24,0.58 0.91,0.58 0.67,0 1.31,-0.41 1.31,-0.92 0,-0.08 -0.02,-0.17 -0.06,-0.27 0.03,-0.04 0.09,-0.07 0.15,-0.07 0.1,0 0.16,0.12 0.26,0.12 0.1,0 0.18,-0.08 0.18,-0.18 0,-0.08 -0.05,-0.14 -0.12,-0.18 0.05,-0.04 0.09,-0.1 0.09,-0.18 0,-0.11 -0.08,-0.21 -0.21,-0.21 -0.06,0 -0.1,0.02 -0.14,0.06 -0.01,-0.12 -0.08,-0.23 -0.2,-0.23 -0.1,0 -0.17,0.07 -0.17,0.18 0,0.1 0.07,0.19 0.07,0.3z"/>
  <path class="fil0" d="M5.55 12.44c0,-0.18 0.25,-0.31 0.48,-0.31 0.32,0 0.55,0.09 0.77,0.42 0.19,0.29 0.23,0.78 0.33,0.87 0.05,0.05 0.14,0.06 0.2,0.06 0.07,0 0.12,-0.01 0.17,-0.01 0.47,0 0.79,0.53 0.79,0.76 0,0.21 -0.19,0.29 -0.42,0.29 -0.28,0 -0.6,-0.16 -0.76,-0.34 -0.12,-0.13 -0.19,-0.39 -0.24,-0.71 -0.05,-0.33 -0.31,-0.61 -0.83,-0.74 -0.42,-0.1 -0.47,-0.18 -0.47,-0.29zm2.42 1.64c0,-0.17 -0.29,-0.37 -0.46,-0.37 -0.07,0 -0.16,0.05 -0.16,0.15 0,0.12 0.29,0.32 0.49,0.32 0.1,0 0.13,-0.06 0.13,-0.1z"/>
  <path class="fil0" d="M9.29 11.94c0,-0.29 -0.61,-0.3 -0.61,-0.74 0,-0.11 0.07,-0.3 0.22,-0.5 0.06,0.34 0.2,0.51 0.49,0.62 0.58,0.21 0.66,0.54 0.66,0.88 0,0.59 -0.41,1.31 -1.46,1.31 -0.85,0 -1.45,-0.75 -1.45,-1.39 0,-0.18 0.05,-0.37 0.16,-0.37 0.1,0 0.13,0.08 0.21,0.16 0.29,0.29 0.61,0.37 1.07,0.37 0.42,0 0.72,-0.17 0.72,-0.34zm0.03 0.47c-0.22,0.1 -0.31,0.08 -0.31,0.31 0,0.08 -0.02,0.19 -0.02,0.25 0,0.08 0.01,0.12 0.1,0.12 0.23,0 0.6,-0.4 0.6,-0.74 0,-0.09 -0.05,-0.13 -0.11,-0.13 -0.05,0 -0.11,0.1 -0.27,0.18zm-2.07 -3.28c0,-0.42 0.99,-0.64 0.99,-1.15 0,-0.08 -0.03,-0.23 -0.09,-0.34 0.34,0.19 0.6,0.51 0.6,0.77 0,0.45 -0.47,0.66 -0.47,0.94 0,0.32 0.5,0.38 0.5,0.78 0,0.33 -0.47,0.71 -0.47,1.14 0,0.33 0.23,0.6 0.59,0.65 -0.12,0.03 -0.22,0.05 -0.33,0.05 -0.66,0 -1.33,-0.54 -1.33,-1.18 0,-0.32 0.14,-0.6 0.35,-0.8 0.18,0.16 0.36,0.26 0.48,0.26 0.1,0 0.15,-0.05 0.15,-0.13 0,-0.24 -0.96,-0.46 -0.96,-0.98z"/>
  <path class="fil0" d="M3.83 11.87c0.03,-0 0.06,-0.01 0.06,-0.01 -0.02,-0.05 -0.03,-0.09 -0.03,-0.13 -0.02,-0.24 0.13,-0.44 0.35,-0.47 0.25,-0.04 0.43,0.13 0.49,0.32 0.05,-0.05 0.13,-0.08 0.22,-0.09 0.22,-0.03 0.43,0.15 0.45,0.38 0.02,0.23 -0.14,0.42 -0.37,0.46 -0.02,0 -0.06,0.01 -0.06,0.01 0.02,0.05 0.03,0.08 0.04,0.15 0.03,0.24 -0.14,0.43 -0.38,0.46 -0.24,0.03 -0.41,-0.1 -0.46,-0.31 -0.05,0.03 -0.13,0.06 -0.22,0.07 -0.23,0.03 -0.44,-0.14 -0.47,-0.37 -0.03,-0.25 0.17,-0.44 0.36,-0.47zm0.58 -0c-0.14,0.02 -0.23,0.14 -0.22,0.27 0.02,0.14 0.14,0.23 0.27,0.22 0.14,-0.02 0.23,-0.14 0.22,-0.27 -0.02,-0.14 -0.14,-0.23 -0.27,-0.22z"/>
 </g>
</svg>
