<?xml version="1.0" encoding="UTF-8"?>
<!DOCTYPE svg PUBLIC "-//W3C//DTD SVG 1.1//EN" "http://www.w3.org/Graphics/SVG/1.1/DTD/svg11.dtd">
<!-- Creator: CorelDRAW -->
<svg xmlns="http://www.w3.org/2000/svg" xml:space="preserve" width="13.3049mm" height="3.2194mm" version="1.1" style="shape-rendering:geometricPrecision; text-rendering:geometricPrecision; image-rendering:optimizeQuality; fill-rule:evenodd; clip-rule:evenodd"
viewBox="0 0 65.97 15.96"
 xmlns:xlink="http://www.w3.org/1999/xlink"
 xmlns:xodm="http://www.corel.com/coreldraw/odm/2003">
 <defs>
  <style type="text/css">
   <![CDATA[
    .fil0 {fill:#332D2B;fill-rule:nonzero}
    .fil4 {fill:#DC2A2C;fill-rule:nonzero}
    .fil3 {fill:#DA272C;fill-rule:nonzero}
    .fil5 {fill:#CB2B2F;fill-rule:nonzero}
    .fil1 {fill:#98938F;fill-rule:nonzero}
    .fil2 {fill:#0E4F93;fill-rule:nonzero}
   ]]>
  </style>
 </defs>
 <g id="Layer_x0020_1">
  <metadata id="CorelCorpID_0Corel-Layer"/>
  <polygon class="fil0" points="16.63,15.23 17.58,15.23 17.58,12.08 16.63,12.08 "/>
  <path class="fil0" d="M21.44 15.23l0 -2.07c0,-0.2 0.05,-0.39 0.15,-0.57 0.1,-0.18 0.23,-0.32 0.4,-0.43 0.17,-0.1 0.36,-0.16 0.56,-0.16 0.22,0 0.41,0.05 0.59,0.15 0.18,0.1 0.32,0.24 0.42,0.41 0.1,0.18 0.15,0.37 0.15,0.59l0 2.07 -0.94 0 0 -2.04c0,-0.06 -0.02,-0.12 -0.06,-0.16 -0.04,-0.04 -0.09,-0.06 -0.15,-0.06 -0.06,0 -0.11,0.02 -0.15,0.06 -0.04,0.04 -0.05,0.1 -0.05,0.16l0 2.04 -0.93 0z"/>
  <path class="fil0" d="M28.51 13.02l0 2.21 -0.94 0 0 -3.14 1.41 0c0.22,0 0.4,0.02 0.54,0.08 0.2,0.07 0.38,0.18 0.54,0.33 0.16,0.15 0.29,0.32 0.38,0.51 0.09,0.2 0.14,0.4 0.14,0.61 0,0.23 -0.04,0.45 -0.12,0.65 -0.08,0.2 -0.2,0.37 -0.34,0.52 -0.15,0.15 -0.32,0.26 -0.52,0.34 -0.2,0.08 -0.42,0.12 -0.65,0.13 -0.06,0 -0.16,-0 -0.29,-0.01l0 -0.93 0.24 0c0.2,0 0.38,-0.06 0.52,-0.17 0.14,-0.12 0.21,-0.28 0.21,-0.48 0,-0.12 -0.03,-0.23 -0.09,-0.32 -0.06,-0.1 -0.14,-0.18 -0.24,-0.23 -0.1,-0.06 -0.21,-0.08 -0.33,-0.08l-0.47 0z"/>
  <path class="fil0" d="M34.16 13.61c0,-0.22 0.04,-0.43 0.13,-0.62 0.09,-0.19 0.21,-0.37 0.36,-0.51 0.16,-0.15 0.33,-0.26 0.53,-0.34 0.2,-0.08 0.41,-0.12 0.62,-0.12 0.22,0 0.43,0.04 0.63,0.12 0.2,0.08 0.38,0.2 0.53,0.34 0.16,0.15 0.28,0.32 0.37,0.51 0.09,0.2 0.13,0.4 0.13,0.62 0,0.3 -0.07,0.58 -0.22,0.85 -0.15,0.26 -0.34,0.47 -0.6,0.62 -0.25,0.16 -0.53,0.23 -0.83,0.23 -0.3,0 -0.58,-0.08 -0.83,-0.23 -0.26,-0.16 -0.45,-0.37 -0.6,-0.63 -0.15,-0.26 -0.22,-0.54 -0.22,-0.84zm0.92 0.01c0,0.13 0.03,0.26 0.1,0.38 0.06,0.12 0.15,0.22 0.26,0.29 0.11,0.07 0.23,0.11 0.37,0.11 0.13,0 0.26,-0.04 0.37,-0.11 0.11,-0.07 0.2,-0.17 0.27,-0.29 0.06,-0.12 0.1,-0.25 0.1,-0.38 0,-0.13 -0.03,-0.25 -0.1,-0.35 -0.07,-0.11 -0.16,-0.19 -0.27,-0.25 -0.11,-0.06 -0.23,-0.09 -0.36,-0.09 -0.12,0 -0.24,0.03 -0.36,0.09 -0.11,0.06 -0.2,0.15 -0.27,0.26 -0.07,0.11 -0.1,0.23 -0.1,0.35z"/>
  <path class="fil0" d="M41.2 15.23l0 -2.07c0,-0.2 0.05,-0.39 0.15,-0.57 0.1,-0.18 0.23,-0.32 0.4,-0.43 0.17,-0.1 0.36,-0.16 0.57,-0.16 0.21,0 0.41,0.05 0.59,0.15 0.18,0.1 0.32,0.24 0.42,0.41 0.1,0.18 0.15,0.37 0.15,0.59l0 2.07 -0.94 0 0 -2.04c0,-0.06 -0.02,-0.12 -0.06,-0.16 -0.04,-0.04 -0.09,-0.06 -0.15,-0.06 -0.06,0 -0.11,0.02 -0.15,0.06 -0.04,0.04 -0.05,0.1 -0.05,0.16l0 2.04 -0.93 0z"/>
  <path class="fil0" d="M49.08 13.3l0 0.71 -0.61 0c-0.07,0 -0.13,0.01 -0.17,0.03 -0.04,0.02 -0.06,0.06 -0.06,0.13 0,0.07 0.02,0.12 0.07,0.13 0.05,0.02 0.12,0.03 0.2,0.03l0.63 0 0 0.9 -0.77 0c-0.31,0 -0.56,-0.08 -0.74,-0.24 -0.2,-0.18 -0.3,-0.4 -0.3,-0.66l0 -1.39c0,-0.15 0.04,-0.3 0.13,-0.43 0.08,-0.13 0.2,-0.24 0.34,-0.31 0.14,-0.08 0.28,-0.12 0.43,-0.12l0.91 0 0 0.91 -0.63 0c-0.14,0 -0.21,0.05 -0.21,0.16 0,0.11 0.08,0.16 0.23,0.16l0.55 0z"/>
  <path class="fil0" d="M54.56 12.07l0 0.9c-0.07,-0.03 -0.12,-0.04 -0.16,-0.04 -0.07,0 -0.13,0.03 -0.18,0.08 -0.05,0.06 -0.08,0.12 -0.08,0.19 0,0.05 0.02,0.11 0.06,0.19 0.04,0.08 0.08,0.17 0.13,0.26 0.05,0.09 0.08,0.18 0.12,0.27 0.03,0.09 0.05,0.19 0.05,0.29 0,0.2 -0.05,0.39 -0.16,0.56 -0.1,0.17 -0.24,0.3 -0.42,0.39 -0.18,0.1 -0.37,0.14 -0.57,0.14 -0.13,0 -0.27,-0.03 -0.42,-0.1l0 -0.91c0.09,0.05 0.17,0.08 0.24,0.08 0.07,0 0.14,-0.02 0.2,-0.07 0.06,-0.05 0.09,-0.11 0.09,-0.18 0,-0.05 -0.04,-0.14 -0.11,-0.29 -0.07,-0.14 -0.13,-0.27 -0.17,-0.37 -0.04,-0.11 -0.06,-0.23 -0.06,-0.37 0,-0.19 0.05,-0.37 0.14,-0.54 0.1,-0.17 0.23,-0.3 0.39,-0.4 0.16,-0.1 0.34,-0.15 0.54,-0.15 0.13,0 0.25,0.02 0.38,0.07z"/>
  <polygon class="fil0" points="58.36,15.23 59.31,15.23 59.31,12.08 58.36,12.08 "/>
  <path class="fil0" d="M64.37 13.65l0 0.83 -0.26 0 0 0.75 -0.95 0 0 -2.03c0,-0.24 0.05,-0.45 0.14,-0.63 0.1,-0.18 0.23,-0.32 0.41,-0.42 0.18,-0.1 0.38,-0.15 0.62,-0.15 0.22,0 0.41,0.05 0.58,0.16 0.17,0.11 0.3,0.25 0.39,0.44 0.09,0.18 0.14,0.38 0.14,0.6l0 2.03 -0.95 0 0 -2.03c0,-0.07 -0.01,-0.13 -0.04,-0.18 -0.03,-0.05 -0.08,-0.07 -0.14,-0.08 -0.07,0 -0.12,0.02 -0.15,0.07 -0.03,0.05 -0.05,0.11 -0.05,0.18l0 0.45 0.26 0z"/>
  <polygon class="fil0" points="24.12,0.23 20.13,10.3 16.37,0.23 19.38,0.23 20.18,3.16 20.95,0.23 "/>
  <path class="fil0" d="M29.6 3.93l0 2.14 -1.71 0c-0.2,0 -0.36,0.03 -0.47,0.09 -0.11,0.06 -0.17,0.19 -0.17,0.38 0,0.21 0.07,0.35 0.2,0.4 0.14,0.06 0.32,0.08 0.56,0.08l1.75 0 0 2.72 -2.14 0c-0.87,0 -1.56,-0.24 -2.05,-0.71 -0.55,-0.54 -0.83,-1.21 -0.83,-2.01l0 -4.2c0,-0.46 0.12,-0.89 0.35,-1.29 0.24,-0.4 0.55,-0.72 0.94,-0.95 0.39,-0.23 0.79,-0.35 1.21,-0.35l2.52 0 0 2.74 -1.75 0c-0.39,0 -0.59,0.16 -0.59,0.47 0,0.32 0.22,0.48 0.65,0.48l1.54 0z"/>
  <path class="fil0" d="M31.43 0.23l2.58 0 0 5.85c0,0.61 0.38,0.91 1.13,0.91l0 2.76 -0.8 0c-0.57,0 -1.08,-0.14 -1.52,-0.43 -0.44,-0.29 -0.78,-0.69 -1.02,-1.19 -0.24,-0.51 -0.36,-1.07 -0.36,-1.69l0 -6.21z"/>
  <path class="fil0" d="M39.61 4.98l0 2.5 -0.71 0 0 2.27 -2.64 0 0 -6.14c0,-0.72 0.13,-1.35 0.4,-1.9 0.27,-0.55 0.65,-0.97 1.14,-1.27 0.5,-0.3 1.07,-0.45 1.73,-0.45 0.61,0 1.15,0.16 1.62,0.49 0.47,0.33 0.84,0.77 1.1,1.32 0.26,0.55 0.39,1.16 0.39,1.81l0 6.14 -2.64 0 0 -6.14c0,-0.2 -0.04,-0.38 -0.13,-0.53 -0.08,-0.15 -0.21,-0.23 -0.39,-0.24 -0.19,0 -0.33,0.07 -0.43,0.22 -0.1,0.15 -0.15,0.33 -0.15,0.55l0 1.37 0.71 0z"/>
  <path class="fil0" d="M48.59 0.2l0 2.71c-0.2,-0.08 -0.34,-0.12 -0.43,-0.12 -0.2,0 -0.37,0.08 -0.51,0.25 -0.14,0.17 -0.21,0.36 -0.21,0.57 0,0.14 0.06,0.33 0.17,0.58 0.11,0.25 0.23,0.51 0.36,0.77 0.13,0.27 0.23,0.55 0.32,0.83 0.09,0.29 0.13,0.58 0.13,0.89 0,0.62 -0.15,1.18 -0.44,1.69 -0.29,0.51 -0.68,0.91 -1.18,1.19 -0.49,0.29 -1.02,0.43 -1.6,0.43 -0.36,0 -0.75,-0.11 -1.17,-0.31l0 -2.76c0.25,0.15 0.47,0.23 0.66,0.23 0.2,0 0.38,-0.07 0.55,-0.21 0.17,-0.14 0.25,-0.32 0.25,-0.53 0,-0.15 -0.1,-0.44 -0.3,-0.87 -0.2,-0.43 -0.36,-0.81 -0.47,-1.13 -0.11,-0.33 -0.17,-0.7 -0.17,-1.13 0,-0.58 0.13,-1.12 0.4,-1.62 0.27,-0.51 0.63,-0.91 1.09,-1.21 0.46,-0.3 0.96,-0.45 1.49,-0.45 0.35,0 0.71,0.07 1.07,0.2z"/>
  <polygon class="fil0" points="54.08,2.94 54.08,9.75 51.47,9.75 51.47,2.94 49.47,2.94 49.47,0.23 56.05,0.23 56.05,2.94 "/>
  <path class="fil0" d="M56.76 4.84c0,-0.67 0.12,-1.29 0.36,-1.88 0.24,-0.59 0.58,-1.11 1.01,-1.55 0.43,-0.45 0.92,-0.79 1.47,-1.04 0.55,-0.24 1.13,-0.37 1.74,-0.37 0.61,0 1.2,0.12 1.76,0.37 0.56,0.25 1.06,0.59 1.49,1.04 0.43,0.45 0.77,0.96 1.01,1.55 0.24,0.59 0.37,1.22 0.37,1.88 0,0.91 -0.2,1.77 -0.61,2.56 -0.41,0.79 -0.96,1.42 -1.67,1.89 -0.71,0.47 -1.48,0.7 -2.32,0.7 -0.84,0 -1.61,-0.24 -2.32,-0.71 -0.71,-0.47 -1.26,-1.1 -1.67,-1.9 -0.41,-0.79 -0.61,-1.64 -0.61,-2.55zm2.57 0.04c0,0.4 0.09,0.78 0.27,1.14 0.18,0.36 0.42,0.65 0.73,0.87 0.31,0.22 0.65,0.33 1.02,0.33 0.38,0 0.72,-0.11 1.04,-0.33 0.32,-0.22 0.56,-0.51 0.74,-0.87 0.18,-0.36 0.27,-0.75 0.27,-1.15 0,-0.39 -0.09,-0.74 -0.29,-1.07 -0.19,-0.33 -0.44,-0.58 -0.76,-0.77 -0.32,-0.19 -0.65,-0.28 -1.01,-0.28 -0.35,0 -0.68,0.09 -0.99,0.29 -0.31,0.19 -0.56,0.45 -0.75,0.77 -0.19,0.33 -0.28,0.68 -0.28,1.07z"/>
  <path class="fil1" d="M7.03 11.76l3.96 -11.53 -8.11 0c0.36,0.75 0.66,1.89 1.01,2.78 0.39,1.02 0.66,1.95 1,2.97l2.07 5.67c0.01,0.02 0.04,0.08 0.07,0.11z"/>
  <path class="fil2" d="M-0 15.9l5.58 0c-0.3,-1.29 -0.87,-2.57 -1.33,-3.9 -0.46,-1.34 -0.96,-2.5 -1.4,-3.83l-2.86 -7.77 0 15.49z"/>
  <path class="fil3" d="M9.55 15.9c5.24,0 4.32,0.8 4.32,-3.6l0 -7.93c-0.48,0.35 -0.42,0.64 -0.65,1.33l-1.58 4.37c-0.35,1.06 -0.66,1.91 -1.04,2.92l-1.05 2.91z"/>
  <path class="fil4" d="M8.29 15.9l0.9 0 3.99 -10.96c0.7,-1.87 0.69,-1.73 0.69,-4.35 -0.48,0.35 -0.57,1.06 -0.79,1.73 -0.94,2.88 -4.37,11.77 -4.8,13.58z"/>
  <path class="fil5" d="M7.03 15.9c0.48,-0.55 0.55,-1.01 0.79,-1.73l4.98 -13.94c-0.56,0.41 -0.57,0.9 -0.83,1.69 -0.63,1.91 -4.86,13.07 -4.93,13.98z"/>
 </g>
</svg>
