<?xml version="1.0" encoding="UTF-8"?>
<!DOCTYPE svg PUBLIC "-//W3C//DTD SVG 1.1//EN" "http://www.w3.org/Graphics/SVG/1.1/DTD/svg11.dtd">
<!-- Creator: CorelDRAW -->
<svg xmlns="http://www.w3.org/2000/svg" xml:space="preserve" width="13.3047mm" height="3.279mm" version="1.1" style="shape-rendering:geometricPrecision; text-rendering:geometricPrecision; image-rendering:optimizeQuality; fill-rule:evenodd; clip-rule:evenodd"
viewBox="0 0 58.15 14.33"
 xmlns:xlink="http://www.w3.org/1999/xlink"
 xmlns:xodm="http://www.corel.com/coreldraw/odm/2003">
 <defs>
  <style type="text/css">
   <![CDATA[
    .fil1 {fill:#E02B2B;fill-rule:nonzero}
    .fil0 {fill:#404041;fill-rule:nonzero}
   ]]>
  </style>
 </defs>
 <g id="Layer_x0020_1">
  <metadata id="CorelCorpID_0Corel-Layer"/>
  <path class="fil0" d="M0.78 12.64l1.1 0c0.35,0 0.61,-0.05 0.78,-0.15 0.14,-0.1 0.23,-0.24 0.23,-0.42 0,-0.13 -0.05,-0.24 -0.13,-0.34 -0.1,-0.1 -0.21,-0.16 -0.36,-0.18 -0.1,-0.02 -0.27,-0.03 -0.52,-0.03l-1.08 0 0 1.12 -0.02 0zm-0.57 1.63l0 -3.12 1.6 0c0.27,0 0.5,0.02 0.65,0.03 0.21,0.03 0.39,0.08 0.52,0.15 0.15,0.06 0.26,0.18 0.34,0.31 0.08,0.13 0.13,0.27 0.13,0.42 0,0.26 -0.11,0.48 -0.34,0.68 -0.23,0.18 -0.65,0.27 -1.24,0.27l-1.08 0 0 1.28 -0.57 0 0 -0.02z"/>
  <polygon class="fil0" points="3.83,11.15 7.17,11.15 7.17,11.52 5.78,11.52 5.78,14.27 5.22,14.27 5.22,11.52 3.83,11.52 "/>
  <path class="fil0" d="M9.76 12.99l1.44 0 -0.44 -0.87c-0.13,-0.26 -0.23,-0.48 -0.31,-0.65 -0.06,0.21 -0.13,0.4 -0.23,0.6l-0.47 0.92zm-1.21 1.28l1.62 -3.12 0.61 0 1.71 3.12 -0.63 0 -0.48 -0.95 -1.78 0 -0.45 0.95 -0.6 0z"/>
  <path class="fil0" d="M12.67 13.59l0.52 -0.07c0.03,0.15 0.11,0.27 0.24,0.36 0.13,0.08 0.32,0.13 0.55,0.13 0.24,0 0.42,-0.03 0.53,-0.11 0.11,-0.07 0.18,-0.16 0.18,-0.26 0,-0.08 -0.05,-0.16 -0.16,-0.21 -0.06,-0.03 -0.24,-0.08 -0.53,-0.13 -0.37,-0.06 -0.65,-0.13 -0.79,-0.18 -0.15,-0.05 -0.26,-0.13 -0.34,-0.21 -0.08,-0.1 -0.11,-0.19 -0.11,-0.31 0,-0.1 0.03,-0.19 0.1,-0.27 0.06,-0.08 0.15,-0.16 0.26,-0.21 0.08,-0.05 0.19,-0.08 0.32,-0.11 0.15,-0.03 0.29,-0.05 0.45,-0.05 0.24,0 0.45,0.03 0.63,0.08 0.18,0.05 0.31,0.11 0.4,0.21 0.08,0.08 0.15,0.21 0.18,0.36l-0.5 0.05c-0.02,-0.11 -0.1,-0.21 -0.19,-0.27 -0.11,-0.06 -0.26,-0.1 -0.47,-0.1 -0.24,0 -0.4,0.03 -0.5,0.08 -0.1,0.06 -0.15,0.13 -0.15,0.21 0,0.05 0.02,0.1 0.06,0.13 0.05,0.05 0.11,0.08 0.19,0.1 0.05,0.02 0.21,0.05 0.45,0.1 0.37,0.06 0.61,0.13 0.76,0.18 0.14,0.05 0.26,0.11 0.34,0.19 0.08,0.08 0.13,0.19 0.13,0.32 0,0.13 -0.05,0.24 -0.15,0.35 -0.1,0.11 -0.24,0.19 -0.44,0.26 -0.19,0.06 -0.4,0.1 -0.65,0.1 -0.4,0 -0.69,-0.06 -0.91,-0.18 -0.21,-0.13 -0.34,-0.31 -0.4,-0.53l-0.02 0z"/>
  <path class="fil0" d="M16.95 13.93l0.06 0.34c-0.15,0.02 -0.27,0.03 -0.39,0.03 -0.19,0 -0.34,-0.02 -0.44,-0.06 -0.1,-0.05 -0.18,-0.1 -0.23,-0.18 -0.05,-0.06 -0.07,-0.23 -0.07,-0.45l0 -1.31 -0.39 0 0 -0.29 0.39 0 0 -0.57 0.52 -0.23 0 0.79 0.52 0 0 0.29 -0.52 0 0 1.32c0,0.11 0.02,0.18 0.03,0.21 0.02,0.03 0.05,0.05 0.1,0.08 0.05,0.02 0.1,0.03 0.18,0.03 0.06,0 0.13,0 0.23,-0.02z"/>
  <path class="fil0" d="M17.45 14.27l0 -2.26 0.47 0 0 0.34c0.11,-0.16 0.23,-0.26 0.32,-0.32 0.1,-0.05 0.21,-0.08 0.34,-0.08 0.18,0 0.35,0.03 0.53,0.13l-0.18 0.35c-0.13,-0.05 -0.26,-0.08 -0.37,-0.08 -0.11,0 -0.21,0.03 -0.31,0.08 -0.1,0.05 -0.16,0.11 -0.19,0.21 -0.06,0.13 -0.08,0.29 -0.08,0.45l0 1.18 -0.52 0 -0.02 0z"/>
  <path class="fil0" d="M21.38 13.14c-0.19,0.06 -0.47,0.1 -0.86,0.14 -0.21,0.02 -0.37,0.05 -0.45,0.08 -0.08,0.03 -0.16,0.06 -0.21,0.13 -0.05,0.05 -0.06,0.11 -0.06,0.18 0,0.1 0.05,0.19 0.16,0.26 0.1,0.06 0.26,0.1 0.45,0.1 0.19,0 0.37,-0.03 0.53,-0.1 0.16,-0.06 0.27,-0.14 0.34,-0.26 0.05,-0.08 0.08,-0.21 0.08,-0.39l0 -0.14 0.02 0zm0.05 0.86c-0.19,0.11 -0.37,0.21 -0.55,0.26 -0.18,0.05 -0.37,0.08 -0.57,0.08 -0.34,0 -0.6,-0.06 -0.78,-0.18 -0.18,-0.11 -0.27,-0.27 -0.27,-0.47 0,-0.11 0.03,-0.21 0.1,-0.31 0.06,-0.1 0.16,-0.16 0.27,-0.23 0.11,-0.05 0.24,-0.1 0.37,-0.13 0.1,-0.02 0.26,-0.03 0.47,-0.06 0.42,-0.03 0.73,-0.08 0.92,-0.13l0 -0.1c0,-0.16 -0.05,-0.26 -0.14,-0.32 -0.13,-0.08 -0.32,-0.13 -0.6,-0.13 -0.24,0 -0.42,0.03 -0.55,0.1 -0.11,0.06 -0.21,0.18 -0.26,0.34l-0.5 -0.05c0.05,-0.16 0.13,-0.29 0.23,-0.39 0.11,-0.1 0.26,-0.18 0.45,-0.23 0.19,-0.05 0.44,-0.08 0.69,-0.08 0.26,0 0.47,0.02 0.65,0.06 0.16,0.05 0.29,0.1 0.35,0.18 0.08,0.07 0.13,0.16 0.16,0.26 0.02,0.06 0.03,0.18 0.03,0.36l0 0.5c0,0.35 0.02,0.58 0.03,0.68 0.02,0.1 0.06,0.19 0.13,0.27l-0.55 0c-0.05,-0.08 -0.08,-0.18 -0.1,-0.29z"/>
  <polygon class="fil0" points="25,12.43 27.18,12.43 27.18,11.15 27.73,11.15 27.73,14.27 27.18,14.27 27.18,12.8 25,12.8 25,14.27 24.43,14.27 24.43,11.15 25,11.15 "/>
  <path class="fil0" d="M28.94 13.14c0,0.29 0.08,0.5 0.26,0.65 0.18,0.14 0.39,0.21 0.65,0.21 0.26,0 0.47,-0.06 0.65,-0.21 0.18,-0.15 0.26,-0.37 0.26,-0.66 0,-0.28 -0.08,-0.49 -0.26,-0.63 -0.18,-0.14 -0.39,-0.21 -0.65,-0.21 -0.26,0 -0.47,0.06 -0.65,0.21 -0.18,0.15 -0.26,0.35 -0.26,0.65zm-0.53 0c0,-0.42 0.16,-0.73 0.47,-0.92 0.26,-0.16 0.58,-0.26 0.97,-0.26 0.42,0 0.76,0.1 1.03,0.31 0.28,0.21 0.4,0.49 0.4,0.84 0,0.29 -0.06,0.52 -0.18,0.68 -0.11,0.16 -0.29,0.29 -0.52,0.39 -0.23,0.1 -0.47,0.14 -0.74,0.14 -0.44,0 -0.78,-0.1 -1.03,-0.31 -0.26,-0.21 -0.4,-0.5 -0.4,-0.87z"/>
  <path class="fil0" d="M31.9 14.27l0 -2.26 0.47 0 0 0.32c0.23,-0.24 0.55,-0.37 0.97,-0.37 0.18,0 0.35,0.03 0.5,0.08 0.16,0.05 0.27,0.11 0.34,0.19 0.08,0.08 0.13,0.18 0.16,0.29 0.02,0.06 0.03,0.19 0.03,0.37l0 1.39 -0.52 0 0 -1.37c0,-0.16 -0.02,-0.27 -0.07,-0.36 -0.03,-0.08 -0.11,-0.15 -0.21,-0.18 -0.1,-0.05 -0.23,-0.06 -0.36,-0.06 -0.23,0 -0.4,0.05 -0.57,0.16 -0.16,0.1 -0.24,0.31 -0.24,0.58l0 1.23 -0.52 0 0 -0.02z"/>
  <path class="fil0" d="M35.52 13.14c0,0.29 0.08,0.5 0.24,0.65 0.16,0.14 0.36,0.21 0.58,0.21 0.23,0 0.42,-0.06 0.58,-0.21 0.16,-0.13 0.24,-0.34 0.24,-0.63 0,-0.31 -0.08,-0.53 -0.24,-0.68 -0.16,-0.15 -0.36,-0.21 -0.6,-0.21 -0.23,0 -0.42,0.06 -0.58,0.21 -0.16,0.15 -0.23,0.36 -0.23,0.66zm1.63 1.13l0 -0.29c-0.19,0.23 -0.48,0.34 -0.86,0.34 -0.24,0 -0.47,-0.05 -0.68,-0.14 -0.21,-0.1 -0.36,-0.24 -0.47,-0.42 -0.11,-0.18 -0.16,-0.39 -0.16,-0.61 0,-0.23 0.05,-0.44 0.15,-0.61 0.1,-0.18 0.26,-0.32 0.45,-0.42 0.21,-0.1 0.44,-0.14 0.68,-0.14 0.18,0 0.36,0.03 0.48,0.08 0.15,0.06 0.26,0.13 0.36,0.23l0 -1.12 0.52 0 0 3.12 -0.48 0 0.02 0z"/>
  <path class="fil0" d="M40.41 13.14c-0.19,0.06 -0.47,0.1 -0.86,0.14 -0.21,0.02 -0.37,0.05 -0.45,0.08 -0.08,0.03 -0.16,0.06 -0.21,0.13 -0.05,0.05 -0.07,0.11 -0.07,0.18 0,0.1 0.05,0.19 0.16,0.26 0.1,0.06 0.26,0.1 0.45,0.1 0.19,0 0.37,-0.03 0.53,-0.1 0.16,-0.06 0.27,-0.14 0.34,-0.26 0.05,-0.08 0.08,-0.21 0.08,-0.39l0 -0.14 0.02 0zm0.05 0.86c-0.19,0.11 -0.37,0.21 -0.55,0.26 -0.18,0.05 -0.37,0.08 -0.57,0.08 -0.34,0 -0.6,-0.06 -0.78,-0.18 -0.18,-0.11 -0.27,-0.27 -0.27,-0.47 0,-0.11 0.03,-0.21 0.1,-0.31 0.06,-0.1 0.16,-0.16 0.27,-0.23 0.11,-0.05 0.24,-0.1 0.37,-0.13 0.1,-0.02 0.26,-0.03 0.47,-0.06 0.42,-0.03 0.73,-0.08 0.92,-0.13l0 -0.1c0,-0.16 -0.05,-0.26 -0.15,-0.32 -0.13,-0.08 -0.32,-0.13 -0.6,-0.13 -0.24,0 -0.42,0.03 -0.55,0.1 -0.11,0.06 -0.21,0.18 -0.26,0.34l-0.5 -0.05c0.05,-0.16 0.13,-0.29 0.23,-0.39 0.11,-0.1 0.26,-0.18 0.45,-0.23 0.19,-0.05 0.44,-0.08 0.69,-0.08 0.26,0 0.47,0.02 0.65,0.06 0.16,0.05 0.29,0.1 0.35,0.18 0.08,0.07 0.13,0.16 0.16,0.26 0.02,0.06 0.03,0.18 0.03,0.36l0 0.5c0,0.35 0.02,0.58 0.03,0.68 0.02,0.1 0.06,0.19 0.13,0.27l-0.55 0c-0.05,-0.08 -0.08,-0.18 -0.1,-0.29z"/>
  <path class="fil0" d="M43.43 14.27l0 -3.12 0.84 0 1 2.21c0.1,0.21 0.16,0.36 0.19,0.47 0.05,-0.11 0.13,-0.27 0.23,-0.5l1.02 -2.16 0.74 0 0 3.12 -0.53 0 0 -2.62 -1.23 2.62 -0.5 0 -1.21 -2.67 0 2.67 -0.53 0 -0.02 -0.02z"/>
  <path class="fil0" d="M48.64 13.14c0,0.29 0.08,0.5 0.26,0.65 0.18,0.14 0.39,0.21 0.65,0.21 0.26,0 0.47,-0.06 0.65,-0.21 0.18,-0.15 0.26,-0.37 0.26,-0.66 0,-0.28 -0.08,-0.49 -0.26,-0.63 -0.18,-0.14 -0.39,-0.21 -0.65,-0.21 -0.26,0 -0.47,0.06 -0.65,0.21 -0.18,0.15 -0.26,0.35 -0.26,0.65zm-0.53 0c0,-0.42 0.16,-0.73 0.47,-0.92 0.26,-0.16 0.58,-0.26 0.97,-0.26 0.42,0 0.76,0.1 1.03,0.31 0.27,0.21 0.4,0.49 0.4,0.84 0,0.29 -0.06,0.52 -0.18,0.68 -0.11,0.16 -0.29,0.29 -0.52,0.39 -0.23,0.1 -0.47,0.14 -0.74,0.14 -0.44,0 -0.78,-0.1 -1.03,-0.31 -0.26,-0.21 -0.4,-0.5 -0.4,-0.87z"/>
  <path class="fil0" d="M52.71 13.93l0.06 0.34c-0.14,0.02 -0.27,0.03 -0.39,0.03 -0.19,0 -0.34,-0.02 -0.44,-0.06 -0.1,-0.05 -0.18,-0.1 -0.23,-0.18 -0.05,-0.06 -0.06,-0.23 -0.06,-0.45l0 -1.31 -0.39 0 0 -0.29 0.39 0 0 -0.57 0.52 -0.23 0 0.79 0.52 0 0 0.29 -0.52 0 0 1.32c0,0.11 0.02,0.18 0.03,0.21 0.02,0.03 0.05,0.05 0.1,0.08 0.05,0.02 0.1,0.03 0.18,0.03 0.06,0 0.13,0 0.23,-0.02z"/>
  <path class="fil0" d="M53.55 13.14c0,0.29 0.08,0.5 0.26,0.65 0.18,0.14 0.39,0.21 0.65,0.21 0.26,0 0.47,-0.06 0.65,-0.21 0.18,-0.15 0.26,-0.37 0.26,-0.66 0,-0.28 -0.08,-0.49 -0.26,-0.63 -0.18,-0.14 -0.39,-0.21 -0.65,-0.21 -0.26,0 -0.47,0.06 -0.65,0.21 -0.18,0.15 -0.26,0.35 -0.26,0.65zm-0.53 0c0,-0.42 0.16,-0.73 0.47,-0.92 0.26,-0.16 0.58,-0.26 0.97,-0.26 0.42,0 0.76,0.1 1.03,0.31 0.27,0.21 0.4,0.49 0.4,0.84 0,0.29 -0.06,0.52 -0.18,0.68 -0.11,0.16 -0.29,0.29 -0.52,0.39 -0.23,0.1 -0.47,0.14 -0.74,0.14 -0.44,0 -0.78,-0.1 -1.03,-0.31 -0.26,-0.21 -0.4,-0.5 -0.4,-0.87z"/>
  <path class="fil0" d="M56.49 14.27l0 -2.26 0.47 0 0 0.34c0.11,-0.16 0.23,-0.26 0.32,-0.32 0.1,-0.05 0.21,-0.08 0.34,-0.08 0.18,0 0.35,0.03 0.53,0.11l-0.18 0.36c-0.13,-0.05 -0.26,-0.08 -0.37,-0.08 -0.11,0 -0.21,0.03 -0.31,0.08 -0.1,0.05 -0.16,0.11 -0.19,0.21 -0.06,0.13 -0.08,0.29 -0.08,0.45l0 1.18 -0.52 0 -0.02 0.02z"/>
  <polygon class="fil1" points="48.73,6.84 52.61,0.02 58.09,0.02 58.09,8.55 54.66,8.55 54.66,1.89 50.61,8.55 46.81,8.55 42.67,1.89 42.67,8.55 39.36,8.55 39.36,0.02 44.79,0.02 "/>
  <polygon class="fil1" points="24.53,3.52 32.64,3.52 32.64,0.02 36.52,0.02 36.52,8.55 32.64,8.55 32.64,5.09 24.53,5.09 24.53,8.55 20.55,8.55 20.55,0.02 24.53,0.02 "/>
  <polygon class="fil1" points="18.68,8.32 14.38,8.32 9.24,2.15 4.22,8.32 -0,8.32 6.95,0 11.75,0 "/>
 </g>
</svg>
