<?xml version="1.0" encoding="UTF-8"?>
<!DOCTYPE svg PUBLIC "-//W3C//DTD SVG 1.1//EN" "http://www.w3.org/Graphics/SVG/1.1/DTD/svg11.dtd">
<!-- Creator: CorelDRAW -->
<svg xmlns="http://www.w3.org/2000/svg" xml:space="preserve" width="11.0019mm" height="4.928mm" version="1.1" style="shape-rendering:geometricPrecision; text-rendering:geometricPrecision; image-rendering:optimizeQuality; fill-rule:evenodd; clip-rule:evenodd"
viewBox="0 0 27.12 12.15"
 xmlns:xlink="http://www.w3.org/1999/xlink"
 xmlns:xodm="http://www.corel.com/coreldraw/odm/2003">
 <defs>
  <style type="text/css">
   <![CDATA[
    .fil0 {fill:#27396A;fill-rule:nonzero}
   ]]>
  </style>
 </defs>
 <g id="Layer_x0020_1">
  <metadata id="CorelCorpID_0Corel-Layer"/>
  <path class="fil0" d="M24.06 3.93c0.17,0.96 -0.46,1.98 -1.64,2.88 -0.01,0.01 0,0.03 0.01,0.02 0.94,-0.62 1.94,-1.31 2.62,-2.23 0.24,-0.33 0.45,-0.72 0.48,-1.14 0.07,-0.77 -0.45,-1.44 -1.09,-1.8 -0.43,-0.24 -0.9,-0.39 -1.38,-0.5 -0.83,-0.19 -1.69,-0.25 -2.55,-0.24 -0.43,0.01 -0.87,0.03 -1.3,0.07 -0.42,0.04 -0.83,0.09 -1.25,0.16 -0.41,0.07 -0.82,0.15 -1.22,0.25 -0.04,0.01 -0.09,0.02 -0.13,0.03 -0.01,0 -0.01,0.02 0,0.02 3.92,-0.37 7.12,0.63 7.45,2.47z"/>
  <path class="fil0" d="M20.55 0.46c-0.01,0 -0.02,-0.02 -0,-0.02 0.3,-0.06 0.6,-0.11 0.91,-0.16 0.48,-0.08 0.97,-0.14 1.46,-0.19 0.84,-0.08 1.71,-0.13 2.55,-0.01 0.19,0.03 0.38,0.06 0.56,0.12 0.46,0.13 0.93,0.38 1.05,0.87 0.08,0.32 0.03,0.67 -0.07,0.98 -0.19,0.61 -0.57,1.15 -0.98,1.63 -0.03,0.03 -0.05,0.06 -0.08,0.09 -0.01,0.01 -0.02,0 -0.02,-0.01 0.17,-0.44 0.24,-0.94 0.15,-1.4 -0.13,-0.69 -0.67,-1.19 -1.29,-1.46 -0.75,-0.33 -1.57,-0.41 -2.37,-0.44 -0.63,-0.03 -1.26,-0.01 -1.89,0.01z"/>
  <path class="fil0" d="M6.34 7.63c0,0.9 -0.73,1.63 -1.63,1.63l-4.71 0 0 -1.49 1.13 0 0 0.37 3.58 0c0.28,0 0.5,-0.23 0.5,-0.5 0,-0.28 -0.23,-0.5 -0.5,-0.5l-4.71 0 0 -1.13 3.78 0c0.28,0 0.5,-0.23 0.5,-0.5 0,-0.28 -0.23,-0.5 -0.5,-0.5l-2.66 0 0 0.37 -1.13 0 0 -1.49 3.78 0c0.9,0 1.63,0.73 1.63,1.63 0,0.22 -0.04,0.42 -0.12,0.61 0.61,0.24 1.04,0.83 1.04,1.52zm7.97 -3.77l6.75 0 0 1.13 -6.75 0 0 -1.13zm2.81 1.77l1.13 0 0 3.63 -1.13 0 0 -3.63zm-5.79 1.21l0.85 1.13 -3.08 0 -0.98 1.29 -1.41 0 4.33 -5.72 4.33 5.72 -1.41 0 -2.92 -3.85 -1.09 1.44 1.37 0z"/>
  <polygon class="fil0" points="1.59,12.08 1.77,12.08 1.77,10.67 1.59,10.67 "/>
  <polygon class="fil0" points="2.56,12.08 2.56,10.59 3.63,11.7 3.63,10.67 3.81,10.67 3.81,12.15 2.74,11.04 2.74,12.08 "/>
  <path class="fil0" d="M4.77 11.88l0.35 0c0.25,0 0.55,-0.1 0.55,-0.51 0,-0.41 -0.31,-0.53 -0.55,-0.53l-0.35 0 0 1.04zm-0.18 0.19l0 -1.41 0.54 0c0.32,0 0.71,0.19 0.71,0.71 0,0.51 -0.39,0.7 -0.71,0.7l-0.54 0z"/>
  <path class="fil0" d="M7.31 11.92c0.31,0 0.55,-0.25 0.55,-0.55 0,-0.31 -0.25,-0.55 -0.55,-0.55 -0.31,0 -0.55,0.25 -0.55,0.55 0,0.31 0.24,0.55 0.55,0.55zm0 -1.29c0.4,0 0.72,0.33 0.72,0.74 0,0.41 -0.32,0.74 -0.72,0.74 -0.4,0 -0.72,-0.33 -0.72,-0.74 0,-0.41 0.32,-0.74 0.72,-0.74z"/>
  <polygon class="fil0" points="8.78,12.08 8.78,10.59 9.85,11.7 9.85,10.67 10.03,10.67 10.03,12.15 8.96,11.04 8.96,12.08 "/>
  <polygon class="fil0" points="10.81,10.67 11.77,10.67 11.77,10.84 10.99,10.84 10.99,11.25 11.63,11.25 11.63,11.42 10.98,11.42 10.98,11.9 11.77,11.9 11.77,12.07 10.81,12.07 "/>
  <path class="fil0" d="M13.57 11.67c0,0.31 -0.27,0.43 -0.53,0.43 -0.19,0 -0.38,-0.06 -0.48,-0.15l0 -0.23c0.09,0.1 0.29,0.2 0.48,0.2 0.22,0 0.37,-0.12 0.37,-0.24 0,-0.38 -0.89,-0.09 -0.89,-0.67 0,-0.27 0.26,-0.39 0.5,-0.39 0.17,0 0.35,0.04 0.44,0.12l-0.01 0.22c-0.11,-0.1 -0.27,-0.16 -0.45,-0.16 -0.1,0 -0.32,0.04 -0.32,0.21 0,0.4 0.89,0.11 0.89,0.65z"/>
  <polygon class="fil0" points="14.34,12.08 14.52,12.08 14.52,10.67 14.34,10.67 "/>
  <path class="fil0" d="M15.73 11.57l0.53 -0 -0.27 -0.58 -0.27 0.58zm0.61 0.17l-0.69 -0 -0.16 0.33 -0.2 0 0.7 -1.48 0.7 1.48 -0.2 0 -0.16 -0.33z"/>
 </g>
</svg>
