<?xml version="1.0" encoding="UTF-8"?>
<!DOCTYPE svg PUBLIC "-//W3C//DTD SVG 1.1//EN" "http://www.w3.org/Graphics/SVG/1.1/DTD/svg11.dtd">
<!-- Creator: CorelDRAW -->
<svg xmlns="http://www.w3.org/2000/svg" xml:space="preserve" width="8.8508mm" height="6.0478mm" version="1.1" style="shape-rendering:geometricPrecision; text-rendering:geometricPrecision; image-rendering:optimizeQuality; fill-rule:evenodd; clip-rule:evenodd"
viewBox="0 0 17.64 12.05"
 xmlns:xlink="http://www.w3.org/1999/xlink"
 xmlns:xodm="http://www.corel.com/coreldraw/odm/2003">
 <defs>
  <style type="text/css">
   <![CDATA[
    .fil1 {fill:#367CBC;fill-rule:nonzero}
    .fil0 {fill:#232323;fill-rule:nonzero}
   ]]>
  </style>
 </defs>
 <g id="Layer_x0020_1">
  <metadata id="CorelCorpID_0Corel-Layer"/>
  <polygon class="fil0" points="0,7.79 1.2,1.92 4.14,1.92 3.92,2.99 2.22,2.99 1.96,4.35 3.64,4.35 3.42,5.4 1.71,5.4 1.44,6.72 3.14,6.72 2.9,7.79 "/>
  <polygon class="fil0" points="3.42,7.79 5.27,5.04 4.56,1.92 5.83,1.92 6.18,3.56 7.3,1.92 8.55,1.92 6.62,4.88 7.27,7.79 6.07,7.79 5.7,6.28 4.64,7.79 "/>
  <polygon class="fil0" points="10.87,7.79 12.07,1.92 15.02,1.92 14.79,2.99 13.09,2.99 12.83,4.35 14.51,4.35 14.29,5.4 12.58,5.4 12.31,6.72 14.02,6.72 13.77,7.79 "/>
  <polygon class="fil0" points="17.39,7.79 17.64,6.7 15.91,6.7 16.94,1.92 15.69,1.92 14.45,7.79 "/>
  <path class="fil1" d="M14.45 7.79c-1.32,2.52 -4.64,2.77 -6.04,0.01 -0.99,-1.95 -0.68,-4.05 0.42,-5.89 1.68,-2.8 4.47,-2.28 6.18,0.01 -1.81,-1.49 -3.69,-1.01 -4.68,1.02 -0.56,1.15 -0.79,2.36 -0.34,3.59 0.76,2.09 3.1,2.8 4.46,1.27z"/>
  <polygon class="fil0" points="-0,11.63 0.3,10.21 0.59,10.21 0.34,11.39 1.07,11.39 1.02,11.63 "/>
  <path class="fil0" d="M1.5 10.21l-0.05 0.25 0.28 0 0.05 -0.25 -0.28 0zm-0.08 0.39l-0.22 1.03 0.28 0 0.22 -1.03 -0.28 0z"/>
  <path class="fil0" d="M1.75 11.69l0.29 0.04c0,0.03 0,0.05 0.01,0.07 0.01,0.02 0.03,0.03 0.05,0.04 0.02,0.01 0.05,0.02 0.09,0.02 0.06,0 0.11,-0.01 0.14,-0.04 0.03,-0.02 0.05,-0.05 0.07,-0.09 0.01,-0.03 0.02,-0.08 0.04,-0.17l0.01 -0.05c-0.1,0.08 -0.2,0.12 -0.3,0.12 -0.1,0 -0.18,-0.04 -0.25,-0.11 -0.07,-0.07 -0.1,-0.18 -0.1,-0.31 0,-0.12 0.02,-0.23 0.07,-0.33 0.04,-0.1 0.11,-0.18 0.19,-0.23 0.08,-0.05 0.16,-0.08 0.24,-0.08 0.07,0 0.13,0.02 0.19,0.06 0.06,0.04 0.1,0.09 0.13,0.15l0.04 -0.18 0.26 0 -0.18 0.86c-0.03,0.14 -0.05,0.24 -0.07,0.3 -0.02,0.06 -0.04,0.11 -0.07,0.14 -0.03,0.03 -0.06,0.06 -0.1,0.09 -0.04,0.02 -0.09,0.04 -0.14,0.05 -0.05,0.01 -0.11,0.02 -0.17,0.02 -0.15,0 -0.26,-0.03 -0.33,-0.08 -0.07,-0.05 -0.11,-0.13 -0.11,-0.25 0,-0.01 0,-0.03 0,-0.04zm0.33 -0.5c0,0.08 0.02,0.14 0.05,0.18 0.04,0.04 0.08,0.06 0.13,0.06 0.05,0 0.1,-0.02 0.14,-0.06 0.05,-0.04 0.08,-0.09 0.1,-0.16 0.02,-0.07 0.04,-0.13 0.04,-0.2 0,-0.07 -0.02,-0.13 -0.06,-0.18 -0.04,-0.04 -0.09,-0.07 -0.14,-0.07 -0.05,0 -0.1,0.02 -0.14,0.06 -0.04,0.04 -0.08,0.1 -0.1,0.18 -0.02,0.06 -0.03,0.12 -0.03,0.17z"/>
  <path class="fil0" d="M3.26 11.63l-0.28 0 0.3 -1.43 0.28 0 -0.11 0.51c0.06,-0.05 0.12,-0.09 0.18,-0.11 0.05,-0.02 0.11,-0.03 0.17,-0.03 0.08,0 0.15,0.02 0.2,0.07 0.05,0.05 0.07,0.11 0.07,0.19 0,0.04 -0.01,0.11 -0.03,0.19l-0.13 0.6 -0.28 0 0.13 -0.62c0.01,-0.07 0.02,-0.11 0.02,-0.13 0,-0.03 -0.01,-0.06 -0.03,-0.08 -0.02,-0.02 -0.05,-0.03 -0.09,-0.03 -0.05,0 -0.09,0.02 -0.13,0.05 -0.06,0.04 -0.1,0.1 -0.13,0.16 -0.02,0.03 -0.04,0.12 -0.06,0.24l-0.09 0.41z"/>
  <path class="fil0" d="M4.26 10.81l0.04 -0.21 0.14 0 0.03 -0.17 0.32 -0.19 -0.08 0.36 0.17 0 -0.04 0.21 -0.17 0 -0.09 0.43c-0.02,0.08 -0.02,0.12 -0.02,0.13 0,0.02 0.01,0.04 0.02,0.05 0.01,0.01 0.04,0.02 0.07,0.02 0.01,0 0.04,-0 0.09,-0.01l-0.04 0.21c-0.05,0.01 -0.1,0.01 -0.15,0.01 -0.1,0 -0.17,-0.02 -0.22,-0.06 -0.04,-0.04 -0.07,-0.09 -0.07,-0.16 0,-0.03 0.01,-0.11 0.04,-0.22l0.09 -0.41 -0.14 0z"/>
  <path class="fil0" d="M6.27 11.32l-0.56 0 -0.17 0.31 -0.3 0 0.81 -1.42 0.33 0 0.23 1.42 -0.28 0 -0.05 -0.31zm-0.04 -0.24l-0.08 -0.57 -0.34 0.57 0.43 0z"/>
  <polygon class="fil0" points="7.07,10.21 6.77,11.63 7.05,11.63 7.35,10.21 "/>
  <polygon class="fil0" points="7.62,10.21 7.32,11.63 7.6,11.63 7.9,10.21 "/>
  <path class="fil0" d="M7.92 11.2c0,-0.19 0.05,-0.34 0.16,-0.46 0.11,-0.11 0.25,-0.17 0.43,-0.17 0.15,0 0.27,0.04 0.36,0.13 0.09,0.08 0.13,0.2 0.13,0.34 0,0.17 -0.05,0.31 -0.16,0.43 -0.11,0.12 -0.25,0.18 -0.43,0.18 -0.1,0 -0.18,-0.02 -0.26,-0.06 -0.08,-0.04 -0.13,-0.09 -0.17,-0.17 -0.04,-0.07 -0.06,-0.15 -0.06,-0.23zm0.8 -0.2c0,-0.07 -0.02,-0.12 -0.06,-0.16 -0.04,-0.04 -0.09,-0.06 -0.15,-0.06 -0.06,0 -0.11,0.02 -0.16,0.06 -0.05,0.04 -0.08,0.09 -0.11,0.16 -0.03,0.07 -0.04,0.14 -0.04,0.2 0,0.07 0.02,0.13 0.06,0.18 0.04,0.04 0.09,0.06 0.15,0.06 0.08,0 0.14,-0.03 0.19,-0.1 0.07,-0.09 0.11,-0.21 0.11,-0.34z"/>
  <path class="fil0" d="M9.18 10.6l0.28 0 0.07 0.51c0.02,0.13 0.03,0.22 0.03,0.28 0.04,-0.11 0.09,-0.22 0.15,-0.33l0.25 -0.46 0.3 0 -0.64 1.13c-0.05,0.09 -0.09,0.16 -0.12,0.2 -0.03,0.04 -0.07,0.07 -0.11,0.09 -0.04,0.02 -0.09,0.03 -0.15,0.03 -0.06,0 -0.13,-0.01 -0.2,-0.03l0.02 -0.21c0.03,0.01 0.07,0.01 0.1,0.01 0.09,0 0.16,-0.06 0.21,-0.19l-0.18 -1.03z"/>
  <polygon class="fil0" points="12.11,11.63 11.82,11.63 11.78,10.59 11.26,11.63 10.96,11.63 10.91,10.21 11.2,10.21 11.21,11.2 11.7,10.21 12.02,10.21 12.05,11.19 12.52,10.21 12.8,10.21 "/>
  <path class="fil0" d="M12.92 11.63l-0.28 0 0.3 -1.43 0.28 0 -0.11 0.51c0.06,-0.05 0.12,-0.09 0.18,-0.11 0.05,-0.02 0.11,-0.03 0.18,-0.03 0.08,0 0.15,0.02 0.2,0.07 0.05,0.05 0.07,0.11 0.07,0.19 0,0.04 -0.01,0.11 -0.03,0.19l-0.13 0.6 -0.28 0 0.13 -0.62c0.01,-0.07 0.02,-0.11 0.02,-0.13 0,-0.03 -0.01,-0.06 -0.03,-0.08 -0.02,-0.02 -0.05,-0.03 -0.09,-0.03 -0.05,0 -0.09,0.02 -0.13,0.05 -0.06,0.04 -0.1,0.1 -0.13,0.16 -0.02,0.03 -0.04,0.12 -0.06,0.24l-0.09 0.41z"/>
  <path class="fil0" d="M14.86 11.2l-0.7 0c-0,0.01 -0,0.02 -0,0.03 0,0.07 0.02,0.12 0.06,0.17 0.04,0.04 0.09,0.06 0.14,0.06 0.09,0 0.16,-0.05 0.22,-0.14l0.25 0.04c-0.05,0.1 -0.11,0.18 -0.19,0.23 -0.08,0.05 -0.17,0.08 -0.27,0.08 -0.14,0 -0.25,-0.04 -0.34,-0.13 -0.09,-0.09 -0.13,-0.2 -0.13,-0.35 0,-0.14 0.04,-0.27 0.12,-0.38 0.11,-0.15 0.26,-0.22 0.46,-0.22 0.13,0 0.23,0.04 0.3,0.12 0.07,0.08 0.11,0.19 0.11,0.33 0,0.07 -0.01,0.13 -0.02,0.18zm-0.24 -0.17c0,-0.01 0,-0.02 0,-0.03 0,-0.08 -0.02,-0.13 -0.05,-0.17 -0.03,-0.04 -0.08,-0.06 -0.14,-0.06 -0.06,0 -0.11,0.02 -0.15,0.07 -0.05,0.04 -0.08,0.11 -0.09,0.19l0.44 0z"/>
  <path class="fil0" d="M15.96 11.2l-0.7 0c-0,0.01 -0,0.02 -0,0.03 0,0.07 0.02,0.12 0.06,0.17 0.04,0.04 0.09,0.06 0.14,0.06 0.09,0 0.16,-0.05 0.22,-0.14l0.25 0.04c-0.05,0.1 -0.11,0.18 -0.19,0.23 -0.08,0.05 -0.17,0.08 -0.27,0.08 -0.14,0 -0.25,-0.04 -0.34,-0.13 -0.09,-0.09 -0.13,-0.2 -0.13,-0.35 0,-0.14 0.04,-0.27 0.12,-0.38 0.11,-0.15 0.26,-0.22 0.46,-0.22 0.13,0 0.23,0.04 0.3,0.12 0.07,0.08 0.11,0.19 0.11,0.33 0,0.07 -0.01,0.13 -0.02,0.18zm-0.24 -0.17c0,-0.01 0,-0.02 0,-0.03 0,-0.08 -0.02,-0.13 -0.05,-0.17 -0.03,-0.04 -0.08,-0.06 -0.14,-0.06 -0.06,0 -0.11,0.02 -0.15,0.07 -0.05,0.04 -0.08,0.11 -0.09,0.19l0.44 0z"/>
  <polygon class="fil0" points="16.36,10.21 16.06,11.63 16.34,11.63 16.64,10.21 "/>
  <path class="fil0" d="M16.58 11.34l0.27 -0.04c0.02,0.06 0.05,0.1 0.09,0.12 0.04,0.02 0.08,0.04 0.15,0.04 0.06,0 0.11,-0.01 0.15,-0.04 0.03,-0.02 0.04,-0.04 0.04,-0.07 0,-0.02 -0.01,-0.04 -0.02,-0.05 -0.01,-0.01 -0.05,-0.03 -0.12,-0.05 -0.17,-0.06 -0.27,-0.1 -0.31,-0.13 -0.06,-0.05 -0.09,-0.12 -0.09,-0.2 0,-0.08 0.03,-0.15 0.09,-0.21 0.09,-0.08 0.21,-0.12 0.38,-0.12 0.13,0 0.23,0.02 0.3,0.07 0.07,0.05 0.11,0.11 0.13,0.2l-0.26 0.05c-0.01,-0.04 -0.04,-0.07 -0.07,-0.09 -0.04,-0.03 -0.09,-0.04 -0.15,-0.04 -0.06,0 -0.1,0.01 -0.13,0.03 -0.03,0.02 -0.04,0.04 -0.04,0.07 0,0.03 0.01,0.05 0.04,0.06 0.02,0.01 0.07,0.03 0.16,0.05 0.14,0.04 0.23,0.08 0.27,0.12 0.06,0.05 0.1,0.12 0.1,0.19 0,0.1 -0.04,0.18 -0.12,0.25 -0.08,0.07 -0.2,0.11 -0.35,0.11 -0.15,0 -0.26,-0.03 -0.35,-0.08 -0.08,-0.05 -0.14,-0.13 -0.17,-0.23z"/>
 </g>
</svg>
