<?xml version="1.0" encoding="UTF-8"?>
<!DOCTYPE svg PUBLIC "-//W3C//DTD SVG 1.1//EN" "http://www.w3.org/Graphics/SVG/1.1/DTD/svg11.dtd">
<!-- Creator: CorelDRAW -->
<svg xmlns="http://www.w3.org/2000/svg" xml:space="preserve" width="13.3048mm" height="3.0065mm" version="1.1" style="shape-rendering:geometricPrecision; text-rendering:geometricPrecision; image-rendering:optimizeQuality; fill-rule:evenodd; clip-rule:evenodd"
viewBox="0 0 47.02 10.62"
 xmlns:xlink="http://www.w3.org/1999/xlink"
 xmlns:xodm="http://www.corel.com/coreldraw/odm/2003">
 <defs>
  <style type="text/css">
   <![CDATA[
    .fil1 {fill:#D0282D;fill-rule:nonzero}
    .fil0 {fill:#262425;fill-rule:nonzero}
   ]]>
  </style>
 </defs>
 <g id="Layer_x0020_1">
  <metadata id="CorelCorpID_0Corel-Layer"/>
  <path class="fil0" d="M2.79 8.42l1 0 0 2.17 0.35 0 0 -2.17 1 0 0 -0.28 -2.35 0 0 0.28zm3.66 0.35c-0.32,0 -0.58,0.12 -0.75,0.39l0 -1.02 -0.33 0 0 2.45 0.33 0 0 -0.81c0,-0.56 0.35,-0.77 0.7,-0.77 0.32,0 0.54,0.18 0.54,0.61l0 0.98 0.33 0 0 -1c0,-0.58 -0.33,-0.84 -0.82,-0.84zm1.65 0.75c0.05,-0.39 0.3,-0.56 0.65,-0.56 0.3,0 0.6,0.16 0.61,0.56l-1.26 0zm0.65 -0.79c-0.63,0 -1.02,0.33 -1.02,0.98 0,0.56 0.37,0.91 1,0.91 0.44,0 0.86,-0.16 0.93,-0.6l-0.37 0c-0.07,0.25 -0.28,0.35 -0.58,0.35 -0.4,0 -0.61,-0.26 -0.65,-0.61l1.63 0 0 -0.11c0.02,-0.6 -0.32,-0.93 -0.95,-0.93zm13.41 0.39l-0.02 -0.35 -0.33 0c0.02,0.14 0.02,0.26 0.02,0.4l0 1.35 0.33 0 0 -0.84c0,-0.44 0.19,-0.65 0.61,-0.65 0.07,0 0.14,0 0.26,0.03l0 -0.32c-0.05,0 -0.09,-0.02 -0.21,-0.02 -0.32,0 -0.53,0.18 -0.67,0.39zm10.33 0l-0.02 -0.35 -0.33 0c0.02,0.14 0.02,0.26 0.02,0.4l0 1.35 0.35 0 0 -0.84c0,-0.44 0.19,-0.65 0.61,-0.65 0.07,0 0.14,0 0.26,0.03l0 -0.32c-0.05,0 -0.09,-0.02 -0.21,-0.02 -0.33,0 -0.56,0.18 -0.68,0.39zm-14.22 1.12l-0.61 -1.51 -0.44 0 -0.6 1.51 -0.56 -1.51 -0.39 0 0.7 1.75 0.46 0 0.58 -1.49 0.61 1.49 0.44 0 0.68 -1.75 -0.35 0 -0.53 1.51zm-6.08 -0.86l-0.72 0 0 -0.98 0.7 0c0.47,0 0.63,0.18 0.63,0.46 0,0.35 -0.16,0.53 -0.61,0.53zm-0.02 -1.24l-1.05 0 0 2.45 0.35 0 0 -0.93 0.75 0c0.65,0 0.97,-0.33 0.97,-0.79 0,-0.42 -0.26,-0.74 -1.02,-0.74zm2.21 2.24c-0.47,0 -0.72,-0.32 -0.72,-0.7 0,-0.42 0.24,-0.7 0.72,-0.7 0.49,0 0.74,0.3 0.74,0.7 0,0.39 -0.25,0.7 -0.74,0.7zm0 -1.65c-0.7,0 -1.09,0.39 -1.09,0.95 0,0.6 0.39,0.95 1.09,0.95 0.72,0 1.09,-0.33 1.09,-0.95 0.02,-0.6 -0.35,-0.95 -1.09,-0.95zm5.43 0.79c0.05,-0.39 0.3,-0.56 0.65,-0.56 0.3,0 0.6,0.16 0.6,0.56l-1.25 0zm0.65 -0.79c-0.63,0 -1.02,0.33 -1.02,0.98 0,0.56 0.37,0.91 1,0.91 0.44,0 0.86,-0.16 0.93,-0.6l-0.35 0c-0.07,0.25 -0.28,0.35 -0.58,0.35 -0.4,0 -0.61,-0.26 -0.65,-0.61l1.63 0 0 -0.11c0,-0.6 -0.35,-0.93 -0.97,-0.93zm13.62 0.79c0.05,-0.39 0.3,-0.56 0.65,-0.56 0.3,0 0.6,0.16 0.6,0.56l-1.24 0zm0.67 -0.79c-0.63,0 -1.02,0.33 -1.02,0.98 0,0.56 0.37,0.91 1,0.91 0.44,0 0.86,-0.16 0.93,-0.6l-0.35 0c-0.07,0.25 -0.28,0.35 -0.58,0.35 -0.4,0 -0.61,-0.26 -0.65,-0.61l1.63 0 0 -0.11c-0.02,-0.6 -0.35,-0.93 -0.96,-0.93zm-7.92 -0.12l0 0.07 -0.44 0 0 0.25 0.44 0 0 1.52 0.35 0 0 -1.52 0.7 0 0 -0.25 -0.7 0 0 -0.14c0,-0.28 0.12,-0.37 0.39,-0.37 0.09,0 0.21,0.02 0.37,0.05l0 -0.25c-0.12,-0.02 -0.26,-0.03 -0.44,-0.03 -0.51,-0.02 -0.67,0.26 -0.67,0.67zm-1.72 1.77c-0.47,0 -0.74,-0.32 -0.74,-0.7 0,-0.42 0.26,-0.7 0.74,-0.7 0.49,0 0.74,0.3 0.74,0.7 0,0.39 -0.26,0.7 -0.74,0.7zm0 -1.65c-0.7,0 -1.09,0.39 -1.09,0.95 0,0.6 0.39,0.95 1.09,0.95 0.7,0 1.09,-0.33 1.09,-0.95 0,-0.6 -0.37,-0.95 -1.09,-0.95zm15.69 0c-0.37,0 -0.6,0.25 -0.68,0.44 -0.1,-0.3 -0.37,-0.44 -0.63,-0.44 -0.25,0 -0.49,0.12 -0.65,0.39l-0.02 -0.32 -0.32 0c0.02,0.14 0.02,0.26 0.02,0.4l0 1.35 0.35 0 0 -0.84c0,-0.53 0.3,-0.74 0.56,-0.74 0.28,0 0.42,0.19 0.42,0.68l0 0.9 0.33 0 0 -0.84c0,-0.61 0.39,-0.74 0.56,-0.74 0.35,0 0.44,0.23 0.44,0.7l0 0.88 0.35 0 0 -1.02c-0.02,-0.58 -0.32,-0.81 -0.74,-0.81zm2.45 0.86l-0.58 -0.12c-0.26,-0.05 -0.37,-0.11 -0.37,-0.25 0,-0.18 0.21,-0.26 0.51,-0.26 0.24,0 0.47,0.07 0.49,0.28l0.35 0c0,-0.42 -0.46,-0.53 -0.84,-0.53 -0.46,0 -0.86,0.16 -0.86,0.54 0,0.28 0.21,0.39 0.47,0.46l0.54 0.12c0.19,0.03 0.39,0.09 0.39,0.25 0,0.19 -0.19,0.3 -0.58,0.3 -0.32,0 -0.52,-0.09 -0.56,-0.33l-0.37 0c0.03,0.4 0.4,0.56 0.89,0.56 0.67,0 0.97,-0.19 0.97,-0.56 0.02,-0.26 -0.14,-0.39 -0.46,-0.46zm-12.88 0.74l-0.65 0 0 -1.93 0.6 0c0.88,0 1.09,0.33 1.09,0.96 0,0.51 -0.19,0.97 -1.03,0.97zm0.03 -2.19l-1.03 0 0 2.45 1.05 0c0.86,0 1.35,-0.44 1.35,-1.23 0,-0.79 -0.42,-1.23 -1.37,-1.23zm7.2 1.63c0,0.42 -0.25,0.61 -0.67,0.61 -0.33,0 -0.47,-0.14 -0.47,-0.33 0,-0.39 0.68,-0.35 0.95,-0.35l0.18 0 0 0.07 0.02 0zm0.33 -0.42c0,-0.42 -0.35,-0.61 -0.84,-0.61 -0.39,0 -0.82,0.11 -0.86,0.53l0.37 0c0.02,-0.18 0.19,-0.3 0.51,-0.3 0.3,0 0.51,0.1 0.51,0.42l0 0.07 -0.19 0c-0.4,0 -1.3,-0.03 -1.3,0.58 0,0.35 0.3,0.58 0.74,0.58 0.35,0 0.56,-0.03 0.75,-0.3l0.02 0.25 0.32 0c-0.02,-0.11 -0.02,-0.21 -0.02,-0.33l0 -0.88z"/>
  <path class="fil1" d="M5.42 0.91l0.72 0.09c0.32,0.03 0.35,0.3 0.35,0.47l0 0.84 -3.28 0 0 -0.84c0,-0.18 0.03,-0.44 0.35,-0.47l0.72 -0.09 0 -0.72 -4.28 0 0 0.72 0.72 0.09c0.32,0.03 0.35,0.3 0.35,0.47l0 2.77c0,0.17 -0.04,0.44 -0.35,0.47l-0.72 0.11 0 0.72 4.26 0 0 -0.72 -0.72 -0.09c-0.32,-0.04 -0.35,-0.3 -0.35,-0.47l0 -0.84 3.28 0 0 0.84c0,0.17 -0.03,0.44 -0.35,0.47l-0.72 0.09 0 0.72 4.26 0 0 -0.72 -0.72 -0.09c-0.32,-0.04 -0.35,-0.3 -0.35,-0.47l0 -2.79c0,-0.18 0.03,-0.44 0.35,-0.47l0.72 -0.09 0 -0.72 -4.26 0 0 0.72 0.02 0zm28.1 3.61l-1.79 0 0 -3.3 1.79 0c1.05,0 1.4,0.51 1.4,1.65 0,1.14 -0.35,1.65 -1.4,1.65zm0.39 -4.33l-5.26 0 0 0.72 0.63 0.07c0.23,0.03 0.37,0.12 0.37,0.44l0 2.84c0,0.17 -0.03,0.44 -0.35,0.47l-0.72 0.09 0 0.72 5.33 0c1.91,0 3.47,-0.77 3.47,-2.68 0,-1.89 -1.58,-2.67 -3.47,-2.67z"/>
  <path class="fil1" d="M40.3 2.96l1.02 -1.65 1.07 1.65 -2.09 0zm5.98 1.79c-0.33,-0.03 -0.44,-0.26 -0.54,-0.42l-2.45 -3.77c-0.18,-0.26 -0.3,-0.35 -0.56,-0.35l-4.03 0 0 0.72 0.96 0.1c0.14,0.02 0.32,0.19 0.17,0.46l-1.81 2.96c-0.07,0.12 -0.16,0.26 -0.37,0.28l-0.72 0.09 0 0.72 3.4 0 0 -0.72 -0.58 -0.05c-0.25,-0.03 -0.39,-0.21 -0.26,-0.4l0.28 -0.44 3.26 0 0.25 0.37c0.21,0.33 -0.05,0.45 -0.28,0.49l-0.6 0.07 0 0.72 4.61 0 0 -0.75 -0.74 -0.07zm-21.49 -3.84l0.72 0.09c0.32,0.03 0.35,0.3 0.35,0.47l0 2.68 -2.82 -3.73c-0.12,-0.18 -0.23,-0.23 -0.54,-0.23l-3.65 0 0 0.72 0.72 0.09c0.32,0.03 0.35,0.3 0.35,0.47l0 2.77c0,0.17 -0.03,0.44 -0.35,0.47l-0.72 0.09 0 0.72 3.4 0 0 -0.7 -0.72 -0.09c-0.32,-0.03 -0.35,-0.3 -0.35,-0.47l0 -2.68 2.82 3.73c0.12,0.18 0.25,0.23 0.54,0.23l2.58 0 0 -4.07c0,-0.18 0.03,-0.44 0.35,-0.47l0.72 -0.09 0 -0.72 -3.4 0 0 0.72zm-10.52 3.79c-1.35,0 -1.89,-0.56 -1.89,-1.84 0,-1.28 0.56,-1.84 1.89,-1.84 1.35,0 1.89,0.56 1.89,1.84 0.02,1.26 -0.54,1.84 -1.89,1.84zm0 -4.7c-3.45,0 -4.35,1.53 -4.35,2.86 0,1.33 0.89,2.86 4.35,2.86 3.45,0 4.35,-1.53 4.35,-2.86 0.02,-1.33 -0.88,-2.86 -4.35,-2.86z"/>
 </g>
</svg>
