<?xml version="1.0" encoding="UTF-8"?>
<!DOCTYPE svg PUBLIC "-//W3C//DTD SVG 1.1//EN" "http://www.w3.org/Graphics/SVG/1.1/DTD/svg11.dtd">
<!-- Creator: CorelDRAW -->
<svg xmlns="http://www.w3.org/2000/svg" xml:space="preserve" width="13.2038mm" height="9.2775mm" version="1.1" style="shape-rendering:geometricPrecision; text-rendering:geometricPrecision; image-rendering:optimizeQuality; fill-rule:evenodd; clip-rule:evenodd"
viewBox="0 0 75.08 52.76"
 xmlns:xlink="http://www.w3.org/1999/xlink"
 xmlns:xodm="http://www.corel.com/coreldraw/odm/2003">
 <defs>
  <style type="text/css">
   <![CDATA[
    .fil0 {fill:#7E7C7E;fill-rule:nonzero}
    .fil1 {fill:#57A2AE;fill-rule:nonzero}
   ]]>
  </style>
 </defs>
 <g id="Layer_x0020_1">
  <metadata id="CorelCorpID_0Corel-Layer"/>
  <path class="fil0" d="M54.03 21.94l5.77 0.62c0.43,5.55 -2.8,10.05 -8.01,10.05l-4.01 0c0.15,6.21 -0.57,9.42 -5.9,11.27 -6.16,-9.81 -7.34,-20.71 7.26,-21.94 -14.6,-1.24 -13.42,-12.14 -7.26,-21.94 5.33,1.85 6.05,5.06 5.9,11.27l4.01 0c5.21,0 8.44,4.5 8.01,10.05l-5.77 0.62z"/>
  <path class="fil1" d="M21.05 21.94l-5.77 0.62c-0.43,5.55 2.8,10.05 8.01,10.05l4.01 0c-0.15,6.21 0.57,9.42 5.9,11.27 6.16,-9.81 7.34,-20.71 -7.26,-21.94 14.6,-1.24 13.42,-12.14 7.26,-21.94 -5.33,1.85 -6.05,5.06 -5.9,11.27l-4.01 0c-5.21,0 -8.44,4.5 -8.01,10.05l5.77 0.62z"/>
  <path class="fil1" d="M43.56 47.72c0.45,0 0.82,0.15 1.12,0.44 0.3,0.29 0.45,0.65 0.45,1.09 0,0.43 -0.15,0.8 -0.45,1.09 -0.3,0.29 -0.67,0.44 -1.12,0.44l-1.51 0 0 1.52 -0.91 0 0 -4.58 2.42 0zm-0.02 2.19c0.19,0 0.34,-0.06 0.46,-0.19 0.12,-0.13 0.19,-0.28 0.19,-0.48 0,-0.19 -0.06,-0.35 -0.19,-0.47 -0.12,-0.13 -0.28,-0.19 -0.46,-0.19l-1.49 0 0 1.33 1.49 0zm6.54 -2.19l0.91 0 0 4.58 -0.91 0 0 -1.87 -2.27 0 0 1.87 -0.91 0 0 -4.58 0.91 0 0 1.84 2.27 0 0 -1.84zm18.27 0l0.91 0 0 4.58 -0.91 0 0 -3.02 -1.6 2.33 -1.62 -2.33 0 3.02 -0.91 0 0 -4.58 0.91 0 1.62 2.38 1.6 -2.38zm-13.52 1.01l-1.18 3.57 -0.89 0 1.59 -4.58 0.97 0 1.58 4.58 -0.9 0 -1.18 -3.57zm18.18 0l-1.18 3.57 -0.89 0 1.59 -4.58 0.97 0 1.58 4.58 -0.9 0 -1.18 -3.57zm-10.81 2.7l0.18 0 0 0.86 -0.28 0c-0.67,0 -1.15,-0.26 -1.45,-0.8l-0.54 -0.83 -0.43 0 0 1.63 -0.91 0 0 -4.58 2 0c0.44,0 0.81,0.14 1.11,0.43 0.3,0.28 0.45,0.64 0.45,1.07 0,0.34 -0.1,0.64 -0.31,0.9 -0.21,0.25 -0.48,0.42 -0.82,0.5l0.35 0.47c0.16,0.23 0.39,0.34 0.68,0.34zm-2.52 -2.85l0 1.29 1.06 0c0.18,0 0.33,-0.06 0.45,-0.18 0.12,-0.12 0.18,-0.28 0.18,-0.46 0,-0.18 -0.06,-0.33 -0.18,-0.46 -0.12,-0.12 -0.27,-0.18 -0.45,-0.18l-1.06 0z"/>
  <path class="fil0" d="M35.01 48.73l-1.17 3.55 -0.88 0 1.58 -4.55 0.97 0 1.57 4.55 -0.9 0 -1.17 -3.55zm-16 -0.44l-1.62 1.62c-0.05,0.05 -0.05,0.14 0,0.19l1.62 1.62c0.05,0.05 0.14,0.05 0.19,0l1.62 -1.62c0.05,-0.05 0.05,-0.14 0,-0.19l-1.62 -1.62c-0.05,-0.05 -0.14,-0.05 -0.19,0zm-2.47 1.24l2.09 -2.09c0.26,-0.26 0.68,-0.26 0.95,0l2.09 2.09c0.26,0.26 0.26,0.69 0,0.95l-2.09 2.09c-0.26,0.26 -0.69,0.26 -0.95,0l-2.09 -2.09c-0.26,-0.26 -0.26,-0.68 0,-0.95zm-9.02 -0.8l-1.17 3.55 -0.88 0 1.58 -4.55 0.97 0 1.58 4.55 -0.9 0 -1.17 -3.55zm22.25 -1l0.91 0 0 4.55 -0.91 0 0 -4.55zm-15.26 0l0 0.86 -1.24 0 0 3.69 -0.91 0 0 -3.69 -1.24 0 0 -0.86 3.39 0zm-10.93 0.2c0,0.18 -0.07,0.33 -0.21,0.45 -0.13,0.11 -0.28,0.16 -0.45,0.16l-1.36 0c-0.08,0 -0.16,0.01 -0.24,0.04 -0.07,0.03 -0.14,0.07 -0.2,0.12 -0.05,0.05 -0.1,0.1 -0.13,0.17 -0.03,0.06 -0.04,0.13 -0.04,0.2 0,0.07 0.02,0.13 0.05,0.19 0.04,0.07 0.09,0.13 0.15,0.18 0.07,0.06 0.15,0.1 0.23,0.13 0.09,0.03 0.19,0.05 0.29,0.05l0.41 0c0.22,0 0.44,0.03 0.65,0.1 0.19,0.07 0.37,0.16 0.53,0.29 0.15,0.12 0.28,0.28 0.37,0.46 0.09,0.18 0.14,0.37 0.14,0.58 0,0.2 -0.04,0.39 -0.13,0.57 -0.08,0.17 -0.2,0.32 -0.35,0.45 -0.15,0.13 -0.32,0.22 -0.5,0.29 -0.19,0.07 -0.4,0.1 -0.6,0.1l-2.02 0 0 -0.27c0,-0.17 0.07,-0.32 0.2,-0.44 0.13,-0.11 0.29,-0.16 0.46,-0.16l1.36 0c0.08,0 0.17,-0.02 0.25,-0.05 0.07,-0.03 0.14,-0.07 0.2,-0.12 0.05,-0.05 0.1,-0.11 0.13,-0.18 0.03,-0.06 0.05,-0.13 0.05,-0.2 0,-0.07 -0.02,-0.13 -0.05,-0.19 -0.04,-0.07 -0.08,-0.13 -0.14,-0.18 -0.07,-0.06 -0.15,-0.1 -0.23,-0.13 -0.09,-0.04 -0.2,-0.05 -0.3,-0.05l-0.41 0c-0.21,0 -0.43,-0.03 -0.63,-0.1 -0.19,-0.07 -0.37,-0.16 -0.53,-0.29 -0.16,-0.12 -0.28,-0.27 -0.38,-0.45 -0.1,-0.18 -0.15,-0.38 -0.15,-0.58 0,-0.2 0.04,-0.39 0.13,-0.57 0.08,-0.17 0.2,-0.32 0.34,-0.45 0.15,-0.12 0.32,-0.22 0.5,-0.29 0.19,-0.07 0.4,-0.1 0.6,-0.1l2.02 0 0 0.27zm21 0.66l0 1.28 1.06 0c0.18,0 0.32,-0.06 0.45,-0.18 0.12,-0.12 0.18,-0.28 0.18,-0.46 0,-0.18 -0.06,-0.33 -0.18,-0.46 -0.12,-0.12 -0.27,-0.18 -0.45,-0.18l-1.06 0zm2.51 2.84l0.19 0 0 0.86 -0.28 0c-0.66,0 -1.15,-0.26 -1.44,-0.79l-0.53 -0.83 -0.43 0 0 1.62 -0.91 0 0 -4.55 1.99 0c0.44,0 0.81,0.14 1.1,0.43 0.29,0.28 0.44,0.64 0.44,1.07 0,0.34 -0.1,0.64 -0.31,0.89 -0.21,0.25 -0.48,0.42 -0.82,0.5l0.34 0.47c0.16,0.23 0.39,0.34 0.67,0.34z"/>
 </g>
</svg>
