<?xml version="1.0" encoding="UTF-8"?>
<!DOCTYPE svg PUBLIC "-//W3C//DTD SVG 1.1//EN" "http://www.w3.org/Graphics/SVG/1.1/DTD/svg11.dtd">
<!-- Creator: CorelDRAW -->
<svg xmlns="http://www.w3.org/2000/svg" xml:space="preserve" width="11.2734mm" height="9.2772mm" version="1.1" style="shape-rendering:geometricPrecision; text-rendering:geometricPrecision; image-rendering:optimizeQuality; fill-rule:evenodd; clip-rule:evenodd"
viewBox="0 0 33.94 27.93"
 xmlns:xlink="http://www.w3.org/1999/xlink"
 xmlns:xodm="http://www.corel.com/coreldraw/odm/2003">
 <defs>
  <style type="text/css">
   <![CDATA[
    .fil0 {fill:#E6232A;fill-rule:nonzero}
   ]]>
  </style>
 </defs>
 <g id="Layer_x0020_1">
  <metadata id="CorelCorpID_0Corel-Layer"/>
  <path class="fil0" d="M8.67 0c3.54,0 6.58,1.43 7.96,2.48 0.24,0.19 0.38,0.16 0.57,0.04 0.92,-0.61 3.68,-2.5 7.49,-2.5 4.6,0 9.25,2.32 9.25,7.38 0,3.1 -2.11,6.33 -5.74,8.54 -0.92,0.56 -1.99,1.04 -3.14,1.45 -0.66,0.24 -0.95,-0.03 -0.26,-0.54 1.7,-1.26 6.05,-4.58 6.05,-8.74 0,-2.82 -2.62,-5.64 -7.13,-5.64 -3.45,0 -5.99,1.93 -6.47,2.26 -0.25,0.17 -0.41,0.14 -0.61,-0.04 -1.25,-1.11 -3.79,-2.3 -6.73,-2.3 -3.59,0 -6.83,1.97 -6.83,5.48 0,6.4 11.11,9.03 13.81,9.03 0.67,0 6.62,-2.07 6.62,-7.07 0,-1.77 -1.1,-2.93 -2.55,-2.93 -1.89,0 -2.98,1.59 -3.72,2.48 -0.17,0.2 -0.43,0.29 -0.59,-0 -0.65,-1.19 -1.94,-2.51 -3.68,-2.51 -1.55,0 -2.48,1.13 -2.48,2.36 0,2.91 4.06,4.72 5.95,5.38 0.37,0.12 0.36,0.52 -0.15,0.47 -2.69,-0.26 -9.39,-2.29 -9.39,-6.63 0,-1.79 1.55,-3.79 4.63,-3.79 2.07,0 4.04,1.14 5.2,2.53 0.11,0.14 0.3,0.12 0.4,0.01 0.1,-0.1 2.51,-2.46 5.4,-2.46 2.06,0 4.29,1.41 4.29,4.37 0,3.06 -2.68,6.13 -4.94,7.54 -2.32,1.44 -4.53,2.09 -5.08,2.04 -8.92,-0.73 -16.79,-5.88 -16.79,-11.96 0,-2.99 2.28,-6.72 8.67,-6.72z"/>
  <path class="fil0" d="M30.58 27.77c-0.88,0 -1.48,-0.37 -1.99,-1.1l0.96 -0.94c0.25,0.33 0.58,0.64 1.01,0.64 0.3,0 0.58,-0.23 0.58,-0.55 0,-0.34 -0.22,-0.51 -0.5,-0.61l-0.61 -0.21c-0.82,-0.28 -1.38,-0.88 -1.38,-1.8 0,-1.1 0.8,-2.02 1.89,-2.02 0.87,0 1.43,0.43 1.93,1.12l-0.97 0.97c-0.22,-0.33 -0.53,-0.68 -0.95,-0.68 -0.32,0 -0.56,0.24 -0.56,0.56 0,0.34 0.28,0.48 0.55,0.58l0.64 0.23c0.8,0.28 1.29,0.92 1.29,1.78l0 0.03c0,1.08 -0.82,2 -1.89,2zm-4 -3.94l-0.85 -0.45 1.01 -2.54 1.17 0.62 -1.33 2.38zm-4.63 3.86l0 -6.41 1.36 0 0 5.07 2.06 0 0 1.34 -3.42 0zm-4.87 0l0 -6.41 1.36 0 0 5.07 2.07 0 0 1.34 -3.42 0zm-1.28 -0.38l-3.11 -6.28 -3.14 6.28 1.21 0.61 0.54 -1.23 2.75 0 0.54 1.21 1.21 -0.59zm-2.34 -1.86l-1.59 0 0.8 -1.77 0.79 1.77zm-6.44 2.49l-1.47 -3.59 -1.47 3.59 -2.61 -6.32 1.24 -0.6 1.44 3.82 1.41 -3.84 1.47 3.84 1.44 -3.82 1.16 0.59 -2.61 6.33z"/>
 </g>
</svg>
