<?xml version="1.0" encoding="UTF-8"?>
<!DOCTYPE svg PUBLIC "-//W3C//DTD SVG 1.1//EN" "http://www.w3.org/Graphics/SVG/1.1/DTD/svg11.dtd">
<!-- Creator: CorelDRAW -->
<svg xmlns="http://www.w3.org/2000/svg" xml:space="preserve" width="13.1288mm" height="2.0912mm" version="1.1" style="shape-rendering:geometricPrecision; text-rendering:geometricPrecision; image-rendering:optimizeQuality; fill-rule:evenodd; clip-rule:evenodd"
viewBox="0 0 24.74 3.94"
 xmlns:xlink="http://www.w3.org/1999/xlink"
 xmlns:xodm="http://www.corel.com/coreldraw/odm/2003">
 <defs>
  <style type="text/css">
   <![CDATA[
    .fil0 {fill:#21437E;fill-rule:nonzero}
   ]]>
  </style>
 </defs>
 <g id="Layer_x0020_1">
  <metadata id="CorelCorpID_0Corel-Layer"/>
  <path class="fil0" d="M7.01 0.88l-1.17 2.46 0.52 0 0.22 -0.52 0.65 0 0 0.52 0.52 0 -0.13 -2.46 -0.61 0zm-0.26 1.53l0.47 -1.1 0.01 0 0 1.1 -0.48 0z"/>
  <polygon class="fil0" points="8.45,0.88 7.93,3.34 8.4,3.34 8.92,0.88 "/>
  <polygon class="fil0" points="9.27,0.88 8.75,3.34 9.23,3.34 9.75,0.88 "/>
  <path class="fil0" d="M10.63 1.43c-0.64,0 -0.83,0.46 -0.94,0.96 -0.1,0.46 -0.18,0.99 0.51,0.99 0.45,0 0.7,-0.24 0.81,-0.67l-0.43 0c-0.08,0.23 -0.17,0.35 -0.33,0.35 -0.17,0 -0.19,-0.21 -0.14,-0.43l0.03 -0.15 0.94 0 0.02 -0.11c0.12,-0.57 0.08,-0.94 -0.48,-0.94zm0.06 0.76l-0.49 0 0.02 -0.07c0.04,-0.17 0.13,-0.37 0.32,-0.37 0.19,0 0.2,0.16 0.15,0.44z"/>
  <path class="fil0" d="M12.49 1.43c-0.21,-0 -0.41,0.1 -0.53,0.26l-0.01 0 0.05 -0.22 -0.45 0 -0.39 1.85 0.47 0 0.26 -1.23c0.04,-0.21 0.15,-0.31 0.32,-0.31 0.14,0 0.19,0.07 0.15,0.26l-0.27 1.28 0.47 0 0.29 -1.37c0.08,-0.37 -0.06,-0.53 -0.36,-0.53z"/>
  <polygon class="fil0" points="13.12,2.13 13.04,2.54 14.01,2.54 14.09,2.13 "/>
  <path class="fil0" d="M15.6 2.04l0 -0.01c0.26,-0.07 0.43,-0.27 0.49,-0.54 0.1,-0.47 -0.16,-0.62 -0.57,-0.62l-0.83 0 -0.52 2.46 0.84 0c0.58,0 0.84,-0.33 0.92,-0.72 0.07,-0.33 -0.06,-0.53 -0.33,-0.57zm-0.19 0.55c-0.06,0.29 -0.24,0.37 -0.48,0.37l-0.19 0 0.16 -0.74 0.21 0c0.22,0 0.36,0.08 0.3,0.37zm0.17 -1.04c-0.05,0.23 -0.19,0.32 -0.46,0.32l-0.14 0 0.14 -0.64 0.18 0c0.24,0 0.34,0.09 0.29,0.32z"/>
  <path class="fil0" d="M17.44 1.44c-0.03,-0 -0.06,-0.01 -0.09,-0.01 -0.2,0 -0.36,0.12 -0.49,0.3l-0.01 0 0.05 -0.25 -0.45 0 -0.39 1.85 0.47 0 0.24 -1.11c0.04,-0.2 0.22,-0.34 0.42,-0.33 0.05,0 0.1,0 0.15,0.01l0.1 -0.45z"/>
  <path class="fil0" d="M18.26 1.43c-0.36,0 -0.68,0.15 -0.77,0.57l-0.01 0.05 0.42 0 0.01 -0.05c0.03,-0.15 0.13,-0.24 0.27,-0.24 0.16,0 0.2,0.09 0.17,0.23 -0.03,0.12 -0.09,0.18 -0.24,0.22l-0.28 0.07c-0.35,0.09 -0.52,0.23 -0.59,0.58 -0.05,0.25 0,0.53 0.34,0.53 0.23,0 0.37,-0.05 0.52,-0.24l0.01 0c-0,0.06 0,0.13 0.02,0.19l0.45 0c-0.03,-0.11 -0.02,-0.19 0.02,-0.36l0.21 -0.97c0.07,-0.34 0.01,-0.57 -0.55,-0.57zm-0.07 1.34c-0.04,0.17 -0.18,0.28 -0.35,0.28 -0.13,0 -0.15,-0.12 -0.12,-0.26 0.03,-0.16 0.13,-0.26 0.33,-0.3 0.08,-0.02 0.15,-0.05 0.22,-0.09l-0.08 0.37z"/>
  <path class="fil0" d="M20.31 0.88l-0.17 0.78 -0.01 0c-0.07,-0.15 -0.17,-0.22 -0.35,-0.22 -0.39,0 -0.63,0.28 -0.78,0.97 -0.15,0.69 -0.03,0.97 0.36,0.97 0.19,0 0.33,-0.07 0.47,-0.24l0.01 0 -0.04 0.2 0.45 0 0.52 -2.46 -0.47 0zm-0.33 1.53c-0.08,0.4 -0.17,0.61 -0.38,0.61 -0.21,0 -0.21,-0.21 -0.12,-0.61 0.09,-0.4 0.17,-0.61 0.38,-0.61 0.21,0 0.2,0.21 0.12,0.61z"/>
  <polygon class="fil0" points="21.12,0.88 20.6,3.34 21.07,3.34 21.59,0.88 "/>
  <path class="fil0" d="M22.11 3.06c-0.18,0 -0.19,-0.21 -0.14,-0.43l0.03 -0.15 0.94 -0 0.02 -0.11c0.12,-0.57 0.08,-0.94 -0.48,-0.94 -0.64,0 -0.83,0.46 -0.94,0.96 -0.1,0.46 -0.18,0.99 0.5,0.99 0.45,0 0.7,-0.24 0.81,-0.67l-0.43 0c-0.08,0.23 -0.17,0.35 -0.32,0.35zm-0.04 -0.94c0.04,-0.17 0.13,-0.37 0.32,-0.37 0.2,0 0.2,0.16 0.15,0.44l-0.48 0 0.02 -0.07z"/>
  <path class="fil0" d="M24.27 1.48l-0.51 1.28 -0.01 0 -0 -1.28 -0.49 0 0.13 1.85c-0.05,0.17 -0.13,0.26 -0.31,0.26 -0.04,0 -0.08,-0 -0.12,-0.01l-0.08 0.36 0.19 0c0.44,0 0.57,-0.09 0.87,-0.73l0.81 -1.73 -0.47 0z"/>
  <polygon class="fil0" points="1.75,3.39 1.82,3.39 1.79,3.22 "/>
  <polygon class="fil0" points="1.11,3.47 1.19,3.47 1.19,3.2 1.11,3.2 "/>
  <path class="fil0" d="M3.55 2.93l-3.21 0c-0.04,0 -0.07,0.03 -0.07,0.07 0,0.02 0.01,0.04 0.02,0.05l0.65 0.65c0.13,0.13 0.31,0.2 0.49,0.2l1.04 0c0.18,0 0.36,-0.07 0.49,-0.2l0.65 -0.65c0.03,-0.03 0.03,-0.07 0,-0.1 -0.01,-0.01 -0.03,-0.02 -0.05,-0.02zm-2.3 0.55c0,0.02 -0.02,0.04 -0.04,0.05 0,0.02 0.02,0.03 0.03,0.03l0 0.02 -0.04 0c-0.03,-0.01 -0.05,-0.03 -0.06,-0.05l-0.06 0c-0.03,0 -0.05,-0.02 -0.05,-0.05l0 -0.28c0,-0.03 0.02,-0.05 0.05,-0.05l0.12 0c0.03,0 0.05,0.02 0.05,0.05l0 0.28zm0.28 0.05l0 0 -0.12 0c-0.03,0 -0.05,-0.02 -0.05,-0.05l0 -0.32 0.07 0 0 0.32 0.08 0 0 -0.32 0.07 0 0 0.32c0,0.03 -0.02,0.05 -0.05,0.05zm0.32 0l-0.02 -0.08 -0.09 0 -0.02 0.08 -0.07 0 0.08 -0.37 0.09 0 0.09 0.37 -0.07 0zm0.32 0l-0.16 0 0 -0.37 0.07 0 0 0.31 0.1 0 0 0.06zm0.15 0l-0.07 0 0 -0.37 0.07 0 0 0.37zm0.25 -0.32l-0.05 0 0 0.32 -0.07 0 0 -0.32 -0.05 0 0 -0.05 0.17 0 0 0.05zm0.22 0.15l0 0.17 -0.06 0 0 -0.17 -0.1 -0.2 0.07 0 0.06 0.13 0.06 -0.13 0.07 0 -0.1 0.2z"/>
  <path class="fil0" d="M2.9 1.74l0 0 -0.32 0 0 -0.16 0.24 0c0.05,-0 0.09,-0.04 0.1,-0.09l0 -0.33c-0.01,-0.06 -0.06,-0.11 -0.12,-0.1l-0.37 0 0 1.24 0.48 0c0.06,-0.01 0.11,-0.06 0.12,-0.12l0 -0.31c-0.01,-0.06 -0.06,-0.11 -0.13,-0.12z"/>
  <path class="fil0" d="M2.94 0.18c-0.11,-0.11 -0.27,-0.18 -0.43,-0.18l-1.11 0c-0.16,0 -0.32,0.07 -0.43,0.18l-0.78 0.78c-0.11,0.11 -0.18,0.27 -0.18,0.43l0 1.15c0,0.14 0.11,0.25 0.25,0.25l0 0 3.4 0c0.14,0 0.25,-0.11 0.25,-0.25l0 -1.15c0,-0.16 -0.06,-0.32 -0.18,-0.43l-0.78 -0.78zm-1.45 2.28c0,0 0.02,-0.03 -0.02,-0.13l-0.12 -0.31 -0.4 0 0 -0.16 0.35 0 -0.26 -0.69 -0.43 1.17c-0.01,0.04 -0.01,0.08 -0,0.12l-0.25 0c0.01,0 0.05,-0.02 0.09,-0.16l0.5 -1.41 0.33 0 0.58 1.48c0,0 0.03,0.08 0.06,0.09l-0.42 0zm0.49 -0.72l-0.23 0 0 -0.16 0.23 0 0 0.16zm1.11 0.72l0 0 -1.02 0c0.05,-0.05 0.04,-0.16 0.04,-0.16l0 -1.21c0,-0.16 -0.05,-0.2 -0.05,-0.2l0.97 0c0.14,0.01 0.25,0.12 0.25,0.26l0 0.29c0,0.11 -0.09,0.2 -0.2,0.2l0.02 0c0.15,-0 0.27,0.12 0.27,0.27l0 0 0 0.28c0,0.15 -0.12,0.27 -0.27,0.27z"/>
 </g>
</svg>
