<?xml version="1.0" encoding="UTF-8"?>
<!DOCTYPE svg PUBLIC "-//W3C//DTD SVG 1.1//EN" "http://www.w3.org/Graphics/SVG/1.1/DTD/svg11.dtd">
<!-- Creator: CorelDRAW -->
<svg xmlns="http://www.w3.org/2000/svg" xml:space="preserve" width="6.1541mm" height="2.3561mm" version="1.1" style="shape-rendering:geometricPrecision; text-rendering:geometricPrecision; image-rendering:optimizeQuality; fill-rule:evenodd; clip-rule:evenodd"
viewBox="0 0 5.04 1.93"
 xmlns:xlink="http://www.w3.org/1999/xlink"
 xmlns:xodm="http://www.corel.com/coreldraw/odm/2003">
 <defs>
  <style type="text/css">
   <![CDATA[
    .fil0 {fill:#E62729;fill-rule:nonzero}
   ]]>
  </style>
 </defs>
 <g id="Layer_x0020_1">
  <metadata id="CorelCorpID_0Corel-Layer"/>
  <path class="fil0" d="M2.75 1.93l0.12 0c0.35,-0.02 0.6,-0.29 0.6,-0.62 0,-0.11 -0.02,-0.22 -0.08,-0.31l-0.64 0 0 0.93z"/>
  <polygon class="fil0" points="2.1,0.99 2.69,0.99 2.69,1.93 2.1,1.93 "/>
  <path class="fil0" d="M3.35 0.94c-0.06,-0.08 -0.14,-0.15 -0.23,-0.19 0.11,-0.08 0.18,-0.2 0.18,-0.33 0,-0.23 -0.18,-0.41 -0.41,-0.41l-0.14 0 0 0.94 0.6 0z"/>
  <polygon class="fil0" points="2.1,0 2.69,0 2.69,0.94 2.1,0.94 "/>
  <path class="fil0" d="M4.33 1.93l0.12 0c0.35,-0.02 0.6,-0.29 0.6,-0.62 0,-0.11 -0.02,-0.22 -0.08,-0.31l-0.64 0 0 0.93z"/>
  <polygon class="fil0" points="3.68,0.99 4.27,0.99 4.27,1.93 3.68,1.93 "/>
  <path class="fil0" d="M4.93 0.94c-0.06,-0.08 -0.14,-0.15 -0.23,-0.19 0.11,-0.08 0.18,-0.2 0.18,-0.33 0,-0.23 -0.18,-0.41 -0.41,-0.41l-0.14 0 0 0.94 0.6 0z"/>
  <polygon class="fil0" points="3.68,0 4.27,0 4.27,0.94 3.68,0.94 "/>
  <polygon class="fil0" points="0.33,0.99 -0,1.93 0.49,1.93 0.63,1.52 0.94,1.52 0.94,0.99 "/>
  <polygon class="fil0" points="0.94,0 0.68,0 0.35,0.94 0.94,0.94 "/>
  <polygon class="fil0" points="0.99,1.52 1.3,1.52 1.44,1.93 1.93,1.93 1.6,0.99 0.99,0.99 "/>
  <polygon class="fil0" points="1.58,0.94 1.25,0 0.99,0 0.99,0.94 "/>
 </g>
</svg>
