<?xml version="1.0" encoding="UTF-8"?>
<!DOCTYPE svg PUBLIC "-//W3C//DTD SVG 1.1//EN" "http://www.w3.org/Graphics/SVG/1.1/DTD/svg11.dtd">
<!-- Creator: CorelDRAW -->
<svg xmlns="http://www.w3.org/2000/svg" xml:space="preserve" width="9.9336mm" height="2.02mm" version="1.1" style="shape-rendering:geometricPrecision; text-rendering:geometricPrecision; image-rendering:optimizeQuality; fill-rule:evenodd; clip-rule:evenodd"
viewBox="0 0 14.15 2.88"
 xmlns:xlink="http://www.w3.org/1999/xlink"
 xmlns:xodm="http://www.corel.com/coreldraw/odm/2003">
 <defs>
  <style type="text/css">
   <![CDATA[
    .fil1 {fill:white;fill-rule:nonzero}
    .fil0 {fill:#1F4680;fill-rule:nonzero}
   ]]>
  </style>
 </defs>
 <g id="Layer_x0020_1">
  <metadata id="CorelCorpID_0Corel-Layer"/>
  <polygon class="fil0" points="-0,0 14.15,0 14.15,2.88 -0,2.88 "/>
  <path class="fil1" d="M3.2 0.94l0 1.51 0.33 0c0.52,0 0.83,-0.32 0.83,-0.74 0,-0.42 -0.28,-0.77 -0.9,-0.77l-0.26 0zm0.33 1.2l0 -0.91c0.33,-0.02 0.48,0.21 0.48,0.48 0,0.25 -0.15,0.45 -0.48,0.42z"/>
  <polygon class="fil1" points="7.78,0.94 7.44,0.94 7.44,1.78 6.51,0.92 6.51,2.45 6.85,2.45 6.85,1.66 7.78,2.52 "/>
  <polygon class="fil1" points="7.94,1.24 8.35,1.24 8.35,2.45 8.72,2.45 8.72,1.24 9.13,1.24 9.13,0.94 7.94,0.94 "/>
  <polygon class="fil1" points="9.26,2.45 9.26,0.94 10.15,0.94 10.15,1.23 9.6,1.23 9.6,1.56 10.1,1.56 10.1,1.84 9.6,1.84 9.6,2.17 10.15,2.17 10.15,2.45 "/>
  <polygon class="fil1" points="12.53,0.94 12.53,1.56 11.94,1.56 11.94,0.94 11.59,0.94 11.59,2.45 11.94,2.45 11.94,1.84 12.53,1.84 12.53,2.45 12.87,2.45 12.87,0.94 "/>
  <polygon class="fil1" points="4.19,0.94 4.95,2.5 5.14,2.1 4.58,0.94 "/>
  <polygon class="fil1" points="5.73,0.9 5.54,1.29 5.7,1.69 5.34,1.69 5.22,1.93 5.79,1.93 6.01,2.45 6.4,2.45 "/>
  <path class="fil1" d="M10.23 1.7c0,0.5 0.38,0.77 0.84,0.77 0.18,0 0.28,-0.05 0.35,-0.09l0 -0.35c-0.07,0.09 -0.21,0.15 -0.35,0.15 -0.27,0 -0.5,-0.19 -0.5,-0.48 0,-0.29 0.25,-0.47 0.5,-0.47 0.14,0 0.28,0.06 0.35,0.15l0 -0.33c-0.06,-0.06 -0.18,-0.11 -0.37,-0.11 -0.46,0 -0.83,0.33 -0.83,0.77z"/>
  <path class="fil1" d="M2.02 1.86l0.21 -0.53 0.21 0.53 -0.42 0zm1.1 0.59l-0.87 -1.89 -0.87 1.89 0.42 0 0.12 -0.32 0.62 0 0.13 0.32 0.45 0z"/>
 </g>
</svg>
