<?xml version="1.0" encoding="UTF-8"?>
<!DOCTYPE svg PUBLIC "-//W3C//DTD SVG 1.1//EN" "http://www.w3.org/Graphics/SVG/1.1/DTD/svg11.dtd">
<!-- Creator: CorelDRAW -->
<svg xmlns="http://www.w3.org/2000/svg" xml:space="preserve" width="12.618mm" height="2.5869mm" version="1.1" style="shape-rendering:geometricPrecision; text-rendering:geometricPrecision; image-rendering:optimizeQuality; fill-rule:evenodd; clip-rule:evenodd"
viewBox="0 0 23.61 4.84"
 xmlns:xlink="http://www.w3.org/1999/xlink"
 xmlns:xodm="http://www.corel.com/coreldraw/odm/2003">
 <defs>
  <style type="text/css">
   <![CDATA[
    .fil0 {fill:#25375F;fill-rule:nonzero}
   ]]>
  </style>
 </defs>
 <g id="Layer_x0020_1">
  <metadata id="CorelCorpID_0Corel-Layer"/>
  <path class="fil0" d="M7.97 1.13l0 0.21c0.5,-0.41 0.95,-0.41 1.34,0.1 0.12,-0.1 0.23,-0.22 0.36,-0.29 0.41,-0.22 0.97,-0.05 1.13,0.35 0.06,0.15 0.08,0.33 0.09,0.49 0.02,0.42 0.01,0.83 0.02,1.25 0,0.09 -0.03,0.12 -0.11,0.11 -0.11,-0.01 -0.22,-0 -0.35,-0l0 -0.11c0,-0.41 0,-0.82 -0,-1.23 -0,-0.08 -0.02,-0.17 -0.05,-0.24 -0.12,-0.25 -0.28,-0.31 -0.58,-0.26 -0.22,0.04 -0.37,0.25 -0.37,0.5 0,0.41 0,0.83 0.01,1.24 0,0.09 -0.03,0.11 -0.11,0.1 -0.09,-0.01 -0.19,-0 -0.28,-0 -0.07,0 -0.09,-0.02 -0.09,-0.09 0.01,-0.41 0,-0.81 0.01,-1.22 0.01,-0.41 -0.3,-0.65 -0.69,-0.51 -0.15,0.05 -0.24,0.17 -0.28,0.33 -0.03,0.12 -0.04,0.24 -0.04,0.36 -0,0.34 -0,0.69 0,1.03 0,0.08 -0.02,0.11 -0.1,0.1 -0.09,-0.01 -0.19,-0 -0.28,0 -0.07,0 -0.09,-0.03 -0.09,-0.09 0,-0.4 0.01,-0.79 0.01,-1.19 0,-0.27 -0,-0.55 -0.01,-0.82 -0,-0.09 0.01,-0.13 0.11,-0.12 0.1,0.01 0.21,0 0.33,0z"/>
  <path class="fil0" d="M11.76 1.4c0.06,-0.05 0.1,-0.08 0.14,-0.11 0.58,-0.46 1.48,-0.2 1.7,0.51 0.14,0.42 0.11,0.83 -0.16,1.19 -0.35,0.47 -1.08,0.57 -1.54,0.21 -0.04,-0.03 -0.08,-0.08 -0.15,-0.11 0,0.06 -0,0.12 0,0.18 0,0.05 -0.02,0.07 -0.07,0.07 -0.12,-0 -0.24,-0 -0.38,-0 -0,-0.04 -0.01,-0.07 -0.01,-0.1 -0,-0.94 0,-1.88 -0,-2.81 0,-0.08 0.02,-0.11 0.1,-0.1 0.09,0.01 0.19,0 0.28,0 0.07,-0 0.09,0.02 0.09,0.09 -0,0.29 -0,0.57 -0,0.86 -0,0.03 0,0.06 0.01,0.12zm0.72 0.09c-0.42,-0 -0.74,0.3 -0.74,0.71 -0,0.44 0.31,0.78 0.71,0.78 0.45,0 0.77,-0.32 0.77,-0.78 0,-0.37 -0.33,-0.74 -0.74,-0.71z"/>
  <path class="fil0" d="M7.4 3.35c-0.19,0 -0.35,0 -0.52,-0 -0.02,-0 -0.06,-0.04 -0.07,-0.07 -0.07,-0.18 -0.15,-0.35 -0.22,-0.53 -0.03,-0.07 -0.06,-0.1 -0.14,-0.1 -0.35,0 -0.7,0 -1.05,0 -0.07,-0 -0.11,0.02 -0.13,0.09 -0.06,0.18 -0.14,0.35 -0.2,0.53 -0.02,0.07 -0.06,0.09 -0.13,0.09 -0.15,-0 -0.3,-0 -0.47,-0 0.07,-0.17 0.13,-0.33 0.19,-0.48 0.34,-0.81 0.67,-1.63 1.01,-2.44 0.03,-0.07 0.07,-0.1 0.14,-0.09 0.1,0.01 0.19,-0 0.29,0 0.04,0 0.09,0.03 0.1,0.07 0.18,0.44 0.35,0.88 0.53,1.32 0.18,0.44 0.36,0.87 0.54,1.31 0.04,0.1 0.08,0.2 0.12,0.32zm-1.45 -2.33c-0.01,-0 -0.02,-0 -0.03,-0.01 -0.15,0.4 -0.33,0.78 -0.46,1.2l0.95 0c-0.16,-0.41 -0.31,-0.8 -0.47,-1.2z"/>
  <path class="fil0" d="M15.78 1.41c0,-0.08 0,-0.15 -0,-0.21 -0,-0.05 0.02,-0.07 0.07,-0.07 0.11,0 0.22,-0 0.33,0 0.02,0 0.06,0.04 0.06,0.06 0.01,0.06 0,0.12 0,0.18 0,0.62 0,1.24 0,1.86l0 0.11c-0.15,0 -0.28,0 -0.42,-0 -0.01,-0 -0.04,-0.04 -0.04,-0.07 -0.01,-0.06 -0,-0.12 -0,-0.2 -0.02,0.01 -0.04,0.01 -0.06,0.03 -0.32,0.34 -0.71,0.38 -1.13,0.25 -0.49,-0.15 -0.79,-0.65 -0.75,-1.19 0.04,-0.54 0.35,-0.94 0.84,-1.07 0.39,-0.1 0.75,-0.04 1.03,0.27 0.01,0.01 0.03,0.02 0.06,0.04zm0 0.81c0.01,-0.39 -0.3,-0.71 -0.7,-0.73 -0.45,-0.02 -0.78,0.29 -0.79,0.7 -0.01,0.41 0.31,0.78 0.7,0.79 0.46,0.01 0.78,-0.3 0.79,-0.77z"/>
  <path class="fil0" d="M21.51 2.65c-0.02,0.05 -0.03,0.08 -0.04,0.11 -0.24,0.48 -0.7,0.7 -1.15,0.66 -0.63,-0.05 -1,-0.49 -1.08,-0.97 -0.11,-0.76 0.43,-1.45 1.25,-1.39 0.73,0.05 1.1,0.64 1.08,1.27 -0,0.08 -0.06,0.07 -0.1,0.07l-1.42 0 -0.24 0c-0.11,0 -0.13,0.02 -0.1,0.13 0.07,0.25 0.34,0.47 0.62,0.49 0.27,0.02 0.5,-0.07 0.65,-0.31 0.02,-0.03 0.05,-0.05 0.08,-0.06 0.13,-0.01 0.27,-0 0.43,-0zm-1.09 -0.61l0 -0c0.19,0 0.38,-0 0.57,0 0.13,0 0.15,-0.02 0.1,-0.15 -0.12,-0.3 -0.45,-0.48 -0.81,-0.42 -0.26,0.04 -0.45,0.18 -0.55,0.43 -0.05,0.12 -0.03,0.14 0.1,0.14 0.2,0 0.4,0 0.59,0z"/>
  <path class="fil0" d="M16.65 1.84c0,-0.47 0,-0.93 -0,-1.4 -0,-0.09 0.03,-0.11 0.11,-0.11 0.46,0 0.92,0 1.39,0 0.08,0 0.11,0.02 0.1,0.1 -0,0.09 -0.01,0.17 0,0.26 0.01,0.08 -0.02,0.1 -0.1,0.1 -0.29,-0 -0.57,0 -0.86,-0 -0.09,-0 -0.12,0.03 -0.11,0.12 0,0.21 0,0.42 -0.01,0.62 -0,0.08 0.02,0.1 0.1,0.1 0.29,-0 0.57,0 0.86,-0 0.08,-0 0.11,0.02 0.11,0.1 -0.01,0.09 -0.01,0.17 -0,0.26 0,0.07 -0.02,0.09 -0.09,0.09 -0.29,-0 -0.57,0 -0.86,-0 -0.1,-0 -0.11,0.03 -0.11,0.12 0.01,0.36 0.01,0.72 0.01,1.08 0,0.06 -0.02,0.08 -0.08,0.07 -0.11,-0 -0.22,-0.01 -0.34,0 -0.09,0.01 -0.12,-0.02 -0.12,-0.11 0,-0.46 0,-0.93 0,-1.4z"/>
  <path class="fil0" d="M3.79 3.35c-0.39,-0.21 -0.8,-0.27 -1.21,-0.32 -0.5,-0.06 -1,-0.09 -1.51,-0.14 -0.33,-0.04 -0.67,-0.09 -0.97,-0.24 -0.07,-0.03 -0.1,-0.07 -0.1,-0.15 0,-0.16 0,-0.32 0,-0.5 0.06,0.03 0.12,0.06 0.17,0.08 0.32,0.13 0.66,0.18 1,0.22 0.58,0.06 1.15,0.11 1.73,0.18 0.27,0.03 0.53,0.09 0.78,0.21 0.07,0.04 0.11,0.08 0.1,0.17 -0.01,0.16 -0,0.32 -0,0.49z"/>
  <path class="fil0" d="M0.01 0.37c0.51,0.26 1.06,0.28 1.6,0.34 0.59,0.07 1.19,0.08 1.77,0.23 0.11,0.03 0.22,0.08 0.32,0.12 0.06,0.02 0.09,0.07 0.09,0.14 -0.01,0.16 -0,0.33 -0,0.51 -0.05,-0.02 -0.08,-0.05 -0.12,-0.06 -0.26,-0.07 -0.51,-0.17 -0.77,-0.21 -0.57,-0.08 -1.15,-0.11 -1.73,-0.18 -0.31,-0.04 -0.61,-0.12 -0.91,-0.18 -0.01,-0 -0.01,-0 -0.02,-0.01 -0.24,-0.08 -0.24,-0.09 -0.24,-0.34 0,-0.12 0,-0.23 0,-0.35 0,-0.01 0,-0.01 0.01,-0.03z"/>
  <path class="fil0" d="M22.52 2.57c-0.09,0.13 -0.16,0.24 -0.24,0.36 -0.08,0.12 -0.15,0.24 -0.23,0.35 -0.03,0.04 -0.08,0.07 -0.13,0.07 -0.15,0.01 -0.31,0 -0.49,0 0.08,-0.12 0.15,-0.22 0.22,-0.32 0.18,-0.25 0.35,-0.51 0.54,-0.76 0.05,-0.07 0.02,-0.11 -0.01,-0.17 -0.2,-0.28 -0.4,-0.56 -0.6,-0.85 -0.02,-0.03 -0.04,-0.07 -0.08,-0.12 0.19,0 0.36,-0 0.53,0 0.02,0 0.05,0.04 0.07,0.06 0.13,0.2 0.25,0.4 0.37,0.59 0.01,0.02 0.03,0.04 0.06,0.07 0.09,-0.14 0.17,-0.27 0.25,-0.4 0.06,-0.09 0.11,-0.18 0.17,-0.27 0.02,-0.03 0.05,-0.06 0.08,-0.06 0.16,-0.01 0.32,-0 0.5,-0 -0.02,0.04 -0.03,0.06 -0.04,0.08 -0.21,0.29 -0.42,0.59 -0.63,0.88 -0.05,0.07 -0.06,0.12 -0,0.2 0.23,0.32 0.45,0.64 0.68,0.96 0.02,0.03 0.03,0.05 0.06,0.1 -0.19,0 -0.36,0 -0.53,-0 -0.03,-0 -0.06,-0.04 -0.08,-0.08 -0.14,-0.21 -0.27,-0.41 -0.41,-0.62 -0.01,-0.02 -0.03,-0.04 -0.06,-0.08z"/>
  <path class="fil0" d="M19 3.35c-0.14,0 -0.27,-0 -0.4,0 -0.07,0 -0.07,-0.05 -0.07,-0.09 0,-0.34 0.01,-0.67 0.01,-1.01 -0,-0.6 -0,-1.19 -0.01,-1.79 -0,-0.1 0.03,-0.13 0.12,-0.12 0.09,0.01 0.18,0 0.27,0 0.06,-0 0.08,0.02 0.08,0.08 -0,0.22 -0,0.44 -0,0.66l0 2.13 0 0.14z"/>
  <path class="fil0" d="M3.71 3.44c-0.16,0.05 -0.32,0.11 -0.48,0.15 -0.22,0.05 -0.45,0.08 -0.68,0.12 -0.08,0.01 -0.11,-0.01 -0.1,-0.09 0.01,-0.13 0,-0.26 0,-0.39 -0,-0.06 0.02,-0.08 0.08,-0.1 0.26,-0.05 0.5,0.03 0.74,0.08 0.11,0.02 0.23,0.07 0.34,0.11 0.04,0.01 0.07,0.04 0.11,0.06 0,0.02 0,0.03 0,0.05z"/>
  <path class="fil0" d="M3.73 1.77c-0.07,0.04 -0.11,0.08 -0.16,0.09 -0.35,0.08 -0.69,0.15 -1.04,0.23 -0.06,0.01 -0.09,-0.01 -0.08,-0.07 0,-0.14 0,-0.27 -0,-0.41 -0,-0.07 0.03,-0.1 0.09,-0.1 0.14,0 0.29,-0 0.43,0.02 0.2,0.04 0.4,0.1 0.6,0.15 0.05,0.01 0.09,0.05 0.16,0.09z"/>
  <path class="fil0" d="M1.33 1.63c0,0.17 0,0.34 -0,0.5 -0,0.02 -0.04,0.06 -0.06,0.06 -0.13,0 -0.26,0.02 -0.39,-0 -0.21,-0.04 -0.43,-0.09 -0.64,-0.15 -0.05,-0.01 -0.1,-0.06 -0.14,-0.09 0.05,-0.03 0.09,-0.08 0.14,-0.1 0.3,-0.07 0.6,-0.13 0.9,-0.19 0.06,-0.01 0.12,-0.02 0.2,-0.02z"/>
  <path class="fil0" d="M1.33 0.28l0 0.05c0,0.25 -0,0.26 -0.24,0.24 -0.31,-0.02 -0.62,-0.07 -0.9,-0.2 -0.03,-0.01 -0.06,-0.05 -0.09,-0.07 0.03,-0.03 0.06,-0.07 0.09,-0.08 0.26,-0.07 0.53,-0.13 0.79,-0.19 0.09,-0.02 0.18,-0.02 0.26,-0.03 0.06,-0.01 0.08,0.02 0.08,0.08 -0,0.07 -0,0.13 -0,0.2l0 0z"/>
  <path class="fil0" d="M23.48 4.17c0.02,-0.14 -0.05,-0.15 -0.14,-0.15 -0.08,0.01 -0.17,0 -0.25,0 -0.05,-0 -0.08,0.02 -0.08,0.07 -0.01,0.2 -0.01,0.2 0.18,0.2 0.08,0 0.16,-0 0.24,-0 0.12,0 0.17,0.05 0.17,0.17 0,0.08 0,0.16 -0,0.24 -0,0.08 -0.05,0.13 -0.13,0.13 -0.15,0 -0.3,0.01 -0.46,0 -0.11,-0 -0.18,-0.1 -0.15,-0.21 0.01,-0.02 0.04,-0.05 0.06,-0.04 0.03,0 0.07,0.02 0.07,0.04 0.01,0.08 0.06,0.08 0.11,0.07 0.09,-0 0.18,-0 0.28,0 0.07,0 0.1,-0.02 0.09,-0.09 -0,-0.03 -0,-0.06 0,-0.09 0.01,-0.06 -0.02,-0.09 -0.09,-0.09 -0.12,0 -0.24,0 -0.36,0 -0.11,-0 -0.16,-0.05 -0.16,-0.16 -0,-0.08 -0,-0.15 -0,-0.23 0,-0.09 0.04,-0.14 0.13,-0.15 0.16,-0.01 0.32,-0.01 0.47,-0 0.11,0.01 0.17,0.12 0.12,0.22 -0.01,0.02 -0.06,0.03 -0.12,0.05z"/>
  <path class="fil0" d="M17.12 4.57l0 -0.67 0.14 0 0 0.32c0,0.17 0,0.33 -0,0.49 -0,0.04 -0.03,0.08 -0.04,0.12 -0.05,-0.02 -0.11,-0.03 -0.14,-0.06 -0.13,-0.15 -0.25,-0.31 -0.37,-0.47 -0.04,-0.05 -0.08,-0.1 -0.14,-0.17 -0.01,0.04 -0.02,0.06 -0.02,0.08 -0,0.17 -0,0.35 -0,0.52 0,0.05 0,0.09 -0.07,0.09 -0.07,0 -0.07,-0.04 -0.07,-0.09 0,-0.28 0,-0.56 0,-0.84 0.09,-0.03 0.15,-0.01 0.2,0.06 0.13,0.18 0.27,0.35 0.4,0.52 0.02,0.03 0.05,0.05 0.07,0.08 0.01,-0 0.02,-0 0.02,-0.01z"/>
  <path class="fil0" d="M9.57 4.55c-0.01,0.13 0.03,0.15 0.11,0.15 0.09,-0.01 0.18,-0 0.27,-0 0.06,0 0.09,-0.02 0.09,-0.09 -0,-0.02 -0,-0.04 0,-0.06 0.01,-0.09 -0.02,-0.13 -0.12,-0.12 -0.1,0.01 -0.21,0 -0.32,0 -0.12,-0 -0.15,-0.04 -0.15,-0.15 -0,-0.08 0.01,-0.15 -0,-0.23 -0.01,-0.1 0.05,-0.15 0.14,-0.16 0.15,-0.01 0.3,-0.01 0.44,0 0.12,0.01 0.17,0.12 0.13,0.23 -0.01,0.02 -0.04,0.03 -0.06,0.03 -0.02,-0 -0.06,-0.03 -0.06,-0.04 0,-0.09 -0.05,-0.08 -0.11,-0.08 -0.09,0 -0.18,0 -0.27,0 -0.06,-0 -0.09,0.02 -0.09,0.09 0,0.03 0,0.06 -0,0.09 -0.01,0.07 0.03,0.09 0.09,0.09 0.11,-0 0.22,-0 0.33,0 0.13,0 0.17,0.05 0.17,0.18 0,0.07 -0,0.15 0,0.22 0,0.1 -0.05,0.14 -0.14,0.14 -0.15,0 -0.3,0 -0.46,-0 -0.11,-0 -0.18,-0.1 -0.14,-0.21 0.01,-0.03 0.07,-0.04 0.13,-0.07z"/>
  <path class="fil0" d="M18.26 4.84c-0.08,0 -0.15,0 -0.23,-0 -0.11,-0.01 -0.18,-0.11 -0.14,-0.21 0.01,-0.02 0.04,-0.04 0.07,-0.04 0.02,0 0.06,0.02 0.06,0.04 0,0.07 0.04,0.08 0.1,0.08 0.1,-0 0.19,-0 0.29,0 0.06,0 0.09,-0.02 0.09,-0.09 -0,-0.02 0,-0.03 0,-0.05 0,-0.13 0,-0.13 -0.13,-0.13 -0.1,-0 -0.2,0 -0.3,-0 -0.13,-0 -0.16,-0.03 -0.16,-0.16 -0,-0.07 -0,-0.15 -0,-0.22 0,-0.11 0.04,-0.16 0.14,-0.16 0.15,-0.01 0.29,-0.01 0.44,0 0.12,0.01 0.18,0.12 0.13,0.23 -0.01,0.02 -0.04,0.03 -0.06,0.03 -0.02,-0 -0.06,-0.03 -0.06,-0.04 0,-0.09 -0.06,-0.09 -0.12,-0.09 -0.09,0 -0.18,0 -0.27,-0 -0.06,-0 -0.08,0.02 -0.08,0.08 -0.01,0.19 -0.01,0.19 0.18,0.19 0.08,-0 0.17,-0 0.25,0 0.12,0 0.16,0.05 0.16,0.16 0,0.08 0,0.15 0,0.23 -0,0.1 -0.05,0.15 -0.15,0.15 -0.07,0 -0.15,0 -0.22,0l0 -0z"/>
  <path class="fil0" d="M12.83 4.17c-0,0.05 -0.01,0.1 -0.01,0.15 -0,0.15 0,0.3 -0,0.44 -0,0.03 -0.04,0.05 -0.07,0.07 -0.02,-0.02 -0.07,-0.05 -0.07,-0.07 -0,-0.29 -0,-0.57 -0,-0.86 0.08,-0.02 0.13,-0.02 0.18,0.05 0.14,0.19 0.29,0.38 0.44,0.56 0.02,0.02 0.04,0.04 0.08,0.09 0.01,-0.06 0.01,-0.09 0.01,-0.12 0,-0.17 -0,-0.33 -0,-0.5 0,-0.04 -0.01,-0.1 0.06,-0.09 0.06,0 0.06,0.04 0.06,0.09 -0,0.25 0,0.5 -0,0.75 -0,0.03 -0.03,0.1 -0.04,0.1 -0.04,-0 -0.1,-0.01 -0.13,-0.04 -0.14,-0.17 -0.28,-0.35 -0.41,-0.52 -0.03,-0.03 -0.06,-0.07 -0.08,-0.11 -0.01,0 -0.02,0.01 -0.02,0.01z"/>
  <path class="fil0" d="M20.19 3.91c0.21,0 0.4,-0.01 0.6,0 0.04,0 0.09,0.05 0.11,0.09 0.08,0.16 0.02,0.36 -0.13,0.47 0.02,0.05 0.05,0.11 0.08,0.16 0.03,0.06 0.05,0.11 0.08,0.18 -0.07,0.04 -0.13,0.04 -0.17,-0.04 -0.03,-0.07 -0.07,-0.14 -0.1,-0.22 -0.03,-0.08 -0.07,-0.11 -0.15,-0.1 -0.23,0.01 -0.19,-0.01 -0.19,0.19 0,0.03 0,0.07 0,0.1 -0,0.05 0.01,0.1 -0.07,0.09 -0.07,-0 -0.06,-0.06 -0.06,-0.1 0,-0.16 0,-0.32 0,-0.48l0 -0.34zm0.34 0.12c-0.26,0 -0.21,-0.03 -0.22,0.22 -0,0.06 0.02,0.09 0.08,0.08 0.1,-0 0.19,-0 0.29,-0 0.07,-0 0.11,-0.04 0.11,-0.12 0,-0.15 -0.02,-0.18 -0.17,-0.18 -0.03,-0 -0.06,0 -0.09,-0z"/>
  <path class="fil0" d="M12.47 3.89l0 0.14 -0.42 0c-0.12,0 -0.11,0 -0.12,0.14 -0,0.09 0.02,0.13 0.12,0.12 0.09,-0.01 0.19,-0.01 0.28,0 0.02,0 0.06,0.04 0.06,0.07 0,0.02 -0.04,0.06 -0.06,0.06 -0.11,0.01 -0.21,0.01 -0.32,0 -0.06,-0 -0.09,0.02 -0.08,0.08 0,0.01 -0,0.01 -0,0.02 0,0.2 -0.01,0.17 0.16,0.17 0.12,0 0.25,0 0.37,0 0.03,0.1 0.01,0.14 -0.09,0.14 -0.16,-0.01 -0.32,-0 -0.49,-0 -0.07,0 -0.09,-0.02 -0.09,-0.09 0,-0.26 0,-0.51 0,-0.77 0,-0.03 0.03,-0.08 0.04,-0.08 0.21,-0.01 0.42,-0 0.64,-0z"/>
  <path class="fil0" d="M15.43 3.89c0.03,0.1 0.01,0.14 -0.09,0.14 -0.12,-0.01 -0.24,0 -0.36,-0 -0.06,-0 -0.09,0.02 -0.09,0.08 0.01,0.22 -0.02,0.18 0.17,0.18 0.08,0 0.15,0 0.23,-0 0.05,-0 0.07,0.02 0.07,0.07 0,0.05 -0.02,0.07 -0.07,0.07 -0.11,-0 -0.21,0 -0.32,-0 -0.06,-0 -0.09,0.02 -0.08,0.08 0,0 0,0.01 0,0.01 -0.01,0.17 -0.01,0.17 0.17,0.17 0.1,0 0.2,0 0.31,0 0.05,-0 0.08,0.01 0.08,0.06 0,0.06 -0.03,0.07 -0.08,0.07 -0.18,-0 -0.36,-0 -0.54,0 -0.05,0 -0.08,-0.02 -0.08,-0.08 0,-0.27 -0,-0.53 0,-0.8 0,-0.02 0.04,-0.06 0.06,-0.06 0.2,-0.01 0.41,-0 0.62,-0z"/>
  <path class="fil0" d="M18.87 3.91c0.21,0 0.41,-0.01 0.61,0.01 0.04,0 0.1,0.07 0.12,0.12 0.02,0.05 0.02,0.11 0.02,0.17 0,0.22 -0.06,0.28 -0.28,0.28 -0.08,0 -0.17,0 -0.25,0 -0.06,-0 -0.09,0.03 -0.09,0.09 0,0.06 0.01,0.13 -0,0.19 -0,0.03 -0.04,0.06 -0.07,0.06 -0.02,0 -0.06,-0.04 -0.06,-0.06 -0,-0.29 -0,-0.58 -0,-0.86zm0.37 0.44c0.04,0 0.09,-0 0.13,0 0.1,0.01 0.12,-0.05 0.12,-0.14 0,-0.14 -0.02,-0.18 -0.12,-0.19 -0.1,-0 -0.19,0 -0.29,-0 -0.06,-0 -0.08,0.02 -0.08,0.08 0.01,0.29 -0.05,0.24 0.23,0.25z"/>
  <path class="fil0" d="M11.09 4.57c0.04,0.02 0.1,0.03 0.1,0.05 0.02,0.07 0.02,0.15 -0.06,0.19 -0.02,0.01 -0.06,0.02 -0.08,0.02 -0.16,0 -0.31,0 -0.47,0 -0.11,-0 -0.16,-0.05 -0.17,-0.16 -0.01,-0.21 -0,-0.43 -0,-0.64 0,-0.1 0.07,-0.14 0.16,-0.15 0.16,-0.01 0.32,-0.01 0.47,-0 0.12,0.01 0.17,0.07 0.15,0.19 -0,0.03 -0.04,0.07 -0.06,0.07 -0.03,-0 -0.07,-0.03 -0.07,-0.06 -0.01,-0.06 -0.03,-0.07 -0.08,-0.07 -0.12,0 -0.23,0 -0.35,0 -0.06,-0 -0.08,0.02 -0.08,0.08 0,0.17 -0,0.34 0.01,0.51 0,0.03 0.04,0.07 0.07,0.07 0.12,0.01 0.25,0.01 0.38,0 0.03,-0 0.06,-0.06 0.09,-0.09 0,-0.01 0,-0.03 0,-0.04z"/>
  <path class="fil0" d="M13.76 4.36c0,-0.1 -0,-0.2 0,-0.3 0,-0.11 0.03,-0.16 0.14,-0.17 0.17,-0.01 0.34,-0.01 0.51,0 0.1,0.01 0.16,0.13 0.13,0.22 -0.01,0.02 -0.05,0.04 -0.07,0.03 -0.03,-0 -0.06,-0.03 -0.06,-0.05 -0,-0.07 -0.04,-0.08 -0.1,-0.08 -0.11,0 -0.22,0 -0.33,-0 -0.06,-0 -0.08,0.02 -0.08,0.08 0,0.17 0,0.34 0,0.52 -0,0.06 0.02,0.08 0.07,0.08 0.12,-0 0.24,0 0.36,-0 0.03,-0 0.05,-0.04 0.07,-0.06 0.03,-0.02 0.06,-0.04 0.08,-0.06 0.02,0.03 0.05,0.05 0.06,0.08 0.01,0.11 -0.05,0.17 -0.16,0.17 -0.16,0 -0.32,0 -0.48,-0 -0.1,-0 -0.14,-0.05 -0.15,-0.15 -0,-0.11 -0,-0.22 -0,-0.33l-0 0z"/>
  <path class="fil0" d="M21.93 4.82c-0.09,0.03 -0.15,0.02 -0.17,-0.07 -0.02,-0.11 -0.09,-0.15 -0.2,-0.13 -0.03,0 -0.05,0 -0.08,-0 -0.14,-0.02 -0.23,0.02 -0.26,0.16 -0.02,0.08 -0.08,0.06 -0.15,0.04 0.05,-0.15 0.11,-0.29 0.16,-0.43 0.06,-0.15 0.11,-0.3 0.17,-0.44 0.01,-0.03 0.05,-0.06 0.08,-0.06 0.03,-0 0.09,0.02 0.1,0.04 0.12,0.29 0.23,0.59 0.35,0.89zm-0.58 -0.34l0.31 0c-0.05,-0.13 -0.1,-0.24 -0.15,-0.36 -0.01,0 -0.02,0 -0.03,0 -0.04,0.11 -0.09,0.23 -0.14,0.36z"/>
  <path class="fil0" d="M22.22 3.9c0,0.24 0,0.46 -0,0.69 -0,0.08 0.02,0.11 0.11,0.11 0.1,-0.01 0.2,-0.01 0.31,0 0.03,0 0.05,0.04 0.07,0.06 -0.02,0.02 -0.05,0.07 -0.07,0.07 -0.16,0.01 -0.31,0.01 -0.47,0 -0.03,-0 -0.07,-0.04 -0.07,-0.06 -0,-0.27 -0,-0.54 -0,-0.81 0,-0.09 0.06,-0.06 0.12,-0.06z"/>
  <path class="fil0" d="M19.94 3.89c0,0.3 0,0.59 -0,0.88 -0,0.02 -0.04,0.06 -0.06,0.06 -0.03,-0.01 -0.07,-0.04 -0.07,-0.06 -0,-0.27 -0,-0.54 -0,-0.81 0,-0.1 0.07,-0.06 0.14,-0.07z"/>
  <path class="fil0" d="M16.05 3.91c0.12,-0.02 0.13,-0.02 0.13,0.09 0,0.24 0,0.49 -0,0.73 0,0.11 -0.01,0.11 -0.13,0.1l0 -0.92z"/>
  <path class="fil0" d="M11.54 4.37c0,0.13 -0,0.26 0,0.38 0,0.05 -0.01,0.1 -0.07,0.08 -0.02,-0.01 -0.05,-0.05 -0.05,-0.08 -0,-0.26 -0,-0.52 -0.01,-0.78 0,-0.05 0.01,-0.09 0.07,-0.08 0.02,0.01 0.05,0.05 0.05,0.08 0.01,0.13 0,0.26 0,0.39z"/>
 </g>
</svg>
