<?xml version="1.0" encoding="UTF-8"?>
<!DOCTYPE svg PUBLIC "-//W3C//DTD SVG 1.1//EN" "http://www.w3.org/Graphics/SVG/1.1/DTD/svg11.dtd">
<!-- Creator: CorelDRAW -->
<svg xmlns="http://www.w3.org/2000/svg" xml:space="preserve" width="11.5812mm" height="2.4733mm" version="1.1" style="shape-rendering:geometricPrecision; text-rendering:geometricPrecision; image-rendering:optimizeQuality; fill-rule:evenodd; clip-rule:evenodd"
viewBox="0 0 22.57 4.82"
 xmlns:xlink="http://www.w3.org/1999/xlink"
 xmlns:xodm="http://www.corel.com/coreldraw/odm/2003">
 <defs>
  <style type="text/css">
   <![CDATA[
    .fil0 {fill:#E97721;fill-rule:nonzero}
   ]]>
  </style>
 </defs>
 <g id="Layer_x0020_1">
  <metadata id="CorelCorpID_0Corel-Layer"/>
  <path class="fil0" d="M3.18 2.77c-0.11,-0.51 -0.22,-1.02 -0.33,-1.53 -0.07,-0.34 -0.15,-0.68 -0.22,-1.02 -0.01,-0.06 -0.03,-0.08 -0.1,-0.08 -0.45,0 -0.91,0 -1.36,0 -0.05,0 -0.08,-0 -0.09,0.06 -0.15,0.62 -0.3,1.24 -0.45,1.86 -0.18,0.76 -0.36,1.52 -0.55,2.28 -0.03,0.13 -0.06,0.26 -0.09,0.39 0.03,0 0.04,0.01 0.05,0.01 0.38,0 0.76,-0 1.14,0 0.07,0 0.08,-0.04 0.09,-0.09 0.02,-0.14 0.05,-0.28 0.07,-0.43 0.01,-0.06 0.03,-0.07 0.09,-0.07 0.24,0 0.47,0 0.71,-0 0.06,0 0.08,0.02 0.09,0.08 0.02,0.14 0.04,0.27 0.06,0.41 0.01,0.07 0.04,0.11 0.12,0.11 0.36,-0 0.71,-0 1.07,-0 0.03,-0 0.07,-0 0.1,-0 0,-0.02 0.01,-0.03 0,-0.04 -0.14,-0.64 -0.27,-1.28 -0.41,-1.93zm-1.23 0.41c-0.1,0 -0.21,-0.01 -0.31,0 -0.1,0.01 -0.1,-0.04 -0.09,-0.11 0.04,-0.23 0.08,-0.45 0.11,-0.68 0.05,-0.36 0.1,-0.72 0.15,-1.08 0,-0.02 0.01,-0.04 0.01,-0.05 0.01,0 0.02,-0 0.03,-0 0.01,0.07 0.02,0.14 0.03,0.21 0.06,0.52 0.12,1.05 0.19,1.58 0.02,0.13 0.01,0.14 -0.11,0.14z"/>
  <path class="fil0" d="M15.83 3.7c-0.01,-0.36 0,-0.72 -0.04,-1.07 -0.05,-0.5 -0.33,-0.85 -0.83,-1.01 -0.27,-0.09 -0.55,-0.09 -0.83,-0.07 -0.26,0.02 -0.5,0.1 -0.71,0.26 -0.34,0.26 -0.46,0.63 -0.47,1.03 -0.01,0.6 -0,1.21 -0,1.81 0,0.07 0.02,0.09 0.09,0.09 0.33,-0 0.65,-0 0.98,0 0.09,0 0.11,-0.03 0.11,-0.12 -0,-0.36 -0,-0.72 -0,-1.08 0,-0.24 0,-0.48 0.01,-0.72 0,-0.1 0.02,-0.21 0.13,-0.27 0.16,-0.08 0.31,0.01 0.34,0.2 0.01,0.1 0.02,0.21 0.02,0.31 0,0.52 0,1.04 -0,1.56 -0,0.09 0.03,0.11 0.11,0.11 0.32,-0 0.65,-0 0.97,0 0.08,0 0.1,-0.03 0.1,-0.1 -0,-0.31 -0,-0.62 -0,-0.93l0.01 0z"/>
  <path class="fil0" d="M6.55 1.61c-0.32,0 -0.64,0 -0.96,0 -0.09,-0 -0.12,0.03 -0.12,0.12 0,0.48 0.01,0.95 -0,1.43 -0,0.17 -0.02,0.34 -0.05,0.51 -0.02,0.11 -0.1,0.15 -0.21,0.15 -0.1,-0 -0.17,-0.06 -0.2,-0.16 -0.02,-0.09 -0.04,-0.19 -0.04,-0.29 -0,-0.55 -0,-1.1 0,-1.65 0,-0.09 -0.03,-0.11 -0.11,-0.11 -0.32,0 -0.65,0 -0.97,0 -0.08,-0 -0.1,0.03 -0.1,0.1 0,0.53 -0,1.06 0,1.59 0,0.14 0,0.28 0.02,0.42 0.06,0.42 0.26,0.75 0.65,0.93 0.45,0.2 0.92,0.2 1.39,0.05 0.28,-0.09 0.5,-0.27 0.64,-0.54 0.11,-0.21 0.15,-0.44 0.16,-0.68 0.01,-0.29 0,-0.58 0,-0.88l0 0c0,-0.3 -0,-0.6 0,-0.89 0,-0.08 -0.03,-0.11 -0.11,-0.11z"/>
  <path class="fil0" d="M11.64 1.56c-0.27,-0.11 -0.56,-0.13 -0.85,-0.09 -0.51,0.07 -0.87,0.33 -1.08,0.79 -0.24,0.55 -0.24,1.11 -0.04,1.66 0.13,0.34 0.36,0.6 0.7,0.75 0.3,0.13 0.62,0.16 0.94,0.11 0.47,-0.07 0.81,-0.31 1.03,-0.74 0.15,-0.29 0.2,-0.6 0.22,-0.92 -0.03,-0.21 -0.05,-0.42 -0.11,-0.63 -0.12,-0.44 -0.37,-0.77 -0.81,-0.94zm-0.22 2.06c-0.14,0.3 -0.59,0.32 -0.76,0.03 -0.06,-0.09 -0.1,-0.21 -0.1,-0.32 -0.01,-0.19 -0.01,-0.38 0.03,-0.57 0.06,-0.25 0.23,-0.37 0.46,-0.36 0.23,0.01 0.39,0.15 0.44,0.4 0.02,0.11 0.03,0.22 0.04,0.33l0.02 0.01c-0.04,0.16 -0.06,0.33 -0.13,0.48z"/>
  <path class="fil0" d="M22.39 3.14c-0.13,-0.16 -0.32,-0.24 -0.48,-0.35 -0.07,-0.05 -0.15,-0.11 -0.2,-0.18 -0.09,-0.13 -0.05,-0.25 0.11,-0.28 0.11,-0.02 0.24,-0.03 0.35,-0.03 0.13,0.01 0.26,0.04 0.4,0.06 0,-0.27 0,-0.53 -0,-0.8 0,-0.02 -0.04,-0.05 -0.07,-0.06 -0.13,-0.03 -0.26,-0.06 -0.4,-0.08 -0.42,-0.06 -0.83,-0.05 -1.22,0.12 -0.38,0.16 -0.59,0.45 -0.59,0.82 0,0.37 0.17,0.65 0.48,0.84 0.13,0.08 0.27,0.16 0.39,0.26 0.04,0.04 0.08,0.13 0.06,0.18 -0.01,0.05 -0.09,0.11 -0.15,0.12 -0.11,0.02 -0.22,0.03 -0.33,0.01 -0.15,-0.02 -0.3,-0.06 -0.46,-0.1 0,0.32 -0,0.63 0,0.94 0,0.02 0.04,0.06 0.07,0.07 0.46,0.14 0.93,0.19 1.4,0.05 0.42,-0.13 0.72,-0.38 0.79,-0.84 0.04,-0.27 0.02,-0.53 -0.16,-0.76z"/>
  <path class="fil0" d="M9.26 1.69c0,-0.06 -0.02,-0.08 -0.08,-0.08 -0.09,0 -0.19,-0 -0.28,0 -0.08,0 -0.11,-0.03 -0.11,-0.11 0,-0.21 -0,-0.43 0,-0.64 0,-0.08 -0.03,-0.1 -0.1,-0.1 -0.33,0 -0.66,0 -0.99,0 -0.07,-0 -0.09,0.02 -0.09,0.09 0,0.22 -0,0.43 0,0.65 0,0.09 -0.03,0.11 -0.12,0.11 -0.12,-0 -0.23,-0 -0.36,-0 0,0.3 0,0.59 -0,0.87 -0,0.05 0.02,0.06 0.07,0.06 0.09,-0 0.18,0 0.27,0 0.13,0 0.13,0 0.13,0.13l0 1.93c0,0.12 0,0.12 0.13,0.12 0.31,0 0.63,-0 0.94,0 0.09,0 0.12,-0.03 0.12,-0.12 -0,-0.42 -0,-0.84 -0,-1.26 0,-0.23 0,-0.46 -0,-0.7 -0,-0.08 0.03,-0.11 0.11,-0.11 0.09,0 0.18,-0 0.27,0 0.06,0 0.08,-0.02 0.08,-0.08 -0,-0.26 -0,-0.52 0,-0.78z"/>
  <path class="fil0" d="M19.77 1.48c-0.21,-0 -0.42,-0.03 -0.62,-0.01 -0.54,0.07 -0.96,0.35 -1.18,0.87 -0.17,0.41 -0.18,0.84 -0.09,1.27 0.09,0.42 0.31,0.74 0.69,0.95 0.39,0.21 0.81,0.24 1.25,0.18 0.02,-0 0.06,-0.05 0.06,-0.08 0,-0.31 0,-0.62 0,-0.93 0,-0.06 -0.02,-0.08 -0.08,-0.08 -0.08,0 -0.16,-0 -0.23,-0.02 -0.29,-0.05 -0.52,-0.23 -0.54,-0.51 -0.02,-0.29 0.13,-0.53 0.39,-0.58 0.12,-0.02 0.25,-0.01 0.37,0 0.07,0.01 0.09,-0 0.09,-0.07 -0,-0.15 -0,-0.3 -0,-0.45 0,-0.14 -0.01,-0.28 0,-0.41 0,-0.09 -0.03,-0.12 -0.11,-0.13z"/>
  <path class="fil0" d="M17.47 1.72c0,-0.08 -0.03,-0.1 -0.11,-0.1 -0.33,0 -0.65,0 -0.98,-0 -0.08,-0 -0.1,0.02 -0.1,0.1 0,0.49 0,0.97 0,1.46 0,0.49 0,0.97 -0,1.46 0,0.07 0.02,0.11 0.1,0.1 0.33,-0 0.66,-0 0.99,-0 0.07,0 0.1,-0.02 0.1,-0.1 -0,-0.98 -0,-1.95 0,-2.93z"/>
  <path class="fil0" d="M16.88 0c-0.36,-0 -0.64,0.28 -0.64,0.64 -0.02,0.31 0.25,0.65 0.64,0.65 0.35,0 0.64,-0.29 0.64,-0.64 -0,-0.36 -0.28,-0.64 -0.64,-0.64z"/>
 </g>
</svg>
