<?xml version="1.0" encoding="UTF-8"?>
<!DOCTYPE svg PUBLIC "-//W3C//DTD SVG 1.1//EN" "http://www.w3.org/Graphics/SVG/1.1/DTD/svg11.dtd">
<!-- Creator: CorelDRAW -->
<svg xmlns="http://www.w3.org/2000/svg" xml:space="preserve" width="10.6699mm" height="2.02mm" version="1.1" style="shape-rendering:geometricPrecision; text-rendering:geometricPrecision; image-rendering:optimizeQuality; fill-rule:evenodd; clip-rule:evenodd"
viewBox="0 0 15.77 2.99"
 xmlns:xlink="http://www.w3.org/1999/xlink"
 xmlns:xodm="http://www.corel.com/coreldraw/odm/2003">
 <defs>
  <style type="text/css">
   <![CDATA[
    .fil0 {fill:#DF252B;fill-rule:nonzero}
   ]]>
  </style>
 </defs>
 <g id="Layer_x0020_1">
  <metadata id="CorelCorpID_0Corel-Layer"/>
  <path class="fil0" d="M0.67 1.7c0.29,0.01 0.48,0 0.48,0.33 0,0.38 -0.14,0.36 -0.48,0.37l0 -0.7zm0 -1.12c0.24,0 0.43,-0.01 0.43,0.27 0,0.34 -0.14,0.32 -0.43,0.34l0 -0.61zm0.27 2.34c0.54,0 0.87,-0.25 0.87,-0.82 0,-0.35 -0.06,-0.51 -0.37,-0.68l0 -0.01c0.23,-0.13 0.32,-0.35 0.32,-0.6 0,-0.57 -0.4,-0.74 -0.9,-0.74l-0.87 0 0 2.85 0.94 0z"/>
  <polygon class="fil0" points="3.67,2.92 3.67,2.35 2.76,2.35 2.76,1.73 3.6,1.73 3.6,1.16 2.76,1.16 2.76,0.64 3.63,0.64 3.63,0.07 2.09,0.07 2.09,2.92 "/>
  <path class="fil0" d="M5.75 1.06l0 -0.24c0,-0.58 -0.34,-0.82 -0.91,-0.82 -0.61,0 -0.9,0.29 -0.9,0.91l0 1.17c0,0.58 0.24,0.91 0.86,0.91 0.68,0 0.97,-0.34 0.97,-0.83l0 -0.35 -0.67 0 0 0.26c0,0.17 -0.02,0.41 -0.25,0.41 -0.18,0 -0.24,-0.09 -0.24,-0.25l0 -1.41c0,-0.19 0.05,-0.3 0.26,-0.3 0.13,0 0.21,0.13 0.21,0.37l0 0.18 0.67 0z"/>
  <polygon class="fil0" points="6.71,2.92 6.71,2.21 6.86,1.93 7.23,2.92 7.94,2.92 7.29,1.33 7.9,0.07 7.22,0.07 6.72,1.21 6.71,1.21 6.71,0.07 6.04,0.07 6.04,2.92 "/>
  <polygon class="fil0" points="8.79,2.92 8.79,1.73 9.25,1.73 9.25,2.92 9.92,2.92 9.92,0.07 9.25,0.07 9.25,1.16 8.79,1.16 8.79,0.07 8.12,0.07 8.12,2.92 "/>
  <path class="fil0" d="M11.34 2.07c0,0.16 -0.02,0.41 -0.23,0.41 -0.22,0 -0.24,-0.24 -0.24,-0.41l0 -1.17c0,-0.17 0.03,-0.38 0.24,-0.38 0.22,0 0.24,0.21 0.24,0.38l0 1.17zm0.67 -1.22c0,-0.55 -0.32,-0.85 -0.9,-0.85 -0.59,0 -0.91,0.3 -0.91,0.85l0 1.16c0,0.64 0.24,0.98 0.91,0.98 0.68,0 0.9,-0.33 0.9,-0.98l0 -1.16z"/>
  <polygon class="fil0" points="12.99,2.92 12.99,1.71 13.82,1.71 13.82,1.14 12.99,1.14 12.99,0.64 13.89,0.64 13.89,0.07 12.32,0.07 12.32,2.92 "/>
  <polygon class="fil0" points="14.86,2.92 14.86,1.71 15.7,1.71 15.7,1.14 14.86,1.14 14.86,0.64 15.77,0.64 15.77,0.07 14.19,0.07 14.19,2.92 "/>
 </g>
</svg>
