<?xml version="1.0" encoding="UTF-8"?>
<!DOCTYPE svg PUBLIC "-//W3C//DTD SVG 1.1//EN" "http://www.w3.org/Graphics/SVG/1.1/DTD/svg11.dtd">
<!-- Creator: CorelDRAW -->
<svg xmlns="http://www.w3.org/2000/svg" xml:space="preserve" width="10.6895mm" height="2.6842mm" version="1.1" style="shape-rendering:geometricPrecision; text-rendering:geometricPrecision; image-rendering:optimizeQuality; fill-rule:evenodd; clip-rule:evenodd"
viewBox="0 0 15.21 3.82"
 xmlns:xlink="http://www.w3.org/1999/xlink"
 xmlns:xodm="http://www.corel.com/coreldraw/odm/2003">
 <defs>
  <style type="text/css">
   <![CDATA[
    .fil0 {fill:#3B3534;fill-rule:nonzero}
   ]]>
  </style>
 </defs>
 <g id="Layer_x0020_1">
  <metadata id="CorelCorpID_0Corel-Layer"/>
  <path class="fil0" d="M-0 1.22c0,0.54 0.3,0.65 0.8,0.65l0.92 0c0.56,0 0.67,-0.24 0.67,-0.55l0 -0.17 -0.56 0c0,0.22 -0.07,0.25 -0.33,0.25l-0.6 0c-0.26,0 -0.31,-0.09 -0.31,-0.37l0 -0.2c0,-0.22 0.05,-0.37 0.35,-0.37l0.61 0c0.16,0 0.26,0.04 0.26,0.17l0 0.05 0.56 0c0,-0.52 -0.1,-0.69 -0.9,-0.69l-0.67 0c-0.5,0 -0.8,0.13 -0.8,0.67l0 0.55z"/>
  <path class="fil0" d="M3.07 0.84l0 0.2c0,0.27 0.05,0.37 0.31,0.37l0.72 0c0.27,0 0.33,-0.09 0.33,-0.37l0 -0.2c0,-0.22 -0.05,-0.37 -0.35,-0.37l-0.65 0c-0.3,0 -0.35,0.14 -0.35,0.37zm-0.58 0.38l0 -0.55c0,-0.54 0.3,-0.67 0.8,-0.67l0.9 0c0.51,0 0.81,0.13 0.81,0.67l0 0.55c0,0.54 -0.3,0.65 -0.81,0.65l-0.9 0c-0.5,0 -0.8,-0.12 -0.8,-0.65z"/>
  <path class="fil0" d="M5.13 1.22c0,0.54 0.3,0.65 0.81,0.65l0.68 0c0.63,0 0.9,-0.03 0.9,-0.55l0 -0.52 -1.26 0 0 0.38 0.69 0 0 0.05c0,0.18 -0.14,0.21 -0.29,0.21l-0.6 0c-0.29,0 -0.37,-0.08 -0.37,-0.39l0 -0.22c0,-0.31 0.08,-0.38 0.37,-0.38l0.61 0c0.17,0 0.28,0.01 0.28,0.2l0.55 0 0 -0.05c0,-0.35 -0.08,-0.59 -0.72,-0.59l-0.85 0c-0.51,0 -0.81,0.13 -0.81,0.67l0 0.55z"/>
  <polygon class="fil0" points="7.66,1.86 8.22,1.86 8.22,0.52 9.28,1.86 10.16,1.86 10.16,0.01 9.6,0.01 9.6,1.35 8.54,0.01 7.66,0.01 "/>
  <polygon class="fil0" points="10.37,1.86 12.41,1.86 12.41,1.41 10.93,1.41 10.93,1.12 12.3,1.12 12.3,0.75 10.93,0.75 10.93,0.44 12.37,0.44 12.37,0.01 10.37,0.01 "/>
  <polygon class="fil0" points="12.49,1.86 13.24,1.86 13.85,1.19 14.45,1.86 15.21,1.86 14.3,0.93 15.14,0.01 14.42,0.01 13.85,0.65 13.27,0.01 12.55,0.01 13.39,0.93 "/>
  <path class="fil0" d="M0.09 2.35l0.33 1.1 0.17 0 0.31 -1.1 -0.24 0 -0.13 0.52c-0.01,0.07 -0.03,0.13 -0.04,0.2 -0.01,-0.07 -0.01,-0.13 -0.04,-0.2l-0.13 -0.52 -0.24 0z"/>
  <path class="fil0" d="M0.94 3.45l0.21 0 0 -0.73 -0.21 0 0 0.73zm0.1 -0.82c0.07,0 0.13,-0.07 0.13,-0.13 0,-0.08 -0.07,-0.13 -0.13,-0.13 -0.08,0 -0.13,0.05 -0.13,0.13 0,0.07 0.05,0.13 0.13,0.13z"/>
  <path class="fil0" d="M1.69 2.76c-0.05,-0.04 -0.12,-0.05 -0.2,-0.05 -0.13,0 -0.25,0.07 -0.25,0.21 0,0.24 0.24,0.21 0.24,0.31 0,0.04 -0.03,0.07 -0.07,0.07 -0.04,0 -0.07,-0.03 -0.09,-0.05l-0.09 0.14c0.05,0.05 0.14,0.09 0.22,0.09 0.14,0 0.24,-0.12 0.24,-0.26 0,-0.22 -0.24,-0.21 -0.24,-0.3 0,-0.03 0.01,-0.05 0.05,-0.05 0.04,0 0.08,0.03 0.1,0.05l0.08 -0.16z"/>
  <path class="fil0" d="M1.79 3.45l0.21 0 0 -0.73 -0.21 0 0 0.73zm0.1 -0.82c0.07,0 0.13,-0.07 0.13,-0.13 0,-0.08 -0.07,-0.13 -0.13,-0.13 -0.08,0 -0.13,0.05 -0.13,0.13 0,0.07 0.05,0.13 0.13,0.13z"/>
  <path class="fil0" d="M2.38 2.68c-0.22,0 -0.29,0.2 -0.29,0.39 0,0.18 0.07,0.38 0.29,0.38 0.22,0 0.27,-0.2 0.27,-0.38 0,-0.2 -0.05,-0.39 -0.27,-0.39zm0 0.18c0.07,0 0.07,0.16 0.07,0.21 0,0.04 0,0.2 -0.07,0.2 -0.08,0 -0.08,-0.16 -0.08,-0.2 0,-0.05 0,-0.21 0.08,-0.21z"/>
  <path class="fil0" d="M2.98 2.72l-0.21 0 0 0.73 0.21 0 0 -0.46c0,-0.04 0.01,-0.08 0.05,-0.08 0.07,0 0.05,0.09 0.05,0.13l0 0.41 0.21 0 0 -0.47c0,-0.1 0.01,-0.27 -0.14,-0.27 -0.08,0 -0.14,0.05 -0.17,0.12l0 -0.1z"/>
  <path class="fil0" d="M3.8 2.72l0 0.17 0.08 0 0 0.56 0.21 0 0 -0.56 0.09 0 0 -0.17 -0.09 0 0 -0.13c0,-0.05 -0.01,-0.13 0.07,-0.13 0.01,0 0.01,0.01 0.03,0.01l0 -0.2c-0.03,-0.01 -0.05,-0.01 -0.09,-0.01 -0.18,0 -0.21,0.1 -0.21,0.25l0 0.21 -0.08 0z"/>
  <path class="fil0" d="M4.51 2.71c-0.22,0 -0.27,0.2 -0.27,0.38 0,0.2 0.05,0.39 0.27,0.39 0.22,0 0.29,-0.2 0.29,-0.39 0,-0.18 -0.07,-0.38 -0.29,-0.38zm0 0.18c0.08,0 0.08,0.16 0.08,0.2 0,0.04 0,0.2 -0.08,0.2 -0.07,0 -0.07,-0.16 -0.07,-0.2 0,-0.04 0,-0.2 0.07,-0.2z"/>
  <path class="fil0" d="M4.89 2.72l0 0.73 0.2 0 0 -0.37c0,-0.1 0,-0.2 0.14,-0.2l0.04 0 0 -0.2c-0.09,0 -0.13,0.05 -0.17,0.12l-0.01 0 0 -0.09 -0.2 0z"/>
  <polygon class="fil0" points="5.8,3.45 6.01,3.45 6.01,2.35 5.8,2.35 "/>
  <path class="fil0" d="M6.39 2.72l-0.21 0 0 0.73 0.21 0 0 -0.46c0,-0.04 0.01,-0.08 0.05,-0.08 0.08,0 0.05,0.09 0.05,0.13l0 0.41 0.21 0 0 -0.47c0,-0.1 0.01,-0.27 -0.13,-0.27 -0.09,0 -0.14,0.05 -0.18,0.12l0 -0.1z"/>
  <path class="fil0" d="M7.16 3.45l0.2 0 0 -1.18 -0.2 0 0 0.54 -0.01 0c-0.01,-0.07 -0.07,-0.1 -0.13,-0.1 -0.18,0 -0.21,0.25 -0.21,0.38 0,0.12 0.04,0.39 0.21,0.39 0.07,0 0.1,-0.05 0.13,-0.1l0.01 0 0 0.08zm-0.07 -0.17c-0.07,0 -0.08,-0.16 -0.08,-0.2 0,-0.04 0.01,-0.2 0.08,-0.2 0.07,0 0.08,0.16 0.08,0.2 0,0.04 -0.01,0.2 -0.08,0.2z"/>
  <path class="fil0" d="M7.49 2.72l0 0.44c0,0.13 0.03,0.31 0.26,0.31 0.18,0 0.26,-0.12 0.26,-0.29l0 -0.47 -0.21 0 0 0.44c0,0.04 0.01,0.12 -0.05,0.12 -0.07,0 -0.05,-0.12 -0.05,-0.16l0 -0.41 -0.21 0z"/>
  <path class="fil0" d="M8.55 2.76c-0.07,-0.04 -0.13,-0.05 -0.2,-0.05 -0.13,0 -0.25,0.07 -0.25,0.21 0,0.24 0.24,0.21 0.24,0.31 0,0.04 -0.03,0.07 -0.07,0.07 -0.04,0 -0.07,-0.03 -0.1,-0.05l-0.09 0.14c0.07,0.05 0.14,0.09 0.22,0.09 0.16,0 0.25,-0.12 0.25,-0.26 0,-0.22 -0.24,-0.21 -0.24,-0.3 0,-0.03 0.01,-0.05 0.05,-0.05 0.04,0 0.07,0.03 0.1,0.05l0.08 -0.16z"/>
  <polygon class="fil0" points="8.68,2.51 8.68,2.72 8.62,2.72 8.62,2.89 8.68,2.89 8.68,3.45 8.89,3.45 8.89,2.89 8.98,2.89 8.98,2.72 8.89,2.72 8.89,2.51 "/>
  <path class="fil0" d="M9.07 2.72l0 0.73 0.2 0 0 -0.37c0,-0.1 0.01,-0.2 0.14,-0.2l0.04 0 0 -0.2c-0.09,0 -0.13,0.05 -0.17,0.12l-0.01 0 0 -0.09 -0.2 0z"/>
  <polygon class="fil0" points="9.51,2.72 9.71,3.44 9.6,3.82 9.81,3.82 10.12,2.72 9.91,2.72 9.82,3.14 9.79,3.02 9.71,2.72 "/>
  <path class="fil0" d="M10.46 2.6l0.03 0 0.08 0.14 0.09 0 -0.09 -0.16c0.05,0 0.08,-0.03 0.08,-0.09 0,-0.08 -0.05,-0.1 -0.13,-0.1l-0.13 0 0 0.35 0.08 0 0 -0.14zm0 -0.07l0 -0.08 0.04 0c0.04,0 0.07,0 0.07,0.04 0,0.04 -0.01,0.04 -0.05,0.04l-0.05 0zm0.37 0.03c0,-0.2 -0.16,-0.31 -0.31,-0.31 -0.17,0 -0.33,0.12 -0.33,0.31 0,0.21 0.16,0.33 0.33,0.33 0.16,0 0.31,-0.12 0.31,-0.33zm-0.09 0c0,0.16 -0.1,0.25 -0.22,0.25 -0.13,0 -0.24,-0.09 -0.24,-0.25 0,-0.14 0.1,-0.24 0.24,-0.24 0.12,0 0.22,0.09 0.22,0.24z"/>
 </g>
</svg>
