<?xml version="1.0" encoding="UTF-8"?>
<!DOCTYPE svg PUBLIC "-//W3C//DTD SVG 1.1//EN" "http://www.w3.org/Graphics/SVG/1.1/DTD/svg11.dtd">
<!-- Creator: CorelDRAW -->
<svg xmlns="http://www.w3.org/2000/svg" xml:space="preserve" width="7.4831mm" height="2.9327mm" version="1.1" style="shape-rendering:geometricPrecision; text-rendering:geometricPrecision; image-rendering:optimizeQuality; fill-rule:evenodd; clip-rule:evenodd"
viewBox="0 0 8.98 3.52"
 xmlns:xlink="http://www.w3.org/1999/xlink"
 xmlns:xodm="http://www.corel.com/coreldraw/odm/2003">
 <defs>
  <style type="text/css">
   <![CDATA[
    .fil0 {fill:#D9302C;fill-rule:nonzero}
   ]]>
  </style>
 </defs>
 <g id="Layer_x0020_1">
  <metadata id="CorelCorpID_0Corel-Layer"/>
  <path class="fil0" d="M8.19 1.69c-0.04,0.04 -0.14,0.13 -0.1,0.19 0.04,0.05 0.17,-0.04 0.22,-0.1 0.07,-0.08 0.11,-0.22 0.11,-0.22 0,0 -0.14,0.05 -0.23,0.12zm-0.72 0.04c-0.08,0.07 -0.13,0.16 -0.1,0.19 0.05,0.04 0.16,-0.04 0.22,-0.11 0.07,-0.11 0.1,-0.2 0.1,-0.2 0,0 -0.07,0.02 -0.22,0.12zm-0.98 -0.65c0.22,-0.13 0.77,-0.68 0.64,-0.82 -0.14,-0.06 -0.53,0.55 -0.64,0.82zm-2.79 0.95c-0.08,0.12 -0.18,0.31 -0.11,0.36 0.07,0.06 0.26,-0.11 0.32,-0.19 0.12,-0.14 0.2,-0.35 0.13,-0.38 -0.11,-0.06 -0.29,0.14 -0.35,0.22zm-1.71 0.3c0.28,-0.08 0.72,-0.16 0.87,-0.17 0.13,-0.2 0.54,-0.9 -0.05,-1.11l-0.83 1.28zm-1.17 0.9c0.13,0.16 1.22,-0.01 1.95,-0.92 -0.52,0.08 -0.81,0.19 -0.92,0.23 -0.24,0.4 -0.34,0.53 -0.43,0.52 -0.11,-0.01 0.07,-0.22 0.17,-0.42 -0.41,0.12 -0.89,0.44 -0.77,0.6zm-0.42 -2.32c0.7,-0.25 1.47,-0.42 2.28,-0.31l0.07 -0.14c0.17,-0.02 0.33,-0.05 0.5,-0.06l-0.23 0.34c0.22,0.1 0.4,0.32 0.42,0.56 0,0.32 -0.14,0.59 -0.31,0.84l0.24 -0.02c0.17,-0.26 0.62,-0.59 0.8,-0.35l0.07 -0.08c0,0 0.29,-0.05 0.3,-0.05 -0.26,0.49 -0.41,0.62 -0.37,0.67 0.04,0.05 0.53,-0.37 0.71,-0.73l0.29 -0.02 -0.17 0.29c0.3,-0.24 0.4,-0.4 0.56,-0.34 0.22,0.1 -0.28,0.62 -0.22,0.66 0.05,0.02 0.44,-0.26 0.64,-0.55l-0.28 0.04 0.1 -0.17 0.26 -0.04c0.29,-0.54 1.05,-1.56 1.29,-1.41 0.2,0.14 -0.31,0.81 -0.99,1.31l-0.04 0.07 0.59 -0.06c0.01,0 0.01,0.02 0,0.04 -0.19,0.16 -0.56,0.55 -0.36,0.68 0.17,0.06 0.44,-0.35 0.47,-0.42 -0.16,-0.05 -0.04,-0.48 0.18,-0.42 0.16,0.05 0.04,0.25 0,0.34 0.29,-0.04 0.54,-0.32 0.54,-0.32 0,-0.23 0.14,-0.47 0.31,-0.41 0.11,0.06 0.01,0.22 -0.16,0.41 -0.02,0.02 -0.01,0.11 -0.02,0.22 0.19,-0.06 0.41,-0.16 0.59,-0.24 0.01,-0.23 0.12,-0.49 0.3,-0.43 0.13,0.04 0,0.31 -0.17,0.44 0,0.29 0.05,0.49 -0.02,0.63 -0.08,0.18 -0.38,0.32 -0.56,0.23 -0.18,-0.11 -0.02,-0.35 0.1,-0.43 0.1,-0.08 0.35,-0.2 0.35,-0.2 0,0 0.01,-0.1 0.01,-0.14 -0.1,0.06 -0.57,0.24 -0.57,0.24 -0.02,0.17 -0.01,0.24 -0.1,0.4 -0.11,0.2 -0.44,0.28 -0.56,0.17 -0.07,-0.07 -0.05,-0.26 0.11,-0.4 0.13,-0.1 0.38,-0.2 0.38,-0.2 0,0 0.02,-0.1 0.02,-0.14 -0.17,0.14 -0.36,0.29 -0.61,0.3 -0.14,0.3 -0.54,0.71 -0.83,0.52 -0.26,-0.17 0.17,-0.63 0.22,-0.67 -0.1,0 -0.28,0.05 -0.28,0.05l-0.48 0.89 0.01 0c0,0 1.63,-0.19 3.13,-0.19l-0.18 0.17c0.08,0.06 0.17,0.12 0.26,0.17 0,0 -1.56,-0.07 -3.34,0.07l-0.26 0.49 -0.32 0.02 0.28 -0.49c0,0 -0.8,0.02 -2.59,0.26 0.02,-0.04 0.02,-0.04 0.05,-0.08 1.59,-0.31 2.67,-0.38 2.67,-0.38l0.24 -0.43c-0.17,0.13 -0.5,0.42 -0.65,0.28 -0.11,-0.13 0.25,-0.55 0.22,-0.58 -0.04,-0.04 -0.47,0.42 -0.62,0.66 -0.1,0 -0.26,0.02 -0.26,0.02l0.13 -0.24c-0.14,0.11 -0.29,0.23 -0.45,0.29 -0.04,0.02 -0.14,0.02 -0.19,-0.1 0,0 -0.31,0.29 -0.53,0.18 -0.12,-0.06 -0.07,-0.28 -0.05,-0.32l-0.25 0.02c-1.11,1.28 -2.55,1.43 -2.73,1.15 -0.18,-0.3 0.48,-0.71 1.38,-0.99 0,0 0.79,-1.44 0.78,-1.45 -1.1,-0.17 -2.47,0.68 -2.47,0.68l0.4 -0.74z"/>
 </g>
</svg>
