<?xml version="1.0" encoding="UTF-8"?>
<!DOCTYPE svg PUBLIC "-//W3C//DTD SVG 1.1//EN" "http://www.w3.org/Graphics/SVG/1.1/DTD/svg11.dtd">
<!-- Creator: CorelDRAW -->
<svg xmlns="http://www.w3.org/2000/svg" xml:space="preserve" width="8.1614mm" height="2.515mm" version="1.1" style="shape-rendering:geometricPrecision; text-rendering:geometricPrecision; image-rendering:optimizeQuality; fill-rule:evenodd; clip-rule:evenodd"
viewBox="0 0 10.82 3.33"
 xmlns:xlink="http://www.w3.org/1999/xlink"
 xmlns:xodm="http://www.corel.com/coreldraw/odm/2003">
 <defs>
  <style type="text/css">
   <![CDATA[
    .fil0 {fill:#2E9CD8;fill-rule:nonzero}
   ]]>
  </style>
 </defs>
 <g id="Layer_x0020_1">
  <metadata id="CorelCorpID_0Corel-Layer"/>
  <path class="fil0" d="M9.69 2.09c0,-0 0.01,-0.01 0.01,-0.01l0 -0.28c0,-0.01 -0.01,-0.02 -0.02,-0.02l-1.33 -0c-0.01,0 -0.01,0 -0.01,0.01 -0,0 -0.01,0.01 -0.01,0.01l0 0.29c0,0.01 0,0.01 0.01,0.01 0,0 0.01,0.01 0.01,0.01l0.45 0 0 1.21c0,0.01 0,0.01 0.01,0.01 0,0 0.01,0.01 0.01,0.01l0.34 0c0.02,0 0.04,-0.01 0.05,-0.02 0.01,-0.01 0.03,-0.03 0.03,-0.07l0 -1.13 0 -0.01 0.44 0c0.01,-0 0.01,-0 0.01,-0.01zm-2.37 0.93c0,-0.01 -0,-0.01 -0.01,-0.01 -0,-0 -0.01,-0.01 -0.01,-0.01l-0.84 0 0 -0.34 0.72 0c0.01,0 0.01,-0 0.01,-0.01 0,-0 0.01,-0.01 0.01,-0.01l0 -0.29c0,-0.01 -0,-0.01 -0.01,-0.01 -0,-0 -0.01,-0.01 -0.01,-0.01l-0.72 0 0 -0.24 0.84 0c0.01,0 0.01,-0 0.01,-0.01 0,-0 0.01,-0.01 0.01,-0.01l0 -0.29c0,-0.01 -0,-0.01 -0.01,-0.01 -0,-0 -0.01,-0.01 -0.01,-0.01l-1.28 0c-0.01,0 -0.01,0 -0.01,0.01 -0,0 -0.01,0.01 -0.01,0.01l0 1.35c0,0.06 0.03,0.1 0.07,0.13 0.04,0.03 0.09,0.05 0.13,0.05l1.04 0c0.02,0 0.04,-0.01 0.06,-0.03 0.01,-0.01 0.01,-0.02 0.02,-0.02 0,-0 0,-0.01 0.01,-0.01 0,-0 0,-0 0,-0.01l0 -0.24 0 0zm1.34 0c0,-0.01 -0,-0.01 -0.01,-0.01 -0,-0 -0.01,-0.01 -0.01,-0.01l-0.74 0 0 -1.21c0,-0.01 -0,-0.01 -0.01,-0.01 -0,-0 -0.01,-0.01 -0.01,-0.01l-0.4 0c-0.01,0 -0.02,0.01 -0.02,0.02l0 0.16 0 0.45 0 0.74c0,0.07 0.03,0.12 0.07,0.14 0.04,0.03 0.08,0.04 0.12,0.04l0.94 0c0.02,0 0.04,-0.01 0.05,-0.03 0.01,-0.02 0.02,-0.04 0.02,-0.05 0,-0.03 0,-0.16 0,-0.22zm-3.11 -0.57c-0.17,-0.24 -0.35,-0.49 -0.38,-0.54 -0.02,-0.03 -0.05,-0.06 -0.07,-0.08 -0.06,-0.05 -0.14,-0.08 -0.23,-0.08 -0.19,0 -0.35,0.16 -0.35,0.35l0 0.54 0 0.67c0,0.01 0,0.01 0.01,0.01 0,0 0.01,0.01 0.01,0.01l0.41 0c0.01,0 0.01,-0 0.01,-0.01 0,-0 0.01,-0.01 0.01,-0.01l0 -0.94 0.44 0.64 -0.29 0c-0.01,0 -0.01,0 -0.01,0.01 -0,0 -0.01,0.01 -0.01,0.01l0 0.28c0,0.01 0,0.01 0.01,0.01 0,0 0.01,0.01 0.01,0.01l0.55 0c0.15,0 0.26,-0.12 0.26,-0.26 0,-0.06 -0.02,-0.11 -0.05,-0.15 -0,0 -0.16,-0.22 -0.33,-0.46zm4.91 -0.71c-0.09,0 -0.17,0.03 -0.23,0.08 -0.02,0.02 -0.05,0.05 -0.07,0.08 -0.04,0.06 -0.22,0.31 -0.38,0.54 -0.17,0.24 -0.33,0.46 -0.33,0.46 -0.03,0.04 -0.05,0.1 -0.05,0.15 0,0.15 0.12,0.26 0.26,0.26l0.54 0c0.01,0 0.01,-0 0.01,-0.01 0,-0 0.01,-0.01 0.01,-0.01l0 -0.29c0,-0.01 -0,-0.01 -0.01,-0.01 -0,-0 -0.01,-0.01 -0.01,-0.01l-0.29 0 0.44 -0.64 0 0.94c0,0.01 0,0.01 0.01,0.01 0,0 0.01,0.01 0.01,0.01l0.41 0c0.01,0 0.01,-0 0.01,-0.01 0,-0 0.01,-0.01 0.01,-0.01l0 -1.21c0,-0.2 -0.16,-0.36 -0.35,-0.36z"/>
  <path class="fil0" d="M2.03 0l-2.03 3.33 4.04 0 -2.02 -3.33zm0.39 2.94c-0.09,0 -0.18,-0.03 -0.26,-0.08 -0,0 -0,0 -0.01,0 -0.23,0.16 -0.48,0.26 -0.71,0.26l-0.04 0c-0.17,-0.01 -0.3,-0.08 -0.39,-0.17 -0.08,-0.09 -0.12,-0.2 -0.13,-0.3l0 -0.02c0,-0.29 0.2,-0.59 0.46,-0.84 0.27,-0.25 0.61,-0.44 0.95,-0.44l0.01 0c0.16,0 0.29,0.05 0.38,0.14 0.09,0.09 0.14,0.22 0.14,0.36 0,0.1 -0.02,0.2 -0.06,0.3 0.07,0.08 0.12,0.19 0.12,0.31 0,0.26 -0.21,0.47 -0.47,0.47zm0.16 -1.32c-0.06,-0.06 -0.14,-0.09 -0.26,-0.09l-0 0c-0.27,0 -0.59,0.17 -0.83,0.4 -0.25,0.23 -0.41,0.52 -0.41,0.71l0 0.02c0,0.06 0.03,0.13 0.08,0.19 0.05,0.06 0.13,0.11 0.26,0.11l0.03 0c0.17,0 0.38,-0.08 0.59,-0.21 -0.06,-0.08 -0.09,-0.17 -0.09,-0.27 0,-0.26 0.21,-0.47 0.47,-0.47 0.08,0 0.15,0.02 0.21,0.05 0.02,-0.07 0.03,-0.13 0.03,-0.19 -0,-0.1 -0.03,-0.18 -0.09,-0.24z"/>
 </g>
</svg>
