<?xml version="1.0" encoding="UTF-8"?>
<!DOCTYPE svg PUBLIC "-//W3C//DTD SVG 1.1//EN" "http://www.w3.org/Graphics/SVG/1.1/DTD/svg11.dtd">
<!-- Creator: CorelDRAW -->
<svg xmlns="http://www.w3.org/2000/svg" xml:space="preserve" width="7.1995mm" height="2.3559mm" version="1.1" style="shape-rendering:geometricPrecision; text-rendering:geometricPrecision; image-rendering:optimizeQuality; fill-rule:evenodd; clip-rule:evenodd"
viewBox="0 0 7.06 2.31"
 xmlns:xlink="http://www.w3.org/1999/xlink"
 xmlns:xodm="http://www.corel.com/coreldraw/odm/2003">
 <defs>
  <style type="text/css">
   <![CDATA[
    .fil2 {fill:#332D2B;fill-rule:nonzero}
    .fil0 {fill:#FFE400;fill-rule:nonzero}
    .fil1 {fill:#D01F43;fill-rule:nonzero}
   ]]>
  </style>
 </defs>
 <g id="Layer_x0020_1">
  <metadata id="CorelCorpID_0Corel-Layer"/>
  <polygon class="fil0" points="-0,0 7.06,0 7.06,2.31 -0,2.31 "/>
  <polygon class="fil1" points="0.22,1.29 0.54,1.29 0.54,0.84 1.16,0.84 1.16,0.65 0.54,0.65 0.54,0.4 1.26,0.4 1.26,0.19 0.22,0.19 "/>
  <path class="fil1" d="M1.1 1.29l0.33 0 0.12 -0.24 0.55 0 0.11 0.24 0.34 0 -0.55 -1.1 -0.33 0 -0.56 1.1zm0.72 -0.83l0 0 0.19 0.4 -0.38 0 0.19 -0.4z"/>
  <polygon class="fil1" points="2.6,1.29 2.91,1.29 2.91,0.56 2.91,0.56 3.53,1.29 3.85,1.29 3.85,0.19 3.55,0.19 3.55,0.93 3.54,0.93 2.93,0.19 2.6,0.19 "/>
  <path class="fil1" d="M5.32 0.19l-0.32 0 0 0.68c0,0.16 -0.07,0.24 -0.31,0.24 -0.26,0 -0.3,-0.12 -0.3,-0.24l0 -0.68 -0.32 0 0 0.68c0,0.3 0.23,0.44 0.63,0.44 0.4,0 0.63,-0.14 0.63,-0.44l0 -0.68z"/>
  <path class="fil1" d="M6.82 0.56c-0.04,-0.25 -0.31,-0.4 -0.64,-0.4 -0.46,0 -0.73,0.25 -0.73,0.58 0,0.32 0.27,0.57 0.73,0.57 0.36,0 0.62,-0.18 0.65,-0.45l-0.31 0c-0.02,0.14 -0.14,0.25 -0.33,0.25 -0.29,0 -0.4,-0.18 -0.4,-0.37 0,-0.19 0.11,-0.38 0.4,-0.38 0.16,0 0.3,0.08 0.32,0.19l0.31 0z"/>
  <path class="fil2" d="M3.43 2.13l0.07 0 0 -0.62 0.12 0c0.06,0 0.09,0 0.13,0.03 0.04,0.02 0.08,0.08 0.08,0.13 0,0.06 -0.04,0.12 -0.11,0.15 -0.03,0.01 -0.06,0.01 -0.15,0.01l0.23 0.31 0.09 0 -0.19 -0.26c0.13,-0.01 0.2,-0.11 0.2,-0.21 0,-0.08 -0.05,-0.16 -0.12,-0.2 -0.03,-0.01 -0.08,-0.03 -0.17,-0.03l-0.17 0 0 0.69z"/>
  <path class="fil2" d="M3.88 1.88c0,0.14 0.12,0.26 0.26,0.26 0.15,0 0.27,-0.13 0.27,-0.27 0,-0.14 -0.12,-0.27 -0.27,-0.27 -0.13,0 -0.26,0.11 -0.26,0.27zm0.06 -0c0,-0.13 0.11,-0.21 0.2,-0.21 0.09,0 0.2,0.07 0.2,0.2 0,0.13 -0.1,0.21 -0.2,0.21 -0.1,0 -0.2,-0.09 -0.2,-0.2z"/>
  <path class="fil2" d="M4.47 2.13l0.06 0 0 -0.09 0 0c0.06,0.08 0.14,0.1 0.2,0.1 0.16,0 0.27,-0.12 0.27,-0.27 0,-0.14 -0.11,-0.26 -0.27,-0.26 -0.05,0 -0.14,0.02 -0.2,0.1l-0 0 0 -0.27 -0.06 0 0 0.69zm0.47 -0.25c0,0.11 -0.08,0.21 -0.21,0.21 -0.11,0 -0.2,-0.09 -0.2,-0.21 0,-0.11 0.09,-0.21 0.2,-0.21 0.11,0 0.21,0.08 0.21,0.21z"/>
  <path class="fil2" d="M5.04 1.88c0,0.14 0.12,0.26 0.26,0.26 0.15,0 0.27,-0.13 0.27,-0.27 0,-0.14 -0.12,-0.27 -0.27,-0.27 -0.13,0 -0.26,0.11 -0.26,0.27zm0.06 -0c0,-0.13 0.11,-0.21 0.2,-0.21 0.09,0 0.2,0.07 0.2,0.2 0,0.13 -0.1,0.21 -0.2,0.21 -0.1,0 -0.2,-0.09 -0.2,-0.2z"/>
  <polygon class="fil2" points="5.65,1.45 5.65,1.63 5.54,1.63 5.54,1.69 5.65,1.69 5.65,2.13 5.71,2.13 5.71,1.69 5.83,1.69 5.83,1.63 5.71,1.63 5.71,1.45 "/>
  <path class="fil2" d="M5.86 1.57l0.06 0 0 -0.12 -0.06 0 0 0.12zm0 0.57l0.06 0 0 -0.51 -0.06 0 0 0.51z"/>
  <path class="fil2" d="M6.44 1.98c-0.02,0.04 -0.07,0.1 -0.18,0.1 -0.12,0 -0.21,-0.09 -0.21,-0.21 0,-0.13 0.11,-0.21 0.21,-0.21 0.06,0 0.14,0.03 0.18,0.11l0.07 0c-0.05,-0.12 -0.16,-0.17 -0.25,-0.17 -0.15,0 -0.27,0.12 -0.27,0.27 0,0.14 0.11,0.26 0.27,0.26 0.15,0 0.22,-0.1 0.25,-0.16l-0.07 0z"/>
  <path class="fil2" d="M6.53 1.98c-0,0.11 0.09,0.16 0.16,0.16 0.11,0 0.16,-0.07 0.16,-0.16 0,-0.1 -0.09,-0.14 -0.14,-0.16 -0.04,-0.01 -0.09,-0.03 -0.09,-0.08 0,-0.03 0.02,-0.08 0.08,-0.08 0.03,0 0.07,0.02 0.08,0.08l0.06 0c0,-0.08 -0.06,-0.14 -0.14,-0.14 -0.09,0 -0.14,0.07 -0.14,0.14 0,0.1 0.08,0.12 0.13,0.14 0.04,0.02 0.1,0.03 0.1,0.1 0,0.05 -0.03,0.09 -0.09,0.09 -0.02,0 -0.09,-0.01 -0.09,-0.1l-0.06 0z"/>
 </g>
</svg>
