<?xml version="1.0" encoding="UTF-8"?>
<!DOCTYPE svg PUBLIC "-//W3C//DTD SVG 1.1//EN" "http://www.w3.org/Graphics/SVG/1.1/DTD/svg11.dtd">
<!-- Creator: CorelDRAW -->
<svg xmlns="http://www.w3.org/2000/svg" xml:space="preserve" width="14.4572mm" height="2.5871mm" version="1.1" style="shape-rendering:geometricPrecision; text-rendering:geometricPrecision; image-rendering:optimizeQuality; fill-rule:evenodd; clip-rule:evenodd"
viewBox="0 0 27.81 4.98"
 xmlns:xlink="http://www.w3.org/1999/xlink"
 xmlns:xodm="http://www.corel.com/coreldraw/odm/2003">
 <defs>
  <style type="text/css">
   <![CDATA[
    .fil0 {fill:#5191CD;fill-rule:nonzero}
   ]]>
  </style>
 </defs>
 <g id="Layer_x0020_1">
  <metadata id="CorelCorpID_0Corel-Layer"/>
  <path class="fil0" d="M0.17 4.98c-0.09,0 -0.17,-0.07 -0.17,-0.17l0 -4.64c0,-0.09 0.08,-0.17 0.17,-0.17l4.69 0c0.09,0 0.17,0.07 0.17,0.17l0 0.66c0,0.09 -0.08,0.17 -0.17,0.17l-3.35 0c-0.09,0 -0.17,0.07 -0.17,0.17l0 0.66c0,0.09 0.08,0.17 0.17,0.17l3.02 0c0.09,0 0.17,0.07 0.17,0.17l0 0.66c0,0.09 -0.08,0.17 -0.17,0.17l-3.02 0c-0.09,0 -0.17,0.07 -0.17,0.17l0 1.66c0,0.09 -0.07,0.17 -0.17,0.17l-1.01 0z"/>
  <path class="fil0" d="M5.36 0.17c0,-0.09 0.08,-0.17 0.17,-0.17l5.03 0c0.09,0 0.17,0.07 0.17,0.17l0 0.66c0,0.09 -0.07,0.17 -0.17,0.17l-3.69 0c-0.09,0 -0.17,0.07 -0.17,0.17l0 0.66c0,0.09 0.08,0.17 0.17,0.17l3.35 0c0.09,0 0.17,0.07 0.17,0.17l0 0.66c0,0.09 -0.07,0.17 -0.17,0.17l-3.35 0c-0.09,0 -0.17,0.07 -0.17,0.17l0 0.66c0,0.09 0.08,0.17 0.17,0.17l3.69 0c0.09,0 0.17,0.07 0.17,0.17l0 0.66c0,0.09 -0.07,0.17 -0.17,0.17l-5.03 0c-0.09,0 -0.17,-0.07 -0.17,-0.17l0 -4.64z"/>
  <path class="fil0" d="M11.06 1.99c0,0.55 0.45,1 1.01,1l2.68 0c0.19,0 0.34,0.15 0.34,0.33l0 0.33c0,0.18 -0.15,0.33 -0.34,0.33l-2.18 0c-0.09,0 -0.17,-0.07 -0.17,-0.17 0,-0.09 -0.07,-0.17 -0.17,-0.17l-1.01 0c-0.09,0 -0.17,0.07 -0.17,0.17l0 0.17c0,0.55 0.45,1 1.01,1l3.35 0c0.56,0 1.01,-0.45 1.01,-1l0 -1c0,-0.55 -0.45,-1 -1.01,-1l-2.68 0c-0.19,0 -0.34,-0.15 -0.34,-0.33l0 -0.33c0,-0.18 0.15,-0.33 0.34,-0.33l2.18 0c0.09,0 0.17,0.07 0.17,0.17 0,0.09 0.08,0.17 0.17,0.17l1.01 0c0.09,0 0.17,-0.07 0.17,-0.17l0 -0.17c0,-0.55 -0.45,-1 -1.01,-1l-3.35 0c-0.56,0 -1.01,0.45 -1.01,1l0 1z"/>
  <path class="fil0" d="M16.75 0.17c0,-0.09 0.08,-0.17 0.17,-0.17l5.03 0c0.09,0 0.17,0.07 0.17,0.17l0 0.66c0,0.09 -0.07,0.17 -0.17,0.17l-1.68 0c-0.09,0 -0.17,0.07 -0.17,0.17l0 3.65c0,0.09 -0.08,0.17 -0.17,0.17l-1.01 0c-0.09,0 -0.17,-0.07 -0.17,-0.17l0 -3.65c0,-0.09 -0.07,-0.17 -0.17,-0.17l-1.68 0c-0.09,0 -0.17,-0.07 -0.17,-0.17l0 -0.66z"/>
  <path class="fil0" d="M26.81 0l-3.35 0c-0.56,0 -1.01,0.45 -1.01,1l0 2.99c0,0.55 0.45,1 1.01,1l3.35 0c0.56,0 1.01,-0.45 1.01,-1l0 -2.99c0,-0.55 -0.45,-1 -1.01,-1zm-0.34 3.65c0,0.18 -0.15,0.33 -0.34,0.33l-2.01 0c-0.19,0 -0.34,-0.15 -0.34,-0.33l0 -2.32c0,-0.18 0.15,-0.33 0.34,-0.33l2.01 0c0.19,0 0.34,0.15 0.34,0.33l0 2.32z"/>
 </g>
</svg>
