<?xml version="1.0" encoding="UTF-8"?>
<!DOCTYPE svg PUBLIC "-//W3C//DTD SVG 1.1//EN" "http://www.w3.org/Graphics/SVG/1.1/DTD/svg11.dtd">
<!-- Creator: CorelDRAW -->
<svg xmlns="http://www.w3.org/2000/svg" xml:space="preserve" width="8.0327mm" height="2.5862mm" version="1.1" style="shape-rendering:geometricPrecision; text-rendering:geometricPrecision; image-rendering:optimizeQuality; fill-rule:evenodd; clip-rule:evenodd"
viewBox="0 0 9.27 2.99"
 xmlns:xlink="http://www.w3.org/1999/xlink"
 xmlns:xodm="http://www.corel.com/coreldraw/odm/2003">
 <defs>
  <style type="text/css">
   <![CDATA[
    .fil0 {fill:white;fill-rule:nonzero}
    .fil1 {fill:#DA253F;fill-rule:nonzero}
    .fil2 {fill:#717A7F;fill-rule:nonzero}
   ]]>
  </style>
 </defs>
 <g id="Layer_x0020_1">
  <metadata id="CorelCorpID_0Corel-Layer"/>
  <path class="fil0" d="M-0 1.83c0.03,0.45 0.48,0.46 0.5,0.46l8.77 0 0 -1.79c-0.02,-0.45 -0.39,-0.49 -0.44,-0.5l-8.83 0 0 1.83z"/>
  <path class="fil1" d="M8.92 1.28c0.1,-0.16 0.17,-0.29 0.25,-0.55 0.01,-0.03 0.09,-0.31 -0.04,-0.5 -0.11,-0.16 -0.27,-0.17 -0.38,-0.17l-7.31 0c-0.27,0.12 -0.74,0.39 -1.1,0.95 -0.1,0.16 -0.17,0.29 -0.25,0.55 -0.01,0.03 -0.09,0.3 0.03,0.48 0.1,0.15 0.28,0.19 0.36,0.19l7.33 0c0.27,-0.12 0.74,-0.39 1.09,-0.94z"/>
  <path class="fil2" d="M0.63 2.74c-0.04,0 -0.06,0.01 -0.07,0.02 -0.01,0.01 -0.02,0.02 -0.01,0.04 0,0.03 0.01,0.05 0.04,0.05 0.02,-0 0.04,-0.01 0.06,-0.03l0 -0.07c-0.01,-0 -0.01,-0 -0.02,-0zm0.06 0.14c-0.02,-0.01 -0.03,-0.02 -0.03,-0.04 -0.02,0.02 -0.05,0.04 -0.07,0.03 -0.05,0 -0.09,-0.03 -0.09,-0.08 0,-0.06 0.05,-0.09 0.13,-0.09 0.01,0 0.01,0 0.02,0l0 -0.02c0,-0.03 -0,-0.05 -0.04,-0.05 -0.03,0 -0.06,0.01 -0.08,0.03l-0.02 -0.03c0.03,-0.01 0.06,-0.03 0.11,-0.03 0.04,0 0.07,0.01 0.08,0.04 0,0.01 0,0.02 0,0.05 0,0.02 -0,0.06 -0,0.1 0,0.04 0,0.05 0.02,0.06l-0.02 0.03 -0 0z"/>
  <path class="fil2" d="M1.04 2.67c-0.01,-0.01 -0.03,-0.02 -0.04,-0.02 -0.03,0 -0.05,0.03 -0.05,0.09 0,0.04 0,0.06 0.01,0.07 0.01,0.01 0.02,0.02 0.03,0.02 0.02,0 0.03,-0.01 0.05,-0.02l0 -0 0.03 0.04c-0.01,0.01 -0.02,0.01 -0.02,0.02 -0.02,0.01 -0.04,0.02 -0.07,0.02 -0.07,0 -0.12,-0.05 -0.12,-0.14 0,-0.06 0.02,-0.1 0.06,-0.12 0.02,-0.01 0.04,-0.02 0.07,-0.02 0.02,-0 0.04,0 0.05,0.01 0.01,0.01 0.02,0.01 0.03,0.02l-0.03 0.05 0 0z"/>
  <path class="fil2" d="M1.19 2.68c-0.01,0.02 -0.01,0.04 -0.01,0.06 0,0.03 0,0.05 0.01,0.07 0.01,0.01 0.02,0.02 0.04,0.02 0.03,0 0.04,-0.03 0.04,-0.09 0,-0.04 -0,-0.06 -0.01,-0.07 -0.01,-0.02 -0.04,-0.02 -0.05,-0.01 -0.01,0 -0.01,0.01 -0.01,0.02zm0.13 -0.04c0.02,0.03 0.03,0.05 0.03,0.1 0,0.05 -0.01,0.08 -0.03,0.1 -0.02,0.02 -0.05,0.04 -0.09,0.04 -0.07,0 -0.12,-0.05 -0.12,-0.14 0,-0.08 0.05,-0.14 0.12,-0.14 0.04,0 0.07,0.01 0.09,0.04l0 0z"/>
  <path class="fil2" d="M1.55 2.71l0 -0c0,-0.02 -0,-0.03 -0.01,-0.04 -0.01,-0.01 -0.02,-0.02 -0.03,-0.02 -0.03,0 -0.04,0.02 -0.04,0.06l0 0 0.08 0zm0.07 0.13c-0.03,0.02 -0.06,0.04 -0.1,0.04 -0.08,0 -0.13,-0.05 -0.13,-0.14 0,-0.05 0.01,-0.08 0.03,-0.11 0.02,-0.02 0.05,-0.04 0.08,-0.04 0.03,0 0.06,0.01 0.08,0.03 0.02,0.03 0.04,0.06 0.04,0.12l0 0.02 -0.16 0 0 0c0,0.04 0.02,0.07 0.06,0.07 0.03,-0 0.05,-0.01 0.07,-0.03l0.03 0.04z"/>
  <path class="fil2" d="M1.83 2.67c-0.03,-0.01 -0.05,-0.02 -0.07,-0.02 -0.02,0 -0.03,0.01 -0.03,0.03 0,0.01 0.01,0.02 0.03,0.03l0.03 0.01c0.03,0.01 0.04,0.02 0.05,0.03 0.01,0.01 0.02,0.03 0.01,0.05 0,0.06 -0.05,0.09 -0.12,0.09 -0.03,0 -0.07,-0.01 -0.11,-0.03l0.03 -0.05c0.02,0.01 0.06,0.03 0.09,0.03 0.02,0 0.04,-0.01 0.04,-0.03 0,-0.02 -0.01,-0.03 -0.04,-0.03l-0.03 -0.01c-0.02,-0 -0.04,-0.01 -0.05,-0.03 -0.01,-0.01 -0.02,-0.03 -0.02,-0.05 0,-0.05 0.04,-0.09 0.1,-0.09 0.04,0 0.07,0.01 0.1,0.03l-0.02 0.05z"/>
  <path class="fil2" d="M1.99 2.6l0 0.28 -0.07 0 0 -0.27 0.07 -0.01zm0.01 -0.07c0,0.02 -0.02,0.04 -0.04,0.05 -0.02,0 -0.04,-0.02 -0.05,-0.04 -0,-0 -0,-0 0,-0.01 0,-0.02 0.02,-0.04 0.04,-0.04 0.02,0 0.04,0.02 0.04,0.04z"/>
  <path class="fil2" d="M2.19 2.76c-0.05,0 -0.07,0.01 -0.07,0.04 0,0.02 0.01,0.03 0.03,0.03 0.01,-0 0.03,-0.01 0.04,-0.02l0 -0.06 -0 0zm-0.09 -0.14c0.02,-0.01 0.05,-0.02 0.07,-0.02 0.05,0 0.08,0.02 0.09,0.05 0,0.01 0.01,0.02 0,0.05l-0 0.09 0 0c0,0.03 0,0.04 0.03,0.06l-0.04 0.04c-0.02,-0.01 -0.03,-0.02 -0.04,-0.03 -0.01,0 -0.01,0.01 -0.02,0.01 -0.02,0.01 -0.04,0.02 -0.05,0.01 -0.06,0 -0.09,-0.03 -0.09,-0.08 0,-0.06 0.04,-0.09 0.13,-0.09 0.01,0 0.01,0 0.02,0l0 -0.01c0,-0.03 -0.01,-0.04 -0.03,-0.04 -0.02,0 -0.05,0.01 -0.08,0.03l-0.03 -0.05c0.01,-0.01 0.03,-0.02 0.04,-0.02l-0 -0z"/>
  <path class="fil2" d="M2.56 2.88c-0.04,0 -0.07,-0.01 -0.08,-0.04 -0.02,-0.02 -0.03,-0.06 -0.03,-0.1 0,-0.06 0.02,-0.09 0.04,-0.12 0.04,-0.04 0.1,-0.04 0.14,0l-0.03 0.03c-0.02,-0.02 -0.03,-0.02 -0.05,-0.02 -0.02,-0 -0.04,0.01 -0.05,0.03 -0.01,0.02 -0.01,0.04 -0.01,0.08 0,0.04 0.01,0.06 0.02,0.08 0.01,0.01 0.02,0.02 0.04,0.02 0.02,-0 0.04,-0.01 0.05,-0.03l0.02 0.03c-0.03,0.02 -0.05,0.03 -0.08,0.03l-0 -0z"/>
  <path class="fil2" d="M2.79 2.64c-0.04,0 -0.06,0.03 -0.06,0.1 0,0.08 0.02,0.11 0.06,0.11 0.04,0 0.06,-0.03 0.06,-0.1 0,-0.08 -0.02,-0.11 -0.06,-0.11zm0 0.24c-0.07,0 -0.11,-0.05 -0.11,-0.14 0,-0.09 0.04,-0.14 0.11,-0.14 0.08,0 0.12,0.06 0.12,0.14 0,0.08 -0.04,0.14 -0.11,0.14l0 0z"/>
  <path class="fil2" d="M3.26 2.87l0 -0.19c0,-0.03 -0.01,-0.04 -0.03,-0.04 -0.02,0 -0.04,0.02 -0.06,0.04l0 0.19 -0.05 0 0 -0.19c0,-0.03 -0.01,-0.04 -0.03,-0.04 -0.02,0 -0.04,0.01 -0.06,0.03l0 0.2 -0.05 0 0 -0.19c0,-0.04 -0,-0.05 -0.01,-0.07l0.05 -0.01c0.01,0.01 0.01,0.02 0.01,0.04 0.02,-0.02 0.05,-0.04 0.07,-0.04 0.03,0 0.05,0.02 0.06,0.04 0.03,-0.03 0.05,-0.04 0.08,-0.04 0.04,0 0.07,0.03 0.07,0.07l0 0.2 -0.05 0z"/>
  <path class="fil2" d="M3.5 2.64c-0.02,0 -0.05,0.01 -0.06,0.03l0 0.13c0.02,0.02 0.04,0.03 0.06,0.03 0.04,0 0.06,-0.03 0.06,-0.1 0,-0.06 -0.01,-0.1 -0.06,-0.1zm0 0.24c-0.03,-0 -0.05,-0.01 -0.07,-0.03 0,0.01 0,0.02 0,0.03l0 0.09 -0.05 0.01 0 -0.31c0,-0.02 -0,-0.04 -0.01,-0.06l0.05 -0.01c0,0.01 0,0.02 0,0.04 0.02,-0.02 0.05,-0.04 0.08,-0.04 0.05,0 0.1,0.04 0.1,0.13 0,0.08 -0.04,0.14 -0.1,0.14l-0 0z"/>
  <path class="fil2" d="M3.8 2.74c-0.04,0 -0.06,0.01 -0.07,0.02 -0.01,0.01 -0.01,0.02 -0.01,0.04 0,0.03 0.01,0.05 0.04,0.05 0.02,-0 0.04,-0.01 0.06,-0.03l0 -0.07c-0.01,-0 -0.01,-0 -0.02,-0zm0.06 0.14c-0.02,-0.01 -0.03,-0.02 -0.03,-0.04 -0.02,0.02 -0.05,0.04 -0.08,0.03 -0.05,0 -0.09,-0.03 -0.09,-0.08 0,-0.06 0.05,-0.09 0.13,-0.09 0.01,0 0.01,0 0.02,0l0 -0.02c0,-0.03 -0,-0.05 -0.04,-0.05 -0.03,0 -0.06,0.01 -0.08,0.03l-0.02 -0.03c0.03,-0.01 0.06,-0.03 0.11,-0.03 0.04,0 0.07,0.01 0.08,0.04 0,0.01 0.01,0.02 0.01,0.05 0,0.02 -0,0.06 -0,0.1 0,0.04 0,0.05 0.02,0.06l-0.02 0.03z"/>
  <path class="fil2" d="M4.09 2.87l0 -0.18c0,-0.02 -0,-0.03 -0.01,-0.04 -0.01,-0.01 -0.02,-0.01 -0.03,-0.01 -0.02,0 -0.05,0.01 -0.07,0.03l0 0.2 -0.05 0 0 -0.2c0,-0.03 -0,-0.04 -0.01,-0.06l0.05 -0.01c0.01,0.01 0.01,0.03 0.01,0.04 0.01,-0.01 0.02,-0.02 0.03,-0.03 0.02,-0.01 0.03,-0.01 0.05,-0.01 0.03,0 0.05,0.01 0.06,0.04 0,0.01 0.01,0.02 0.01,0.03l0 0.2 -0.05 0z"/>
  <path class="fil2" d="M4.33 2.88c-0.01,0.04 -0.03,0.07 -0.04,0.08 -0.01,0.01 -0.03,0.02 -0.05,0.02l-0.02 -0.03c0.02,-0 0.03,-0.02 0.05,-0.03 0.01,-0.01 0.01,-0.02 0.02,-0.05l-0.02 0c-0.01,-0.03 -0.02,-0.06 -0.03,-0.09l-0.06 -0.17 0.05 -0.01 0.05 0.17c0,0.02 0.01,0.04 0.02,0.06l0 0c0,-0.02 0.01,-0.04 0.02,-0.07l0.05 -0.16 0.05 0 -0.09 0.27z"/>
  <path class="fil1" d="M1.16 0.06l-1.09 0 0 0.77c0.3,-0.34 0.67,-0.61 1.09,-0.77z"/>
  <path class="fil1" d="M8.11 2.22l1.09 0 0 -0.78c-0.29,0.35 -0.67,0.61 -1.09,0.78z"/>
  <polygon class="fil0" points="1.67,0.8 1.67,1.06 2.08,1.06 2.08,1.24 1.67,1.24 1.67,1.66 1.47,1.66 1.47,0.62 2.16,0.62 2.16,0.8 "/>
  <polygon class="fil0" points="2.3,1.66 2.3,0.62 2.51,0.62 2.51,1.48 2.98,1.48 2.98,1.66 "/>
  <polygon class="fil0" points="3.11,1.66 3.11,0.62 3.8,0.62 3.8,0.8 3.32,0.8 3.32,1.05 3.73,1.05 3.73,1.23 3.32,1.23 3.32,1.48 3.8,1.48 3.8,1.66 "/>
  <polygon class="fil0" points="4.52,1.66 4.31,1.3 4.11,1.66 3.88,1.66 4.21,1.13 3.9,0.62 4.13,0.62 4.31,0.96 4.5,0.62 4.73,0.62 4.42,1.13 4.75,1.66 "/>
  <polygon class="fil0" points="4.85,1.66 4.85,0.62 5.05,0.62 5.05,1.48 5.52,1.48 5.52,1.66 "/>
  <polygon class="fil0" points="5.66,1.66 5.86,1.66 5.86,0.62 5.66,0.62 "/>
  <polygon class="fil0" points="6.66,1.66 6.25,1.02 6.25,1.66 6.04,1.66 6.04,0.62 6.22,0.62 6.64,1.26 6.64,0.62 6.84,0.62 6.84,1.66 "/>
  <polygon class="fil0" points="7.63,1.66 7.36,1.19 7.23,1.35 7.23,1.66 7.02,1.66 7.02,0.62 7.23,0.62 7.23,1.07 7.59,0.62 7.84,0.62 7.49,1.03 7.86,1.66 "/>
  <path class="fil0" d="M7.99 0.74l0.03 0c0.01,0 0.03,0 0.03,-0.02 0,-0.02 -0.02,-0.02 -0.03,-0.02l-0.03 0 0 0.05zm-0.02 -0.06l0.05 0c0.01,0 0.05,0 0.05,0.04 0,0.02 -0.01,0.03 -0.03,0.04 0.02,0 0.02,0.01 0.02,0.03 0,0.02 0,0.03 0.01,0.05l-0.02 0c-0,-0.01 -0.01,-0.03 -0.01,-0.04 -0,-0.02 -0.01,-0.03 -0.03,-0.03l-0.03 0 0 0.07 -0.02 0 0 -0.15zm-0.07 0.07c0,0.07 0.05,0.12 0.12,0.12 0.07,0 0.12,-0.05 0.12,-0.12 0,-0.07 -0.05,-0.12 -0.12,-0.12 -0.07,0 -0.12,0.05 -0.12,0.12zm0.26 0c0,0.08 -0.06,0.14 -0.14,0.14 -0.08,0 -0.14,-0.06 -0.14,-0.14 0,-0.08 0.06,-0.14 0.14,-0.14 0.08,0 0.14,0.06 0.14,0.14z"/>
 </g>
</svg>
