<?xml version="1.0" encoding="UTF-8"?>
<!DOCTYPE svg PUBLIC "-//W3C//DTD SVG 1.1//EN" "http://www.w3.org/Graphics/SVG/1.1/DTD/svg11.dtd">
<!-- Creator: CorelDRAW -->
<svg xmlns="http://www.w3.org/2000/svg" xml:space="preserve" width="16.7294mm" height="2.3559mm" version="1.1" style="shape-rendering:geometricPrecision; text-rendering:geometricPrecision; image-rendering:optimizeQuality; fill-rule:evenodd; clip-rule:evenodd"
viewBox="0 0 43.43 6.12"
 xmlns:xlink="http://www.w3.org/1999/xlink"
 xmlns:xodm="http://www.corel.com/coreldraw/odm/2003">
 <defs>
  <style type="text/css">
   <![CDATA[
    .fil0 {fill:#E6272C;fill-rule:nonzero}
    .fil1 {fill:#232323;fill-rule:nonzero}
   ]]>
  </style>
 </defs>
 <g id="Layer_x0020_1">
  <metadata id="CorelCorpID_0Corel-Layer"/>
  <path class="fil0" d="M2.46 5.79l2.65 -4.29 -4.87 -1.29 2.61 2.19 -0.39 3.39zm-2.46 -5.79l8.52 0.15 -6.09 5.97 2.92 -4.71 -5.36 -1.41z"/>
  <path class="fil1" d="M31.54 1.61c0,-1.21 1.54,-1.06 1.54,-0.17 0,1.21 -1.54,1.17 -1.54,0.17zm-1.03 0c0,1.94 3.51,1.95 3.51,0 0,-1.16 -0.79,-1.72 -1.85,-1.6 -0.51,0.06 -0.87,0.19 -1.17,0.46 -0.25,0.22 -0.49,0.71 -0.49,1.14zm-5.73 0.09c0,-1.37 1.19,-0.93 1.34,-0.74 0.91,1.15 -1.34,2.07 -1.34,0.74zm-1.03 -0.09c0,0.47 0.19,0.8 0.43,1.02 0.64,0.57 3.08,0.98 3.08,-1.36 0,-0.38 -0.31,-0.74 -0.53,-0.92 -0.85,-0.68 -2.97,-0.4 -2.97,1.26zm5.22 0.77l-0.43 0 0 -0.51 0.51 0c0.33,0 0.03,-0.03 0.26,0.09 -0.02,0.26 -0.06,0.43 -0.34,0.43zm0 -1.2l-0.43 0c0,-0.98 0.68,-0.38 0.77,-0.26 -0.09,0.13 -0.11,0.26 -0.34,0.26zm-1.45 1.8c0.13,-0.57 0.17,-2.18 0.17,-2.91l1.8 0c0.69,0 1.16,0.82 0.34,1.37 0.13,0.17 0.43,0.32 0.43,0.6 0,1.22 -0.99,0.94 -2.74,0.94zm-13.43 0.09c1.83,0 1.54,-0.89 1.71,-2.99l-1.03 0 -0.09 1.62c-0.07,0.67 -0.4,0.77 -0.94,0.52l0.02 -1.79c0.02,-0.4 0.21,-0.34 -0.96,-0.34 0,1.92 -0.57,2.99 1.28,2.99zm6.84 -2.48l0 -0.51 1.8 0c0.99,0 1.21,1.38 0.17,1.62 0.11,0.22 0.16,0.41 0.29,0.66 0.12,0.24 0.16,0.35 0.23,0.63l-1.03 0c-0.05,-0.55 -0.39,-1.1 -0.51,-1.62 0.54,0 0.66,0.02 0.77,-0.43 -0.37,-0.24 -0.27,-0.17 -0.86,-0.17 0.08,0.2 0,1.82 0,2.22l-1.03 0c0.13,-0.27 0.17,-1.89 0.17,-2.39zm17.53 0.94c0,1.52 1.35,1.72 2.48,1.45 0.03,-0.33 0.09,-0.34 0.09,-0.77 -1.73,0.83 -2.3,-1.45 -0.51,-1.45 0.29,0 0.33,0.06 0.6,0.09 0,-0.66 0.16,-0.7 -0.4,-0.79 -0.37,-0.06 -0.69,-0.05 -1.1,0.06 -0.59,0.16 -1.15,0.7 -1.15,1.42zm-28.39 1.45l0.17 -2.91 2.22 0 0 0.68 -1.28 0 0 0.43 1.03 0 0 0.68 -1.11 0 0 1.11 -1.03 0zm31.39 -2.31c0,1.07 0.76,0.94 0.95,1.44 0.2,0.52 -0.99,0.11 -1.13,0.1 0.03,0.33 0.09,0.34 0.09,0.77 0.24,0.01 2.05,0.43 2.05,-0.77 0,-0.74 -0.88,-0.81 -1.03,-1.37 0.34,-0.19 0.68,-0.03 1.03,0 0,-0.43 -0.08,-0.38 -0.09,-0.77 -0.12,0 -1.88,-0.26 -1.88,0.6zm-7.27 0.09l0.86 0 -0.09 2.22 1.03 0 0.09 -2.22 0.85 0 0 -0.68 -2.74 0 0 0.68zm-17.27 0.68l0 -1.37 1.03 0c0,0.5 -0.08,0.58 -0.09,1.02 -0.01,0.33 0.03,0.71 0,1.03 -0.09,1.32 -1.55,0.86 -2.05,0.86 0,-0.43 -0.08,-0.38 -0.09,-0.77 0.66,0.06 0.37,0.17 1.11,0 0.01,-0.39 0.09,-0.34 0.09,-0.77zm1.45 -0.6c0,0.83 -0.09,1.32 -0.09,2.14l1.03 0 0.09 -2.91 -1.03 0 0 0.77zm18.64 2.14c0.15,-0.66 0.17,-2.07 0.17,-2.91 1.37,0 0.93,-0.22 0.94,1.37 0,0.6 -0.09,0.89 -0.09,1.54l-1.03 0z"/>
 </g>
</svg>
