<?xml version="1.0" encoding="UTF-8"?>
<!DOCTYPE svg PUBLIC "-//W3C//DTD SVG 1.1//EN" "http://www.w3.org/Graphics/SVG/1.1/DTD/svg11.dtd">
<!-- Creator: CorelDRAW -->
<svg xmlns="http://www.w3.org/2000/svg" xml:space="preserve" width="9.2615mm" height="3.5213mm" version="1.1" style="shape-rendering:geometricPrecision; text-rendering:geometricPrecision; image-rendering:optimizeQuality; fill-rule:evenodd; clip-rule:evenodd"
viewBox="0 0 13.28 5.05"
 xmlns:xlink="http://www.w3.org/1999/xlink"
 xmlns:xodm="http://www.corel.com/coreldraw/odm/2003">
 <defs>
  <style type="text/css">
   <![CDATA[
    .str0 {stroke:#F5A835;stroke-width:0.11;stroke-miterlimit:23.08}
    .fil3 {fill:none;fill-rule:nonzero}
    .fil4 {fill:white;fill-rule:nonzero}
    .fil2 {fill:#F4A00C;fill-rule:nonzero}
    .fil1 {fill:#C5C7C8;fill-rule:nonzero}
    .fil0 {fill:#332F30;fill-rule:nonzero}
   ]]>
  </style>
 </defs>
 <g id="Layer_x0020_1">
  <metadata id="CorelCorpID_0Corel-Layer"/>
  <path class="fil0" d="M0.61 2.86c-0.13,0 -0.2,0.09 -0.2,0.21l0 0.09 -0.12 0 0 0.12 0.12 0 0 0.51 0.16 0 0 -0.51 0.14 0 0 -0.12 -0.14 0 0 -0.08c0,-0.05 0.02,-0.1 0.07,-0.1 0.03,0 0.05,0.01 0.07,0.02l0.01 -0.13c-0.03,-0.01 -0.08,-0.01 -0.12,-0.01zm2.38 0.93l0.16 0 0 -0.91 -0.16 0 0 0.91zm-3 -0.74l0.16 0 0 -0.15 -0.16 0 0 0.15zm7.08 0l0.16 0 0 -0.15 -0.16 0 0 0.15zm-2.27 -0.06l-0.16 0.05 0 0.12 -0.12 0 0 0.12 0.12 0 0 0.32c0,0.12 0.07,0.2 0.2,0.2 0.05,0 0.09,-0.01 0.12,-0.01l-0.01 -0.13c-0.02,0.01 -0.05,0.02 -0.07,0.02 -0.06,0 -0.08,-0.05 -0.08,-0.1l0 -0.29 0.14 0 0 -0.12 -0.14 0 0 -0.18zm-3.63 0.16c-0.06,0 -0.13,0.03 -0.19,0.1l-0 0 0 -0.09 -0.15 0 0 0.63 0.16 0 0 -0.31c0,-0.08 0.01,-0.21 0.12,-0.21 0.09,0 0.09,0.08 0.09,0.14l0 0.37 0.16 0 0 -0.31c0,-0.08 0.01,-0.21 0.12,-0.21 0.09,0 0.09,0.08 0.09,0.14l0 0.37 0.16 0 0 -0.39c0,-0.14 -0.04,-0.25 -0.2,-0.25 -0.08,0 -0.16,0.03 -0.2,0.11 -0.04,-0.08 -0.1,-0.11 -0.18,-0.11zm1.37 0c-0.19,0 -0.29,0.15 -0.29,0.33 0,0.21 0.12,0.32 0.33,0.32 0.09,0 0.16,-0.02 0.22,-0.05l0 -0.13c-0.06,0.03 -0.13,0.06 -0.21,0.06 -0.1,0 -0.17,-0.06 -0.18,-0.16l0.43 0c0,-0.22 -0.07,-0.38 -0.3,-0.38zm1.05 0c-0.19,0 -0.29,0.15 -0.29,0.33 0,0.21 0.12,0.32 0.33,0.32 0.09,0 0.15,-0.02 0.21,-0.05l0 -0.13c-0.06,0.03 -0.13,0.06 -0.21,0.06 -0.1,0 -0.17,-0.06 -0.18,-0.16l0.43 0c0,-0.22 -0.07,-0.38 -0.3,-0.38zm0.71 0c-0.2,0 -0.3,0.14 -0.3,0.32 0,0.19 0.1,0.33 0.31,0.33 0.07,0 0.12,-0.01 0.16,-0.02l-0.01 -0.13c-0.03,0.01 -0.08,0.03 -0.13,0.03 -0.11,0 -0.17,-0.09 -0.17,-0.21 0,-0.12 0.06,-0.2 0.17,-0.2 0.05,0 0.08,0.01 0.11,0.02l0.01 -0.13c-0.04,-0.01 -0.09,-0.02 -0.16,-0.02zm1.11 0c-0.1,0 -0.16,0.1 -0.17,0.16l-0 0 0 -0.14 -0.15 0 0 0.63 0.16 0 0 -0.23c0,-0.09 0,-0.25 0.13,-0.25 0.03,0 0.06,0.01 0.07,0.01l0 -0.17c-0.02,-0.01 -0.03,-0 -0.05,-0zm0.43 0c-0.18,0 -0.33,0.12 -0.33,0.33 0,0.18 0.12,0.32 0.33,0.32 0.21,0 0.33,-0.14 0.33,-0.32 0,-0.21 -0.14,-0.33 -0.33,-0.33zm0.83 0c-0.08,0 -0.15,0.03 -0.21,0.1l-0 0 0 -0.09 -0.15 0 0 0.63 0.16 0 0 -0.31c0,-0.08 0.03,-0.21 0.14,-0.21 0.1,0 0.1,0.1 0.1,0.18l0 0.33 0.16 0 0 -0.39c0,-0.14 -0.07,-0.25 -0.21,-0.25zm1.02 0c-0.2,0 -0.3,0.14 -0.3,0.32 0,0.19 0.1,0.33 0.31,0.33 0.07,0 0.12,-0.01 0.16,-0.02l-0.01 -0.13c-0.03,0.01 -0.08,0.03 -0.13,0.03 -0.11,0 -0.17,-0.09 -0.17,-0.21 0,-0.12 0.07,-0.2 0.17,-0.2 0.05,0 0.08,0.01 0.11,0.02l0.02 -0.13c-0.05,-0.01 -0.09,-0.02 -0.16,-0.02zm-7.7 0.64l0.16 0 0 -0.63 -0.16 0 0 0.63zm7.08 0l0.16 0 0 -0.63 -0.16 0 0 0.63zm-4.53 -0.52c0.09,0 0.13,0.07 0.13,0.15l-0.28 0c0.01,-0.08 0.05,-0.15 0.14,-0.15zm1.05 0c0.09,0 0.13,0.07 0.13,0.15l-0.28 0c0.01,-0.08 0.06,-0.15 0.15,-0.15zm2.24 0.01c0.11,0 0.16,0.09 0.16,0.19 0,0.1 -0.03,0.22 -0.16,0.22 -0.12,0 -0.16,-0.11 -0.16,-0.22 0,-0.09 0.05,-0.19 0.16,-0.19z"/>
  <path class="fil1" d="M8.37 2.59c0,-1.36 1.1,-2.46 2.46,-2.46 1.36,0 2.46,1.1 2.46,2.46 0,1.36 -1.1,2.46 -2.46,2.46 -1.36,0 -2.46,-1.1 -2.46,-2.46z"/>
  <path class="fil2" d="M8.29 2.51c0,-1.36 1.1,-2.46 2.46,-2.46 1.36,0 2.46,1.1 2.46,2.46 0,1.36 -1.1,2.46 -2.46,2.46 -1.36,0 -2.46,-1.1 -2.46,-2.46z"/>
  <path class="fil3 str0" d="M8.29 2.51c0,-1.36 1.1,-2.46 2.46,-2.46 1.36,0 2.46,1.1 2.46,2.46 0,1.36 -1.1,2.46 -2.46,2.46 -1.36,0 -2.46,-1.1 -2.46,-2.46z"/>
  <path class="fil4" d="M9.79 0.64c-0.21,0 -0.37,0.17 -0.37,0.37l0 0.11c-0.07,-0.05 -0.15,-0.07 -0.24,-0.07 -0.24,0 -0.43,0.19 -0.43,0.43 0,0.24 0.19,0.43 0.43,0.43 0.24,0 0.43,-0.19 0.43,-0.43 0,-0.06 -0.01,-0.12 -0.03,-0.17l0 -0.3c0,-0.12 0.1,-0.22 0.22,-0.22l0.9 0 0 0.31 -0.5 0c-0.08,0 -0.14,0.06 -0.14,0.14l0 0.47c0,0.08 0.06,0.14 0.14,0.14l0.5 0 0 0.22 -0.5 0c-0.07,0 -0.13,0.05 -0.14,0.12 -0,0 -0,0.01 -0,0.01l0 1.42 -0.48 0 0 -1.42c0,-0 0,-0.01 0,-0.01 -0.01,-0.07 -0.07,-0.12 -0.14,-0.12l-0.66 0 0 0.12 0 1.59 0.16 0 0 -1.55 0.44 0c0.02,0 0.04,0.02 0.04,0.04l0 1.36 -0.34 0 0 0.16 1.77 0 0 -1.08c0,-0.01 0.01,-0.02 0.02,-0.02l0.09 0c0.01,0 0.02,0.01 0.02,0.02l0 1.08 0.79 0 0 -1.08c0,-0.01 0.01,-0.02 0.03,-0.02l0.09 0c0.01,0 0.02,0.01 0.02,0.02l0 1.08 0.8 0 0 -1.57c0,-0 -0,-0.01 -0,-0.01 -0.01,-0.07 -0.06,-0.12 -0.14,-0.12l-1.59 0 0 0.12 0 0.03 1.53 0c0.02,0 0.04,0.02 0.04,0.04l0 1.36 -0.48 0 0 -0.96c0,-0.08 -0.06,-0.14 -0.14,-0.14l-0.18 0c-0.08,0 -0.14,0.06 -0.14,0.14l0 0.96 -0.48 0 0 -0.96c0,-0.08 -0.06,-0.14 -0.14,-0.14l-0.18 0c-0.08,0 -0.14,0.06 -0.14,0.14l0 0.96 -0.48 0 0 -1.36c0,-0.02 0.02,-0.04 0.04,-0.04l0.6 0 0 -0.03 0 -0.5 -0.61 0c-0.01,0 -0.03,-0.01 -0.03,-0.02l0 -0.38c0,-0.01 0.01,-0.02 0.03,-0.02l0.61 0 0 -0.63 -1.06 0zm-0.61 0.57c0.15,0 0.28,0.13 0.28,0.28 0,0.15 -0.13,0.28 -0.28,0.28 -0.15,0 -0.27,-0.12 -0.27,-0.28 0,-0.15 0.12,-0.28 0.27,-0.28z"/>
  <path class="fil0" d="M8.9 1.49c0,-0.15 0.12,-0.28 0.28,-0.28 0.15,0 0.28,0.12 0.28,0.28 0,0.15 -0.12,0.28 -0.28,0.28 -0.15,0 -0.28,-0.12 -0.28,-0.28zm-0.16 0c0,-0.24 0.19,-0.43 0.43,-0.43 0.24,0 0.43,0.19 0.43,0.43 0,0.24 -0.19,0.43 -0.43,0.43 -0.24,0 -0.43,-0.19 -0.43,-0.43z"/>
  <path class="fil0" d="M9.18 1.94c-0.25,0 -0.45,-0.2 -0.45,-0.45 0,-0.25 0.2,-0.45 0.45,-0.45 0.25,0 0.45,0.2 0.45,0.45 0,0.25 -0.2,0.45 -0.45,0.45zm0 -0.03c0.23,0 0.42,-0.19 0.42,-0.42 0,-0.23 -0.19,-0.42 -0.42,-0.42 -0.23,0 -0.42,0.19 -0.42,0.42 0,0.23 0.19,0.42 0.42,0.42zm0 -0.13c-0.16,0 -0.29,-0.13 -0.29,-0.29 0,-0.16 0.13,-0.29 0.29,-0.29 0.16,0 0.29,0.13 0.29,0.29 0,0.16 -0.13,0.29 -0.29,0.29zm0 -0.03c0.14,0 0.26,-0.12 0.26,-0.26 0,-0.14 -0.12,-0.26 -0.26,-0.26 -0.14,0 -0.26,0.12 -0.26,0.26 0,0.14 0.12,0.26 0.26,0.26z"/>
 </g>
</svg>
