<?xml version="1.0" encoding="UTF-8"?>
<!DOCTYPE svg PUBLIC "-//W3C//DTD SVG 1.1//EN" "http://www.w3.org/Graphics/SVG/1.1/DTD/svg11.dtd">
<!-- Creator: CorelDRAW -->
<svg xmlns="http://www.w3.org/2000/svg" xml:space="preserve" width="11.1429mm" height="2.0197mm" version="1.1" style="shape-rendering:geometricPrecision; text-rendering:geometricPrecision; image-rendering:optimizeQuality; fill-rule:evenodd; clip-rule:evenodd"
viewBox="0 0 17.13 3.11"
 xmlns:xlink="http://www.w3.org/1999/xlink"
 xmlns:xodm="http://www.corel.com/coreldraw/odm/2003">
 <defs>
  <style type="text/css">
   <![CDATA[
    .fil0 {fill:#E42339;fill-rule:nonzero}
    .fil1 {fill:#252223;fill-rule:nonzero}
   ]]>
  </style>
 </defs>
 <g id="Layer_x0020_1">
  <metadata id="CorelCorpID_0Corel-Layer"/>
  <path class="fil0" d="M1.97 0l-1.27 0c0,0 -0.7,-0.03 -0.7,0.68l0 2.43 1.97 -3.1z"/>
  <polygon class="fil1" points="2.94,0 2.38,0 1.43,1.45 2.38,3 2.97,3 2.03,1.42 "/>
  <path class="fil1" d="M5.05 0l-1.33 0c0,0 -0.63,0 -0.63,0.66l0 1.61c0,0 -0.06,0.73 0.69,0.73l1.33 0 0 -0.47 -1.3 0c0,0 -0.21,0.02 -0.21,-0.23l0 -0.64 1.37 0 0 -0.45 -1.37 0 0 -0.56c0,0 -0.02,-0.2 0.24,-0.2l0.94 0 0.27 -0.44z"/>
  <path class="fil1" d="M9.77 0l-1.33 0c0,0 -0.63,0 -0.63,0.66l0 1.61c0,0 -0.06,0.73 0.69,0.73l1.33 0 0 -0.47 -1.3 0c0,0 -0.21,0.02 -0.21,-0.23l0 -0.64 1.37 0 0 -0.45 -1.37 0 0 -0.56c0,0 -0.02,-0.2 0.24,-0.2l0.94 0 0.27 -0.44z"/>
  <path class="fil1" d="M13.42 1.2l0 -0.56c0,0 -0.02,-0.2 0.24,-0.2l0.94 0 0.27 -0.44 -1.33 0c0,0 -0.63,0 -0.63,0.66l0 1.61c0,0 -0.06,0.73 0.69,0.73l1.31 0 0 -0.44 -1.28 0c0,0 -0.21,0.02 -0.21,-0.23l0 -0.67 0 -0.45z"/>
  <path class="fil1" d="M17.07 0l-1.33 0c0,0 -0.63,0 -0.63,0.66l0 1.61c0,0 -0.06,0.73 0.69,0.73l1.33 0 0 -0.47 -1.3 0c0,0 -0.21,0.02 -0.21,-0.23l0 -0.64 1.37 0 0 -0.45 -1.37 0 0 -0.56c0,0 -0.02,-0.2 0.24,-0.2l0.94 0 0.27 -0.44z"/>
  <polygon class="fil1" points="5.21,0 5.77,0 6.46,1.28 7.18,0 7.74,0 6.69,1.73 6.69,3 6.2,3 6.2,1.72 "/>
  <polygon class="fil1" points="10.21,0 10.21,3 10.69,3 10.69,0.98 11.99,3 12.44,3 12.44,0 11.95,0 11.95,2 10.67,0 "/>
 </g>
</svg>
