<?xml version="1.0" encoding="UTF-8"?>
<!DOCTYPE svg PUBLIC "-//W3C//DTD SVG 1.1//EN" "http://www.w3.org/Graphics/SVG/1.1/DTD/svg11.dtd">
<!-- Creator: CorelDRAW -->
<svg xmlns="http://www.w3.org/2000/svg" xml:space="preserve" width="16.3457mm" height="2.1042mm" version="1.1" style="shape-rendering:geometricPrecision; text-rendering:geometricPrecision; image-rendering:optimizeQuality; fill-rule:evenodd; clip-rule:evenodd"
viewBox="0 0 49.32 6.35"
 xmlns:xlink="http://www.w3.org/1999/xlink"
 xmlns:xodm="http://www.corel.com/coreldraw/odm/2003">
 <defs>
  <style type="text/css">
   <![CDATA[
    .str1 {stroke:#332F30;stroke-width:0.76;stroke-miterlimit:4}
    .str0 {stroke:#332F30;stroke-width:0.23;stroke-miterlimit:4}
    .str2 {stroke:#332F30;stroke-width:0.76;stroke-linecap:square;stroke-miterlimit:4}
    .fil2 {fill:none;fill-rule:nonzero}
    .fil4 {fill:white;fill-rule:nonzero}
    .fil1 {fill:#ED7320;fill-rule:nonzero}
    .fil3 {fill:#352825;fill-rule:nonzero}
    .fil0 {fill:#332F30;fill-rule:nonzero}
   ]]>
  </style>
 </defs>
 <g id="Layer_x0020_1">
  <metadata id="CorelCorpID_0Corel-Layer"/>
  <polygon class="fil0" points="26.61,5.58 27.46,0.28 28.87,0.28 28.51,2.48 30.54,0.28 32.39,0.28 29.77,2.89 31.58,5.58 29.9,5.58 28.38,3.25 28.02,5.58 "/>
  <polygon class="fil0" points="43.58,4.41 45.24,4.41 45.05,5.56 41.98,5.56 42.83,0.25 45.89,0.25 45.71,1.47 44.04,1.47 43.91,2.26 45.45,2.26 45.27,3.43 43.73,3.43 "/>
  <polygon class="fil0" points="49.12,5.58 45.92,5.58 46.78,0.28 48.19,0.28 47.55,4.31 49.32,4.31 "/>
  <path class="fil1" d="M14.9 0.28l-1.8 0 -2.67 5.3 1.54 0 0.52 -1.05 1.87 0 0.23 1.05 1.44 0 -1.13 -5.3zm-1.87 3.12l0.82 -1.86 0.31 1.86 -1.13 0z"/>
  <path class="fil1" d="M20.05 0.4c-0.25,-0.11 -1,-0.12 -1,-0.12l-1.71 0 -0.84 5.3 1.42 0 0.3 -1.86c0,0 0.66,-0.01 1.22,-0.02 0.55,-0.01 0.78,-0.19 0.78,-0.19 0,0 0.83,-0.41 0.83,-1.57 0,-1.16 -0.74,-1.43 -0.99,-1.55zm-0.67 2.1c-0.14,0.05 -0.69,0.09 -0.69,0.09l-0.29 0 0.18 -1.17 0.38 0c0,0 0.29,0 0.47,0.11 0.17,0.11 0.28,0.13 0.28,0.48 0,0.34 -0.19,0.45 -0.33,0.5z"/>
  <path class="fil1" d="M24.72 0.4c-0.25,-0.11 -1,-0.12 -1,-0.12l-1.71 0 -0.84 5.3 1.42 0 0.3 -1.86c0,0 0.66,-0.01 1.22,-0.02 0.55,-0.01 0.78,-0.19 0.78,-0.19 0,0 0.83,-0.41 0.83,-1.57 0,-1.16 -0.74,-1.43 -0.99,-1.55zm-0.67 2.1c-0.14,0.05 -0.69,0.09 -0.69,0.09l-0.29 0 0.18 -1.17 0.38 0c0,0 0.3,0 0.47,0.11 0.17,0.11 0.28,0.13 0.28,0.48 0,0.34 -0.19,0.45 -0.33,0.5z"/>
  <path class="fil0" d="M36.18 0.28l-1.8 0 -2.67 5.3 1.54 0 0.52 -1.05 1.87 0 0.23 1.05 1.43 0 -1.13 -5.3zm-1.87 3.12l0.83 -1.86 0.3 1.86 -1.13 0z"/>
  <path class="fil0" d="M40.62 2.79c0,0 0.52,-0.06 0.84,-0.45 0.44,-0.53 0.35,-1.21 -0.04,-1.65 -0.4,-0.45 -1.32,-0.41 -1.32,-0.41l-1.77 0 -0.85 5.3c0,0 1.05,-0 1.97,-0 0.91,-0 1.43,-0.1 1.84,-0.54 0.66,-0.75 0.33,-1.64 0.07,-1.91 -0.26,-0.27 -0.74,-0.34 -0.74,-0.34zm-0.72 1.71c-0.13,0.1 -0.55,0.13 -0.82,0.13 0.03,-0.11 0.16,-0.96 0.16,-0.96l0.3 0c0,0 0.39,-0.01 0.51,0.21 0.12,0.23 -0.01,0.52 -0.14,0.62zm0.31 -2.34c-0.13,0.1 -0.55,0.13 -0.83,0.13 0.03,-0.11 0.16,-0.96 0.16,-0.96l0.3 0c0,0 0.39,-0.01 0.51,0.21 0.12,0.23 -0.02,0.52 -0.14,0.62z"/>
  <path class="fil0" d="M3.05 0.67c1.27,0 2.33,1.05 2.33,2.3 0,1.25 -1.05,2.3 -2.33,2.3 -1.28,0 -2.33,-1.05 -2.33,-2.3 0,-1.25 1.05,-2.3 2.33,-2.3z"/>
  <path class="fil2 str0" d="M3.05 0.67c1.27,0 2.33,1.05 2.33,2.3 0,1.25 -1.05,2.3 -2.33,2.3 -1.28,0 -2.33,-1.05 -2.33,-2.3 0,-1.25 1.05,-2.3 2.33,-2.3z"/>
  <path class="fil3" d="M2.36 1.77c0,0.37 0.3,0.66 0.66,0.66 0.36,0 0.66,-0.3 0.66,-0.66 0,-0.37 -0.3,-0.67 -0.66,-0.67 -0.37,0 -0.66,0.3 -0.66,0.67zm-0.04 0c0,-0.39 0.32,-0.71 0.71,-0.71 0.39,0 0.7,0.32 0.7,0.71 0,0.39 -0.31,0.71 -0.7,0.71 -0.39,0 -0.71,-0.32 -0.71,-0.71z"/>
  <path class="fil4" d="M3.55 2.62c0,-0.37 0.3,-0.66 0.66,-0.66 0.37,0 0.66,0.3 0.66,0.66 0,0.37 -0.3,0.67 -0.66,0.67 -0.37,0 -0.66,-0.3 -0.66,-0.67z"/>
  <path class="fil4" d="M3.14 4.01c0,-0.37 0.3,-0.67 0.66,-0.67 0.37,0 0.66,0.3 0.66,0.67 0,0.37 -0.3,0.67 -0.66,0.67 -0.37,0 -0.66,-0.3 -0.66,-0.67z"/>
  <path class="fil4" d="M1.59 4c0,-0.37 0.3,-0.67 0.66,-0.67 0.37,0 0.66,0.3 0.66,0.67 0,0.37 -0.3,0.67 -0.66,0.67 -0.37,0 -0.66,-0.3 -0.66,-0.67z"/>
  <path class="fil4" d="M1.18 2.62c0,-0.37 0.3,-0.66 0.66,-0.66 0.37,0 0.66,0.3 0.66,0.66 0,0.37 -0.3,0.67 -0.66,0.67 -0.37,0 -0.66,-0.3 -0.66,-0.67z"/>
  <path class="fil1" d="M2.36 1.77c0,-0.37 0.3,-0.67 0.66,-0.67 0.37,0 0.66,0.3 0.66,0.67 0,0.37 -0.3,0.67 -0.66,0.67 -0.37,0 -0.66,-0.3 -0.66,-0.67z"/>
  <polygon class="fil0" points="0.31,5.88 0.31,6.34 0.74,6.34 0.74,6.26 0.44,6.26 0.44,5.88 "/>
  <path class="fil0" d="M1 5.88l-0.23 0.46 0.13 0 0.05 -0.1 0.24 0 0.05 0.1 0.13 0 -0.24 -0.46 -0.13 0zm0.05 0.11l0.08 0.17 -0.16 0 0.08 -0.17z"/>
  <path class="fil0" d="M1.42 6.34l0 -0.46 0.19 0c0.07,0 0.12,0 0.14,0.01 0.04,0.01 0.06,0.02 0.09,0.05 0.02,0.02 0.03,0.05 0.03,0.09 0,0.03 -0.01,0.05 -0.02,0.07 -0.01,0.02 -0.03,0.03 -0.05,0.05 -0.02,0.01 -0.04,0.02 -0.06,0.02 -0.03,0 -0.07,0.01 -0.13,0.01l-0.08 0 0 0.17 -0.12 0zm0.12 -0.38l0 0.13 0.07 0c0.05,0 0.08,-0 0.09,-0.01 0.02,-0.01 0.03,-0.01 0.04,-0.02 0.01,-0.01 0.01,-0.02 0.01,-0.04 0,-0.02 -0.01,-0.03 -0.02,-0.04 -0.01,-0.01 -0.03,-0.02 -0.05,-0.02 -0.01,-0 -0.04,-0 -0.09,-0l-0.06 0z"/>
  <path class="fil0" d="M2.16 5.96c0.04,0 0.07,0 0.09,0 0.02,0 0.04,0.01 0.05,0.02 0.01,0.01 0.02,0.03 0.02,0.04 0,0.01 -0.01,0.03 -0.01,0.04 -0.01,0.01 -0.02,0.02 -0.04,0.02 -0.02,0 -0.05,0.01 -0.1,0.01l-0.07 0 0 -0.13 0.06 0zm-0.06 0.38l0 -0.17 0.08 0c0.06,0 0.1,-0 0.13,-0.01 0.02,-0 0.04,-0.01 0.06,-0.02 0.02,-0.01 0.04,-0.03 0.05,-0.05 0.01,-0.02 0.02,-0.04 0.02,-0.07 0,-0.04 -0.01,-0.07 -0.03,-0.09 -0.02,-0.02 -0.05,-0.04 -0.09,-0.05 -0.02,-0 -0.07,-0.01 -0.14,-0.01l-0.19 0 0 0.46 0.12 0z"/>
  <path class="fil0" d="M3.04 6.17l0 -0.08 0.26 0 0 0.19c-0.03,0.02 -0.06,0.04 -0.11,0.05 -0.05,0.01 -0.1,0.02 -0.15,0.02 -0.06,0 -0.12,-0.01 -0.16,-0.03 -0.05,-0.02 -0.08,-0.05 -0.11,-0.09 -0.02,-0.04 -0.04,-0.08 -0.04,-0.12 0,-0.05 0.01,-0.09 0.04,-0.13 0.03,-0.04 0.06,-0.07 0.11,-0.09 0.04,-0.02 0.09,-0.02 0.14,-0.02 0.08,0 0.13,0.01 0.18,0.04 0.04,0.02 0.07,0.06 0.08,0.1l-0.12 0.02c-0.01,-0.02 -0.02,-0.04 -0.05,-0.05 -0.02,-0.01 -0.05,-0.02 -0.09,-0.02 -0.05,0 -0.1,0.01 -0.13,0.04 -0.03,0.03 -0.05,0.06 -0.05,0.11 0,0.06 0.02,0.1 0.05,0.12 0.03,0.03 0.07,0.04 0.12,0.04 0.03,0 0.05,-0 0.08,-0.01 0.03,-0.01 0.05,-0.02 0.07,-0.03l0 -0.06 -0.14 0z"/>
  <path class="fil0" d="M3.53 5.96l0.09 0c0.05,0 0.08,0 0.09,0 0.02,0 0.04,0.01 0.05,0.02 0.01,0.01 0.02,0.02 0.02,0.04 0,0.01 -0,0.03 -0.01,0.03 -0.01,0.01 -0.02,0.02 -0.03,0.02 -0.01,0 -0.05,0.01 -0.11,0.01l-0.09 0 0 -0.12zm0 0.38l0 -0.19 0.02 0c0.03,0 0.05,0 0.06,0.01 0.01,0 0.03,0.01 0.04,0.02 0.01,0.01 0.03,0.03 0.06,0.07l0.09 0.1 0.14 0 -0.07 -0.09c-0.03,-0.04 -0.05,-0.06 -0.07,-0.08 -0.02,-0.01 -0.04,-0.03 -0.06,-0.04 0.05,-0.01 0.09,-0.02 0.12,-0.04 0.03,-0.02 0.04,-0.05 0.04,-0.09 0,-0.03 -0.01,-0.05 -0.03,-0.07 -0.02,-0.02 -0.04,-0.03 -0.07,-0.04 -0.03,-0.01 -0.08,-0.01 -0.14,-0.01l-0.25 0 0 0.46 0.12 0z"/>
  <path class="fil0" d="M4.16 5.99c0.03,-0.03 0.07,-0.04 0.12,-0.04 0.05,0 0.09,0.01 0.12,0.04 0.03,0.03 0.05,0.07 0.05,0.12 0,0.05 -0.02,0.09 -0.05,0.12 -0.03,0.03 -0.07,0.04 -0.12,0.04 -0.05,0 -0.09,-0.01 -0.12,-0.04 -0.03,-0.03 -0.05,-0.07 -0.05,-0.12 0,-0.05 0.02,-0.09 0.05,-0.12zm-0.09 0.3c0.05,0.04 0.12,0.06 0.21,0.06 0.09,0 0.16,-0.02 0.21,-0.06 0.05,-0.04 0.08,-0.1 0.08,-0.18 0,-0.08 -0.03,-0.13 -0.08,-0.18 -0.05,-0.04 -0.12,-0.06 -0.21,-0.06 -0.05,0 -0.09,0.01 -0.13,0.02 -0.03,0.01 -0.05,0.02 -0.08,0.04 -0.02,0.02 -0.04,0.04 -0.06,0.06 -0.02,0.03 -0.03,0.07 -0.03,0.12 0,0.07 0.03,0.13 0.08,0.17z"/>
  <path class="fil0" d="M4.67 5.88l0.12 0 0 0.25c0,0.04 0,0.07 0.01,0.08 0,0.02 0.02,0.03 0.04,0.05 0.02,0.01 0.05,0.02 0.08,0.02 0.03,0 0.06,-0.01 0.08,-0.02 0.02,-0.01 0.03,-0.02 0.03,-0.04 0,-0.02 0.01,-0.04 0.01,-0.08l0 -0.26 0.12 0 0 0.24c0,0.06 -0,0.1 -0.01,0.12 -0.01,0.02 -0.02,0.04 -0.04,0.06 -0.02,0.02 -0.04,0.03 -0.07,0.04 -0.03,0.01 -0.07,0.01 -0.11,0.01 -0.06,0 -0.1,-0.01 -0.13,-0.01 -0.03,-0.01 -0.05,-0.02 -0.07,-0.04 -0.02,-0.02 -0.03,-0.03 -0.03,-0.05 -0.01,-0.03 -0.01,-0.06 -0.01,-0.12l0 -0.25z"/>
  <path class="fil0" d="M5.28 6.34l0 -0.46 0.19 0c0.07,0 0.12,0 0.14,0.01 0.04,0.01 0.06,0.02 0.09,0.05 0.02,0.02 0.04,0.05 0.04,0.09 0,0.03 -0.01,0.05 -0.02,0.07 -0.01,0.02 -0.03,0.03 -0.05,0.05 -0.02,0.01 -0.04,0.02 -0.06,0.02 -0.03,0 -0.07,0.01 -0.13,0.01l-0.08 0 0 0.17 -0.12 0zm0.12 -0.38l0 0.13 0.07 0c0.05,0 0.08,-0 0.09,-0.01 0.02,-0.01 0.03,-0.01 0.04,-0.02 0.01,-0.01 0.01,-0.02 0.01,-0.04 0,-0.02 -0.01,-0.03 -0.02,-0.04 -0.01,-0.01 -0.03,-0.02 -0.05,-0.02 -0.01,-0 -0.04,-0 -0.09,-0l-0.06 0z"/>
  <polygon class="fil1" points="9.15,0.36 8.62,4.34 10.27,4.34 10.08,5.58 6.99,5.58 7.72,0.36 "/>
  <line class="fil2 str1" x1="5.67" y1="0.38" x2="5.67" y2= "5.6" />
  <line class="fil2 str2" x1="0.38" y1="0.38" x2="5.67" y2= "0.38" />
  <line class="fil2 str1" x1="0.38" y1="0.38" x2="0.38" y2= "5.6" />
 </g>
</svg>
