<?xml version="1.0" encoding="UTF-8"?>
<!DOCTYPE svg PUBLIC "-//W3C//DTD SVG 1.1//EN" "http://www.w3.org/Graphics/SVG/1.1/DTD/svg11.dtd">
<!-- Creator: CorelDRAW -->
<svg xmlns="http://www.w3.org/2000/svg" xml:space="preserve" width="9.4181mm" height="4.1038mm" version="1.1" style="shape-rendering:geometricPrecision; text-rendering:geometricPrecision; image-rendering:optimizeQuality; fill-rule:evenodd; clip-rule:evenodd"
viewBox="0 0 15.68 6.83"
 xmlns:xlink="http://www.w3.org/1999/xlink"
 xmlns:xodm="http://www.corel.com/coreldraw/odm/2003">
 <defs>
  <style type="text/css">
   <![CDATA[
    .fil0 {fill:#2D4A9B;fill-rule:nonzero}
   ]]>
  </style>
 </defs>
 <g id="Layer_x0020_1">
  <metadata id="CorelCorpID_0Corel-Layer"/>
  <polygon class="fil0" points="7.96,3.04 7.75,3.04 7.9,2.94 8.05,2.82 8.12,2.67 8.12,2.94 9.59,1.1 6.22,4.47 "/>
  <polygon class="fil0" points="7.47,3.04 7.29,3.04 7.47,2.92 8.05,2.33 8.12,2.18 8.12,2.45 9.37,0.89 6,4.26 "/>
  <polygon class="fil0" points="6.49,3.04 6.37,3.04 6.46,2.97 8.05,1.38 8.12,1.29 8.12,1.45 8.88,0.46 5.55,3.8 "/>
  <polygon class="fil0" points="6,3.04 5.91,3.04 5.97,3 8.05,0.92 8.14,0.8 8.14,0.92 8.67,0.22 5.3,3.59 "/>
  <polygon class="fil0" points="9.83,1.35 6.46,4.72 8.02,3.44 8.12,3.22 8.12,3.4 8.51,3.04 8.36,3.04 8.61,2.88 "/>
  <polygon class="fil0" points="8.12,3.65 8.12,3.83 8.91,3.04 8.76,3.04 8.97,2.92 10.04,1.6 6.67,4.96 8.05,3.8 "/>
  <polygon class="fil0" points="8.12,4.07 8.12,4.23 9.31,3.04 9.22,3.04 9.37,2.94 10.29,1.81 6.89,5.18 8.05,4.23 "/>
  <polygon class="fil0" points="8.12,4.51 8.12,4.63 9.74,3.04 9.61,3.04 9.77,2.94 10.51,2.02 7.14,5.39 8.09,4.63 "/>
  <polygon class="fil0" points="8.12,4.94 8.12,5.06 10.14,3.04 10.04,3.04 10.2,2.94 10.71,2.27 7.35,5.64 8.09,5.06 "/>
  <polygon class="fil0" points="8.12,5.36 8.12,5.46 10.53,3.04 10.47,3.04 10.56,3 10.96,2.48 7.59,5.86 8.09,5.46 "/>
  <polygon class="fil0" points="10.96,3.04 10.9,3.04 10.96,3 11.18,2.73 7.81,6.1 8.09,5.86 8.12,5.79 8.12,5.86 "/>
  <polygon class="fil0" points="5.45,3.04 8.14,0.34 8.14,0.4 8.42,0 5.08,3.34 5.48,3.04 "/>
  <polygon class="fil0" points="6.98,3.04 6.83,3.04 6.95,2.94 8.05,1.87 8.14,1.75 8.14,1.93 9.12,0.68 5.75,4.04 "/>
  <polygon class="fil0" points="2.21,5.63 2.45,5.63 2.45,6.79 2.79,6.79 2.79,5.63 3,5.63 3,5.32 2.21,5.32 "/>
  <polygon class="fil0" points="1.47,6.79 2.14,6.79 2.14,6.48 1.77,6.48 1.77,6.15 2.14,6.15 2.14,5.87 1.77,5.87 1.77,5.6 2.14,5.6 2.14,5.32 1.47,5.32 "/>
  <polygon class="fil0" points="0.67,6.24 0.46,5.32 -0,5.32 -0,6.79 0.3,6.79 0.3,5.71 0.55,6.79 0.79,6.79 1.01,5.71 1.01,6.79 1.32,6.79 1.32,5.32 0.89,5.32 "/>
  <polygon class="fil0" points="12.1,5.32 11.79,5.32 11.79,6.79 12.46,6.79 12.46,6.48 12.1,6.48 "/>
  <polygon class="fil0" points="12.58,6.79 13.29,6.79 13.29,6.48 12.9,6.48 12.9,6.15 13.29,6.15 13.29,5.87 12.9,5.87 12.9,5.6 13.29,5.6 13.29,5.32 12.58,5.32 "/>
  <path class="fil0" d="M11.11 5.29c-0.38,0.01 -0.58,0.34 -0.58,0.77 0.01,0.42 0.22,0.76 0.58,0.76 0.34,0 0.54,-0.35 0.55,-0.77 -0.02,-0.43 -0.21,-0.74 -0.55,-0.75zm0.22 0.77c0.01,0.26 -0.06,0.48 -0.25,0.49 -0.16,-0.01 -0.22,-0.22 -0.21,-0.49 -0.02,-0.29 0.05,-0.49 0.21,-0.5 0.18,0.01 0.26,0.19 0.25,0.5z"/>
  <path class="fil0" d="M13.84 5.35l-0.39 0 0 1.45 0.39 0c0.46,0.02 0.65,-0.36 0.65,-0.73 -0.02,-0.42 -0.18,-0.74 -0.65,-0.71zm0.03 1.17l-0.12 0 0 -0.92 0.12 0c0.21,0.02 0.29,0.22 0.28,0.46 0.01,0.24 -0.07,0.46 -0.28,0.46z"/>
  <path class="fil0" d="M15.13 5.31c-0.38,0.01 -0.58,0.34 -0.58,0.77 0.01,0.42 0.22,0.76 0.58,0.76 0.34,0 0.54,-0.35 0.55,-0.77 -0.02,-0.43 -0.21,-0.74 -0.55,-0.75zm0.22 0.77c0.01,0.26 -0.06,0.48 -0.25,0.49 -0.16,-0.01 -0.22,-0.22 -0.21,-0.49 -0.02,-0.29 0.05,-0.49 0.21,-0.5 0.18,0.01 0.26,0.19 0.25,0.5z"/>
  <polygon class="fil0" points="4.68,6.79 5.39,6.79 5.39,6.48 4.99,6.48 4.99,6.15 5.39,6.15 5.39,5.87 4.99,5.87 4.99,5.6 5.39,5.6 5.39,5.32 4.68,5.32 "/>
  <polygon class="fil0" points="4.26,5.32 3.95,5.32 3.95,6.79 4.59,6.79 4.59,6.48 4.26,6.48 "/>
  <polygon class="fil0" points="3.06,5.63 3.31,5.63 3.31,6.79 3.61,6.79 3.61,5.63 3.86,5.63 3.86,5.32 3.06,5.32 "/>
  <path class="fil0" d="M6.46 5.78c0,-0.27 -0.19,-0.46 -0.43,-0.46l-0.52 0 0 1.47 0.34 0 0 -0.56 0.01 0 0.33 0.56 0.34 0 -0.37 -0.61c0.18,-0.05 0.31,-0.17 0.31,-0.4zm-0.5 0.18l-0.12 0 0 -0.37 0.12 0c0.11,0 0.18,0.08 0.18,0.18 -0.01,0.1 -0.08,0.18 -0.18,0.18z"/>
  <polygon class="fil0" points="10.53,5.32 9.74,5.32 9.74,5.63 9.98,5.63 9.98,6.79 10.29,6.79 10.29,5.63 10.53,5.63 "/>
 </g>
</svg>
