<?xml version="1.0" encoding="UTF-8"?>
<!DOCTYPE svg PUBLIC "-//W3C//DTD SVG 1.1//EN" "http://www.w3.org/Graphics/SVG/1.1/DTD/svg11.dtd">
<!-- Creator: CorelDRAW -->
<svg xmlns="http://www.w3.org/2000/svg" xml:space="preserve" width="9.0892mm" height="2.6528mm" version="1.1" style="shape-rendering:geometricPrecision; text-rendering:geometricPrecision; image-rendering:optimizeQuality; fill-rule:evenodd; clip-rule:evenodd"
viewBox="0 0 14.81 4.32"
 xmlns:xlink="http://www.w3.org/1999/xlink"
 xmlns:xodm="http://www.corel.com/coreldraw/odm/2003">
 <defs>
  <style type="text/css">
   <![CDATA[
    .fil0 {fill:#E62729;fill-rule:nonzero}
    .fil1 {fill:#252223;fill-rule:nonzero}
   ]]>
  </style>
 </defs>
 <g id="Layer_x0020_1">
  <metadata id="CorelCorpID_0Corel-Layer"/>
  <polygon class="fil0" points="1.65,4.29 -0,4.29 0.83,2.86 2.48,2.86 "/>
  <polygon class="fil0" points="3.3,4.29 4.95,4.29 4.13,2.86 2.48,2.86 "/>
  <polygon class="fil0" points="3.3,1.43 2.48,0 1.65,1.43 2.48,2.86 "/>
  <polygon class="fil1" points="5.7,3.68 6.36,3.68 6.36,3.44 5.7,3.44 5.7,3.15 6.44,3.15 6.44,2.91 5.42,2.91 5.42,4.29 6.46,4.29 6.46,4.05 5.7,4.05 "/>
  <polygon class="fil1" points="5.68,1.65 5.97,2.68 6.24,2.68 6.54,1.65 6.54,2.68 6.8,2.68 6.8,1.29 6.4,1.29 6.11,2.26 5.82,1.29 5.42,1.29 5.42,2.68 5.68,2.68 "/>
  <polygon class="fil1" points="11.77,2.68 12.05,2.68 12.05,1.29 11.77,1.29 "/>
  <path class="fil1" d="M12 4.29l0.28 0 0 -1.38 -0.28 0 0 1.38zm-0 0l0 0 -0 0z"/>
  <polygon class="fil1" points="14.53,2.68 14.81,2.68 14.81,1.29 14.53,1.29 "/>
  <polygon class="fil1" points="6.91,2.68 7.19,2.68 7.19,1.29 6.91,1.29 "/>
  <polygon class="fil1" points="14.14,1.83 13.59,1.83 13.59,1.29 13.31,1.29 13.31,2.68 13.59,2.68 13.59,2.07 14.14,2.07 14.14,2.68 14.41,2.68 14.41,1.29 14.14,1.29 "/>
  <polygon class="fil1" points="7.6,2.68 7.88,2.68 7.88,1.53 8.22,1.53 8.22,1.29 7.26,1.29 7.26,1.53 7.6,1.53 "/>
  <polygon class="fil1" points="10.14,4.29 10.42,4.29 10.42,3.15 10.76,3.15 10.76,2.91 9.8,2.91 9.8,3.15 10.14,3.15 "/>
  <path class="fil1" d="M9.95 2.72c0.35,0 0.55,-0.16 0.55,-0.47l0 -0.95 -0.28 0 0 0.98c0,0.12 -0.1,0.22 -0.27,0.22 -0.21,0 -0.28,-0.12 -0.28,-0.22l0 -0.98 -0.27 0 0 0.95c0,0.33 0.21,0.47 0.55,0.47z"/>
  <polygon class="fil1" points="7.84,3.68 8.5,3.68 8.5,3.44 7.84,3.44 7.84,3.15 8.59,3.15 8.59,2.91 7.57,2.91 7.57,4.29 8.61,4.29 8.61,4.05 7.84,4.05 "/>
  <path class="fil1" d="M11.23 1.51c0.07,0 0.16,0.07 0.16,0.16 0,0.1 -0.08,0.17 -0.17,0.17l-0.01 0 -0.33 0 0 -0.34 0.35 0zm-0.02 0.95l-0.33 0 0 -0.4 0.32 0c0.12,0 0.21,0.07 0.21,0.2 0,0.11 -0.09,0.2 -0.21,0.2zm-0.32 0.21l0.4 0c0.26,0 0.41,-0.16 0.41,-0.37 0,-0.18 -0.13,-0.33 -0.27,-0.36 0.12,-0.03 0.22,-0.15 0.22,-0.31 0,-0.2 -0.15,-0.34 -0.43,-0.34l-0.62 0 0 1.38 0.28 0z"/>
  <path class="fil1" d="M11.11 3.52l0 -0.38 0.34 0c0.11,0 0.19,0.08 0.19,0.19 0,0.08 -0.07,0.19 -0.18,0.19l-0.34 0zm0.55 0.11c0.12,-0.04 0.24,-0.14 0.24,-0.33 0,-0.25 -0.17,-0.39 -0.45,-0.39l-0.63 0 0 1.38 0.28 0 0 -0.54 0.24 0c0.14,0 0.22,0.07 0.24,0.17 0.03,0.11 0.02,0.27 0.05,0.37l0.28 0c-0.03,-0.11 -0.04,-0.25 -0.05,-0.36 -0.01,-0.19 -0.11,-0.26 -0.21,-0.3z"/>
  <polygon class="fil1" points="6.83,2.91 6.55,2.91 6.55,4.29 7.48,4.29 7.48,4.05 6.83,4.05 "/>
  <path class="fil1" d="M8.69 2.09c0.22,0.04 0.35,0.08 0.35,0.21 0,0.09 -0.09,0.18 -0.27,0.18 -0.19,0 -0.28,-0.11 -0.28,-0.23l-0.27 0c0,0.24 0.16,0.46 0.56,0.46 0.38,0 0.55,-0.2 0.55,-0.44 0,-0.22 -0.14,-0.36 -0.4,-0.41 -0.25,-0.05 -0.41,-0.06 -0.41,-0.21 0,-0.11 0.1,-0.17 0.25,-0.17 0.16,0 0.25,0.08 0.25,0.21l0.27 0c0,-0.22 -0.17,-0.44 -0.53,-0.44 -0.25,0 -0.51,0.15 -0.51,0.42 0,0.23 0.17,0.37 0.45,0.42z"/>
  <path class="fil1" d="M12.59 2.09c0.23,0.04 0.35,0.08 0.35,0.21 0,0.09 -0.09,0.18 -0.27,0.18 -0.19,0 -0.28,-0.11 -0.28,-0.23l-0.27 0c0,0.24 0.15,0.46 0.56,0.46 0.38,0 0.55,-0.2 0.55,-0.44 0,-0.22 -0.14,-0.36 -0.4,-0.41 -0.24,-0.05 -0.41,-0.06 -0.41,-0.21 0,-0.11 0.1,-0.17 0.25,-0.17 0.16,0 0.25,0.08 0.25,0.21l0.27 0c0,-0.22 -0.17,-0.44 -0.53,-0.44 -0.25,0 -0.52,0.15 -0.52,0.42 0,0.23 0.17,0.37 0.45,0.42z"/>
  <path class="fil1" d="M9.24 4.08c-0.22,0 -0.35,-0.22 -0.35,-0.48 0,-0.26 0.13,-0.48 0.35,-0.48 0.17,0 0.26,0.11 0.3,0.24l0.29 0c-0.05,-0.27 -0.26,-0.47 -0.59,-0.47 -0.42,0 -0.64,0.32 -0.64,0.72 0,0.4 0.23,0.72 0.64,0.72 0.33,0 0.55,-0.19 0.59,-0.49l-0.29 0c-0.04,0.14 -0.13,0.25 -0.3,0.25z"/>
  <path class="fil1" d="M12.99 4.08c-0.23,0 -0.36,-0.22 -0.36,-0.48 0,-0.26 0.13,-0.48 0.36,-0.48 0.17,0 0.26,0.11 0.3,0.24l0.29 0c-0.05,-0.27 -0.26,-0.47 -0.59,-0.47 -0.42,0 -0.64,0.32 -0.64,0.72 0,0.4 0.22,0.72 0.64,0.72 0.33,0 0.55,-0.19 0.6,-0.49l-0.29 0c-0.04,0.14 -0.13,0.25 -0.3,0.25z"/>
 </g>
</svg>
