<?xml version="1.0" encoding="UTF-8"?>
<!DOCTYPE svg PUBLIC "-//W3C//DTD SVG 1.1//EN" "http://www.w3.org/Graphics/SVG/1.1/DTD/svg11.dtd">
<!-- Creator: CorelDRAW -->
<svg xmlns="http://www.w3.org/2000/svg" xml:space="preserve" width="9.9616mm" height="2.02mm" version="1.1" style="shape-rendering:geometricPrecision; text-rendering:geometricPrecision; image-rendering:optimizeQuality; fill-rule:evenodd; clip-rule:evenodd"
viewBox="0 0 16.42 3.33"
 xmlns:xlink="http://www.w3.org/1999/xlink"
 xmlns:xodm="http://www.corel.com/coreldraw/odm/2003">
 <defs>
  <style type="text/css">
   <![CDATA[
    .fil0 {fill:#2B6DB4;fill-rule:nonzero}
   ]]>
  </style>
 </defs>
 <g id="Layer_x0020_1">
  <metadata id="CorelCorpID_0Corel-Layer"/>
  <path class="fil0" d="M1.66 3.33c-0.91,0 -1.66,-0.75 -1.66,-1.67 0,-0.91 0.75,-1.66 1.66,-1.66 0.92,0 1.67,0.75 1.67,1.66 0,0.93 -0.75,1.67 -1.67,1.67zm0 -0.7c0.54,0 0.97,-0.43 0.97,-0.98 0,-0.53 -0.43,-0.96 -0.97,-0.96 -0.53,0 -0.96,0.43 -0.96,0.96 0,0.54 0.43,0.98 0.96,0.98z"/>
  <path class="fil0" d="M11.89 3.33c-0.91,0 -1.66,-0.75 -1.66,-1.67 0,-0.91 0.75,-1.66 1.66,-1.66 0.92,0 1.67,0.75 1.67,1.66 0,0.93 -0.75,1.67 -1.67,1.67zm0 -0.7c0.54,0 0.97,-0.43 0.97,-0.98 0,-0.53 -0.43,-0.96 -0.97,-0.96 -0.53,0 -0.96,0.43 -0.96,0.96 0,0.54 0.43,0.98 0.96,0.98z"/>
  <path class="fil0" d="M3.52 0.1l0 3.15 0.7 0 0 -2.57 0.77 0 0 2.57 0.7 0 0 -2.57 0.27 0c0.28,0 0.49,0.22 0.49,0.48l0 2.09 0.7 0 0 -2.06c0,-0.62 -0.49,-1.11 -1.11,-1.11l-1.8 0c-0.24,0 -0.48,0 -0.71,0.03z"/>
  <path class="fil0" d="M13.75 0.1l0 3.15 0.7 0 0 -2.57 0.79 0c0.27,0 0.49,0.22 0.49,0.48l0 2.09 0.7 0 0 -2.06c0,-0.62 -0.49,-1.11 -1.11,-1.11l-0.86 0c-0.23,0 -0.47,0 -0.7,0.03z"/>
  <path class="fil0" d="M7.43 0.1l0 3.15 0.7 0 0 -2.57 0.82 0c0.28,0 0.49,0.22 0.49,0.48 0,0.28 -0.22,0.49 -0.49,0.49l-0.59 0 1.08 1.6 0.86 0 -0.79 -1.15c0.38,-0.14 0.63,-0.51 0.63,-0.94 0,-0.59 -0.48,-1.09 -1.09,-1.09l-0.92 0c-0.24,0 -0.47,0 -0.7,0.03z"/>
 </g>
</svg>
