<?xml version="1.0" encoding="UTF-8"?>
<!DOCTYPE svg PUBLIC "-//W3C//DTD SVG 1.1//EN" "http://www.w3.org/Graphics/SVG/1.1/DTD/svg11.dtd">
<!-- Creator: CorelDRAW -->
<svg xmlns="http://www.w3.org/2000/svg" xml:space="preserve" width="8.1795mm" height="2.02mm" version="1.1" style="shape-rendering:geometricPrecision; text-rendering:geometricPrecision; image-rendering:optimizeQuality; fill-rule:evenodd; clip-rule:evenodd"
viewBox="0 0 10.04 2.48"
 xmlns:xlink="http://www.w3.org/1999/xlink"
 xmlns:xodm="http://www.corel.com/coreldraw/odm/2003">
 <defs>
  <style type="text/css">
   <![CDATA[
    .fil0 {fill:#332F30;fill-rule:nonzero}
   ]]>
  </style>
 </defs>
 <g id="Layer_x0020_1">
  <metadata id="CorelCorpID_0Corel-Layer"/>
  <polygon class="fil0" points="6.76,1.18 6.76,0 7.11,0 7.62,0.53 7.62,0 8.02,0 8.02,1.18 7.7,1.18 7.17,0.65 7.17,1.18 "/>
  <polygon class="fil0" points="3.74,1.18 3.74,0 4.14,0 4.14,0.41 4.51,0.41 4.51,0 4.92,0 4.92,1.18 4.51,1.18 4.51,0.73 4.14,0.73 4.14,1.18 "/>
  <polygon class="fil0" points="8.64,0 9.06,0 9.31,0.3 9.55,0 9.98,0 9.53,0.57 10.04,1.18 9.55,1.18 9.31,0.85 9.06,1.18 8.57,1.18 9.08,0.57 "/>
  <path class="fil0" d="M3.52 1.38c-0.1,-0.06 -0.23,-0.07 -0.36,-0.07 -0.35,0 -0.63,0.25 -0.63,0.59 0,0.33 0.28,0.59 0.63,0.59 0.13,0 0.25,-0.02 0.35,-0.08l0 -0.32c-0.05,0.1 -0.15,0.12 -0.26,0.12 -0.17,0 -0.3,-0.14 -0.3,-0.3 0,-0.17 0.14,-0.31 0.3,-0.31 0.11,0 0.21,0.04 0.26,0.12l0 -0.32 0.01 -0.01z"/>
  <polygon class="fil0" points="4.86,2.48 4.86,1.3 5.2,1.3 5.71,1.83 5.71,1.3 6.12,1.3 6.12,2.48 5.79,2.48 5.26,1.95 5.26,2.48 "/>
  <polygon class="fil0" points="6.5,2.48 6.5,1.61 6.19,1.61 6.19,1.3 7.21,1.3 7.21,1.61 6.91,1.61 6.91,2.48 "/>
  <path class="fil0" d="M8.9 1.61l-0.02 0c-0.15,0.02 -0.25,0.15 -0.25,0.3 0,0.17 0.14,0.29 0.3,0.29 0.11,0 0.21,-0.03 0.26,-0.12l0 0.32c-0.1,0.06 -0.22,0.08 -0.35,0.08 -0.35,0 -0.63,-0.23 -0.63,-0.57 0,-0.33 0.28,-0.61 0.63,-0.61l0.01 0 1.18 0 0 0.3 -0.31 0 0 0.87 -0.4 0 0 -0.87 -0.43 0z"/>
  <polygon class="fil0" points="8.13,1.18 8.54,1.18 8.54,0 8.13,0 "/>
  <path class="fil0" d="M1.22 0.48l0.11 0 0 0.13c0,0.05 0.02,0.09 0.06,0.11 0.13,0.06 0.22,0.18 0.22,0.33 0,0.14 -0.08,0.27 -0.2,0.33 -0.04,0.02 -0.08,0.08 -0.08,0.12l0 0.24 0 -0c0,0.07 0.06,0.13 0.13,0.13 0.45,0 0.81,-0.37 0.81,-0.81 0,-0.45 -0.37,-0.82 -0.81,-0.82 -0.07,0 -0.13,0.08 -0.13,0.15l0 0.11 -0.17 -0.01 0 -0.12c0,-0.07 -0.06,-0.13 -0.13,-0.13l-0.45 0 -0.02 -0.25 1.71 0c0.09,0 0.16,0.07 0.16,0.16l0 2.13c0,0.09 -0.08,0.17 -0.17,0.17l-2.11 0c-0.09,0 -0.16,-0.07 -0.16,-0.16l0 -2.14c0,-0.09 0.07,-0.16 0.16,-0.16l0.41 0 0.02 0.25 -0.2 0c-0.07,0 -0.13,0.06 -0.13,0.13l0 1.71c0,0.07 0.06,0.13 0.13,0.13l0.64 0c0.07,0 0.13,-0.04 0.13,-0.11l0 -0.6c0,-0.04 -0.02,-0.09 -0.06,-0.11 -0.14,-0.05 -0.22,-0.19 -0.22,-0.34 0,-0.14 0.07,-0.26 0.18,-0.32 0.04,-0.02 0.09,-0.09 0.09,-0.13l0 -0.13 0.1 0 -0.02 0.39c-0.1,0 -0.19,0.09 -0.19,0.19 0,0.1 0.09,0.19 0.19,0.19 0.11,0 0.19,-0.09 0.19,-0.19 0,-0.11 -0.08,-0.19 -0.19,-0.19l-0.03 -0.39z"/>
  <path class="fil0" d="M2.6 0.37l0 0.81 0.45 0 0 -0.37 0.22 0c0.22,0 0.41,-0.18 0.41,-0.41 0,-0.22 -0.18,-0.41 -0.41,-0.41l-0.67 -0 0 0.4 0.45 0 0 -0.14 0.1 0c0.08,0 0.14,0.06 0.14,0.14 0,0.08 -0.06,0.14 -0.14,0.14l-0.1 0 0 -0.16 -0.45 -0.02z"/>
  <path class="fil0" d="M5.59 0c-0.33,0.02 -0.61,0.26 -0.61,0.58 0,0.34 0.28,0.59 0.62,0.59l1.08 0 0 -0.28 -0.49 0 0 -0.16 0.47 0 0 -0.29 -0.47 0 0 -0.16 0.49 0 0 -0.29 -1.1 0 0.02 0.3c0.14,-0 0.23,0.13 0.23,0.28 0,0.16 -0.08,0.28 -0.23,0.28 -0.12,0 -0.23,-0.13 -0.23,-0.28 0,-0.16 0.1,-0.29 0.23,-0.29l-0.02 -0.3z"/>
  <path class="fil0" d="M4.16 1.61c0.12,0 0.23,0.13 0.23,0.28 0,0.16 -0.1,0.28 -0.23,0.28 -0.12,0 -0.22,-0.13 -0.22,-0.28 0,-0.16 0.1,-0.29 0.22,-0.29l0.01 -0.31c-0.35,0 -0.63,0.26 -0.63,0.59 0,0.33 0.28,0.59 0.63,0.59 0.35,0 0.63,-0.25 0.63,-0.59 0,-0.34 -0.28,-0.59 -0.63,-0.59l-0.01 0.31z"/>
  <polygon class="fil0" points="7.68,2.03 7.56,2.03 7.66,1.75 7.76,2.03 7.66,2.03 7.65,2.3 7.84,2.3 7.9,2.48 8.35,2.48 7.89,1.3 7.44,1.3 7.44,1.3 6.97,2.48 7.42,2.48 7.48,2.3 7.67,2.3 "/>
 </g>
</svg>
