<?xml version="1.0" encoding="UTF-8"?>
<!DOCTYPE svg PUBLIC "-//W3C//DTD SVG 1.1//EN" "http://www.w3.org/Graphics/SVG/1.1/DTD/svg11.dtd">
<!-- Creator: CorelDRAW -->
<svg xmlns="http://www.w3.org/2000/svg" xml:space="preserve" width="9.0894mm" height="2.6834mm" version="1.1" style="shape-rendering:geometricPrecision; text-rendering:geometricPrecision; image-rendering:optimizeQuality; fill-rule:evenodd; clip-rule:evenodd"
viewBox="0 0 14.24 4.2"
 xmlns:xlink="http://www.w3.org/1999/xlink"
 xmlns:xodm="http://www.corel.com/coreldraw/odm/2003">
 <defs>
  <style type="text/css">
   <![CDATA[
    .fil0 {fill:#079C4B;fill-rule:nonzero}
   ]]>
  </style>
 </defs>
 <g id="Layer_x0020_1">
  <metadata id="CorelCorpID_0Corel-Layer"/>
  <path class="fil0" d="M1.62 0.61c-0.33,-0.14 -0.52,-0.2 -0.71,-0.2 -0.2,0 -0.33,0.07 -0.33,0.18 0,0.34 1.15,0.24 1.15,1.02 0,0.43 -0.36,0.68 -0.86,0.68 -0.39,0 -0.59,-0.1 -0.81,-0.22l0 -0.48c0.32,0.21 0.52,0.29 0.77,0.29 0.22,0 0.33,-0.08 0.33,-0.21 0,-0.37 -1.15,-0.23 -1.15,-1.04 0,-0.39 0.34,-0.64 0.86,-0.64 0.25,0 0.48,0.05 0.76,0.17l0 0.44zm1.6 1.59c-0.19,0.07 -0.35,0.1 -0.51,0.1 -0.53,0 -0.88,-0.31 -0.88,-0.78 0,-0.46 0.36,-0.79 0.86,-0.79 0.15,0 0.35,0.04 0.51,0.1l0 0.36c-0.13,-0.07 -0.27,-0.1 -0.39,-0.1 -0.29,0 -0.47,0.17 -0.47,0.44 0,0.27 0.18,0.45 0.45,0.45 0.11,0 0.22,-0.03 0.43,-0.11l0 0.34zm4.16 -0.86c0.02,-0.21 0.14,-0.33 0.33,-0.33 0.18,0 0.31,0.13 0.33,0.33l-0.66 0zm0.3 -0.62c-0.47,0 -0.8,0.33 -0.8,0.8 0,0.47 0.35,0.78 0.88,0.78 0.12,0 0.41,0 0.68,-0.2l0 -0.3c-0.22,0.16 -0.37,0.21 -0.56,0.21 -0.3,0 -0.49,-0.16 -0.5,-0.42l1.09 0c0.02,-0.55 -0.34,-0.87 -0.78,-0.87zm0.97 1.55l0.48 0 0 -1.52 -0.48 0 0 1.52zm1.8 -0.42c-0.1,0.09 -0.18,0.13 -0.28,0.13 -0.22,0 -0.37,-0.18 -0.37,-0.46 0,-0.3 0.14,-0.48 0.38,-0.48 0.09,0 0.2,0.04 0.27,0.09l0 0.73zm0 -1.83l0 0.79c-0.13,-0.06 -0.26,-0.09 -0.4,-0.09 -0.43,0 -0.74,0.32 -0.74,0.79 0,0.45 0.3,0.79 0.71,0.79 0.16,0 0.29,-0.04 0.42,-0.15l0 0.12 0.48 0 0 -2.24 -0.48 0zm1.18 1.32c0.02,-0.21 0.14,-0.33 0.33,-0.33 0.19,0 0.31,0.13 0.33,0.33l-0.66 0zm0.3 -0.62c-0.47,0 -0.8,0.33 -0.8,0.8 0,0.47 0.35,0.78 0.88,0.78 0.12,0 0.41,0 0.68,-0.2l0 -0.3c-0.22,0.16 -0.37,0.21 -0.56,0.21 -0.3,0 -0.48,-0.16 -0.5,-0.42l1.09 0c0.02,-0.55 -0.34,-0.87 -0.78,-0.87l-0 0z"/>
  <path class="fil0" d="M13.43 1.19l0.01 0c0.14,-0.32 0.3,-0.46 0.48,-0.46 0.1,0 0.18,0.04 0.32,0.14l0 0 -0.13 0.42c-0.12,-0.08 -0.21,-0.11 -0.28,-0.11 -0.18,0 -0.29,0.16 -0.39,0.44l0 0.66 -0.48 0 0 -1.52 0.48 0 0 0.44zm-4.28 -1.08c0.04,0.12 -0.04,0.28 -0.18,0.37 -0.14,0.09 -0.3,0.06 -0.34,-0.06 -0.05,-0.12 0.03,-0.28 0.18,-0.37 0.14,-0.09 0.3,-0.06 0.34,0.06z"/>
  <path class="fil0" d="M4.94 1.31c0,-0.41 -0.28,-0.58 -0.56,-0.58 -0.19,0 -0.34,0.08 -0.48,0.25l-0.01 0 0 -0.95 -0.48 0 0 2.24 0.48 0 0 -0.96c0.11,-0.16 0.21,-0.23 0.32,-0.23 0.15,0 0.25,0.11 0.25,0.33l0 0.53c0.16,-0.08 0.32,-0.13 0.48,-0.15l0 -0.48zm1.2 -0.58c-0.19,0 -0.34,0.07 -0.49,0.25l0 -0.22 -0.48 0 0 1.03c0.17,0.02 0.38,0.09 0.48,0.22l0 -0.71c0.13,-0.19 0.21,-0.25 0.33,-0.25 0.14,0 0.24,0.09 0.24,0.3l0 0.92 0.48 0 0 -0.96c0,-0.45 -0.32,-0.58 -0.55,-0.58zm0.82 1.98l-0.55 0 0 0.39 0.53 0 0 0.17 -0.53 0 0 0.41 0.57 0 0 0.17 -0.76 0 0 -1.31 0.74 0 0 0.17zm0.45 1.14l0.17 0 0 -1.31 -0.17 0 0 1.31zm1.01 -0.73c0.12,0 0.2,0.08 0.2,0.21l-0.43 0c0.02,-0.14 0.1,-0.21 0.23,-0.21zm-0.23 0.33l0.61 0c0,-0.32 -0.15,-0.47 -0.37,-0.47 -0.24,0 -0.4,0.18 -0.4,0.44 0,0.24 0.15,0.46 0.42,0.46 0.15,0 0.24,-0.03 0.34,-0.1l0 -0.17c-0.1,0.07 -0.2,0.1 -0.3,0.1 -0.16,0 -0.26,-0.09 -0.29,-0.26zm1.71 -0.23c-0.1,-0.07 -0.16,-0.09 -0.24,-0.09 -0.16,0 -0.26,0.12 -0.26,0.29 0,0.18 0.11,0.29 0.29,0.29 0.07,0 0.14,-0.02 0.23,-0.06l0 0.17c-0.06,0.03 -0.17,0.05 -0.26,0.05 -0.26,0 -0.44,-0.18 -0.44,-0.43 0,-0.29 0.16,-0.47 0.42,-0.47 0.1,0 0.17,0.02 0.25,0.06l0 0.18zm0.77 -0.23l0.27 0 0 0.15 -0.27 0 0 0.44c0,0.1 0.07,0.13 0.12,0.13 0.06,0 0.12,-0.02 0.19,-0.06l0 0.16c-0.06,0.03 -0.15,0.06 -0.21,0.06 -0.18,0 -0.28,-0.11 -0.28,-0.27l0 -0.46 -0.15 0 0 -0.02 0.32 -0.31 0 0.18zm0.92 0l0 0.2 0 0c0.09,-0.15 0.17,-0.22 0.25,-0.22 0.07,0 0.13,0.03 0.21,0.1l-0.09 0.15c-0.05,-0.05 -0.12,-0.09 -0.16,-0.09 -0.12,0 -0.21,0.12 -0.21,0.27l0 0.45 -0.17 0 0 -0.86 0.17 0zm2.2 0.23c-0.1,-0.07 -0.16,-0.09 -0.24,-0.09 -0.15,0 -0.26,0.12 -0.26,0.29 0,0.18 0.11,0.29 0.29,0.29 0.07,0 0.14,-0.02 0.23,-0.06l0 0.17c-0.06,0.03 -0.17,0.05 -0.26,0.05 -0.26,0 -0.44,-0.18 -0.44,-0.43 0,-0.29 0.16,-0.47 0.43,-0.47 0.1,0 0.17,0.02 0.25,0.06l0 0.18zm-1.29 0.64l0.17 0 0 -0.86 -0.17 0 0 0.86z"/>
  <path class="fil0" d="M12.68 2.67c0.02,0.04 -0.01,0.1 -0.06,0.13 -0.05,0.03 -0.11,0.02 -0.12,-0.02 -0.02,-0.04 0.01,-0.1 0.06,-0.13 0.05,-0.03 0.1,-0.02 0.12,0.02zm-7.6 0.07c-0.03,0 -0.04,0.01 -0.06,0.02 -0,0.01 -0.01,0.01 -0.01,0.02l-0.15 0.58c-0.04,0.2 -0.28,0.41 -0.61,0.41l-0.45 0 0.08 -0.3 0.29 0c0.03,0 0.05,-0.01 0.07,-0.03 0.01,-0.01 0.02,-0.02 0.02,-0.04l0.12 -0.5c0.04,-0.2 0.25,-0.43 0.57,-0.43l0.46 0 -0.06 0.27 -0.28 0zm0.1 0.35l0.05 -0.19 0.47 0c0.06,-0.27 0.01,-0.52 -0.15,-0.69 -0.33,-0.33 -1.03,-0.22 -1.55,0.28 -0.08,0.08 -0.15,0.16 -0.21,0.25l0.28 0 -0.07 0.19 -0.34 0c-0.03,0.06 -0.06,0.12 -0.09,0.18l0.4 0 -0.06 0.19 -0.39 0c-0.07,0.29 -0.02,0.55 0.14,0.72 0.33,0.33 1.02,0.21 1.54,-0.28 0.09,-0.09 0.17,-0.18 0.23,-0.28l-0.36 0 0.06 -0.19 0.42 0c0.03,-0.06 0.06,-0.12 0.08,-0.18l-0.46 0z"/>
 </g>
</svg>
