<?xml version="1.0" encoding="UTF-8"?>
<!DOCTYPE svg PUBLIC "-//W3C//DTD SVG 1.1//EN" "http://www.w3.org/Graphics/SVG/1.1/DTD/svg11.dtd">
<!-- Creator: CorelDRAW -->
<svg xmlns="http://www.w3.org/2000/svg" xml:space="preserve" width="12.6951mm" height="2.02mm" version="1.1" style="shape-rendering:geometricPrecision; text-rendering:geometricPrecision; image-rendering:optimizeQuality; fill-rule:evenodd; clip-rule:evenodd"
viewBox="0 0 21.45 3.41"
 xmlns:xlink="http://www.w3.org/1999/xlink"
 xmlns:xodm="http://www.corel.com/coreldraw/odm/2003">
 <defs>
  <style type="text/css">
   <![CDATA[
    .fil0 {fill:#04989B;fill-rule:nonzero}
   ]]>
  </style>
 </defs>
 <g id="Layer_x0020_1">
  <metadata id="CorelCorpID_0Corel-Layer"/>
  <path class="fil0" d="M21.2 0.12l0 0.64c-0.33,-0.13 -0.63,-0.19 -0.88,-0.19 -0.15,0 -0.27,0.03 -0.37,0.08 -0.09,0.06 -0.14,0.12 -0.14,0.2 0,0.11 0.1,0.2 0.31,0.29l0.6 0.29c0.49,0.23 0.73,0.54 0.73,0.92 0,0.32 -0.13,0.58 -0.39,0.77 -0.26,0.19 -0.6,0.29 -1.03,0.29 -0.2,0 -0.38,-0.01 -0.53,-0.03 -0.16,-0.02 -0.34,-0.05 -0.54,-0.1l0 -0.67c0.37,0.13 0.71,0.19 1.01,0.19 0.36,0 0.54,-0.1 0.54,-0.32 0,-0.11 -0.07,-0.19 -0.22,-0.26l-0.67 -0.28c-0.25,-0.11 -0.43,-0.25 -0.55,-0.41 -0.12,-0.16 -0.18,-0.35 -0.18,-0.56 0,-0.3 0.12,-0.53 0.37,-0.71 0.25,-0.18 0.58,-0.27 0.99,-0.27 0.13,0 0.29,0.01 0.46,0.03 0.17,0.02 0.34,0.05 0.49,0.09z"/>
  <path class="fil0" d="M2.31 0.12l0 0.64c-0.33,-0.13 -0.63,-0.19 -0.88,-0.19 -0.15,0 -0.27,0.03 -0.37,0.08 -0.09,0.06 -0.14,0.12 -0.14,0.2 0,0.11 0.1,0.2 0.31,0.29l0.6 0.29c0.48,0.23 0.73,0.54 0.73,0.92 0,0.32 -0.13,0.58 -0.38,0.77 -0.26,0.19 -0.6,0.29 -1.03,0.29 -0.2,0 -0.38,-0.01 -0.53,-0.03 -0.16,-0.02 -0.34,-0.05 -0.54,-0.1l0 -0.67c0.37,0.13 0.71,0.19 1.01,0.19 0.36,0 0.54,-0.1 0.54,-0.32 0,-0.11 -0.07,-0.19 -0.22,-0.26l-0.67 -0.28c-0.25,-0.11 -0.43,-0.25 -0.55,-0.41 -0.12,-0.16 -0.18,-0.35 -0.18,-0.56 0,-0.3 0.12,-0.53 0.37,-0.71 0.25,-0.18 0.58,-0.27 0.98,-0.27 0.13,0 0.29,0.01 0.46,0.03 0.17,0.02 0.33,0.05 0.49,0.09z"/>
  <polygon class="fil0" points="2.99,0.06 3.97,0.06 3.97,3.35 2.99,3.35 "/>
  <polygon class="fil0" points="7.12,0.06 7.12,0.67 5.67,0.67 5.67,1.4 6.93,1.4 6.93,1.95 5.67,1.95 5.67,2.71 7.15,2.71 7.15,3.35 4.73,3.35 4.73,0.06 "/>
  <polygon class="fil0" points="11.69,0.06 11.69,3.35 10.78,3.35 10.78,1.18 9.83,3.38 9.26,3.38 8.35,1.18 8.35,3.35 7.69,3.35 7.69,0.06 8.89,0.06 9.7,2.08 10.55,0.06 "/>
  <polygon class="fil0" points="14.84,0.06 14.84,0.67 13.39,0.67 13.39,1.4 14.65,1.4 14.65,1.95 13.39,1.95 13.39,2.71 14.87,2.71 14.87,3.35 12.44,3.35 12.44,0.06 "/>
  <polygon class="fil0" points="18.27,0.06 18.27,3.35 17.23,3.35 16.07,1.24 16.07,3.35 15.41,3.35 15.41,0.06 16.48,0.06 17.61,2.14 17.61,0.06 "/>
 </g>
</svg>
