<?xml version="1.0" encoding="UTF-8"?>
<!DOCTYPE svg PUBLIC "-//W3C//DTD SVG 1.1//EN" "http://www.w3.org/Graphics/SVG/1.1/DTD/svg11.dtd">
<!-- Creator: CorelDRAW -->
<svg xmlns="http://www.w3.org/2000/svg" xml:space="preserve" width="8.1174mm" height="2.587mm" version="1.1" style="shape-rendering:geometricPrecision; text-rendering:geometricPrecision; image-rendering:optimizeQuality; fill-rule:evenodd; clip-rule:evenodd"
viewBox="0 0 9.19 2.93"
 xmlns:xlink="http://www.w3.org/1999/xlink"
 xmlns:xodm="http://www.corel.com/coreldraw/odm/2003">
 <defs>
  <style type="text/css">
   <![CDATA[
    .fil0 {fill:#1662AD;fill-rule:nonzero}
   ]]>
  </style>
 </defs>
 <g id="Layer_x0020_1">
  <metadata id="CorelCorpID_0Corel-Layer"/>
  <path class="fil0" d="M-0 1.46c0,-0.81 0.66,-1.46 1.47,-1.46 0.44,0 0.84,0.2 1.1,0.51l-0.94 0c-0.12,0 -0.24,0.08 -0.31,0.14 -0.06,0.06 -0.65,0.66 -0.73,0.73 -0.08,0.07 -0.13,0.09 -0.23,0.09l-0.36 0zm0.64 0.42c0.1,0 0.16,-0.01 0.23,-0.08 0.08,-0.07 0.67,-0.66 0.73,-0.73 0.06,-0.06 0.19,-0.14 0.3,-0.14l0.92 0c-0.04,-0.1 -0.1,-0.2 -0.16,-0.29l-0.7 -0c-0.1,0 -0.19,0.05 -0.25,0.11 -0.06,0.06 -0.66,0.66 -0.72,0.72 0,0 -0.1,0.13 -0.31,0.13l-0.68 0c0.01,0.1 0.03,0.2 0.06,0.29l0.58 0zm0.31 0.43c0.1,0 0.16,-0.02 0.23,-0.09 0.09,-0.09 0.66,-0.67 0.73,-0.74 0.06,-0.06 0.19,-0.14 0.31,-0.14l0.7 0c-0.01,-0.1 -0.03,-0.19 -0.06,-0.28l-0.58 -0c-0.1,0 -0.2,0.05 -0.26,0.11 -0.07,0.06 -0.66,0.66 -0.72,0.72 0,0 -0.1,0.13 -0.31,0.13l-0.9 0c0.04,0.11 0.1,0.21 0.16,0.3l0.69 0zm-0.59 0.13c0.27,0.3 0.66,0.49 1.09,0.49 0.8,0 1.46,-0.66 1.47,-1.46l-0.36 -0c-0.1,0 -0.2,0.05 -0.26,0.11 -0.05,0.06 -0.66,0.68 -0.71,0.73 0,0 -0.11,0.13 -0.31,0.13l-0.91 0zm4.55 -0.8c-0.05,-0.09 -0.12,-0.23 -0.43,-0.31 -0.32,-0.08 -0.46,-0.11 -0.54,-0.13 -0.09,-0.02 -0.23,-0.07 -0.23,-0.25 0,-0.17 0.17,-0.26 0.35,-0.26 0.17,0 0.4,0.07 0.44,0.34l0.41 0 0 0.61zm2.17 -1.25l-0.69 0 -0.39 1.51 -0.39 -1.51 -0.69 0 0 0.48c-0.21,-0.56 -0.68,-0.58 -0.82,-0.58 -0.61,0 -0.82,0.38 -0.82,0.66 0,0.45 0.37,0.59 0.47,0.61 0.09,0.02 0.53,0.13 0.61,0.15 0.11,0.03 0.19,0.12 0.19,0.24 0,0.11 -0.08,0.29 -0.4,0.29 -0.32,0 -0.47,-0.17 -0.5,-0.38l-0.43 0c0,0 -0.02,0.77 0.95,0.77 0.41,0 0.63,-0.17 0.75,-0.36l-0 0.28 0.43 0 -0.02 -1.62 0.45 1.62 0.44 0 0.45 -1.62 -0.02 1.62 0.43 0 0 -0.4c0.1,0.2 0.33,0.48 0.82,0.48 0.56,0 0.83,-0.35 0.88,-0.78l-0.41 0c-0.03,0.21 -0.22,0.38 -0.46,0.38 -0.07,0 -0.55,-0.04 -0.55,-0.78 0,-0.51 0.26,-0.8 0.55,-0.8 0.09,0 0.4,0.04 0.44,0.4l0.41 0c-0.03,-0.52 -0.46,-0.77 -0.85,-0.77 -0.46,0 -0.72,0.24 -0.82,0.44l0 -0.34zm1.97 2.17l-0.07 -0.11 -0.05 0 0 0.11 -0.02 0 0 -0.26 0.07 0c0.05,0 0.08,0.02 0.08,0.07 0,0.05 -0.03,0.07 -0.05,0.07l0.07 0.12 -0.03 0zm-0.07 -0.24l-0.05 0 0 0.11 0.05 0c0.04,0 0.06,-0.02 0.06,-0.06 0,-0.03 -0.03,-0.05 -0.06,-0.05zm-0.01 0.32c0.06,0 0.11,-0.02 0.15,-0.06 0.04,-0.04 0.06,-0.09 0.06,-0.15 0,-0.05 -0.02,-0.11 -0.06,-0.15 -0.04,-0.04 -0.09,-0.06 -0.15,-0.06 -0.11,0 -0.21,0.09 -0.21,0.21 0,0.06 0.02,0.11 0.06,0.15 0.04,0.04 0.09,0.06 0.15,0.06zm-0.18 -0.21c0,-0.05 0.02,-0.09 0.05,-0.13 0.03,-0.03 0.08,-0.05 0.13,-0.05 0.05,0 0.09,0.02 0.13,0.05 0.03,0.03 0.05,0.08 0.05,0.13 0,0.1 -0.08,0.18 -0.18,0.18 -0.05,0 -0.09,-0.02 -0.13,-0.05 -0.03,-0.03 -0.05,-0.08 -0.05,-0.13z"/>
 </g>
</svg>
