<?xml version="1.0" encoding="UTF-8"?>
<!DOCTYPE svg PUBLIC "-//W3C//DTD SVG 1.1//EN" "http://www.w3.org/Graphics/SVG/1.1/DTD/svg11.dtd">
<!-- Creator: CorelDRAW -->
<svg xmlns="http://www.w3.org/2000/svg" xml:space="preserve" width="11.2929mm" height="2.5869mm" version="1.1" style="shape-rendering:geometricPrecision; text-rendering:geometricPrecision; image-rendering:optimizeQuality; fill-rule:evenodd; clip-rule:evenodd"
viewBox="0 0 19.81 4.54"
 xmlns:xlink="http://www.w3.org/1999/xlink"
 xmlns:xodm="http://www.corel.com/coreldraw/odm/2003">
 <defs>
  <style type="text/css">
   <![CDATA[
    .fil4 {fill:#E34237;fill-rule:nonzero}
    .fil2 {fill:#1466A9;fill-rule:nonzero}
    .fil1 {fill:#0E64A8;fill-rule:nonzero}
    .fil0 {fill:#0B62A7;fill-rule:nonzero}
    .fil3 {fill:#0C5FA4;fill-rule:nonzero}
   ]]>
  </style>
 </defs>
 <g id="Layer_x0020_1">
  <metadata id="CorelCorpID_0Corel-Layer"/>
  <path class="fil0" d="M9.51 3.18c0,0.31 -0,0.63 0,0.94 0,0.17 -0.04,0.32 -0.23,0.32 -0.19,0 -0.24,-0.15 -0.24,-0.32 0,-0.62 0,-1.23 -0,-1.85 -0,-0.16 0.05,-0.28 0.2,-0.32 0.16,-0.05 0.25,0.08 0.33,0.2 0.31,0.5 0.62,1 0.96,1.56 0.31,-0.49 0.59,-0.94 0.88,-1.39 0.05,-0.07 0.09,-0.15 0.14,-0.22 0.07,-0.09 0.16,-0.18 0.28,-0.14 0.13,0.04 0.19,0.15 0.19,0.29 -0,0.64 0,1.28 -0,1.93 -0,0.16 -0.07,0.28 -0.24,0.27 -0.17,-0.01 -0.22,-0.14 -0.22,-0.3l0 -0.96c-0.02,-0.01 -0.05,-0.01 -0.07,-0.02 -0.21,0.34 -0.42,0.68 -0.63,1.01 -0.23,0.37 -0.4,0.37 -0.63,0.02 -0.22,-0.34 -0.44,-0.69 -0.66,-1.04 -0.02,0.01 -0.05,0.02 -0.07,0.03z"/>
  <path class="fil0" d="M5.82 2.13c0.01,1.63 -1.55,2.72 -2.98,2.18 -0.2,-0.07 -0.39,-0.17 -0.3,-0.43 0.09,-0.27 0.3,-0.25 0.52,-0.17 0.64,0.22 1.23,0.11 1.69,-0.39 0.47,-0.51 0.57,-1.1 0.29,-1.75 -0.09,-0.21 -0.1,-0.4 0.13,-0.51 0.25,-0.12 0.37,0.06 0.46,0.25 0.14,0.29 0.2,0.6 0.19,0.82z"/>
  <path class="fil0" d="M12.37 3.2c0,-0.13 0.01,-0.25 -0,-0.38 -0.06,-0.81 0.42,-0.93 1.05,-0.88 0.18,0.02 0.32,0.11 0.31,0.31 -0.01,0.19 -0.15,0.28 -0.34,0.28 -0.13,-0 -0.25,-0 -0.38,0 -0.14,0.01 -0.19,0.09 -0.2,0.22 -0.01,0.16 0.09,0.18 0.22,0.18 0.3,-0 0.6,-0.01 0.91,0 0.2,0.01 0.49,-0.07 0.49,0.26 0,0.34 -0.29,0.28 -0.51,0.28 -0.29,0 -0.58,0 -0.87,0 -0.11,0 -0.24,-0.03 -0.23,0.16 0.01,0.15 0.06,0.24 0.22,0.24 0.34,0 0.68,0.01 1.02,0 0.2,-0 0.36,0.05 0.38,0.27 0.01,0.25 -0.17,0.31 -0.38,0.31 -0.33,0 -0.65,0.01 -0.98,-0 -0.47,-0.01 -0.69,-0.23 -0.7,-0.7 -0,-0.19 -0,-0.38 -0,-0.57z"/>
  <path class="fil0" d="M3.53 0c0.37,0 0.66,0.06 0.93,0.17 0.19,0.08 0.29,0.19 0.22,0.4 -0.08,0.21 -0.25,0.25 -0.43,0.18 -0.3,-0.12 -0.61,-0.16 -0.92,-0.1 -0.98,0.18 -1.56,1.17 -1.23,2.11 0.03,0.09 0.07,0.19 0.09,0.29 0.02,0.18 -0.08,0.29 -0.24,0.33 -0.18,0.04 -0.27,-0.07 -0.35,-0.22 -0.51,-0.95 -0.11,-2.27 0.87,-2.85 0.35,-0.21 0.73,-0.32 1.06,-0.31z"/>
  <path class="fil1" d="M15.18 4.4c-0.3,-0.07 -0.38,-0.31 -0.4,-0.57 -0.02,-0.43 -0.02,-0.85 -0,-1.28 0.01,-0.38 0.25,-0.6 0.63,-0.62 0.36,-0.01 0.73,-0.01 1.09,-0 0.19,0 0.36,0.06 0.36,0.29 -0,0.22 -0.15,0.3 -0.36,0.29 -0.33,-0 -0.65,0.01 -0.98,-0 -0.25,-0.01 -0.36,0.07 -0.36,0.34 0.03,1.23 -0.17,0.98 0.97,1.01 0.14,0 0.28,-0 0.41,0 0.14,0 0.25,0.05 0.29,0.19 0.03,0.14 0.04,0.28 -0.14,0.33 -0.5,-0.01 -1.01,-0.01 -1.51,0z"/>
  <path class="fil0" d="M7.45 3.64c0.27,-0.51 0.5,-0.96 0.74,-1.42 0.09,-0.17 0.18,-0.37 0.42,-0.24 0.24,0.13 0.12,0.32 0.03,0.48 -0.29,0.56 -0.58,1.11 -0.87,1.67 -0.07,0.14 -0.13,0.33 -0.33,0.32 -0.17,-0.01 -0.23,-0.17 -0.3,-0.31 -0.28,-0.54 -0.57,-1.08 -0.85,-1.63 -0.09,-0.17 -0.25,-0.38 0.01,-0.52 0.26,-0.15 0.34,0.1 0.43,0.27 0.23,0.44 0.46,0.88 0.73,1.38z"/>
  <path class="fil1" d="M3.57 1.05c0.66,0.01 1.21,0.53 1.22,1.14 0,0.17 -0,0.46 -0.15,0.46 -0.19,0.01 -0.46,-0.14 -0.5,-0.37 -0.07,-0.33 -0.19,-0.53 -0.56,-0.59 -0.21,-0.03 -0.33,-0.3 -0.34,-0.49 -0.01,-0.2 0.25,-0.07 0.32,-0.14z"/>
  <path class="fil1" d="M2.51 1.85c0.25,0.14 0.57,0.18 0.61,0.58 0.02,0.17 0.2,0.28 0.39,0.31 0.07,0.01 0.17,0.02 0.21,0.06 0.11,0.15 0.32,0.31 0.25,0.48 -0.07,0.18 -0.32,0.14 -0.51,0.11 -0.76,-0.12 -1.18,-0.79 -0.95,-1.54z"/>
  <path class="fil2" d="M2.2 3.76c-0.63,0.68 -1.37,0.83 -2.2,0.77 0,-0.21 0.14,-0.23 0.28,-0.22 0.22,0.02 0.42,-0.06 0.55,-0.21 0.36,-0.43 0.82,-0.41 1.37,-0.34z"/>
  <path class="fil2" d="M7.12 0.02c-0.05,0.2 -0.18,0.22 -0.33,0.21 -0.19,-0.02 -0.34,0.06 -0.49,0.16 -0.59,0.41 -0.59,0.41 -1.33,0.37 0.29,-0.55 1.13,-0.84 2.14,-0.74z"/>
  <path class="fil3" d="M15.18 4.4c0.51,-0.13 1.01,-0.13 1.51,0 -0.5,0.09 -1.01,0.09 -1.51,0z"/>
  <path class="fil4" d="M3.6 2.45c-0.13,-0.03 -0.22,-0.1 -0.22,-0.23 0,-0.15 0.1,-0.23 0.24,-0.22 0.14,0.01 0.23,0.11 0.21,0.25 -0.02,0.12 -0.11,0.19 -0.23,0.19z"/>
  <path class="fil0" d="M19.78 4.07c-0.02,-0.06 -0.05,-0.11 -0.08,-0.17 -0.3,-0.56 -0.61,-1.13 -0.91,-1.69 -0.07,-0.13 -0.13,-0.25 -0.29,-0.26 -0.17,-0.01 -0.23,0.12 -0.3,0.24 -0.32,0.6 -0.64,1.2 -0.96,1.79 -0.04,0.07 -0.06,0.13 -0.09,0.18 -0,0.16 0.07,0.25 0.18,0.28 0.15,0.05 0.23,-0.06 0.31,-0.16 0.11,-0.14 0.1,-0.42 0.31,-0.44 0.35,-0.04 0.71,-0.04 1.05,0 0.2,0.02 0.21,0.29 0.32,0.44 0.09,0.12 0.18,0.22 0.34,0.14 0.16,-0.08 0.15,-0.21 0.11,-0.35zm-1.08 -0.86c-0.08,0.16 -0.3,0.03 -0.47,0.07 0.02,-0.22 0.15,-0.35 0.24,-0.55 0.13,0.18 0.3,0.35 0.23,0.48z"/>
 </g>
</svg>
