<?xml version="1.0" encoding="UTF-8"?>
<!DOCTYPE svg PUBLIC "-//W3C//DTD SVG 1.1//EN" "http://www.w3.org/Graphics/SVG/1.1/DTD/svg11.dtd">
<!-- Creator: CorelDRAW -->
<svg xmlns="http://www.w3.org/2000/svg" xml:space="preserve" width="11.0621mm" height="2.0201mm" version="1.1" style="shape-rendering:geometricPrecision; text-rendering:geometricPrecision; image-rendering:optimizeQuality; fill-rule:evenodd; clip-rule:evenodd"
viewBox="0 0 19.03 3.47"
 xmlns:xlink="http://www.w3.org/1999/xlink"
 xmlns:xodm="http://www.corel.com/coreldraw/odm/2003">
 <defs>
  <style type="text/css">
   <![CDATA[
    .fil6 {fill:#3A3838;fill-rule:nonzero}
    .fil2 {fill:#393434;fill-rule:nonzero}
    .fil5 {fill:#373333;fill-rule:nonzero}
    .fil1 {fill:#363333;fill-rule:nonzero}
    .fil4 {fill:#353031;fill-rule:nonzero}
    .fil0 {fill:#353031;fill-rule:nonzero}
    .fil8 {fill:#363334;fill-rule:nonzero}
    .fil7 {fill:#343232;fill-rule:nonzero}
    .fil9 {fill:#363234;fill-rule:nonzero}
    .fil10 {fill:#1A938E;fill-rule:nonzero}
    .fil3 {fill:#089698;fill-rule:nonzero}
   ]]>
  </style>
 </defs>
 <g id="Layer_x0020_1">
  <metadata id="CorelCorpID_0Corel-Layer"/>
  <path class="fil0" d="M8.07 0.52c0.34,0 0.68,-0 1.03,0 0.24,0 0.37,0.11 0.37,0.31 0,0.19 -0.12,0.29 -0.36,0.29 -0.53,0 -1.05,0 -1.58,-0 -0.18,-0 -0.27,0.06 -0.26,0.25 0.01,0.25 0.01,0.5 0,0.75 -0,0.16 0.06,0.22 0.22,0.22 0.54,-0.01 1.08,-0 1.62,-0 0.22,0 0.34,0.1 0.36,0.28 0.02,0.17 -0.1,0.31 -0.28,0.31 -0.75,0.01 -1.5,0.01 -2.25,0 -0.18,-0 -0.27,-0.12 -0.27,-0.3 -0,-0.6 -0,-1.19 0,-1.79 0,-0.21 0.11,-0.32 0.33,-0.32 0.36,-0 0.71,-0 1.07,-0z"/>
  <path class="fil1" d="M0.87 1.74c0,0.43 0,0.85 -0,1.28 -0,0.29 -0.15,0.46 -0.42,0.46 -0.28,0 -0.45,-0.16 -0.45,-0.46 -0,-0.85 -0,-1.69 0,-2.54 0,-0.3 0.16,-0.47 0.44,-0.47 0.27,-0 0.43,0.16 0.43,0.47 0,0.42 0,0.84 0,1.26z"/>
  <path class="fil2" d="M14.43 2.94c-0.35,0 -0.7,0 -1.04,-0 -0.25,-0 -0.35,-0.09 -0.35,-0.35 -0,-0.58 -0,-1.15 0,-1.73 0,-0.23 0.12,-0.35 0.32,-0.34 0.19,0 0.29,0.12 0.29,0.34 0,0.41 0.01,0.83 -0,1.24 -0,0.18 0.06,0.24 0.24,0.24 0.53,-0.01 1.06,-0 1.6,-0 0.22,0 0.34,0.11 0.35,0.29 0.01,0.2 -0.1,0.31 -0.31,0.31 -0.36,0.01 -0.72,0 -1.08,0l0 0z"/>
  <path class="fil3" d="M4.05 2.69c-0.23,-0 -0.42,-0.15 -0.48,-0.32 -0.06,-0.17 -0,-0.3 0.13,-0.43 0.58,-0.57 1.14,-1.16 1.71,-1.73 0.2,-0.2 0.36,-0.24 0.54,-0.15 0.31,0.15 0.36,0.48 0.11,0.73 -0.49,0.49 -0.98,0.98 -1.48,1.47 -0.1,0.1 -0.19,0.2 -0.3,0.29 -0.09,0.07 -0.2,0.11 -0.25,0.14z"/>
  <path class="fil4" d="M11.27 2.94c-0.35,0 -0.7,0 -1.05,-0 -0.27,-0 -0.36,-0.08 -0.36,-0.35 -0,-0.57 -0,-1.14 0,-1.71 0,-0.24 0.1,-0.35 0.3,-0.35 0.2,-0 0.3,0.12 0.3,0.35 0,0.38 0,0.76 0,1.14 0,0.32 0,0.32 0.31,0.32 0.51,0 1.03,-0 1.54,0 0.21,0 0.32,0.1 0.33,0.28 0.01,0.21 -0.09,0.31 -0.31,0.32 -0.35,0.01 -0.71,0 -1.07,0z"/>
  <path class="fil5" d="M18.41 1.86c0,-0.33 -0,-0.66 0,-0.99 0,-0.24 0.15,-0.38 0.36,-0.34 0.17,0.03 0.26,0.15 0.26,0.32 0,0.59 0.01,1.18 -0.01,1.77 -0,0.1 -0.09,0.26 -0.18,0.29 -0.1,0.04 -0.28,0 -0.35,-0.07 -0.43,-0.4 -0.84,-0.82 -1.25,-1.23 -0.15,-0.15 -0.14,-0.3 -0.01,-0.43 0.13,-0.13 0.29,-0.13 0.44,0.01 0.23,0.23 0.46,0.47 0.69,0.7 0.02,-0.01 0.03,-0.01 0.05,-0.02z"/>
  <path class="fil3" d="M2.76 3.47c-0.03,0 -0.05,0 -0.08,0 -0.08,-0.02 -0.16,-0.05 -0.24,-0.07l0 0c-0.04,-0.11 -0.11,-0.21 -0.11,-0.32 -0.01,-0.68 -0,-1.37 -0.01,-2.05 -0,-0.25 -0.03,-0.5 -0.04,-0.75 0.12,-0.29 0.48,-0.38 0.71,-0.16 0.05,0.04 0.09,0.09 0.13,0.14 0,0.01 0,0.02 -0.01,0.03 -0.03,0.06 -0.07,0.12 -0.07,0.17 -0.01,0.38 -0,0.76 -0,1.13 0,0.44 -0.02,0.89 0.01,1.33 0.01,0.2 -0.04,0.32 -0.19,0.43 -0.04,0.03 -0.07,0.07 -0.1,0.11z"/>
  <path class="fil4" d="M15.83 1.29c0,0.15 0,0.3 -0,0.45 -0.01,0.18 -0.12,0.29 -0.3,0.29 -0.18,-0 -0.29,-0.1 -0.29,-0.29 -0,-0.13 -0.01,-0.26 -0,-0.39 0.01,-0.16 -0.06,-0.23 -0.22,-0.22 -0.25,0 -0.5,0 -0.75,-0 -0.2,-0 -0.3,-0.1 -0.3,-0.28 -0.01,-0.19 0.1,-0.31 0.3,-0.32 0.43,-0.01 0.86,-0 1.28,0 0.18,0 0.29,0.11 0.3,0.3 0.01,0.16 0,0.31 0,0.47z"/>
  <path class="fil6" d="M16.23 1.72c0,-0.29 -0,-0.58 0,-0.86 0,-0.22 0.11,-0.33 0.3,-0.34 0.19,-0 0.31,0.11 0.31,0.33 0.01,0.59 0,1.18 0,1.77 -0,0.22 -0.11,0.33 -0.31,0.32 -0.2,-0 -0.3,-0.11 -0.3,-0.33 -0,-0.29 -0,-0.59 -0,-0.88z"/>
  <path class="fil4" d="M11.69 1.12c-0.21,0 -0.42,0 -0.63,-0 -0.19,-0 -0.29,-0.11 -0.29,-0.29 0,-0.18 0.11,-0.3 0.29,-0.3 0.43,-0.01 0.87,-0.01 1.3,0 0.18,0 0.28,0.12 0.28,0.31 -0,0.18 -0.09,0.28 -0.28,0.29 -0.22,0.01 -0.45,0 -0.67,0z"/>
  <path class="fil7" d="M8.37 1.43c0.16,0 0.33,-0 0.49,0 0.18,0.01 0.29,0.12 0.29,0.3 0,0.18 -0.1,0.3 -0.29,0.3 -0.33,0.01 -0.67,0.01 -1,-0 -0.18,-0 -0.29,-0.13 -0.29,-0.31 0,-0.18 0.11,-0.29 0.3,-0.29 0.16,-0.01 0.33,-0 0.49,-0z"/>
  <path class="fil8" d="M2.23 2.37c-0.06,0.06 -0.12,0.12 -0.18,0.18 -0.2,0.18 -0.43,0.17 -0.61,-0.02 -0.18,-0.19 -0.19,-0.4 0,-0.59 0.25,-0.26 0.51,-0.51 0.77,-0.76 0.01,0.02 0.04,0.04 0.04,0.06 -0,0.38 -0.01,0.75 -0.01,1.13z"/>
  <path class="fil9" d="M3.11 0.28c0.01,-0.01 0.01,-0.01 0.01,-0.03 0.04,-0.04 0.08,-0.08 0.13,-0.12 0.2,-0.18 0.43,-0.17 0.61,0.02 0.17,0.19 0.18,0.41 -0.01,0.59 -0.24,0.24 -0.48,0.48 -0.73,0.72 -0,-0.39 -0.01,-0.79 -0.01,-1.18z"/>
  <path class="fil10" d="M3.11 0.28c0,0.39 0.01,0.79 0.01,1.18 -0,0.51 -0,1.03 -0.01,1.54 -0,0.27 -0.09,0.38 -0.36,0.46 0.03,-0.04 0.06,-0.08 0.1,-0.11 0.15,-0.11 0.2,-0.24 0.19,-0.43 -0.03,-0.44 -0.01,-0.89 -0.01,-1.33 -0,-0.38 -0,-0.76 0,-1.13 0,-0.06 0.05,-0.12 0.07,-0.17z"/>
  <path class="fil10" d="M2.23 2.37c0,-0.38 0.01,-0.75 0.01,-1.13 0,-0.02 -0.02,-0.04 -0.04,-0.06 0.01,-0.17 0.02,-0.34 0.04,-0.52 0.01,-0.13 0.03,-0.25 0.04,-0.38 0.01,0.25 0.04,0.5 0.04,0.75 0.01,0.68 -0,1.37 0.01,2.05 0,0.11 0.07,0.21 0.11,0.32 -0.16,-0.07 -0.19,-0.21 -0.2,-0.37 -0.01,-0.22 -0.01,-0.44 -0.01,-0.66z"/>
  <path class="fil10" d="M2.44 3.4c0.08,0.02 0.16,0.05 0.24,0.07 -0.08,-0.02 -0.16,-0.05 -0.24,-0.07z"/>
 </g>
</svg>
