<?xml version="1.0" encoding="UTF-8"?>
<!DOCTYPE svg PUBLIC "-//W3C//DTD SVG 1.1//EN" "http://www.w3.org/Graphics/SVG/1.1/DTD/svg11.dtd">
<!-- Creator: CorelDRAW -->
<svg xmlns="http://www.w3.org/2000/svg" xml:space="preserve" width="11.8137mm" height="2.3628mm" version="1.1" style="shape-rendering:geometricPrecision; text-rendering:geometricPrecision; image-rendering:optimizeQuality; fill-rule:evenodd; clip-rule:evenodd"
viewBox="0 0 20.77 4.15"
 xmlns:xlink="http://www.w3.org/1999/xlink"
 xmlns:xodm="http://www.corel.com/coreldraw/odm/2003">
 <defs>
  <style type="text/css">
   <![CDATA[
    .fil1 {fill:#85817F;fill-rule:nonzero}
    .fil2 {fill:#315D88;fill-rule:nonzero}
    .fil0 {fill:#325C88;fill-rule:nonzero}
   ]]>
  </style>
 </defs>
 <g id="Layer_x0020_1">
  <metadata id="CorelCorpID_0Corel-Layer"/>
  <polygon class="fil0" points="5.56,1.7 6.25,1.7 6.49,2.81 6.85,1.7 7.53,1.7 7.89,2.81 8.14,1.7 8.82,1.7 8.31,3.68 7.6,3.68 7.19,2.44 6.79,3.68 6.08,3.68 "/>
  <polygon class="fil0" points="12.27,1.7 12.96,1.7 13.86,2.8 13.86,1.7 14.55,1.7 14.55,3.68 13.86,3.68 12.96,2.6 12.96,3.68 12.27,3.68 "/>
  <polygon class="fil0" points="14.73,1.66 16.63,1.66 16.63,2.15 15.99,2.15 15.99,3.64 15.37,3.64 15.37,2.15 14.73,2.15 "/>
  <polygon class="fil0" points="16.89,1.7 18.52,1.7 18.52,2.12 17.5,2.12 17.5,2.44 18.45,2.44 18.45,2.84 17.5,2.84 17.5,3.24 18.55,3.24 18.55,3.68 16.89,3.68 "/>
  <polygon class="fil0" points="18.91,1.7 19.45,1.7 19.45,2.45 20.02,1.7 20.74,1.7 20.1,2.45 20.77,3.68 20.1,3.68 19.73,2.87 19.45,3.2 19.45,3.68 18.91,3.68 "/>
  <polygon class="fil1" points="11.21,3.01 11.75,3.01 11.75,1.7 11.21,1.7 "/>
  <path class="fil0" d="M9.27 1.7l1.53 0 0 0.17 -1.23 0 0 0.72 1.09 0 0 0.2 -1.09 0 0 0.72 1.23 0 0 0.17 -1.53 0c-0.14,0 -0.25,-0.11 -0.25,-0.25l0 -1.49c0,-0.14 0.11,-0.25 0.25,-0.25z"/>
  <polygon class="fil1" points="1.62,1.6 2.07,1.37 2.51,2.33 3.06,2.1 3.23,2.45 3.8,2.18 3.95,2.5 4.44,2.25 4.9,3.21 2.82,4.15 "/>
  <path class="fil2" d="M0.38 0.3l3.09 0 0 1.77 0.3 -0.14 0 -1.93 -3.6 0c-0.09,0 -0.17,0.07 -0.17,0.16l0 3.35c0,0.09 0.07,0.17 0.17,0.17l2.09 0 -0.17 -0.3 -1.7 0c-0.05,0 -0.08,-0.04 -0.08,-0.08l0 -2.92c0,-0.05 0.04,-0.08 0.08,-0.08z"/>
  <polygon class="fil1" points="11.05,3.22 11.17,3.16 11.28,3.41 11.43,3.35 11.47,3.44 11.62,3.37 11.66,3.45 11.78,3.38 11.9,3.63 11.36,3.88 "/>
 </g>
</svg>
