<?xml version="1.0" encoding="UTF-8"?>
<!DOCTYPE svg PUBLIC "-//W3C//DTD SVG 1.1//EN" "http://www.w3.org/Graphics/SVG/1.1/DTD/svg11.dtd">
<!-- Creator: CorelDRAW -->
<svg xmlns="http://www.w3.org/2000/svg" xml:space="preserve" width="15.4765mm" height="2.3558mm" version="1.1" style="shape-rendering:geometricPrecision; text-rendering:geometricPrecision; image-rendering:optimizeQuality; fill-rule:evenodd; clip-rule:evenodd"
viewBox="0 0 35.18 5.35"
 xmlns:xlink="http://www.w3.org/1999/xlink"
 xmlns:xodm="http://www.corel.com/coreldraw/odm/2003">
 <defs>
  <style type="text/css">
   <![CDATA[
    .fil0 {fill:#2B56A3;fill-rule:nonzero}
   ]]>
  </style>
 </defs>
 <g id="Layer_x0020_1">
  <metadata id="CorelCorpID_0Corel-Layer"/>
  <path class="fil0" d="M15.54 2.67c0.52,0.62 1.18,1.77 1.58,2.63l1.54 0c-0.44,-1 -1.32,-2.35 -1.81,-2.89 0.68,-0.72 1.26,-1.52 1.76,-2.41l-1.54 0c-0.44,0.76 -0.94,1.46 -1.54,2.11l0 -2.07 -1.32 0 0 5.27 1.32 0 0 -2.65z"/>
  <path class="fil0" d="M3.41 0.04c-0.26,0.72 -0.58,1.42 -0.96,2.09 -0.38,-0.66 -0.72,-1.36 -0.96,-2.09l-1.48 0c0.44,1.14 1.04,2.21 1.81,3.17l0 2.11 1.32 0 0 -2.11c0.76,-0.96 1.36,-2.03 1.81,-3.17l-1.52 0z"/>
  <path class="fil0" d="M6.14 0.04c-0.66,1.32 -1.44,3.57 -1.85,5.27l1.4 0c0.06,-0.28 0.14,-0.58 0.22,-0.88l1.87 0c0.08,0.3 0.16,0.6 0.22,0.88l1.4 0c-0.4,-1.72 -1.2,-3.97 -1.85,-5.27l-1.42 0zm0.06 3.35c0.2,-0.68 0.42,-1.38 0.64,-2.01 0.22,0.64 0.44,1.32 0.64,2.01l-1.28 0z"/>
  <path class="fil0" d="M12.62 2.51l-1.24 -0.52c-0.3,-0.14 -0.44,-0.22 -0.44,-0.44 0,-0.26 0.1,-0.36 0.3,-0.4 0.4,-0.06 1.24,0 2.03,0.18l0 -1.16c-0.58,-0.1 -1.16,-0.16 -1.77,-0.16 -0.3,0 -0.6,0.02 -0.88,0.06 -0.7,0.12 -1.04,0.54 -1.04,1.42 0,0.62 0.22,1.1 0.84,1.36l1.24 0.52c0.3,0.14 0.44,0.22 0.44,0.44 0,0.26 -0.1,0.36 -0.3,0.4 -0.34,0.04 -1.22,0 -2.03,-0.18l0 1.16c0.58,0.1 1.16,0.16 1.77,0.16 0.3,0 0.6,-0.02 0.88,-0.08 0.7,-0.12 1.04,-0.52 1.04,-1.42 -0.02,-0.7 -0.24,-1.08 -0.84,-1.34z"/>
  <path class="fil0" d="M20.16 0.04c-0.66,1.32 -1.44,3.57 -1.85,5.27l1.4 0c0.06,-0.28 0.14,-0.58 0.22,-0.88l1.87 0c0.08,0.3 0.16,0.6 0.22,0.88l1.4 0c-0.4,-1.72 -1.18,-3.97 -1.85,-5.27l-1.42 0zm0.08 3.35c0.2,-0.68 0.42,-1.38 0.64,-2.01 0.22,0.64 0.44,1.32 0.64,2.01l-1.28 0z"/>
  <path class="fil0" d="M29 0.04c-0.2,1.08 -0.48,2.41 -0.8,3.57 -0.32,-1.18 -0.64,-2.51 -0.82,-3.57l-1.28 0c-0.2,1.06 -0.5,2.39 -0.82,3.57 -0.3,-1.18 -0.6,-2.49 -0.8,-3.57l-1.4 0c0.34,1.58 1,3.87 1.48,5.27l1.44 0c0.22,-0.78 0.48,-1.85 0.72,-2.89 0.24,1.04 0.5,2.09 0.72,2.89l1.44 0c0.48,-1.4 1.14,-3.69 1.48,-5.27l-1.36 0z"/>
  <path class="fil0" d="M33.77 5.31l1.4 0c-0.4,-1.72 -1.18,-3.97 -1.85,-5.27l-1.4 0c-0.66,1.32 -1.46,3.57 -1.85,5.27l1.4 0c0.06,-0.28 0.14,-0.58 0.22,-0.88l1.87 0c0.06,0.3 0.14,0.62 0.2,0.88zm-1.79 -1.93c0.2,-0.68 0.42,-1.38 0.64,-2.01 0.22,0.64 0.44,1.32 0.64,2.01l-1.28 0z"/>
 </g>
</svg>
